<svg xmlns="http://www.w3.org/2000/svg" viewBox="0 0 342.22 328.01">
  <title>Asset 8</title>
  <g id="Layer_2" data-name="Layer 2">
    <g id="Layer_1-2" data-name="Layer 1">
      <path id="liquid" d="M225.38,118.61c-5.12,0-29.68-46.3-99-6.34l-4.68,4.15a21.13,21.13,0,0,1-27.32,
0L84,107.27V291.33c0,15.64,14.33,28.32,32,28.32H260c17.67,0,32-12.68,32-28.32V121.43l-10.34-9.16a21.16,21.16,
0,0,0-27.32,0l-4.68,4.15a21.13,21.13,0,0,1-27.32,0" fill="none" stroke="#fff" stroke-miterlimit="10" stroke-width="8"/>
      <path d="M84,84H292V304.81c0,10.6-14.33,19.2-32,19.2H116c-17.67,0-32-8.6-32-19.2Z" fill="none" stroke="#000" stroke-miterlimit="10" stroke-width="8"/>
      <path d="M84,84H28A24,24,0,0,0,4,108V276H36V116H84" fill="none" stroke="#000" stroke-miterlimit="10" stroke-width="8"/>
      <path d="M333.46,4H84V52H291.88Z" fill="none" stroke="#000" stroke-miterlimit="10" stroke-width="8"/>
      <path d="M292,84H84V52H292Z" fill="none" stroke="#000" stroke-miterlimit="10" stroke-width="8"/>
    </g>
  </g>
</svg>