<svg xmlns="http://www.w3.org/2000/svg" viewBox="0 0 342.22 331.11">
  <title>Asset 7</title>
  <g id="Layer_2" data-name="Layer 2">
    <g id="Layer_1-2" data-name="Layer 1">
      <path id="liquid" d="M225.38,164.14c-5.12,0-29.68-36.53-99-5l-4.68,3.27a25.59,25.59,0,0,1-27.32,0L84,155.19V300.41c0,12.34,14.33,22.34,32,22.34H260c17.67,0,32-10,32-22.34v-134l-10.34-7.22a25.59,25.59,0,0,0-27.32,0l-4.68,3.27a25.59,25.59,0,0,1-27.32,0" fill="none" stroke="#fff" stroke-miterlimit="10" stroke-width="8"/>
      <path d="M84,87.1H292V307.91c0,10.6-14.33,19.2-32,19.2H116c-17.67,0-32-8.6-32-19.2Z" fill="none" stroke="#000" stroke-miterlimit="10" stroke-width="8"/>
      <path d="M84,87.1H28a24,24,0,0,0-24,24v168H36v-160H84" fill="none" stroke="#000" stroke-miterlimit="10" stroke-width="8"/>
      <path d="M333.46,7.1H84v48H291.88Z" fill="none" stroke="#000" stroke-miterlimit="10" stroke-width="8"/>
      <path d="M292,87.1H84v-32H292Z" fill="none" stroke="#000" stroke-miterlimit="10" stroke-width="8"/>

      <path id="pouring" d="M91.51 314.79 138.14 279.1 182.43 198.59 220.19 128.89 250.69 38.13 310.23 4 326.93 4 333.46 7.1 292 55.1 292 307.91 280.3 322.75 251.41 327.11 127.98 327.11" fill="none" stroke="#000" stroke-miterlimit="10" stroke-width="8"/>

    </g>
  </g>
</svg>