<svg xmlns="http://www.w3.org/2000/svg" viewBox="0 0 1495.68 671.96"><defs><style>.cls-1,.cls-3,.cls-4{fill:#fff;}.cls-2,.cls-5,.cls-6,.cls-7{fill:none;}.cls-2,.cls-3,.cls-4,.cls-5,.cls-6,.cls-7{stroke:#1d1d1b;}.cls-2,.cls-3,.cls-6,.cls-7{stroke-miterlimit:10;}.cls-2,.cls-3,.cls-4,.cls-5{stroke-width:6px;}.cls-4,.cls-5,.cls-7{stroke-linecap:round;}.cls-4,.cls-5{stroke-linejoin:round;}.cls-6,.cls-7{stroke-width:5px;}</style></defs><g id="Layer_2" data-name="Layer 2"><g id="Layer_1-2" data-name="Layer 1"><g id="camp"><path class="cls-1" d="M199.3,169.74c1.86.53,3.6,1,5.23,1.38A16.54,16.54,0,0,0,199.3,169.74ZM876.59,548l1,.19v0Zm-799-220,4.29-9.09s8.94-19.23,30-35.27c0,0-7.91,28.63-16.4,33-2,1-2.25,1.71-1.41,2.13-2.44,3.74-7.2,11.28-7.26,13.4A62.24,62.24,0,0,0,77.56,328Zm1395,292.9c-5.12-2.62-33.6-3.54-42-7.35s-36.88,1.05-38.33-3.41c-1-3-5-25.63-7.54-40.27,0,0,22.11-25.22,22.24-54.23s3.15-56.43,3.15-56.43,1.84-30.72,1.84-39.12,3.15-42.52,3.15-42.52a83.5,83.5,0,0,0,1-11.7h0A131.11,131.11,0,0,0,1388.47,282q-1.82-2.34-3.78-4.67c-40.36-47.64-51-54.86-51-54.86L1322.19,210l.09-1.67s3.25-14.47,3.15-15.16,2-10.24,2-10.24,7.87.79,9.45.59,11.71-.59,13.78-1,7.38-6.2,7.68-6.89a39,39,0,0,0,.59-7.68c-.2-1.08-3.55-7.48-3.55-7.48s2.27-6.4,4.33-6.5,4.53-6.3,5.12-7.48,7.58-3.05,10.83-3.54,4.92-5.12,5.12-6.69-1.58-5.81-2.56-8.08,1.67-4.92,2.56-6.49,7.68-10.34,9.84-11-2.56-6.3-2.56-6.3-5.71-4.33-7.87-5.9,17.91-18.9,17.91-18.9-5.7-2.36-6.49-3.15-3.55-6.7-3.55-6.7-16.63-10.53-17.12-10.63-2.46-3-6.11-.19-1.87.09-2.36-1.58-5.41,1.38-8.66,7.88a44.74,44.74,0,0,0-4.07,11.41s-3.81.3-4.59.4-14.47-10-15-11-27.36-8.07-27.36-8.07-15.16-2.66-16.14-2.36-12,5.51-12,5.51L1265.38,66s-9.54,1.48-11.41,1.38-13.59,1.18-25,9.06,4.73,12.3,6.7,16.14-.3,4.43-5.32,7.88-2.46,3.74-2.36,11.81,12.8,14.37,12.8,14.37c-1.58,8.27-.27,15.49-2.37,20.21s3.94,7.22-16.27,21.26c0,0,13.91,9.72,14.44,20.48s.52,22.7.52,23.36-2.75,17.45,17.85,4.46q4.1-2.58,7.67-4.9h0l2.61-1.69c3.6-1.82,10.42-3.44,17.27,4.76,10,11.95,15,11.55,10.5,16.8a58.49,58.49,0,0,1-8.28,7.24c.08,3.17.21,10.5,0,11.93-.3,1.83-3.37,21.39-3.5,22.83s0,41.48,0,41.48-.45,7.71-.76,14.45c-.2,4.21-.34,8.05-.29,9.38.13,3.46.26,20.26,2.89,25.25s4.85,9.58,5.25,13.13-.13,8.79,2.88,13.65a73.77,73.77,0,0,0,12.6,15c4.86,4.33,8.93,5.64,12.6,8.14a10.32,10.32,0,0,1,3.37,5,25.89,25.89,0,0,1,1.62,8.91c-.13,3.28-1.8,13.91-2.21,18.37a44.54,44.54,0,0,1-2.51,10.76c-.79,2.1-3.42,9.19-3.42,9.19h0l-16.52-16.53-46.2-45.14s-28.35-23.37-31-26-11.28-11.55-25.19-27.83-21.79-11-21.79-11c-9.31.69-18.34,7.22-26.44,16.12-19.65,21.59-33.93,57.12-33.93,57.12s-10.9,7.21-44.1,69.82-58.8,69.89-58.8,69.89c-9,4.72-32.68,14.56-35.24,16.73s-10.73,3.94-15.55,4.92-7.19,1-17.33,1-11.68,4.33-11.68,4.33,1,7.18,11.49,7.08,12.33.79,12.33.79l6.61,1.7c8.4,1.23,14.13,1.49,21.83.17a23.44,23.44,0,0,0,6.1-2.11,5.67,5.67,0,0,1,2.63-.47l17.76.88a46.33,46.33,0,0,0,5,0l17.11-.94c14.08-2.76,16.54-3.84,17.33-6.9,0,0,2.16,4.66,13.84,14.77s30.72,17.72,56.44,23.36,56.83,5.12,58.27,5.25,55.91,0,55.91,0l81.11,0h10.5s31,3.35,38.06-6.62,7.09-13.13,7.09-13.13.66,4.47,1.05,13.39-4.59,7.22,10.76,15.44,22.18,3.2,23.37,3.46,16.93,3.81,23.23,5,11.28.92,15.61-2.36-14.43-5.78-15.61-6.3c-.6-.27-6-2.55-11.23-4.73h11.23s17.85-.66,23.75,1,34.65,0,34.65,0S1477.67,623.52,1472.56,620.89Zm-299.24-73.23H1071.73a14.94,14.94,0,0,1-5.77-8.14c-1.32-5.25-2.1-20.34,13.38-28.35s37.54-34.12,37.54-34.12l41.74-39.64S1173,428,1172,424.57c.39.65,12.87,21.65,13.64,23.08s26.38,46.85,26.51,47.51,36.75,47,40.43,51.18Zm-.66-212.06a39.76,39.76,0,0,0,3.89-1C1175.3,334.9,1174,335.22,1172.66,335.6ZM1043.12,477.05c3.94,1.57,8.27,4.36,5.77-4.84-1.24-4.58-2.44-6.17-3.67-7.34.58.3,13.13,6.82,13.39,1.94s-7-5.91-7.62-6.83a7.81,7.81,0,0,0,3.42-6.82c-.13-4.73-2.6-1.71-4.78-5.51s-1.79-1.45-3.36-5.52-3.67-6.05-1-9.18c-2,2.23-9.19,13-10.5,16.27s-.66,8.79-1,12.08c-.14,1.22-.42,3.49-.72,6.07C1033,467.37,1039.18,475.47,1043.12,477.05ZM146.36,580.11c-26.55,9.82-35.14-2.13-42.9-7.94a21.12,21.12,0,0,0-2.18-1.45c-8.5-4.82-30.5,15.06-30.5,15.06s-6.37-.58-10.81.77S53,605.08,53,605.08s-.05.19-.15.53c-1,3.51-6.18,23.23.15,23.41,6.95.19,9.65-3.09,15.44-12,0,0,25.87-2.19,42.47-5.63s31.68-6.12,35.43-4.88l2.67.88c.58-10.84,1.81-22.29,1.81-22.29Q148.55,582.61,146.36,580.11Zm731.27-32c-.69-.13-1.39-.24-2.1-.34h0l-.95-.14h-.1l-.28,0-31.84-4.75L950.9,514.62C941,476.54,893.27,456,844.31,468.74l-34.25,8.91c-6.25,1.63-12.51.67-16.89-2.26q-4.62,7.88-9.38,14.8L674.28,515.35,566.11,501.71l-9.24-1.38-7.41-1.1L534.64,497l-59.72-8.9c-23.81-3.54-46.71.38-64.68,9.71C411,475.93,376,467,376,467s-63.43,17.86-82.1,17.28c0,0-9.46-32-12.35-41.31s-6-54.24-8.11-69.48-1.74-35.13-2.32-48.67,4.83-56.92,3.86-76-31.28-46.71-31.28-46.71H196.89s-3.22,2.71-6.95,1.55-.77-6.44-.26-22.91c.3-9.75,5.46-11.31,9.62-10.95l-1.71-.5s-20.48-3.12-31.26-16.74a1.47,1.47,0,0,0-2.53.45c-.29.83-.66,1.82-1.1,2.9h0c.11.7,4.23,29.62-16.18,42.08,0,0-4.38,2-10.32,4.93-2.33,1.15-4.9,2.42-7.54,3.75-10.79,5.42-22.77,11.86-24.42,14.48H89.57S69.23,217.62,60,251c0,0-32.11,76.18-42.21,85.19,0,0-3.28,12.93,14.29,17.63,0,0,13.44,17.47,44.33,18.33l1.23.48c6.53,2.54,37.51,14.7,56.09,23.28,7.73,3.57,13.31,6.52,14.09,7.9,0,0-.13,24-2.91,38.59a39.8,39.8,0,0,1-1.91,7.16s4.92,13.7,3.76,21.42c0,0,.1,19.16-4.24,28.47,0,0,1.2,8.5,6.17,1.06a23.27,23.27,0,0,0,4.57-5.81s-.95,13.68,4,14.79c0,0,.72.45,1.95-.92a25.39,25.39,0,0,1,1.51,10.86l8.34,29.34a211.29,211.29,0,0,0,5.08,20.79c5.59,18.43,12,28,17.28,34.65,0,0,116.65-24.56,137.76-39.75,13.63-9.8,28.87-10.32,45.25-20.94l-.07.53,115,17.13-43.79,11.41-.27.07a.67.67,0,0,0-.19,0l-.39.09-.62.16-1.48.38h0v0a72.18,72.18,0,0,0-11.21,4.3c-.62.3-1.23.6-1.84.92l-.15.08c-.65.34-1.29.68-1.93,1-.85.47-1.69,1-2.52,1.48q-2.49,1.53-4.82,3.24-2.17,1.59-4.22,3.34c-.37.31-.72.62-1.08.94l-.68.61c-.57.53-1.14,1.06-1.7,1.6-.3.29-.6.58-.89.89s-.43.43-.64.65l-.84.88q-2.25,2.41-4.28,5c-.67.87-1.32,1.75-1.95,2.65-1,1.39-1.91,2.83-2.8,4.28-.16.26-.32.52-.47.78-.27.44-.52.89-.77,1.34s-.49.89-.73,1.34-.56,1.06-.82,1.59-.42.85-.62,1.27c-.5,1-1,2.08-1.4,3.14-.16.37-.31.75-.46,1.12-.48,1.2-.93,2.41-1.33,3.63-.16.45-.3.9-.44,1.35-.51,1.58-.95,3.19-1.33,4.81-.17.69-.33,1.38-.47,2.08-.09.42-.17.85-.25,1.28,0,.14-.06.28-.08.42-.07.37-.14.74-.19,1.11-.16.94-.3,1.89-.42,2.84-.24,1.9-.39,3.82-.47,5.75-.07,1.7-.09,3.4,0,5.12A70,70,0,0,0,393,659.83h0l20.38-5.31h0l25.91-6.75,46.59-12.13h0l13-3.37,13-3.37,20.37-5.31,135-35.13,2-.52,126,18.77,20.48,3,26.06,3.88,46.85,7,26,3.89,20.5,3.05C940.78,590,915.14,554.87,877.63,548.16Zm-678.1-48.88c-5.11-3.35-8.56-10.58-8.56-10.58l-2.39-30.06s1.23-13.38.07-36.8a56,56,0,0,1,13.13-38.6s17-35.26,21.1-43.24,2.83-42.47,2.83-42.47l-.54-4.89A147,147,0,0,1,235.75,341c1.28,27.66.64,37.6,3.86,54.83s-.65,28.68,2.57,38.59,12.61,35.32,12.61,35.32l7.47,16.92S222.94,488.49,199.53,499.28Z"/><path class="cls-2" d="M1155.73,399.35s13,15,16.27,25.2"/><path class="cls-2" d="M1172,424.57v0c.39.65,12.87,21.65,13.64,23.08s26.38,46.85,26.51,47.51,36.75,47,40.43,51.18l-79.27,1.32H1071.73a14.94,14.94,0,0,1-5.77-8.14c-1.32-5.25-2.1-20.34,13.38-28.35s37.54-34.12,37.54-34.12l41.74-39.64S1173,428,1172,424.57"/><path class="cls-2" d="M1313.22,623s-5.9-24.33-7.35-33-10.5-22.43-10.5-22.43-8.66-12.74-16-17.85-23.36,3.41-23.36,3.41l-3.41-6.83s15.75-4.46,32.81-47.77c16.71-42.41,27.37-33,27.81-32.56"/><path class="cls-2" d="M1071.73,547.66s-19.42.26-24.08,19.75c-.33,1.35.79,9.15,0,12.2s-3.25,4.14-17.33,6.9l-17.11.94a46.33,46.33,0,0,1-5,0l-17.76-.88a5.67,5.67,0,0,0-2.63.47,23.44,23.44,0,0,1-6.1,2.11c-7.7,1.32-13.43,1.06-21.83-.17l-6.61-1.7s-1.9-.88-12.33-.79-11.49-7.08-11.49-7.08,1.54-4.33,11.68-4.33,12.5,0,17.33-1,13-2.75,15.55-4.92,26.28-12,35.24-16.73c0,0,25.59-7.29,58.8-69.89s44.1-69.82,44.1-69.82,14.28-35.53,33.93-57.12c8.1-8.9,17.13-15.43,26.44-16.12,0,0,7.87-5.25,21.79,11s22.57,25.2,25.19,27.83,31,26,31,26l46.2,45.14L1313.21,466h0"/><path class="cls-2" d="M1356.54,284.38s7.08,42.66,8.4,51.45,6.3,42.52,6.3,42.52,8.13,39.38,7.08,49.35a65.65,65.65,0,0,0,.1,16.54l-3.31,14.12"/><path class="cls-2" d="M1414.28,627.19h13s17.85-.66,23.75,1,34.65,0,34.65,0-8-4.72-13.12-7.35-33.6-3.54-42-7.35-36.88,1.05-38.33-3.41c-1-3-5-25.63-7.54-40.27-1.27-7.22-2.17-12.49-2.17-12.49l-4.1-48.56s-1.28-37.93-3-48.56c-.1-.61-.21-1.25-.32-1.9-1.92-10.77-6.24-27-6.24-27"/><path class="cls-2" d="M1047.65,579.61s2.16,4.66,13.84,14.77,30.72,17.72,56.44,23.36,56.83,5.12,58.27,5.25,55.91,0,55.91,0l81.11,0h10.5s31,3.35,38.06-6.62,7.09-13.13,7.09-13.13.66,4.47,1.05,13.39-4.59,7.22,10.76,15.44,22.18,3.2,23.37,3.46,16.93,3.81,23.23,5,11.28.92,15.61-2.36-14.43-5.78-15.61-6.3c-.6-.27-6-2.55-11.23-4.73l-9.9-4.15"/><line class="cls-2" x1="1349.71" y1="524.56" x2="1368.87" y2="603.31"/><path class="cls-2" d="M1286.45,195.13s-7.28,5.53-21.21,14.66l-2.61,1.69h0q-3.57,2.32-7.67,4.9c-20.6,13-17.85-3.8-17.85-4.46s0-12.6-.52-23.36-14.44-20.48-14.44-20.48c20.21-14,14.17-16.53,16.27-21.26s.79-11.94,2.37-20.21a153.78,153.78,0,0,1,5.51-19.16s14.3,2.62,15.75,2.62c.87,0,3.37,1.72,5.21,3.09,1.21.9,2.14,1.64,2.14,1.64s1.27,2.31,2.71,5.38a68.43,68.43,0,0,1,2.8,6.69c2,5.65,13.91,12.34,15,18.38s0,21.78,0,21.78,2.23-9.58,8.4-15.48,6.7-8,11.29-14.18,6.3-1.44,12.6,0,3.54,6.69,4.72,15.23-17.06,7.87-17.58,15.48-4.2,16.15-4.2,17.85,5.77,11.81,5.77,11.81L1322.19,210l11.51,12.44s10.63,7.22,51,54.86q2,2.32,3.78,4.67a131.15,131.15,0,0,1,27.64,83.9,83.5,83.5,0,0,1-1,11.7s-3.15,34.13-3.15,42.52-1.84,39.12-1.84,39.12-3,27.43-3.15,56.43-22.24,54.23-22.24,54.23"/><polyline class="cls-2" points="1132.37 363.92 1146.09 355.63 1146.12 355.61"/><path class="cls-3" d="M1278.62,312.06l2.58,2.77s-.13-40,0-41.48,3.2-21,3.5-22.83c.24-1.43.11-8.76,0-11.93h0l-10.88,7.73a153.72,153.72,0,0,0-12.5,9.44,91.19,91.19,0,0,1-45.16,20.17c-14.61,2.19-30.28,5.48-35.79,10,0,0-35,11.68-43.31,26,0,0-18.77,20.56-29.13,26.75s-38.59,32.83-38.59,32.83-9.84,10.9-12.08,12.87-31.49,42.78-31.76,47.51-2.88,19.42-1.57,27.82,1,22.18,2.89,23.63,4.85.65,5-3.68c.08-2.71.63-8,1.12-12.3.3-2.58.58-4.85.72-6.07.39-3.29-.26-8.8,1-12.08s8.53-14,10.5-16.27,11.55-14.31,13.12-15,1.05,9.85,3.15,15.49,2.24,13.39,6.57,8.4,7-10.37,7.61-13.12,2.76-16.8,2.62-18.11.27-12.87.27-12.87l1.31-4.72s49-25.59,52.5-29.14l11.69-11.7s3.07-3.64,7.24-8.3h0c6.15-6.87,32.91-10,37.6-12.85"/><path class="cls-3" d="M1265.24,209.79c3.6-1.82,10.42-3.44,17.27,4.76,10,11.95,15,11.55,10.5,16.8a58.49,58.49,0,0,1-8.28,7.24"/><path class="cls-3" d="M1336.06,235.55c-18.37,1.45-35.44,31.24-35.44,31.24s1.32,15.88,1.32,24.15c0,2,1.28,6.3,3.2,11.55h0c5.88,16.06,17.8,41.46,17.8,41.46l7.87,43.05s3.68,20.61,3.41,29.4,12.6,36,12.6,36a143.32,143.32,0,0,1,1.32,32.29c-1.45,16.14,1.57,39.9,1.57,39.9s-19.69-5.91-32.55-17.07-8.79-9.71-9.45-15.22,5.51-26.25,5.51-26.25,2.63-7.09,3.42-9.19a44.54,44.54,0,0,0,2.51-10.76c.41-4.46,2.08-15.09,2.21-18.37a25.89,25.89,0,0,0-1.62-8.91,10.32,10.32,0,0,0-3.37-5c-3.67-2.5-7.74-3.81-12.6-8.14a73.77,73.77,0,0,1-12.6-15c-3-4.86-2.49-10.11-2.88-13.65s-2.63-8.14-5.25-13.13-2.76-21.79-2.89-25.25c-.05-1.33.09-5.17.29-9.38.31-6.74.76-14.45.76-14.45s-3.15-3.29-7.35-8.14-7.6-4.2-7.6-4.2l-5.47.49-65.15,26c-10.12,3.1-15.82,4.74-19,5.62h-.07a39.76,39.76,0,0,1-3.89,1"/><path class="cls-2" d="M1034.72,449.22a62.93,62.93,0,0,1,6.57,10.76,12.7,12.7,0,0,0,3.91,4.88h0c1.23,1.17,2.43,2.76,3.67,7.34,2.5,9.2-1.83,6.41-5.77,4.84s-10.17-9.68-10.17-9.68"/><path class="cls-2" d="M1044.43,451.06s1.45,2.36,1.31,3.67,4.6,4.33,5.25,5.25,7.88,1.84,7.62,6.83-12.81-1.64-13.39-1.94h0"/><path class="cls-2" d="M1045.22,433c-2.62,3.13-.53,5.12,1,9.18s1.18,1.71,3.36,5.52,4.65.78,4.78,5.51A7.81,7.81,0,0,1,1051,460"/><path class="cls-2" d="M1280.44,329.28s3.78,17.71,8.11,20.72,9.06,1.65,11.81-3.83,4.6-11.26,4.73-13.75,0-26.51,0-26.51l.05-3.42"/><line class="cls-2" x1="1319.74" y1="418.8" x2="1334.22" y2="416.41"/><path class="cls-2" d="M1367,350s11.42,1.61,17.59,2.92,8.14,2.48,10.5-1.32.53-15.79-2.1-31-3.8-15.2-4.72-21,.17-17.64.17-17.64"/><path class="cls-2" d="M1374.93,397.9s-.28.4,12-7.47,12.74-12.34,19.69-15.75a20.87,20.87,0,0,0,9.49-8.93"/><path class="cls-2" d="M1322.19,210l.09-1.67s3.25-14.47,3.15-15.16,2-10.24,2-10.24,7.87.79,9.45.59,11.71-.59,13.78-1,7.38-6.2,7.68-6.89a39,39,0,0,0,.59-7.68c-.2-1.08-3.55-7.48-3.55-7.48s2.27-6.4,4.33-6.5,4.53-6.3,5.12-7.48,7.58-3.05,10.83-3.54,4.92-5.12,5.12-6.69-1.58-5.81-2.56-8.08,1.67-4.92,2.56-6.49,7.68-10.34,9.84-11-2.56-6.3-2.56-6.3-5.71-4.33-7.87-5.9,17.91-18.9,17.91-18.9-5.7-2.36-6.49-3.15-3.55-6.7-3.55-6.7-16.63-10.53-17.12-10.63-2.46-3-6.11-.19-1.87.09-2.36-1.58-5.41,1.38-8.66,7.88a44.74,44.74,0,0,0-4.07,11.41s-3.81.3-4.59.4-14.47-10-15-11-27.36-8.07-27.36-8.07-15.16-2.66-16.14-2.36-12,5.51-12,5.51L1265.38,66s-9.54,1.48-11.41,1.38-13.59,1.18-25,9.06,4.73,12.3,6.7,16.14-.3,4.43-5.32,7.88-2.46,3.74-2.36,11.81,12.8,14.37,12.8,14.37"/><path class="cls-2" d="M1240.78,87.45s7.48,14.47,16.53,16.53,10-2.36,10-2.36,1.68-9,5.71-11,12.8-9.16,17.72-10"/><path class="cls-2" d="M1267.35,101.62s-5.7,13.49,9.45,21.85,16.15,8.47,16.15,8.47"/><path class="cls-2" d="M1299.05,92.55c.69.21,24.41,0,24.41,0l8.07,12"/><polyline class="cls-2" points="1349.71 76.62 1346.5 84.89 1337.05 94.34"/><path class="cls-2" d="M1337.05,110.68s-9.39,11.81,6.33,8.07,15.32,3,15.72-9.25l.39-12.21"/><polyline class="cls-2" points="1364.21 71.3 1371.89 82.72 1369.33 108.39 1369.13 120.72 1362.64 132.76"/><path class="cls-4" d="M166,152.11c10.18,15.54,31.64,17.13,31.64,17.13l1.71.5q2.8.8,5.26,1.39c28.45,6.91,24.49-5.35,28.16-11.54,4-6.66-.45-50.19-.45-50.19-.19-5.08-2.7-2.06,4.12-10S247.52,83.73,247.33,83s-18.66-17-18.66-17"/><path class="cls-4" d="M236.39,72.73l-.62-19.3a1.51,1.51,0,0,0-.36-.92c-19.48-23-44.33-23.43-49-23.3a1.45,1.45,0,0,1-1.22-.62c-8.83-12.15-15.1-8.36-17.81-8.62s-6.31,6.43-9.78,7.59l-.09,0c-3.05.95-2.3-3-2.13-3.76,0-.09,0-.17,0-.25.12-3.19.63-11.65.74-13.52a1.6,1.6,0,0,0-.14-.72c-5.83-12.28-12.77-3.21-13.85-1.68a1.75,1.75,0,0,0-.2.44c-.28,1-1.65,5.05-4.7,3.12a9.4,9.4,0,0,0-5.19-1.72,1.47,1.47,0,0,1-.93-.27C122.43,3,116.25,8,111.31,12s7.4,8.17,11.2,13.13,2.38,6.56.64,12.09-3.09.2-8.49-2.57c-2.31-1.18-5.68-1.7-8.78-1.92a1.48,1.48,0,0,0-.74,2.8c10,4.84,11.26,10.08,11.29,12.25a1.49,1.49,0,0,1-.8,1.33c-4.64,2.42-6.55,12.84-6.12,14.36.37,1.32,9.88,1.52,13.39,1.55a1.48,1.48,0,0,1,1.38,1A10.46,10.46,0,0,0,126,68.76a1.47,1.47,0,0,1-1,2.36C114.71,72.3,103.69,90,102.82,94.73c-1,5.31,6.27,8.4,8.69,13.52,1.79,3.8,8.65,4.19,12.06,4.14a1.47,1.47,0,0,1,1.43,1.84h0c-.49,1.93.5,5.89,0,9.26-.43,3.06,9.87,17,11.84,19.66a1.49,1.49,0,0,0,.84.54c2.45.54,12.85,2.93,15.31,4.7,2.79,2-.68,4.93-1.16,11.78s-2.42,6.56-5.41,10,4.25,2.89,4.25,2.89c5.67-3.41,9.77-11.64,12-17.24.86-2.12,1.44-3.87,1.75-4.83l1.5,1.08"/><path class="cls-4" d="M140.52,72.61s23.17-26.77,41.31-20.85"/><path class="cls-4" d="M157.64,27.57S124.25,40.5,128,48.29"/><path class="cls-4" d="M118.78,93.07s4,.77,7.46,12.61S139.5,129.87,144,131.41s10.5,3.28,10.5,3.28"/><path class="cls-4" d="M132.93,84.83S135.31,101.17,144,107s6.22,7.15,16.11,11.42"/><path class="cls-4" d="M132.93,107.09s12.61,7,19.3,16.12"/><path class="cls-4" d="M214.19,121.38s8.93,7.11,9.41,14c.35,5.07-5,5-12.26,1.84"/><path class="cls-5" d="M154.74,394.69c-6.27,2.22-7,9.07-7,9.07-.78-1.38-6.36-4.33-14.09-7.9"/><path class="cls-4" d="M77.61,372.58l-1.23-.48c-30.89-.86-44.33-18.33-44.33-18.33-17.57-4.7-14.29-17.63-14.29-17.63C27.86,327.13,60,251,60,251c9.26-33.33,29.6-29.85,29.6-29.85h14.67c1.65-2.62,13.63-9.06,24.42-14.48,2.64-1.33,5.21-2.6,7.54-3.75,5.94-2.89,10.32-4.93,10.32-4.93,20.41-12.46,16.29-41.38,16.18-42.08h0"/><path class="cls-4" d="M237.61,662.11c1.34,4.18-9.33,1.35-9.33,1.35,1.71,7.31-14.56,2.37-15.07,2.22-.31.42-.69,1-1.14,1.64-3.09,4.72-14.4-2.25-14.4-2.25a4.33,4.33,0,0,1-4.52,2.16c-4.44-1-17.17-11.58-15.44-16.21s-13-22-13-22c-.43,5.42-11.15-.39-14.62-2.71-1.59-1.06-1.57-9.76-1.08-18.89.58-10.84,1.81-22.29,1.81-22.29q-2.29-2.52-4.48-5a369.44,369.44,0,0,1-35-46.49c0,.67-.2,33.33-7.87,38.55a21.12,21.12,0,0,0-2.18-1.45c-8.5-4.82-30.5,15.06-30.5,15.06s-6.37-.58-10.81.77S53,605.08,53,605.08s-.05.19-.15.53l-.19.16c-.6.77-3.24,1.74-16.26-.69-14.13-2.64-27.26-19-31.85-25.32A8.06,8.06,0,0,1,3,574.44C8.33,499.67,69.76,385,77.61,372.58c6.53,2.54,37.51,14.7,56.09,23.28l11.18,46.49a39.8,39.8,0,0,1-1.91,7.16s4.92,13.7,3.76,21.42c0,0,.1,19.16-4.24,28.47,0,0,1.2,8.5,6.17,1.06a23.27,23.27,0,0,0,4.57-5.81s-.95,13.68,4,14.79c0,0,.72.45,1.95-.92a25.39,25.39,0,0,1,1.51,10.86l8.34,29.34a211.29,211.29,0,0,0,5.08,20.79c5.59,18.43,12,28,17.28,34.65,2.92,3.73,5.47,6.58,7.31,9.61C204.93,624,229.15,638,229.15,638c2.58,5.15,19.46,13.9,19.46,13.9C254.74,668.36,239.61,662.89,237.61,662.11Z"/><path class="cls-5" d="M78.41,371.48a4.29,4.29,0,0,0-.8,1.1"/><line class="cls-5" x1="53.73" y1="604.9" x2="52.87" y2="605.61"/><path class="cls-5" d="M103.46,572.17c7.76,5.81,16.35,17.76,42.9,7.94"/><path class="cls-5" d="M160.34,595.3q-4.93-5.13-9.5-10.17"/><path class="cls-5" d="M111.33,533.62h0C68.92,466.43,74.38,419.78,74.38,419.78"/><line class="cls-5" x1="145.38" y1="444.41" x2="144.88" y2="442.35"/><path class="cls-5" d="M158.51,460c2.32,17.53-1.7,28.58-5.28,34.62"/><path class="cls-5" d="M144.88,442.35c2.78-14.59,2.91-38.59,2.91-38.59"/><path class="cls-5" d="M159.2,508.52c1.1-1.24,2.63-4,4.42-9.89,0,0,.47-1.9,1.11-4.82v0c1.36-6.21,3.49-17,3.52-24"/><path class="cls-5" d="M164.73,493.8s1.55,15.16,3.53,16.61c0,0,4.48,1.47,4.53-16.61,0,0,.58-24.26.58-26.82"/><path class="cls-5" d="M57.65,324.81A54.34,54.34,0,0,1,77.56,328a62.24,62.24,0,0,1,9.26,4.15A56.74,56.74,0,0,1,98.06,340l41.05,36.29,5.4,2.84h0l12.22,6.42a38.64,38.64,0,0,1,20.94,18.21c7.55,14.22,3.25,25.54,4.54,41s-1.42,47.51-1.42,47.51.34,14.43-2.6,14.38-5.41-12.85-5.41-12.85"/><path class="cls-5" d="M55.08,318.9c10.68-5.15,26.77,0,26.77,0L77.56,328"/><path class="cls-5" d="M117.25,279.8q-2.81,1.88-5.36,3.83c-21.1,16-30,35.27-30,35.27"/><path class="cls-5" d="M128.65,206.61h0c.12.59,10,46,6.2,65.69s-24.7,46.59-24.7,46.59-13.41,1.19-16.08-.16c-.84-.42-.62-1.09,1.41-2.13,8.49-4.35,16.4-33,16.4-33"/><path class="cls-5" d="M86.82,332.14c.06-2.12,4.82-9.66,7.26-13.4.84-1.29,1.41-2.13,1.41-2.13"/><path class="cls-5" d="M135.74,202.06s12,22.26,25.89,29.85"/><path class="cls-5" d="M140.83,210.34l0,.07c.8,1.64,14.89,30.75,12,47.75-3,17.5-4.08,37.21-2,41.19S167.55,320.44,173,320.7s24.45-7.47,24.45-7.47,14.8-9,17.24-18-4-42.72-5.92-49.41-11.83-43.76-11.83-43.76H209l10,36.29,3.86,33.72,2.29,20.58.54,4.89S227,332,222.88,340s-21.1,43.24-21.1,43.24l-57.26-4.11h0"/><path class="cls-5" d="M201.78,383.24a56,56,0,0,0-13.13,38.6c1.16,23.42-.07,36.8-.07,36.8L191,488.7s3.45,7.23,8.56,10.58"/><path class="cls-5" d="M209,202.05h34.73S274,229.66,275,248.76s-4.43,62.49-3.86,76,.2,33.42,2.32,48.67,5.21,60.22,8.11,69.48,12.35,41.31,12.35,41.31-10.23-4.18-31.65,2.44l-7.47-16.92s-9.39-25.41-12.61-35.32.64-21.36-2.57-38.59S237,368.69,235.75,341a147,147,0,0,0-10.58-48.39"/><path class="cls-5" d="M258.78,390.06s.77,15.64,7.72,22"/><path class="cls-5" d="M52.87,605.61c-1,3.51-6.18,23.23.15,23.41,6.95.19,9.65-3.09,15.44-12a40.39,40.39,0,0,0,6.14-18.53"/><path class="cls-5" d="M62.27,598.52s3.23,11.71,9.15,12.9"/><path class="cls-5" d="M150.11,607.78l-1.08-.36-2.67-.88c-3.75-1.24-18.83,1.44-35.43,4.88s-42.47,5.63-42.47,5.63c-5.4.77-10.81-5.63-10.81-5.63"/><path class="cls-5" d="M195.18,653.72c4.17,4.35,4.16,8.78,2.49,11.35"/><path class="cls-5" d="M209,658c5.12,6.26,6,5.2,4.23,7.71"/><path class="cls-5" d="M220.81,653c5.45,4,5.74,3.09,7.47,10.51"/><path class="cls-5" d="M213.21,665.68h0"/><path class="cls-5" d="M237.61,662.11c-.46-1.44-2.36-3.71-6.62-7.23"/><path class="cls-5" d="M237.61,662.11l-.22-.09"/><path class="cls-5" d="M159.2,508.52h0"/><path class="cls-5" d="M173.73,569.57s9.58-1,25-12.61,29.56-15.19,29.56-15.19l10.81-4.37s42.6-41.44,90.08-41.69"/><path class="cls-5" d="M293.91,484.25C312.58,484.83,376,467,376,467s35,9,34.23,30.86"/><path class="cls-5" d="M191.41,604.16s116.65-24.56,137.76-39.75c13.63-9.8,28.87-10.32,45.25-20.94"/><path class="cls-5" d="M182.56,517.84c.29-8.07,7.26-14.09,17-18.56,23.41-10.79,62.73-12.59,62.73-12.59"/><path class="cls-5" d="M293.91,564.17s55.21-19.36,70.26-28.6"/><path class="cls-5" d="M111.33,533.62h0"/><path class="cls-4" d="M196.89,202.05s-3.22,2.71-6.95,1.55-.77-6.44-.26-22.91c.3-9.75,5.46-11.31,9.62-10.95a16.8,16.8,0,0,1,5.26,1.39"/><path class="cls-6" d="M877.64,548.13v0l-1-.19Z"/><path class="cls-6" d="M935.18,627.57l-20.5-3.05A49.78,49.78,0,0,0,874,568.36c-.48-.09-1-.16-1.48-.24a49.81,49.81,0,0,0-56.78,41.65l-20.48-3q.15-1,.33-2c0-.3.11-.6.17-.89.12-.7.27-1.4.43-2.08s.31-1.37.49-2c0,0,0,0,0-.05.06-.25.12-.5.19-.74l.09-.31c.12-.44.24-.88.37-1.32.08-.29.17-.59.26-.88.14-.46.29-.92.44-1.38s.37-1.08.56-1.62c.11-.32.24-.64.36-1l.42-1.1s0-.09,0-.13l.54-1.31c.1-.22.19-.44.29-.65.21-.5.43-1,.66-1.49.05-.11.1-.23.16-.34.16-.36.34-.72.51-1.07a3.59,3.59,0,0,1,.17-.34l.15-.3c.24-.48.48-1,.73-1.42v0c.23-.43.47-.86.71-1.29s.33-.57.49-.85.47-.81.71-1.2c.66-1.1,1.36-2.18,2.08-3.23l0-.05c.35-.51.71-1,1.07-1.51.16-.23.33-.45.5-.68s.43-.57.65-.86c1-1.34,2.12-2.65,3.24-3.91l.74-.81c.33-.36.65-.71,1-1l1-1,1-1,1-1c.35-.33.7-.65,1.06-1l.54-.47.54-.47,1-.79.07-.06.08-.06,1.07-.86,1.17-.9c1-.76,2-1.49,3.09-2.2s2.13-1.39,3.22-2l.08,0s0,0,.08-.06l.08,0,.22-.13.69-.4c.63-.36,1.27-.71,1.91-1.05l.55-.29c.6-.3,1.18-.6,1.79-.89l.34-.17.37-.18.09,0,.89-.41.12-.05c.3-.15.62-.28.92-.41l.92-.39,1.41-.57.12,0,.13-.05.5-.2.11,0,.1,0c.4-.16.81-.29,1.22-.44l.28-.1c.46-.16.92-.32,1.4-.47s1-.32,1.45-.46l.84-.25.62-.18h0l.28-.08.91-.24.44-.11.65-.17.16,0,.81-.18.07,0,.12,0h0l.7-.16.32-.07.12,0,1.17-.23h0l1.06-.2c.23-.05.46-.08.69-.11l.28-.05c1.09-.18,2.19-.33,3.29-.44l.89-.08.43,0q.48-.06,1-.09l.72,0h0c1.13-.08,2.27-.14,3.42-.16h2.1c1.29,0,2.58.05,3.87.14s2.8.22,4.21.39l.52.06.28,0h.1l.95.14h0c.71.1,1.41.21,2.1.34C915.14,554.87,940.78,590,935.18,627.57Z"/><path class="cls-6" d="M674.28,515.35l-47.79,11-29.29,6.73-22.52,5.86-29.87,7.78-21.24,5.53-13.94,3.62h0L505.16,557l-15.81,4.11L374.35,544l.07-.53a54.77,54.77,0,0,1,1.76-7.49h0c5-16.26,17.43-29.51,34.06-38.14,18-9.33,40.87-13.25,64.68-9.71l59.72,8.9,14.82,2.21,7.41,1.1,9.24,1.38Z"/><path class="cls-6" d="M950.9,514.62,842.35,542.88l-18,4.68-21.53,5.6-14.34,3.73h0l-61.3,16h0l-7.35,1.92h0L669.22,588l-2,.52-135,35.13c-.15-.6-.31-1.19-.49-1.77a1.8,1.8,0,0,0,0-.19s0-.11-.05-.17l-.3-1-.15-.48-.06-.2c-.06-.2-.13-.4-.2-.6s-.19-.59-.29-.88c0-.1-.07-.19-.1-.28v0l0-.13c0-.11-.07-.21-.11-.31-.15-.44-.31-.87-.48-1.3a.08.08,0,0,0,0,0l0,0c-.06-.17-.11-.33-.18-.49s-.05-.13-.07-.19l-.06-.13s0,0,0,0c-.14-.36-.28-.71-.43-1.06a.53.53,0,0,0-.06-.14c0-.09-.07-.17-.1-.25a.88.88,0,0,0-.09-.2.31.31,0,0,0,0-.12c-.05-.14-.11-.27-.17-.41a.41.41,0,0,0-.07-.15c-.13-.31-.26-.61-.4-.92l-.25-.51c-.09-.21-.18-.41-.28-.61a.38.38,0,0,0-.06-.13c-.11-.25-.23-.49-.36-.74-.34-.71-.7-1.41-1.07-2.1h0c-.12-.22-.23-.44-.35-.65l-.14-.25c-.11-.2-.22-.4-.34-.59s-.37-.66-.56-1l-.18-.3h0c-.17-.3-.35-.6-.53-.89l-.48-.77-.09-.14c-.27-.43-.55-.85-.83-1.27l-.69-1c-.17-.27-.36-.53-.55-.79a.91.91,0,0,0-.11-.16c-.11-.16-.22-.31-.35-.47s-.31-.44-.48-.65a1.13,1.13,0,0,0-.1-.13c-.31-.42-.64-.83-1-1.25s-.57-.75-.89-1.12-.63-.77-1-1.15-.47-.56-.72-.83l-.58-.65c-.15-.17-.3-.34-.47-.51q-.49-.56-1-1.11h0a.57.57,0,0,0-.11-.11,4.24,4.24,0,0,0-.42-.43l-.06-.06c-.28-.29-.57-.58-.86-.86a2.34,2.34,0,0,0-.23-.22s0,0,0,0a1.39,1.39,0,0,0-.21-.21,4,4,0,0,0-.37-.35,2.74,2.74,0,0,0-.31-.29c-.3-.3-.61-.58-.92-.86-.47-.43-1-.85-1.44-1.27s-1-.81-1.46-1.21h0c-.44-.36-.89-.72-1.35-1.07s-1-.79-1.57-1.17l-.22-.16c-.12-.09-.23-.18-.36-.26s-.19-.15-.29-.21-.23-.16-.34-.23l-.09-.06-.59-.41-.61-.4-.37-.26c-.2-.14-.41-.28-.62-.4a1.87,1.87,0,0,0-.32-.2,2.4,2.4,0,0,0-.29-.19l-.34-.21a3.13,3.13,0,0,0-.34-.21l-.08,0h0l-.09-.05,0,0-.11-.07-.79-.47-.19-.11-.18-.1-.14-.07c-.53-.32-1.07-.62-1.61-.92l-.17-.09-.6-.32c-.36-.2-.72-.38-1.09-.57l-.2-.1-1.49-.73h0l-1.17-.53c-.32-.15-.63-.3-1-.44s-1-.42-1.47-.62l-.17-.07-.26-.1c-.35-.15-.71-.29-1.07-.42s-.53-.21-.8-.3-.61-.23-.92-.33l-.47-.17c-.25-.08-.49-.17-.74-.24l-1.08-.36-.21-.07-1.57-.47-.23-.07L482,573c-.66-.18-1.33-.35-2-.51l-.95-.23-.61-.14-.95-.2-.15,0-.39-.08q-1.93-.39-3.9-.66l-1.86-.24-.33,0-1.79-.17-1.89-.14H467a78.67,78.67,0,0,0-8.41,0l-.32,0c-.7,0-1.41.1-2.11.17h0c-.76.08-1.52.16-2.28.26l-.38,0-1.54.22-.38.06c-1.39.22-2.78.49-4.17.8-.48.1-1,.21-1.44.34l-.14,0c-.25,0-.49.11-.74.18a.67.67,0,0,1,.19,0l44.06-11.48L505.16,557l4.45-1.17h0l13.94-3.62,21.24-5.53,29.87-7.78,22.52-5.86,29.29-6.73,47.79-11,109.51-25.16q4.74-6.92,9.38-14.8c4.38,2.93,10.64,3.89,16.89,2.26l34.25-8.91C893.27,456,941,476.54,950.9,514.62Z"/><path class="cls-6" d="M875.52,547.82l-1.85-.25-.3,0c-1.31-.16-2.61-.27-3.91-.36s-2.58-.12-3.87-.14c-.7,0-1.4,0-2.1,0l-.54,0c-1,0-1.93.07-2.88.14l-.76,0-1.39.14-.35,0-.54.05h0l-1.17.14-1.8.25-.29,0-.28.05c-.23,0-.46.06-.69.11l-.34.07-.72.13h0l-.7.15-.47.08-.12,0-.32.07-.62.15h-.1l-.05,0h-.07l-.07,0-.81.18-.16,0-.65.17-.44.11-.91.24-.28.08h0l-.42.13-.05,0-.15,0-.14.05-.7.2-.68.22c-.26.07-.52.15-.77.24-.48.15-.94.31-1.4.47l-.28.1c-.41.15-.82.28-1.22.44l-.1,0-.11,0-.11,0-.39.16-.13.05-.12,0-1.41.57-.92.39c-.3.13-.62.26-.92.41l-.12.05c-.29.13-.59.26-.89.41l-.09,0h0l-.34.17-.34.17c-.61.29-1.19.59-1.79.89l-.55.29-.86.45-1,.6-.69.4-.22.13-.08,0s-.05.05-.08.06l-.08,0c-1.09.65-2.17,1.34-3.22,2s-2.09,1.44-3.09,2.2l-1.17.9-1.07.86-.08.06-.07.06-1,.79-.54.47c-.54.46-1.08.94-1.6,1.43-.7.64-1.38,1.29-2,2l-1,1c-.33.34-.65.69-1,1l-.74.81c-1.12,1.26-2.2,2.57-3.24,3.91l-.16.2-.49.66c-.17.23-.34.45-.5.68-.37.5-.72,1-1.07,1.51l0,.05c-.6.87-1.19,1.77-1.75,2.68-.12.18-.23.37-.33.55l-.24.39c-.16.27-.32.54-.47.81s-.33.56-.49.85-.48.86-.71,1.29v0h0c-.24.46-.49.94-.72,1.41l-.15.3a3.59,3.59,0,0,0-.17.34c-.18.35-.35.71-.51,1.07-.06.11-.11.23-.16.34-.23.49-.45,1-.66,1.49-.1.21-.19.43-.29.65l-.54,1.31s0,.09,0,.13c-.14.37-.29.72-.42,1.1s-.25.65-.36,1c-.19.54-.38,1.08-.56,1.62s-.3.92-.44,1.38c-.09.29-.18.59-.26.88-.13.44-.25.88-.37,1.32l-.09.31c-.07.24-.13.49-.19.74,0,0,0,0,0,.05-.18.67-.35,1.35-.49,2s-.31,1.38-.43,2.08a1.6,1.6,0,0,0,0,.21l-.12.68c0,.21-.08.41-.11.62-.08.47-.16.92-.22,1.39L669.22,588l50.6-13.18h0l7.35-1.92h0l61.3-16h0l14.34-3.73,21.53-5.6,18-4.68,31.84,4.75.28,0h.1Z"/><polyline class="cls-7" points="445.19 534.13 509.67 543.74 544.81 546.7"/><polyline class="cls-6" points="375.87 535.93 376.18 535.97 509.61 555.85"/><line class="cls-6" x1="788.14" y1="550.98" x2="788.14" y2="550.98"/><line class="cls-6" x1="828.67" y1="557.01" x2="802.84" y2="553.16"/><line class="cls-6" x1="753.17" y1="576.73" x2="727.19" y2="572.85"/><polyline class="cls-7" points="477.48 504.68 583.14 520.42 627.74 526.51"/><path class="cls-6" d="M914.68,624.52l-26-3.89a23.57,23.57,0,0,0-19.26-26.57l-.71-.12a23.57,23.57,0,0,0-26.88,19.71l-26.06-3.88a49.81,49.81,0,0,1,56.78-41.65c.49.08,1,.15,1.48.24A49.78,49.78,0,0,1,914.68,624.52Z"/><path class="cls-6" d="M888.63,620.63l-46.85-7a23.57,23.57,0,0,1,26.88-19.71l.71.12A23.57,23.57,0,0,1,888.63,620.63Z"/><path class="cls-6" d="M442.62,573.33h0v0l1-.27C443.3,573.13,443,573.22,442.62,573.33Z"/><path class="cls-6" d="M531.75,621.83a1.8,1.8,0,0,0,0-.19s0-.11-.05-.17l-.3-1-.15-.48-.06-.2c-.06-.2-.13-.4-.2-.6-.12-.39-.25-.78-.39-1.16v0s0-.09,0-.13-.07-.21-.11-.31c-.15-.44-.31-.87-.48-1.3a.08.08,0,0,0,0,0l0,0-.09-.25-.09-.24c0-.07-.05-.13-.07-.19l-.06-.13h0c-.14-.36-.28-.71-.43-1.06a.53.53,0,0,0-.06-.14c0-.09-.07-.17-.1-.25a.88.88,0,0,0-.09-.2.31.31,0,0,0,0-.12c-.05-.14-.11-.27-.17-.41a1,1,0,0,0-.07-.15c-.13-.31-.26-.61-.4-.92s-.34-.75-.53-1.12a.38.38,0,0,0-.06-.13c-.11-.25-.23-.49-.36-.74-.34-.71-.7-1.41-1.07-2.1h0a4.49,4.49,0,0,0-.24-.42,2.12,2.12,0,0,0-.11-.21l-.48-.86c-.18-.33-.37-.66-.56-1l-.18-.3h0c-.17-.3-.35-.6-.53-.89l-.48-.77-.09-.14c-.27-.43-.55-.85-.83-1.27l-.69-1c-.17-.27-.36-.53-.55-.79a.91.91,0,0,0-.11-.16c-.11-.16-.22-.31-.35-.47s-.31-.44-.48-.65a.64.64,0,0,0-.1-.13.65.65,0,0,0-.1-.15l-.49-.63-.38-.48c-.11-.14-.21-.28-.32-.41l-.28-.35c-.09-.12-.19-.24-.29-.35-.3-.39-.63-.77-1-1.15s-.47-.56-.72-.83l-.58-.65c-.15-.17-.3-.34-.47-.51q-.52-.57-1-1.11h0a1.14,1.14,0,0,0-.11-.11,5.66,5.66,0,0,0-.42-.43l-.06-.06c-.28-.29-.57-.58-.86-.86a2.34,2.34,0,0,0-.23-.22s0,0,0,0a1.39,1.39,0,0,0-.21-.21l-.21-.2-.16-.15a2.74,2.74,0,0,0-.31-.29l-.92-.86c-.47-.43-1-.85-1.44-1.27l-1.46-1.22h0c-.44-.36-.89-.72-1.35-1.07s-1-.79-1.57-1.17l-.22-.16c-.12-.09-.23-.18-.36-.26l-.29-.21-.17-.11-.17-.12-.09-.06-.59-.41c-.32-.23-.65-.45-1-.66l-.31-.2-.31-.2-.32-.2a2.4,2.4,0,0,0-.29-.19l-.34-.21a3.13,3.13,0,0,0-.34-.21l-.08,0h0l-.11-.07-.11-.07-.79-.47-.19-.11-.32-.18-.38-.22-1.23-.69-.77-.41c-.36-.2-.72-.38-1.09-.57l-.2-.1-1.49-.73h0l-.68-.31c-.22-.11-.44-.21-.67-.3s-.51-.24-.78-.35c-.48-.22-1-.42-1.47-.62l-.17-.07-.26-.1c-.35-.15-.71-.29-1.07-.42s-.53-.21-.8-.3l-.57-.21-.82-.29-.3-.1-.44-.14-.33-.12-.33-.11-.42-.13-.21-.07-1.57-.47-.23-.07L482,573c-.43-.12-.85-.24-1.28-.34s-.86-.22-1.29-.32l-.37-.08-.61-.14a.27.27,0,0,0-.12,0l-.83-.17-.15,0-.39-.08c-.64-.13-1.29-.25-1.94-.36l-1.92-.3h0l-1.35-.18-.34,0-.19,0-.16,0-.29,0c-.25,0-.5-.06-.75-.07s-.55-.06-.82-.08h-.08c-.32,0-.63-.06-.94-.07l-.55,0-.49,0H467l-.32,0c-.67,0-1.35-.06-2-.08l-1.65,0h0c-.73,0-1.46,0-2.19,0h-.06c-.7,0-1.41.06-2.12.1l-.32,0c-.7,0-1.41.1-2.11.17h0l-1.14.12-.87.1-.27,0-.38,0-1.54.22h-.09l-.29,0-.66.11-1.17.21a1.65,1.65,0,0,0-.32.06c-.67.13-1.35.27-2,.42l-.76.18-.68.16-.14,0-.28.06-.27.07a.67.67,0,0,0-.19,0l-.39.09-.62.16-.44.12c-.18.05-.35.09-.52.15l-.51.14a72.18,72.18,0,0,0-11.21,4.3c-.62.3-1.23.6-1.84.92l-.15.08c-.65.34-1.29.68-1.93,1-.85.47-1.69,1-2.52,1.48q-2.49,1.53-4.82,3.24-2.17,1.59-4.22,3.34c-.37.31-.72.62-1.08.94l-.68.61c-.58.52-1.14,1.06-1.7,1.6-.3.29-.6.58-.89.89s-.43.43-.64.65l-.84.88q-2.25,2.41-4.28,5c-.58.75-1.14,1.51-1.69,2.28q-1.54,2.14-2.91,4.4c-.21.34-.42.68-.62,1s-.52.89-.77,1.34-.49.89-.73,1.34-.56,1.06-.82,1.59-.42.85-.62,1.27c-.5,1-1,2.08-1.4,3.14-.16.37-.31.75-.46,1.12-.48,1.2-.93,2.41-1.33,3.63-.16.45-.3.9-.44,1.35-.51,1.58-.95,3.19-1.33,4.81-.17.69-.33,1.38-.47,2.08-.09.42-.17.85-.25,1.28,0,.14-.06.28-.08.42-.07.37-.14.74-.19,1.11-.16.94-.3,1.89-.42,2.84-.24,1.9-.39,3.82-.47,5.75-.07,1.7-.09,3.4,0,5.12A70,70,0,0,0,393,659.83h0l20.38-5.31h0l25.91-6.74,46.59-12.13h0l13-3.37,13-3.37,20.37-5.31C532.09,623,531.92,622.42,531.75,621.83Z"/><path class="cls-6" d="M486,635.65h0l-46.59,12.13a24,24,0,0,1,16.59-28.95c.23-.08.47-.14.71-.2A24,24,0,0,1,486,635.65Z"/><polyline class="cls-7" points="493.85 577.35 594 551.28 612.53 546.45"/><line class="cls-7" x1="678.11" y1="553.18" x2="629.61" y2="565.28"/><line class="cls-7" x1="834.95" y1="514.06" x2="740.81" y2="537.54"/><line class="cls-7" x1="794.45" y1="537.44" x2="883.84" y2="514.17"/><path class="cls-7" d="M783.8,490.2c6.85,3,16.92,4.78,30.69.89"/><path class="cls-6" d="M511.87,628.89h0l-13,3.38-13,3.37h0l-46.59,12.13-25.91,6.75h0c-6.88-26.43,8.76-53.49,35.06-61.16L450,593C477.14,585.88,504.86,602,511.87,628.89Z"/><path class="cls-6" d="M532.24,623.6l-20.37,5.3h0l-13,3.37-13,3.37h0l-46.59,12.13-25.91,6.74h0l-20.38,5.31a71.06,71.06,0,0,1-2.26-15.63c-.05-1.72,0-3.42,0-5.12.08-1.93.23-3.85.47-5.75.12-1,.26-1.9.42-2.84.05-.37.12-.74.19-1.11,0-.14.05-.28.08-.42.08-.43.16-.86.25-1.28.14-.7.3-1.39.47-2.08.38-1.62.82-3.23,1.33-4.81.14-.45.28-.9.44-1.35.4-1.22.85-2.43,1.33-3.63.15-.37.3-.75.46-1.12.44-1.06.9-2.1,1.4-3.14.2-.42.41-.85.62-1.27s.54-1.07.82-1.59.48-.9.73-1.34.5-.9.77-1.34.41-.69.62-1q1.36-2.25,2.91-4.4c.55-.77,1.11-1.53,1.69-2.28q2-2.59,4.28-5l.84-.88c.21-.22.42-.44.64-.65s.59-.6.89-.89c.56-.54,1.12-1.08,1.7-1.6l.68-.61c.36-.32.71-.63,1.08-.94q2-1.76,4.22-3.34t4.82-3.24c.83-.51,1.67-1,2.52-1.48.64-.36,1.28-.7,1.93-1l.15-.08c.61-.32,1.22-.62,1.84-.92a72.18,72.18,0,0,1,11.21-4.3v0h0l1.48-.38.62-.16.39-.09a.67.67,0,0,1,.19,0,4.9,4.9,0,0,1,.55-.13c.52-.14,1.05-.26,1.58-.37q1.75-.4,3.51-.69l.95-.16H452l1.54-.22.65-.09c.67-.08,1.34-.16,2-.22h0c.7-.07,1.41-.13,2.11-.17l.32,0c.71,0,1.42-.08,2.12-.1s1.5,0,2.25,0h0l1.65,0c.67,0,1.35,0,2,.08l.36,0h0l.49,0c.5,0,1,.06,1.49.11h.08c.52,0,1.05.09,1.57.15l.29,0,.16,0,.53.06,1.35.18h0c1.3.18,2.59.4,3.86.66l.39.08.15,0,.83.17a.27.27,0,0,1,.12,0c.33.06.65.14,1,.22s.86.2,1.29.32.85.22,1.28.34l.73.2.23.07,1.57.47.63.2c.47.15.94.3,1.4.47l.82.29.57.21c.27.09.53.19.8.3s.72.27,1.07.42l.26.1.17.07c.5.2,1,.4,1.47.62.26.11.52.22.78.35.45.19.9.4,1.35.61h0l1.49.73.2.1c.37.19.73.37,1.09.57l.77.41,1.23.69.38.23.32.17.19.11.79.47.11.07.11.07a.25.25,0,0,1,.08,0,3.13,3.13,0,0,1,.34.21l.34.21a2.4,2.4,0,0,1,.29.19,1.87,1.87,0,0,1,.32.2l.31.2.31.2c.33.21.66.43,1,.66l.59.41.09.06.34.23.29.21c.13.08.24.17.36.26l.22.16c.53.38,1.05.77,1.57,1.17s.91.71,1.35,1.07h0c.49.4,1,.8,1.46,1.21s1,.84,1.44,1.27c.31.28.62.56.92.86a2.74,2.74,0,0,1,.31.29l.16.15.21.2a1.39,1.39,0,0,1,.21.21s0,0,0,0a2.34,2.34,0,0,1,.23.22c.29.28.58.57.86.86l.06.06a5.66,5.66,0,0,1,.42.43,1.14,1.14,0,0,1,.11.11h0q.56.55,1,1.11c.17.17.32.34.47.51l.58.65c.25.27.49.55.72.83s.66.76,1,1.15c.2.23.38.47.57.7l.7.89.49.63a2.83,2.83,0,0,1,.2.28c.17.21.33.43.48.65s.24.31.35.47a.91.91,0,0,1,.11.16c.19.26.38.52.55.79l.69,1c.28.42.56.84.83,1.27l.09.14.48.77c.18.29.36.59.53.89h0l.18.3c.19.32.38.65.56,1s.23.39.34.59l.14.27a2.12,2.12,0,0,1,.11.21,4.63,4.63,0,0,1,.24.43c.37.69.73,1.39,1.07,2.1.13.25.25.49.36.74a.38.38,0,0,1,.06.13c.19.37.36.75.53,1.12s.27.61.4.92a1,1,0,0,1,.07.15c.06.14.12.27.17.41a.31.31,0,0,1,0,.12.88.88,0,0,1,.09.2c0,.08.07.16.1.25a.53.53,0,0,1,.06.14c.15.35.29.7.43,1.06,0,0,0,0,0,0l.06.13c0,.06,0,.12.07.19s.14.34.2.52a.08.08,0,0,1,0,0c.17.43.33.86.48,1.3,0,.1.07.2.11.31s0,.08,0,.13v0c.14.38.27.77.39,1.16.07.2.14.4.2.6l.06.2.15.48.3,1c0,.06,0,.12.05.17a1.8,1.8,0,0,1,0,.19C531.92,622.42,532.09,623,532.24,623.6Z"/><line class="cls-7" x1="684.23" y1="571.66" x2="577.15" y2="599.52"/><line class="cls-7" x1="657.7" y1="541.26" x2="764.62" y2="517.2"/><path class="cls-2" d="M1183.05,334a24.78,24.78,0,0,0-6.43.62h-.07c-1.25.27-2.56.59-3.89,1a154,154,0,0,0-21.35,8.3h0"/><path class="cls-4" d="M154.48,134.67a45,45,0,0,0-3.79-4.61c-6.14-6.45.45-6.83,1.42-6.85a1.75,1.75,0,0,0,.24,0c4.35-.81,5.64-1.42,7.12-2.19.62-.32.73-1.42.64-2.61a17.16,17.16,0,0,0-.31-2.17,1.16,1.16,0,0,1,1.14-1.4h0a1.17,1.17,0,0,0,1.15-.91c3.76-17.19-5.58-26.29-10.18-29.62a1.47,1.47,0,0,1,.34-2.55c22.39-8.89,27.62-17.1,28.74-21.24a1.47,1.47,0,0,1,2.41-.71C198.61,73.47,218.65,76.1,223,76.52a1.45,1.45,0,0,1,1.18.86c2.52,5.39,15,18.48,15,18.48"/><line class="cls-4" x1="164.18" y1="149.68" x2="166.33" y2="152.5"/><path class="cls-2" d="M1284.7,343.72s2.28-45.4,3.59-61.75,1.66-26.73,4.5-37.22.22-13.39.22-13.39"/></g></g></g></svg>