<svg id="flaskSVG" xmlns="http://www.w3.org/2000/svg" viewBox="0 0 698.27 471.89">
  <title>Asset 22</title>
  <g id="Layer_2" data-name="Layer 2">
    <g >
      <path id="liquid" d="M225.38,262.49c-5.12,0-29.68-46.3-99-6.33l-4.68,4.14a21.13,21.13,0,0,1-27.32,0L84,251.15V435.22c0,15.63,14.33,28.31,32,28.31H260c17.67,0,32-12.68,32-28.31V265.31l-10.34-9.15a21.13,21.13,0,0,0-27.32,0l-4.68,4.14a21.13,21.13,0,0,1-27.32,0" stroke="#000" stroke-miterlimit="10" stroke-width="8"/>
      <path d="M84,227.88H292V448.69c0,10.6-14.33,19.2-32,19.2H116c-17.67,0-32-8.6-32-19.2V227.88Z" fill="none" stroke="#000" stroke-miterlimit="10" stroke-width="8"/>
      <path d="M84,227.88H28a24,24,0,0,0-24,24v168H36v-160H84" fill="none" stroke="#000" stroke-miterlimit="10" stroke-width="8"/>
      <path d="M333.46,147.88H84v48H291.88Z" fill="none" stroke="#000" stroke-miterlimit="10" stroke-width="8"/>
      <path d="M292,227.88H84v-32H292Z" fill="none" stroke="#000" stroke-miterlimit="10" stroke-width="8"/>
      <path id="ShiftedLiquid" d="M123.62,375.09c27.86-41.7,27.8-45.58,41.46-60.15,4.22-4.5,21.56-19.22,56.06-48.47,26-22.05,35.43-29.93,39.71-45,5.23-18.37-.72-20.19.59-38.54,2-27.77,15.79-28.72,19.76-35.08.87-1.4,72.95-21.72,62.13-6.9-10.27,14.05-17,16.69-30.66,30.9-16.05,16.69-24.37,12.68-24.37,29.77,0,79.42-2.06,264.33-6.52,261.11C265.52,451,98.36,483.48,89.16,445.17,87,436.26,84.37,433.82,123.62,375.09Z" stroke="#000" stroke-miterlimit="10" stroke-width="8"/>
      <path id="startingPoint" d="M267.79,205.5c-.28-1.74-.47-2.88-.62-4.51,0,0-.13-9.32,3-25.82,4-21,61.46-68.72,49.06-45.61-3.31,6.16,8.19,13.5,6.76,21.81-2.53,14.64-14.4,19.3-27.55,37.92-18.1,25.62-18.59,49.29-23.18,49.34C273.28,238.66,271.45,227.61,267.79,205.5Z" stroke="#000" stroke-miterlimit="10" stroke-width="8"/>
      <path id="pouringliquidOne" d="M281.2,147.88c9.95-16.32,28-46.24,57.64-67.12,30.13-21.22,50.3-35.89,96.39-47.38a513,513,0,0,1,97.13-14.2c13.33-.57,31.59-1.28,55.3,1.5,15.32,1.79,13.63,2.79,25.4,3.73,21.07,1.7,44.09,3.56,63.51-9C686.13,9.29,690.17,2.64,693,4.24c4.34,2.44-3.93,18.63-3.74,44.08.12,15.67,3.35,22,3,26.16-3,35.12-182.62-31.53-313.07,41.84A242.7,242.7,0,0,0,343.33,141" stroke="#000" stroke-miterlimit="10" stroke-width="8"/>
      <path id="pouringLiquid2" d="M276.22,147.88c9.95-16.32,20.26-56.7,49.9-77.58,30.13-21.22,63.46-37.08,109.55-48.57,9.05-2.25,45.64-9.91,93-12,13.32-.58,30.34,8.12,54,10.9,15.33,1.79,20.85-5.87,32.62-4.92,21.07,1.69,36.87,12.21,56.29-.31C681.15,9.29,685.19,2.64,688,4.24c4.35,2.44-3.93,18.63-3.73,44.08.12,15.67,3.34,22,3,26.16-3,35.12-182.63-31.53-313.08,41.84-16.14,9.08-24.16,23.47-35.86,24.66" stroke="#000" stroke-miterlimit="10" stroke-width="8"/>
    </g>
  </g>
</svg>