<svg xmlns="http://www.w3.org/2000/svg" xmlns:xlink="http://www.w3.org/1999/xlink" viewBox="0 0 1590.48 1558.35"><defs><style>.cls-1,.cls-2,.cls-3,.cls-4,.cls-5,.cls-6{fill:none;stroke:#1d1d1b;}.cls-1,.cls-4,.cls-5,.cls-6{stroke-miterlimit:10;}.cls-1,.cls-2{stroke-width:6px;}.cls-2,.cls-6{stroke-linecap:round;}.cls-2,.cls-3{stroke-linejoin:round;}.cls-4{stroke-width:0.75px;}.cls-5,.cls-6{stroke-width:5px;}.cls-7{fill:#010101;}.cls-8{fill:#1d1d1b;}.cls-9{fill:url(#Orange_Yellow);}.cls-10{fill:url(#linear-gradient);}.cls-11{fill:#fff;}.cls-12{fill:url(#radial-gradient);}</style><linearGradient id="Orange_Yellow" x1="750.15" y1="962.51" x2="750.15" y2="816.46" gradientUnits="userSpaceOnUse"><stop offset="0" stop-color="#ffef26"/><stop offset="0.02" stop-color="#ffea21"/><stop offset="0.1" stop-color="#fed70f"/><stop offset="0.19" stop-color="#fdcc04"/><stop offset="0.28" stop-color="#fdc800"/><stop offset="0.67" stop-color="#f18f34"/><stop offset="0.89" stop-color="#e95f32"/><stop offset="1" stop-color="#e3312d"/></linearGradient><linearGradient id="linear-gradient" x1="753.5" y1="954.77" x2="753.5" y2="674.84" gradientUnits="userSpaceOnUse"><stop offset="0" stop-color="#ffef26"/><stop offset="0.02" stop-color="#ffea21"/><stop offset="0.1" stop-color="#fed70f"/><stop offset="0.19" stop-color="#fdcc04"/><stop offset="0.28" stop-color="#fdc800"/><stop offset="0.67" stop-color="#f18f34"/><stop offset="0.83" stop-color="#e95f32"/><stop offset="1" stop-color="#e3312d"/></linearGradient><radialGradient id="radial-gradient" cx="779.17" cy="779.17" r="779.17" gradientUnits="userSpaceOnUse"><stop offset="0" stop-color="#e3312d" stop-opacity="0.1"/><stop offset="0.22" stop-color="#e95f32" stop-opacity="0.1"/><stop offset="0.48" stop-color="#f08a34" stop-opacity="0.08"/><stop offset="0.76" stop-color="#fbbf00" stop-opacity="0.05"/><stop offset="1" stop-color="#ffef26" stop-opacity="0.02"/></radialGradient></defs><g id="Layer_2" data-name="Layer 2"><g id="Layer_1-2" data-name="Layer 1"><path class="cls-1" d="M1266.82,838s12.86,21.66,13.65,23.1,26.38,46.85,26.51,47.51,36.75,47,40.42,51.19l-79.27,1.31H1166.54a14.94,14.94,0,0,1-5.77-8.14c-1.31-5.25-2.1-20.34,13.39-28.35s37.53-34.12,37.53-34.12l41.74-39.64s14.46-9.49,13.39-12.86c-3.28-10.24-16.28-25.2-16.28-25.2"/><path class="cls-1" d="M1166.54,961.08s-19.42.26-24.08,19.75c-.32,1.36.79,9.16,0,12.21s-3.25,4.13-17.32,6.89l-17.11.94a49.25,49.25,0,0,1-5,0l-17.76-.89a5.76,5.76,0,0,0-2.62.47,23.34,23.34,0,0,1-6.11,2.12c-7.7,1.31-13.43,1-21.82-.18l-6.61-1.69s-1.91-.89-12.34-.79-11.49-7.09-11.49-7.09,1.55-4.33,11.68-4.33,12.51,0,17.33-1,13-2.76,15.55-4.93,26.28-12,35.24-16.73c0,0,25.59-7.28,58.8-69.89s44.1-69.82,44.1-69.82,28.48-70.87,60.37-73.24c0,0,7.88-5.25,21.79,11s22.57,25.2,25.2,27.82,31,26,31,26l46.2,45.15L1408,879.44s-10.77-10.76-27.83,32.55-32.81,47.78-32.81,47.78l3.41,6.82s16-8.53,23.37-3.41,16,17.85,16,17.85,9,13.76,10.5,22.43,7.35,33,7.35,33"/><path class="cls-1" d="M1451.35,697.8s7.09,42.66,8.4,51.45,6.3,42.52,6.3,42.52,8.13,39.38,7.08,49.35a65.65,65.65,0,0,0,.1,16.54l-3.3,14.12"/><path class="cls-1" d="M1463.68,844.8s4.86,18.24,6.57,28.87,3,48.56,3,48.56l4.1,48.56s8.27,48.3,9.72,52.76,29.92-.39,38.32,3.41,36.88,4.73,42,7.35,13.12,7.35,13.12,7.35-28.74,1.71-34.65,0-23.75-1.05-23.75-1.05h-13"/><path class="cls-1" d="M1501,1036.47s20,8.34,21.13,8.87,20,3,15.62,6.3-9.32,3.54-15.62,2.36-22-4.72-23.23-5-8,4.77-23.36-3.46-10.37-6.51-10.77-15.44-1-13.38-1-13.38,0,3.15-7.08,13.12-38.06,6.62-38.06,6.62l-91.61-.06s-54.47.14-55.91,0-32.55.4-58.28-5.25-44.75-13.25-56.43-23.36S1142.46,993,1142.46,993"/><line class="cls-1" x1="1444.52" y1="937.98" x2="1463.68" y2="1016.73"/><path class="cls-1" d="M1479.5,983.29s22.11-25.23,22.25-54.23,3.15-56.44,3.15-56.44,1.83-30.71,1.83-39.11,3.15-42.53,3.15-42.53,10-52.62-30.38-100.27-51-54.86-51-54.86l-22.84-24.67s-5.77-10.11-5.77-11.81,3.67-10.24,4.2-17.85,18.77-7,17.59-15.49,1.57-13.78-4.73-15.23-8-6.16-12.6,0-5.12,8.27-11.29,14.18-8.4,15.49-8.4,15.49,1-15.75,0-21.79-13-12.73-15-18.37a94.46,94.46,0,0,0-5.51-12.08s-5.91-4.72-7.35-4.72-15.75-2.63-15.75-2.63a153.78,153.78,0,0,0-5.51,19.16c-1.58,8.27-.26,15.49-2.36,20.21s3.93,7.22-16.28,21.27c0,0,13.91,9.71,14.44,20.47s.52,22.71.52,23.36-2.75,17.46,17.85,4.46,31.5-21.26,31.5-21.26"/><path class="cls-1" d="M1357.43,624.91s9.92-8.88,19.9,3.07,15,11.55,10.49,16.8-19.16,15-19.16,15-20.47,13.52-28.08,26.25c0,0-54.08,4.07-65.36,13.39,0,0-35,11.68-43.32,26,0,0-18.76,20.57-29.13,26.76S1164.18,785,1164.18,785s-9.84,10.89-12.07,12.86-31.5,42.79-31.76,47.51-2.89,19.42-1.58,27.82,1,22.19,2.89,23.63,4.85.66,5-3.68,1.44-15.09,1.83-18.37-.26-8.79,1-12.08,8.53-14,10.5-16.27,11.55-14.31,13.13-15,1,9.84,3.15,15.49,2.23,13.38,6.56,8.4,7-10.37,7.61-13.13,2.76-16.8,2.63-18.11.26-12.86.26-12.86l1.31-4.73s49-25.59,52.5-29.13l11.7-11.7s18.75-22.3,26.62-27.15"/><line class="cls-1" x1="1227.18" y1="777.34" x2="1240.93" y2="769.03"/><path class="cls-1" d="M1272.59,752.08s-3.15-3.23,17.85-9.66,58.4-22,62-26.51"/><path class="cls-1" d="M1343.2,711.19s21.26,4.07,25.46,8.92,7.35,8.14,7.35,8.14-1.18,20.37-1,23.83.27,20.27,2.89,25.26,4.86,9.58,5.25,13.12-.13,8.79,2.89,13.65a73.18,73.18,0,0,0,12.6,15c4.85,4.33,8.92,5.64,12.6,8.14s5.12,10.63,5,13.91S1414.38,855,1414,859.5a44.07,44.07,0,0,1-2.51,10.76c-.79,2.1-3.41,9.18-3.41,9.18s-6.17,20.74-5.52,26.25-3.41,4.07,9.45,15.23S1444.52,938,1444.52,938s-3-23.76-1.57-39.9a143.71,143.71,0,0,0-1.31-32.29s-12.87-27.16-12.6-36-3.42-29.4-3.42-29.4l-7.87-43s-21-44.76-21-53-1.31-24.15-1.31-24.15,17.06-29.79,35.43-31.23"/><path class="cls-1" d="M1127.77,880.8s6.23,8.09,10.16,9.67,8.27,4.37,5.78-4.84-4.84-6.32-7.6-12.22a63.19,63.19,0,0,0-6.58-10.77"/><path class="cls-1" d="M1140.56,877.39s12.6,7.83,12.86,2.84-7-5.9-7.61-6.82-5.38-3.94-5.25-5.25-1.31-3.68-1.31-3.68"/><path class="cls-1" d="M1145.81,873.41a7.83,7.83,0,0,0,3.41-6.83c-.13-4.72-2.6-1.7-4.78-5.51s-1.78-1.44-3.36-5.51-3.66-6.06-1-9.19"/><path class="cls-1" d="M1375.25,742.7s3.78,17.7,8.11,20.72,9.06,1.64,11.81-3.84,4.6-11.25,4.73-13.74,0-26.52,0-26.52l0-3.41"/><line class="cls-1" x1="1414.55" y1="832.21" x2="1429.04" y2="829.83"/><path class="cls-1" d="M1461.85,763.38s11.42,1.62,17.58,2.93,8.14,2.48,10.5-1.32.53-15.79-2.1-31-3.8-15.2-4.72-21,.18-17.63.18-17.63"/><path class="cls-1" d="M1469.74,811.32s-.28.4,12.06-7.47,12.73-12.34,19.68-15.75a20.93,20.93,0,0,0,9.49-8.93"/><path class="cls-1" d="M1379.52,757.14s2.27-45.4,3.58-61.75,1.66-26.73,4.51-37.23.21-13.38.21-13.38"/><path class="cls-1" d="M1376,728.25s-.13-40,0-41.47,3.2-21,3.51-22.84,0-13.39,0-13.39"/><path class="cls-1" d="M1335.59,540s-12.7-6.3-12.8-14.37-2.66-8.37,2.36-11.81,7.29-4,5.32-7.88-18.11-8.26-6.69-16.14,23.13-9.15,25-9,11.42-1.38,11.42-1.38l9.25-4.92s11-5.22,12-5.52,16.14,2.37,16.14,2.37,26.88,7.08,27.37,8.07,14.17,11.12,15,11,4.59-.39,4.59-.39a44.87,44.87,0,0,1,4.07-11.42c3.25-6.5,8.17-9.55,8.66-7.88s-1.28,4.34,2.37,1.58,5.61.1,6.1.2,17.13,10.63,17.13,10.63,2.75,5.9,3.54,6.69,6.5,3.15,6.5,3.15-20.08,17.33-17.92,18.9,7.88,5.91,7.88,5.91,4.72,5.61,2.56,6.3-9,9.45-9.85,11-3.54,4.23-2.56,6.5,2.76,6.49,2.56,8.07-1.87,6.2-5.12,6.69-10.23,2.37-10.82,3.55-3.06,7.38-5.12,7.48-4.33,6.49-4.33,6.49,3.34,6.4,3.54,7.49a38.1,38.1,0,0,1-.59,7.67c-.3.69-5.61,6.5-7.68,6.89s-12.2.79-13.78,1-9.45-.59-9.45-.59-2.07,9.55-2,10.23-3.15,15.16-3.15,15.16l-.09,1.68"/><path class="cls-1" d="M1335.59,500.87s7.48,14.47,16.54,16.53,10-2.36,10-2.36,1.67-9,5.71-11,12.79-9.16,17.71-10"/><path class="cls-1" d="M1362.17,515s-5.71,13.49,9.45,21.85,16.14,8.47,16.14,8.47"/><path class="cls-1" d="M1393.86,506c.69.22,24.41,0,24.41,0l8.08,12"/><polyline class="cls-1" points="1444.52 490.04 1441.31 498.31 1431.86 507.76"/><path class="cls-1" d="M1431.86,524.1s-9.39,11.81,6.33,8.07,15.32,3,15.72-9.25l.39-12.21"/><polyline class="cls-1" points="1459.03 484.72 1466.7 496.14 1464.14 521.8 1463.95 534.14 1457.45 546.18"/><path class="cls-2" d="M323.48,479.46s18.47,16.28,18.66,17-4.12,8.36-10.94,16.34-4.31,5-4.11,10c0,0,4.4,43.52.45,50.18s.92,20.33-35.13,9.65c0,0-22.72-3.47-32.91-19"/><path class="cls-2" d="M334.07,509.28S320.2,494.78,318.72,490c0,0-25.41-1.48-42.72-18.91,0,0,3.28,12-31.66,25.09,0,0,18,8.88,12.36,32h-2.42s1.5,5.41,0,6.18-2.79,1.4-7.23,2.22c0,0-8.16-.1-1.55,6.85s10.67,16.79,14,20.17c0,0-5,17.47-14,22.87,0,0-7.24.58-4.24-2.89s4.92-3.19,5.4-10,4-9.75,1.16-11.77S232,557,232,557s-12.64-16.69-12.16-20.07-.51-7.34,0-9.27l.49-1.93s-11.58,1.06-14-4.05-9.65-8.2-8.69-13.51,14.48-26.54,25.48-23.36c0,0-4.63-4.57-4.12-6.37,0,0-14.21.07-14.67-1.54s1.68-13,6.82-14.67c0,0,2.51-9.27-18.27-16.09,0,0,11.2-.83,16.6,1.93s6.76,8.11,8.49,2.58,3.16-7.14-.64-12.1-16.21-9.07-11.19-13.12,11.32-9.2,20.33-2.45c0,0,2.19-.51,5.66,1.67s4.76-3.34,4.76-3.34,7.79-12.1,14.16,1.8c0,0-.65,10.55-.78,14,0,0-1.28,5,2.19,3.86s7-7.85,9.78-7.6,9.2-3.66,18.27,9.27c0,0,28.44-2.19,50.06,23.68l.64,19.81"/><path class="cls-2" d="M235.34,486s23.16-26.76,41.3-20.84"/><path class="cls-2" d="M252.45,441s-33.39,12.93-29.6,20.71"/><path class="cls-2" d="M213.59,506.48s4,.78,7.46,12.62,13.26,24.19,17.76,25.73,10.5,3.28,10.5,3.28"/><path class="cls-2" d="M227.74,498.25s2.39,16.34,11.07,22.13,6.22,7.15,16.11,11.42"/><path class="cls-2" d="M227.74,520.51s12.62,7,19.31,16.12"/><path class="cls-2" d="M309,534.79s8.93,7.12,9.4,14c.35,5.07-5,5-12.26,1.84"/><path class="cls-2" d="M257.51,569.27s4.49,29.48-16.18,42.09c0,0-39.19,18.27-42.28,23.16H184.38s-20.33-3.47-29.6,29.86c0,0-32.1,76.17-42.2,85.18,0,0-3.29,12.93,14.28,17.63,0,0,13.45,17.47,44.33,18.34,0,0,68.52,26.54,71.42,31.65,0,0,.67-6.85,6.95-9.07"/><path class="cls-2" d="M172.89,786.19S101.77,911.7,97.65,990.71c0,0,16,24.51,33.58,27.79s16.6,0,16.6,0,2.51-17.17,6.95-18.53,10.81-.77,10.81-.77,22-19.88,30.5-15.05,16,20.12,45.08,9.38"/><path class="cls-2" d="M169.19,833.2s-9,77,86,175.52"/><line class="cls-2" x1="228.51" y1="809.28" x2="239.33" y2="856.37"/><path class="cls-2" d="M242.61,817.18s-.2,34.17-4.83,45.75c0,0,4.92,13.7,3.77,21.43,0,0,.09,19.15-4.25,28.47,0,0,1.21,8.49,6.18,1.06,0,0,13.7-11.25,9.84-40.44"/><path class="cls-2" d="M248,908.07s-.95,13.68,4,14.79c0,0,2.6,1.64,6.36-10.81,0,0,4.59-18.57,4.64-28.85"/><path class="cls-2" d="M259.55,907.22s1.54,15.16,3.52,16.61c0,0,4.49,1.47,4.53-16.61,0,0,.58-24.26.58-26.82"/><path class="cls-2" d="M267.6,907.22s2.46,12.8,5.41,12.84,2.6-14.38,2.6-14.38,2.71-32.07,1.42-47.51,3-26.77-4.54-41A38.6,38.6,0,0,0,251.55,799l-17.63-9.27-41-36.29s-16.6-15.95-40.4-15.18"/><path class="cls-2" d="M172.89,740.3l3.77-8s-16.09-5.15-26.77,0"/><path class="cls-2" d="M176.66,732.32s10.45-22.47,35.4-39.09"/><path class="cls-2" d="M206.7,697.05s-7.91,28.63-16.4,33S205,732.32,205,732.32s20.84-26.77,24.7-46.58-6.21-65.7-6.21-65.7"/><path class="cls-2" d="M190.3,730s-8.59,12.68-8.67,15.53"/><path class="cls-2" d="M230.56,615.48s12,22.26,25.88,29.85"/><path class="cls-2" d="M235.65,623.77s15,30.31,12,47.81-4.08,37.22-2,41.19,16.71,21.09,22.11,21.35,24.45-7.46,24.45-7.46,14.8-9,17.25-18-4-42.72-5.92-49.41-11.84-43.75-11.84-43.75h12.09l10,36.29,3.86,33.71L320.52,711s1.29,34.48-2.83,42.46-21.1,43.24-21.1,43.24l-57.26-4.11"/><path class="cls-2" d="M296.59,796.66a56.09,56.09,0,0,0-13.13,38.6c1.16,23.42-.06,36.81-.06,36.81l2.38,30.06s2.64,6.22,7.75,9.57"/><path class="cls-2" d="M303.79,615.48h34.73s30.32,27.6,31.29,46.71-4.44,62.48-3.86,76,.19,33.42,2.31,48.67,5.22,60.22,8.11,69.49,12.35,41.3,12.35,41.3-10.23-4.18-31.65,2.45L349.6,883.2s-9.39-25.42-12.61-35.33.65-21.36-2.57-38.59-2.57-27.16-3.86-54.83A147,147,0,0,0,320,706.07"/><path class="cls-2" d="M353.59,803.48s.78,15.63,7.72,22"/><path class="cls-2" d="M147.83,1018.5s-6.94,23.75,0,23.94,9.65-3.09,15.45-12a40.31,40.31,0,0,0,6.13-18.53"/><path class="cls-2" d="M157.08,1011.94s3.23,11.71,9.15,12.9"/><path class="cls-2" d="M152.47,1024.84s5.4,6.4,10.81,5.63c0,0,25.86-2.19,42.46-5.63s31.68-6.12,35.43-4.88l3.75,1.25"/><path class="cls-2" d="M245.65,998.55s-4.2,38.87-.73,41.19,14.19,8.12,14.63,2.71c0,0,14.71,17.36,13,22s11,15.25,15.44,16.22,8.87-6.37,2-13.51"/><path class="cls-2" d="M292.48,1078.5s11.31,7,14.4,2.24,2.9-2-3.09-9.35"/><path class="cls-2" d="M308,1079.1s16.81,5.21,15.08-2.21-2-6.46-7.48-10.52"/><path class="cls-2" d="M323.1,1076.89s19.3,5.12,2.7-8.59"/><path class="cls-2" d="M332.54,1075.38s17.44,7.56,10.88-10.07c0,0-16.88-8.75-19.45-13.9,0,0-24.23-14-30.44-24.22s-20.57-18.47-29.67-65.05l-8.34-29.34A25.31,25.31,0,0,0,254,921.94"/><path class="cls-2" d="M268.54,983s9.58-1,25-12.61,29.57-15.19,29.57-15.19l10.81-4.37S376.5,909.38,424,909.13"/><path class="cls-2" d="M388.72,897.68c18.67.58,82.1-17.28,82.1-17.28s34.48,7.07,33.73,29"/><path class="cls-2" d="M286.22,1017.59S402.87,993,424,977.84c13.63-9.8,29-12.68,45.4-23.3"/><path class="cls-2" d="M357.07,900.12s-78.7,3.6-79.69,31.14"/><path class="cls-2" d="M388.72,977.58S443.93,958.23,459,949"/><path class="cls-2" d="M206.14,947s.31,32.48-7.45,37.76"/><path class="cls-2" d="M299.37,584.55s-14.36-6.9-14.88,9.57-3.47,21.74.26,22.9,6.95-1.54,6.95-1.54"/><polyline class="cls-3" points="472.03 1019.14 478.85 1020.31 485.09 1031.29 488.48 1032.12 498.16 1034.49 504.98 1040.07 504.12 1029.34 495.27 1026.82 494.2 1025.77 486.94 1018.61 485.92 1009.59 486.98 1004.67"/><polyline class="cls-3" points="967.69 1064.21 982.21 1060.77 993.88 1058 1001.64 1043.47 1003.05 1040.84"/><line class="cls-4" x1="470.26" y1="965.41" x2="469.57" y2="956.9"/><polyline class="cls-5" points="996.62 921.13 996.62 936.59 1005.67 943.27 992.86 955.22 1007 962.22"/><polyline class="cls-5" points="505.48 1067.29 494.75 1060.66 481.94 1060.66 478.27 1059.93 468.62 1058.01 457.15 1063.32 457.14 1063.32"/><path class="cls-5" d="M946,988.43l2.08.41v0C947.37,988.7,946.68,988.57,946,988.43Z"/><path class="cls-5" d="M964.33,1003.69l-5.29,3.9-2.75,6.14a50.33,50.33,0,0,0-12.85-4.85l-1.47-.31c-27.1-5.38-53.38,12-58.72,38.87l-20.32-4c.26-1.33.57-2.65.9-4s.71-2.58,1.12-3.85.85-2.51,1.32-3.74,1-2.44,1.52-3.63c.28-.61.56-1.22.86-1.82s.45-.91.69-1.36c.08-.18.18-.36.27-.53.2-.39.4-.77.62-1.14s.38-.71.59-1.06c.51-.89,1-1.76,1.58-2.62.69-1.09,1.41-2.15,2.15-3.19.37-.53.75-1,1.14-1.55s.95-1.22,1.44-1.82c.31-.39.63-.78,1-1.16s.7-.83,1.07-1.23c1.33-1.5,2.72-2.93,4.17-4.31s2.81-2.56,4.29-3.75l1.71-1.33,1.15-.85a71.38,71.38,0,0,1,8.24-5.14l.08,0,.08-.05.08,0,.23-.12c.47-.24.94-.49,1.42-.72,1.2-.59,2.41-1.15,3.64-1.67.12-.05.23-.11.35-.15l.35-.15h0c.37-.16.75-.31,1.12-.45s.63-.25.94-.36l.94-.35c.48-.18.95-.34,1.43-.5l.12,0,.53-.18,1.57-.49.28-.08c.39-.12.77-.23,1.16-.33l.26-.07q.39-.12.78-.21c.46-.13.93-.24,1.4-.35l.3-.07h.05c.55-.14,1.1-.26,1.65-.37a3.43,3.43,0,0,1,.44-.09l.82-.17c.32-.07.64-.12,1-.17s.73-.14,1.1-.19c.68-.12,1.36-.21,2-.29l.39,0c.6-.08,1.2-.14,1.8-.2l.38,0c.67-.06,1.34-.11,2-.15h.1q.63,0,1.26-.06c.35,0,.71,0,1.06,0,.7,0,1.41,0,2.11,0h.64l1.09,0c.43,0,.87,0,1.3,0l.56,0c.69,0,1.37.08,2.06.13l.66.06q.51,0,1,.09c1.09.11,2.19.25,3.29.42l1.1.17.79.14c.43.07.85.15,1.28.24l.17,0h0c.7.14,1.39.27,2.08.44a72.2,72.2,0,0,1,10.07,3.1c1.32.52,2.62,1.07,3.89,1.66Z"/><path class="cls-5" d="M1001.64,1043.47,993.88,1058l-11.67,2.77a49.62,49.62,0,0,0-18.34-42l.46-4.19,7.18-5.76.84-9.35A70.67,70.67,0,0,1,1001.64,1043.47Z"/><path class="cls-5" d="M668.67,960.3l-22.78,4.77L594.2,975.9l-14.1,3h0l-110.51-22-.19-2.36-.76-9.33,10.59-10.53-4.93-13.55a91.06,91.06,0,0,1,30.27-11.76,112.9,112.9,0,0,1,44.14.16l59.23,11.76,14.69,2.92,7.35,1.46,9.16,1.82A220.9,220.9,0,0,0,655.24,947C660.16,952.3,664.76,956.75,668.67,960.3Z"/><polygon class="cls-5" points="580.08 978.85 575.58 979.8 559.59 983.15 470.26 965.41 469.57 956.9 580.08 978.85"/><path class="cls-5" d="M1007,962.22,913.06,981.9l-18.18,3.81-21.78,4.56-14.5,3h0l-62,13h0l-7.43,1.56h0L738,1018.59l-2,.42-136.52,28.6c-.14-.67-.29-1.34-.45-2,0-.15-.07-.3-.11-.45l-.18-.71c0-.17-.08-.33-.13-.49s-.14-.54-.22-.81-.22-.8-.34-1.2c-.18-.63-.37-1.24-.58-1.85,0-.17-.1-.33-.16-.49l-.06-.19v0a1.43,1.43,0,0,1-.08-.22q-.21-.63-.45-1.26c-.29-.83-.61-1.65-.95-2.47-.2-.51-.41-1-.63-1.51s-.43-1-.66-1.49-.42-.89-.63-1.33c-.55-1.14-1.13-2.25-1.74-3.34-.18-.33-.36-.65-.55-1s-.4-.7-.61-1l-.64-1c-.42-.68-.86-1.36-1.31-2q-1.35-2-2.82-3.9c-.45-.58-.91-1.15-1.38-1.72-.09-.12-.19-.23-.29-.35-.33-.39-.66-.78-1-1.16a.53.53,0,0,0-.1-.12c-.14-.18-.3-.35-.46-.52l-.31-.33c-1.23-1.36-2.52-2.68-3.85-3.94-.92-.87-1.87-1.71-2.83-2.53l-1.06-.88-.79-.63c-1.32-1.05-2.69-2.05-4.08-3l-.15-.1-.09-.06,0,0c-.4-.27-.81-.55-1.23-.81l-.51-.33c-.49-.32-1-.62-1.49-.92l-.93-.55-.2-.12h0l-.14-.08-.23-.14c-.55-.31-1.1-.62-1.66-.92h0a72,72,0,0,0-48.86-6.95l45.15-9.46,16-3.35,4.5-.95h0l14.1-3,51.69-10.83,22.78-4.77a143.4,143.4,0,0,0,12.23,10.12h0l.07,0c.22.11.83.4,1.82.84,6.94,3.05,32.09,13,65.71,13a164.33,164.33,0,0,0,63.37-12.6h0c.39-.15.78-.32,1.18-.49.87-.36,1.75-.74,2.62-1.13,1.45-1.12,21-16.41,41.41-43.6,3.37-4.46,6.75-9.24,10.08-14.33,4.23,3.13,10.44,4.39,16.76,3.07l34.64-7.26c29.55-6.19,58.1-.55,78,13.19v15.46l9,6.68-12.81,12Z"/><path class="cls-5" d="M946,988.43a71.58,71.58,0,0,0-16.07-1.35c-.35,0-.71,0-1.06,0s-.84,0-1.26.06h-.1c-.68,0-1.35.09-2,.15l-.38,0c-.6.06-1.2.12-1.8.2l-.39,0c-.48.06-1,.13-1.45.21l-.6.08-1,.17a1.47,1.47,0,0,0-.29,0c-.55.09-1.09.19-1.64.31a3.43,3.43,0,0,0-.44.09c-.55.11-1.1.23-1.65.37h0l-.3.07c-.47.11-.94.22-1.4.35l-.78.21c-.48.12-1,.26-1.42.4l-.28.08-1.57.49-.53.18-.12,0c-.48.16-.95.32-1.43.5l-.94.35c-.31.11-.63.23-.94.36s-.75.29-1.12.45h0l-.35.15c-.12,0-.23.1-.35.15-1.23.52-2.44,1.08-3.64,1.67-.48.23-1,.48-1.42.72l-.23.12-.08,0-.08.05-.08,0a69.72,69.72,0,0,0-35.79,48l-125-24.81,51.18-10.73h0l7.43-1.56h0l62-13h0l14.5-3,21.78-4.56,18.18-3.81Z"/><line class="cls-5" x1="580.73" y1="966.74" x2="516.78" y2="954.04"/><line class="cls-5" x1="858.52" y1="987.38" x2="858.52" y2="987.38"/><line class="cls-5" x1="898.73" y1="995.35" x2="873.11" y2="990.26"/><line class="cls-5" x1="822.36" y1="1011.41" x2="796.6" y2="1006.29"/><line class="cls-5" x1="655.24" y1="947" x2="550.45" y2="926.19"/><path class="cls-5" d="M982.21,1060.77l-14.52,3.44-12.14-2.41a23.57,23.57,0,0,0-18-27.48c-.23-.06-.47-.1-.7-.15a23.58,23.58,0,0,0-27.8,18.4l-25.84-5.13c5.34-26.85,31.62-44.25,58.72-38.87l1.47.31a50.33,50.33,0,0,1,12.85,4.85l-.4.89v10.25l7.42-1,.56-5.1A49.62,49.62,0,0,1,982.21,1060.77Z"/><path class="cls-5" d="M909.1,1052.57a23.56,23.56,0,0,1,27.79-18.4c.23,0,.47.09.7.15a23.57,23.57,0,0,1,18,27.47Z"/><path class="cls-5" d="M514.44,992.61c-.71.15-1.41.29-2.11.47v0Z"/><path class="cls-5" d="M598.87,1045.17c-.17-.68-.34-1.35-.53-2-.1-.4-.22-.8-.34-1.2-.18-.63-.37-1.24-.58-1.85,0-.17-.1-.33-.16-.49q-.28-.86-.6-1.71c-.11-.31-.22-.62-.35-.93a4.84,4.84,0,0,0-.18-.49q-.2-.52-.42-1c-.2-.51-.41-1-.63-1.51s-.43-1-.66-1.49-.42-.89-.63-1.33c-.55-1.14-1.13-2.25-1.74-3.34-.18-.33-.36-.65-.55-1s-.4-.7-.61-1l-.64-1c-.42-.68-.86-1.36-1.31-2q-1.35-2-2.82-3.9c-.45-.58-.91-1.15-1.38-1.72-.09-.12-.19-.23-.29-.35-.33-.39-.66-.78-1-1.16s-.57-.65-.87-1l-.93-1c-.36-.39-.72-.77-1.1-1.14s-.55-.56-.83-.83l-1-1c-.92-.87-1.87-1.71-2.83-2.53s-2.11-1.74-3.21-2.55c-.37-.29-.75-.57-1.14-.85s-1-.75-1.58-1.11l-.15-.1h0l-.11-.07c-.4-.27-.81-.55-1.23-.81l-.51-.33-1.14-.71a3.24,3.24,0,0,0-.35-.21c-.37-.23-.75-.45-1.13-.67l-.38-.22c-.55-.31-1.1-.62-1.66-.92h0a72,72,0,0,0-48.86-6.95c-.72.15-1.42.3-2.11.47A72.22,72.22,0,0,0,487,1004.67l-1.06,4.92,1,9,7.26,7.16,1.07,1,8.85,2.52.86,10.73-6.82-5.58-9.68-2.37-3.39-.83-6.24-11-6.82-1.17a71,71,0,0,0-14.88,44.18l11.47-5.31,9.65,1.92,3.67.73h12.81l10.73,6.63,47.12-9.87h0l26.21-5.49h0l20.6-4.32C599.26,1046.79,599.07,1046,598.87,1045.17Z"/><path class="cls-5" d="M552.61,1057.42l-47.13,9.87a24,24,0,0,1,18-28.12c.24-.07.48-.12.71-.17A24,24,0,0,1,552.61,1057.42Z"/><polyline class="cls-6" points="683.35 974.41 664.6 978.34 563.31 999.56"/><line class="cls-6" x1="748.52" y1="984.29" x2="699.49" y2="994.04"/><line class="cls-6" x1="907.06" y1="952.76" x2="811.9" y2="971.68"/><line class="cls-6" x1="865.48" y1="974.16" x2="955.89" y2="955.21"/><path class="cls-6" d="M857.11,926.46c6.7,3.36,16.67,5.59,30.62,2.37"/><path class="cls-5" d="M578.83,1051.91v0h0l-26.21,5.49h0l-47.12,9.87-10.73-6.63H481.94l-3.67-.73a50.24,50.24,0,0,1,10.21-27.81l9.68,2.37,6.82,5.58-.86-10.73-8.85-2.52-1.07-1a50.79,50.79,0,0,1,23-12.41l1.49-.32C546.21,1007.28,573.12,1024.67,578.83,1051.91Z"/><path class="cls-5" d="M599.43,1047.61l-20.6,4.31h0l-26.21,5.49h0l-47.12,9.87-10.73-6.63H481.94l-3.67-.73-9.65-1.92-11.47,5.31A71,71,0,0,1,472,1019.14l6.82,1.17,6.24,11,3.39.83,9.68,2.37,6.82,5.58-.86-10.73-8.85-2.52-1.07-1-7.26-7.16-1-9,1.06-4.92a72.22,72.22,0,0,1,25.35-11.59v0h0l2.11-.44a72,72,0,0,1,48.86,6.95h0c.56.3,1.11.61,1.66.92l.38.22c.38.22.76.44,1.13.67a3.24,3.24,0,0,1,.35.21l1.14.71.51.33c.42.26.83.54,1.23.81l.11.07.15.11c.53.36,1.06.73,1.58,1.11s.77.56,1.14.85c1.1.81,2.16,1.66,3.21,2.55s1.91,1.66,2.83,2.53l1,1c.28.27.56.55.83.83s.74.75,1.1,1.14l.93,1c.3.32.59.64.87,1s.67.77,1,1.16c.1.12.2.23.29.35.47.57.93,1.14,1.38,1.72q1.47,1.89,2.82,3.9c.45.67.89,1.35,1.31,2l.64,1c.21.34.41.69.61,1s.37.64.55,1c.61,1.09,1.19,2.2,1.74,3.34.21.44.43.88.63,1.33s.45,1,.66,1.49.43,1,.63,1.51q.22.52.42,1a4.84,4.84,0,0,1,.18.49c.13.31.24.62.35.93q.32.85.6,1.71c.06.16.11.32.16.49.21.61.4,1.22.58,1.85.12.4.24.8.34,1.2.19.66.36,1.33.53,2S599.26,1046.79,599.43,1047.61Z"/><line class="cls-6" x1="593.36" y1="1007.86" x2="657.07" y2="994.78"/><line class="cls-6" x1="753.75" y1="1003.04" x2="645.45" y2="1025.71"/><g id="surface1"><path class="cls-7" d="M681,975.62a5.48,5.48,0,0,0,1.82.84C681.82,976,681.21,975.73,681,975.62Zm132.09.73a5.85,5.85,0,0,0,2.62-1.13C814.83,975.61,814,976,813.08,976.35Z"/><path class="cls-8" d="M742.78,768.31q-.06,3.12,0,6.18C742.74,772.45,742.74,770.39,742.78,768.31Zm0,0q-.06,3.12,0,6.18C742.74,772.45,742.74,770.39,742.78,768.31Zm0,0q-.06,3.12,0,6.18C742.74,772.45,742.74,770.39,742.78,768.31Zm0,0q-.06,3.12,0,6.18C742.74,772.45,742.74,770.39,742.78,768.31Zm89.49,120c1-.55,1.9-1.11,2.76-1.68Q833.72,887.45,832.27,888.29Zm-89.49-120q-.06,3.12,0,6.18C742.74,772.45,742.74,770.39,742.78,768.31Zm89.49,120c1-.55,1.9-1.11,2.76-1.68Q833.72,887.45,832.27,888.29Zm-89.49-120q-.06,3.12,0,6.18C742.74,772.45,742.74,770.39,742.78,768.31Zm89.49,120c1-.55,1.9-1.11,2.76-1.68Q833.72,887.45,832.27,888.29Zm-89.49-120q-.06,3.12,0,6.18C742.74,772.45,742.74,770.39,742.78,768.31Zm89.49,120c1-.55,1.9-1.11,2.76-1.68Q833.72,887.45,832.27,888.29Zm-89.49-120q-.06,3.12,0,6.18C742.74,772.45,742.74,770.39,742.78,768.31Zm0,0q-.06,3.12,0,6.18C742.74,772.45,742.74,770.39,742.78,768.31Zm0,0q-.06,3.12,0,6.18C742.74,772.45,742.74,770.39,742.78,768.31Zm0,0q-.06,3.12,0,6.18C742.74,772.45,742.74,770.39,742.78,768.31Zm89.49,120c1-.55,1.9-1.11,2.76-1.68Q833.72,887.45,832.27,888.29Zm-89.49-120q-.06,3.12,0,6.18C742.74,772.45,742.74,770.39,742.78,768.31Zm89.49,120c1-.55,1.9-1.11,2.76-1.68Q833.72,887.45,832.27,888.29Zm0,0c1-.55,1.9-1.11,2.76-1.68Q833.72,887.45,832.27,888.29Zm0,0c1-.55,1.9-1.11,2.76-1.68Q833.72,887.45,832.27,888.29Zm0,0c1-.55,1.9-1.11,2.76-1.68Q833.72,887.45,832.27,888.29Zm0,0c1-.55,1.9-1.11,2.76-1.68Q833.72,887.45,832.27,888.29Zm0,0c1-.55,1.9-1.11,2.76-1.68Q833.72,887.45,832.27,888.29Zm-89.49-120q-.06,3.12,0,6.18C742.74,772.45,742.74,770.39,742.78,768.31Zm89.49,120c1-.55,1.9-1.11,2.76-1.68Q833.72,887.45,832.27,888.29Zm-89.49-120q-.06,3.12,0,6.18C742.74,772.45,742.74,770.39,742.78,768.31Zm0,0q-.06,3.12,0,6.18C742.74,772.45,742.74,770.39,742.78,768.31Zm0,0q-.06,3.12,0,6.18C742.74,772.45,742.74,770.39,742.78,768.31Zm89.49,120c1-.55,1.9-1.11,2.76-1.68Q833.72,887.45,832.27,888.29Zm-89.49-120q-.06,3.12,0,6.18C742.74,772.45,742.74,770.39,742.78,768.31Zm89.49,120c1-.55,1.9-1.11,2.76-1.68Q833.72,887.45,832.27,888.29Zm-89.49-120q-.06,3.12,0,6.18C742.74,772.45,742.74,770.39,742.78,768.31Zm89.49,120c1-.55,1.9-1.11,2.76-1.68Q833.72,887.45,832.27,888.29Zm-89.49-120q-.06,3.12,0,6.18C742.74,772.45,742.74,770.39,742.78,768.31Zm89.49,120c1-.55,1.9-1.11,2.76-1.68Q833.72,887.45,832.27,888.29Zm-89.49-120q-.06,3.12,0,6.18C742.74,772.45,742.74,770.39,742.78,768.31Zm0,0q-.06,3.12,0,6.18C742.74,772.45,742.74,770.39,742.78,768.31Zm0,0q-.06,3.12,0,6.18C742.74,772.45,742.74,770.39,742.78,768.31Zm0,0q-.06,3.12,0,6.18C742.74,772.45,742.74,770.39,742.78,768.31Zm0,0q-.06,3.12,0,6.18C742.74,772.45,742.74,770.39,742.78,768.31Zm0,0q-.06,3.12,0,6.18C742.74,772.45,742.74,770.39,742.78,768.31Z"/><path class="cls-7" d="M861.22,680a6,6,0,0,0-10.87,4,210.84,210.84,0,0,1-27.18,115.68c3.65-21.38,5.52-52.86,1.92-98.73C815.9,585.33,710.93,535.19,709.86,534.72a6,6,0,0,0-8,2.91,6,6,0,0,0-.52,3.28c6.09,47.47-5,68.44-34.6,124.48-12,22.59-26.81,50.74-44.6,88.32C587,828.09,608.52,887.94,634.87,926.65q2.11,3.09,4.25,6c3.51,4.79,7.06,9.21,10.52,13.24,1.9,2.21,3.78,4.3,5.6,6.27,3.14,3.38,6.14,6.41,8.92,9.08,1.59,1.53,3.1,2.94,4.51,4.22a143.4,143.4,0,0,0,12.23,10.12h0l.07,0c.22.11.83.4,1.82.84,6.94,3,32.09,13,65.71,13a164.33,164.33,0,0,0,63.37-12.6h0c.39-.15.78-.32,1.18-.49.87-.36,1.75-.74,2.62-1.13,1.45-1.12,21-16.41,41.41-43.6,3.37-4.46,6.75-9.24,10.08-14.33q1.2-1.83,2.38-3.7a234.44,234.44,0,0,0,29.82-69.28C919.37,762.84,863.41,683.27,861.22,680ZM757.12,880.79a230.41,230.41,0,0,0,12.28,21.8h0c2.28,3.53,3.8,5.62,4.15,6.06a6,6,0,0,0,6.56,2.19c6.9-2.08,15.86-6.83,24.45-12,6.79-4.09,13.34-8.45,18.48-12-.21,2-.44,4-.72,6.14,0,0,0,.06,0,.09-2.15,16.26-6.28,35.69-9.81,50.81h0c-.76,3.27-1.49,6.32-2.18,9.11h0c-.67,2.73-1.29,5.2-1.83,7.33-.35,1.37-.66,2.6-.94,3.67a100.3,100.3,0,0,1-29.23,11.3,103.2,103.2,0,0,1-30.44,2.35c-7.3-.18-13.94-.68-20-1.42h0l-1.35-.18c-1.44-.18-2.85-.39-4.22-.61-15.11-2.37-25.94-6.31-33.48-10.16q-.57-1.9-1.08-3.78a.77.77,0,0,1,0-.19c-.15-.51-.29-1-.43-1.53s-.25-.9-.36-1.35c-.42-1.52-.8-3-1.19-4.54q-1.62-6.42-2.91-12.58c-21.88-104.71,26.42-156.57,48-173.93C729.62,815,744.57,855.51,757.12,880.79ZM887.6,841.72c-.18.73-.36,1.46-.55,2.18-.11.41-.21.82-.32,1.23-.27,1-.55,2.09-.85,3.13-.16.6-.33,1.2-.51,1.79-.29,1-.59,2-.9,3s-.61,2-.94,3-.57,1.75-.86,2.62c-.37,1.09-.75,2.16-1.13,3.24-.25.72-.51,1.43-.78,2.15s-.49,1.34-.75,2c-1.09,2.86-2.23,5.68-3.42,8.44-.29.68-.58,1.36-.88,2-.67,1.5-1.35,3-2,4.47-.32.71-.66,1.41-1,2.11-.25.53-.5,1-.76,1.57s-.52,1-.77,1.55c-.43.86-.87,1.71-1.3,2.56-1,1.9-2,3.77-3,5.6q-.72,1.33-1.47,2.64l-1.2,2.11c-.07.13-.15.26-.23.39l-1.35,2.28c-.45.76-.9,1.5-1.35,2.24-.22.37-.45.74-.68,1.11s-.45.73-.68,1.09h0c-3.86,6.15-7.81,11.88-11.74,17.15l-.67.89h0c-.55.73-1.09,1.45-1.64,2.16-.8,1-1.59,2.06-2.39,3.07-.58.73-1.15,1.45-1.73,2.16l-1,1.26-.57.7-2.46,2.94c-4,4.72-7.82,8.91-11.32,12.54l-1,1c-.95,1-1.87,1.92-2.77,2.81.83-3.44,1.72-7.21,2.63-11.19.23-1,.46-2,.68-3,.15-.64.29-1.28.43-1.93.29-1.29.58-2.6.86-3.93.58-2.65,1.15-5.36,1.7-8.1.15-.68.29-1.36.42-2h0c.27-1.32.53-2.64.79-4,0-.22.09-.45.13-.68.26-1.35.51-2.7.76-4,.12-.64.24-1.27.35-1.91s.29-1.59.42-2.38c.25-1.42.49-2.82.72-4.21.15-.87.29-1.75.42-2.61.07-.43.13-.86.2-1.29q.3-1.94.57-3.84.22-1.56.42-3.09l.21-1.64c.27-2.19.51-4.33.7-6.39-.86.57-1.79,1.13-2.76,1.68q1.46-.84,2.76-1.68c0-.18,0-.35.05-.53.11-1.23.21-2.42.29-3.59,0-.45.06-.89.08-1.33,0-.81.09-1.6.12-2.38,0-.43,0-.85,0-1.27s0-.56,0-.83c0-.56,0-1.1,0-1.64a6,6,0,0,0-9.55-4.83c-.08.06-2.12,1.57-5.39,3.88-2.47,1.74-5.65,3.94-9.21,6.31l-1.53,1-1.05.69-1.48,1-1.82,1.17-1.86,1.18L801.14,887l-.39.24c-.75.46-1.5.92-2.26,1.37-1.78,1.07-3.56,2.11-5.33,3.1-1,.58-2.08,1.15-3.1,1.69l-.91.48-.89.46-1,.51-.17.09c-.44.22-.87.44-1.3.64l-1.77.84c-.58.27-1.16.52-1.72.77s-1.12.48-1.67.7c-1-1.6-2.37-3.71-3.9-6.29-1.35-2.28-2.86-4.93-4.48-7.93-1.44-2.67-3-5.61-4.52-8.81q-.47-.95-.93-1.92c-1.86-3.88-3.77-8.11-5.65-12.66-.35-.84-.71-1.7-1-2.57s-.8-2-1.19-3c-.28-.72-.56-1.44-.83-2.18-.16-.41-.32-.82-.47-1.24-.52-1.39-1-2.81-1.54-4.25-.32-.9-.63-1.81-.94-2.73-.44-1.28-.87-2.59-1.29-3.91q-.74-2.26-1.43-4.59c-.31-1.05-.62-2.12-.93-3.19s-.65-2.29-1-3.45l-.42-1.6c-.24-.88-.46-1.77-.68-2.67s-.4-1.61-.59-2.42-.41-1.73-.61-2.6-.39-1.74-.58-2.62-.31-1.47-.46-2.22c-.11-.52-.22-1.06-.32-1.59s-.21-1.06-.31-1.6-.2-1-.29-1.56-.24-1.33-.35-2-.19-1.09-.28-1.64-.15-.9-.22-1.35c-.22-1.38-.43-2.78-.63-4.19,0-.39-.11-.78-.16-1.18-.16-1.2-.31-2.4-.45-3.61-.11-.88-.2-1.75-.29-2.64s-.22-2.05-.3-3.08-.2-2.2-.27-3.31c0-.42-.07-.83-.09-1.25-.05-.61-.09-1.23-.12-1.85l-.09-1.6,0-.74c-.07-1.2-.11-2.42-.15-3.63,0-.61,0-1.22,0-1.84,0-.12,0-.25,0-.38,0-.52,0-1,0-1.55q0-3.06,0-6.18c0-.65,0-1.3.05-1.95s0-1.24.07-1.86c0-.46,0-.92.06-1.39l.06-1.3q.08-1.47.18-2.94c.06-1,.14-2,.22-3a6,6,0,0,0-8.95-5.71c-.07,0-.73.44-1.87,1.2l-.61.41-.69.47-.81.57-.79.56c-.64.46-1.33,1-2.08,1.55l-.59.45c-1.29,1-2.71,2.14-4.25,3.43l-.78.67c-.79.67-1.62,1.39-2.46,2.15-.45.4-.9.81-1.37,1.25l-1,.9-1,.92-.91.87-1.1,1.09q-.51.49-1,1l-.85.86q-1.8,1.84-3.65,3.89c-.26.29-.53.58-.79.88-.85.95-1.7,1.92-2.56,2.93-.53.63-1.06,1.26-1.59,1.91s-1.07,1.31-1.6,2-1.07,1.35-1.61,2.05q-1.53,2-3,4.11c-.29.39-.57.78-.84,1.18s-.61.87-.91,1.3c-.4.58-.8,1.16-1.19,1.75s-.8,1.2-1.19,1.8-.79,1.21-1.18,1.83-.79,1.25-1.17,1.88-.74,1.21-1.1,1.82-.73,1.23-1.09,1.85l-.68,1.18c-1.33,2.35-2.64,4.79-3.91,7.32-.36.72-.72,1.45-1.07,2.18s-.71,1.47-1.06,2.23l-.72,1.56c-.41.9-.81,1.81-1.21,2.74-.86,2-1.7,4-2.5,6.13l-.42,1.1c-.35.91-.68,1.82-1,2.75-.21.6-.42,1.2-.64,1.81a1,1,0,0,1-.05.16c-.19.56-.38,1.13-.58,1.7-.06.19-.12.38-.19.58a.88.88,0,0,1,0,.15c-.27.81-.53,1.63-.79,2.46s-.57,1.89-.85,2.84-.59,2-.87,3.08-.49,1.83-.73,2.76-.5,2-.74,3c-.16.65-.31,1.31-.46,2l0,.14c-.15.67-.3,1.35-.44,2-.06.25-.11.5-.16.75s-.11.5-.15.75c-.2.91-.38,1.83-.54,2.75s-.31,1.66-.46,2.5q-.27,1.54-.51,3.12c-.09.5-.16,1-.23,1.49s-.15,1-.22,1.5c-.2,1.38-.38,2.77-.55,4.17-.09.82-.19,1.64-.27,2.47s-.17,1.61-.24,2.42c-.1,1-.19,2.06-.27,3.1-.05.62-.1,1.24-.13,1.86s-.09,1.22-.12,1.84a3.87,3.87,0,0,0,0,.48l-.06,1c-.07,1.23-.12,2.48-.16,3.73,0,.53,0,1.06-.05,1.6,0,1.1-.06,2.22-.07,3.34,0,.35,0,.69,0,1,0,1.61,0,3.24,0,4.89q0,1.47.06,3l0,1.08c.07,2.24.17,4.5.32,6.79q0,.9.12,1.8c.06,1,.13,2,.22,3s.18,2.1.28,3.16c.21,2.25.45,4.53.74,6.84.12,1,.25,2,.39,3.05s.28,2,.43,3.09c.3,2.07.62,4.15,1,6.26.12.71.24,1.41.37,2.12.24,1.41.5,2.83.78,4.27.07.39.15.8.23,1.2q.2,1,.42,2.07a.13.13,0,0,0,0,.06c.21,1.08.44,2.16.68,3.25.3,1.41.62,2.83,1,4.26s.67,2.86,1,4.31c-2.83-2.61-5.93-5.63-9.19-9l-1.41-1.49-1.9-2.06c-1.54-1.69-3.09-3.45-4.67-5.3-1.89-2.23-3.8-4.57-5.7-7L649,926.7l-1.8-2.43,0,0c-.58-.81-1.17-1.63-1.75-2.46s-1.19-1.7-1.77-2.56c-.31-.44-.61-.89-.9-1.34-.51-.77-1-1.54-1.52-2.32-.3-.46-.6-.93-.89-1.4s-.76-1.21-1.13-1.82l-1.11-1.84c-.37-.61-.74-1.23-1.1-1.86l-.54-.94c-.19-.31-.37-.63-.54-1-.36-.63-.72-1.27-1.07-1.91s-.61-1.11-.9-1.66c-.45-.83-.89-1.68-1.32-2.52s-.73-1.43-1.08-2.15-.68-1.37-1-2.06-.66-1.39-1-2.09l-.48-1.05c-.48-1-1-2.11-1.4-3.18q-.4-.93-.78-1.86c-.38-.91-.75-1.83-1.11-2.75s-.69-1.81-1-2.72c-.56-1.52-1.1-3-1.62-4.61-.26-.78-.52-1.56-.76-2.35q-.75-2.37-1.42-4.78c-.22-.78-.44-1.56-.64-2.35a.24.24,0,0,1,0-.08c-.21-.82-.42-1.64-.62-2.46-.17-.67-.32-1.34-.47-2-.2-.85-.39-1.69-.56-2.54-.1-.44-.19-.87-.27-1.31q-.72-3.57-1.26-7.23c-.11-.73-.22-1.48-.31-2.22s-.2-1.49-.28-2.24-.2-1.76-.28-2.65c0-.39-.08-.78-.11-1.18-.15-1.55-.26-3.11-.35-4.68-.06-.9-.1-1.81-.13-2.72,0-.11,0-.22,0-.33,0-.67,0-1.33-.06-2a.33.33,0,0,1,0-.14c0-.26,0-.53,0-.79,0-.75,0-1.51,0-2.27,0-.58,0-1.15,0-1.72,0-.4,0-.79,0-1.19,0-.92,0-1.84.08-2.76l.06-1.39c0-.46,0-.92.07-1.39,0-.73.09-1.46.14-2.19s.09-1.26.15-1.88c0-.32,0-.63.08-.94s.05-.63.09-1c0-.48.09-1,.15-1.45s.11-1,.17-1.56.14-1.2.22-1.8q.35-2.75.81-5.54c.15-.92.32-1.86.49-2.8.09-.46.17-.92.26-1.38.15-.79.31-1.59.48-2.39s.28-1.36.44-2c.27-1.27.57-2.55.89-3.83.37-1.51.77-3,1.18-4.56.21-.77.43-1.54.66-2.32s.45-1.56.7-2.34.47-1.56.73-2.35q1.47-4.56,3.23-9.23c.22-.58.44-1.16.67-1.74.4-1,.81-2.06,1.24-3.1.15-.35.29-.71.44-1.07s.29-.71.45-1.07c.28-.66.56-1.32.85-2q1.29-3,2.73-6h-.1c17.67-37.36,32.5-65.37,44.36-87.91,27.69-52.42,40.43-76.52,37.09-120.1,25.25,15,91.63,62.72,98.48,150.94,6.16,79-4,112.81-10.53,126a25.31,25.31,0,0,1-3.64,5.75A6,6,0,0,0,807,842.1a216.71,216.71,0,0,0,55.34-136.68C877.32,733,900.77,787.68,887.6,841.72Z"/><path class="cls-9" d="M804.56,898.83c-8.59,5.19-17.55,9.94-24.45,12a6,6,0,0,1-6.56-2.19c-.35-.44-1.87-2.53-4.15-6.06h0a230.41,230.41,0,0,1-12.28-21.8C744.57,855.51,729.62,815,730.8,767.4c-21.56,17.36-69.86,69.22-48,173.93q1.29,6.17,2.91,12.58c.39,1.51.77,3,1.19,4.54q.17.67.36,1.35c.14.51.28,1,.43,1.53a.77.77,0,0,0,0,.19q.51,1.88,1.08,3.78c7.54,3.85,18.37,7.79,33.48,10.16,1.37.22,2.78.43,4.22.61l1.35.18h0c6,.74,12.66,1.24,20,1.42a103.2,103.2,0,0,0,30.44-2.35A100.3,100.3,0,0,0,807.55,964c.28-1.07.59-2.3.94-3.67.54-2.13,1.16-4.6,1.83-7.33h0c.69-2.79,1.42-5.84,2.18-9.11h0c3.53-15.12,7.66-34.55,9.81-50.81,0,0,0-.06,0-.09.28-2.11.51-4.16.72-6.14C817.9,890.38,811.35,894.74,804.56,898.83Zm-55.87-5.43a2.24,2.24,0,0,1,0-.24C748.67,893,748.76,893.19,748.69,893.4Z"/><path class="cls-10" d="M862.34,705.42A216.71,216.71,0,0,1,807,842.1a6,6,0,0,1-8.31-8.63,25.31,25.31,0,0,0,3.64-5.75c6.55-13.14,16.69-47,10.53-126-6.85-88.22-73.23-135.9-98.48-150.94,3.34,43.58-9.4,67.68-37.09,120.1-11.86,22.54-26.69,50.55-44.36,87.91h.1q-1.44,3-2.73,6c-.29.66-.57,1.32-.85,2-.16.36-.31.72-.45,1.07s-.29.72-.44,1.07c-.43,1-.84,2.07-1.24,3.1-.23.58-.45,1.16-.67,1.74q-1.77,4.66-3.23,9.23c-.25.78-.5,1.57-.73,2.35s-.47,1.56-.7,2.34-.45,1.55-.66,2.32c-.41,1.53-.81,3.05-1.18,4.56-.32,1.28-.62,2.56-.89,3.83-.16.69-.3,1.37-.44,2s-.33,1.6-.48,2.39c-.09.46-.17.92-.26,1.38-.17.94-.34,1.88-.49,2.8q-.47,2.79-.81,5.54c-.08.6-.16,1.2-.22,1.8s-.12,1-.17,1.56-.11,1-.15,1.45c0,.32-.07.63-.09,1s-.06.62-.08.94c-.06.62-.11,1.25-.15,1.88s-.1,1.46-.14,2.19c0,.47,0,.93-.07,1.39l-.06,1.39c0,.92-.07,1.84-.08,2.76,0,.4,0,.79,0,1.19,0,.57,0,1.14,0,1.72,0,.76,0,1.52,0,2.27,0,.26,0,.53,0,.79a.65.65,0,0,0,0,.14q0,1,.06,2c0,.11,0,.22,0,.33,0,.91.08,1.82.13,2.72.09,1.57.2,3.13.35,4.68,0,.4.07.79.11,1.18.08.89.17,1.77.28,2.65s.18,1.5.28,2.24.2,1.49.31,2.22q.54,3.66,1.26,7.23c.08.44.17.87.27,1.31.17.85.36,1.69.56,2.54.15.68.3,1.35.47,2,.2.82.41,1.64.62,2.46a.24.24,0,0,0,0,.08c.21.79.42,1.57.64,2.35q.67,2.41,1.42,4.78c.24.79.5,1.57.76,2.35.52,1.56,1.06,3.09,1.62,4.61.34.91.68,1.82,1,2.72s.73,1.84,1.11,2.75q.38.93.78,1.86c.45,1.07.92,2.13,1.4,3.18l.48,1.05c.32.7.65,1.4,1,2.09s.66,1.38,1,2.06.71,1.44,1.08,2.15.87,1.69,1.32,2.52c.29.55.59,1.11.9,1.66s.71,1.28,1.07,1.91c.17.32.35.64.54,1l.54.94c.36.63.73,1.25,1.1,1.86l1.11,1.84c.37.61.75,1.22,1.13,1.82s.59.94.89,1.4c.5.78,1,1.55,1.52,2.32.29.45.59.9.9,1.34.58.86,1.17,1.72,1.77,2.56s1.17,1.65,1.75,2.46l0,0,1.8,2.43,1.8,2.37c1.9,2.46,3.81,4.8,5.7,7,1.58,1.85,3.13,3.61,4.67,5.3l1.9,2.06,1.41,1.49c3.26,3.42,6.36,6.44,9.19,9-.35-1.45-.7-2.88-1-4.31s-.65-2.85-1-4.26c-.24-1.09-.47-2.17-.68-3.25a.13.13,0,0,1,0-.06q-.22-1-.42-2.07c-.08-.4-.16-.81-.23-1.2-.28-1.44-.54-2.86-.78-4.27-.14-.71-.26-1.42-.37-2.12-.36-2.11-.69-4.19-1-6.26-.16-1-.3-2.07-.43-3.09s-.28-2-.39-3.05c-.29-2.31-.53-4.59-.74-6.84-.1-1.06-.2-2.11-.28-3.16s-.16-2-.22-3q-.07-.9-.12-1.8c-.15-2.29-.25-4.55-.32-6.79l0-1.08q0-1.5-.06-3c0-1.65,0-3.28,0-4.89,0-.35,0-.69,0-1,0-1.12,0-2.24.07-3.34,0-.54,0-1.07.05-1.6,0-1.25.09-2.5.16-3.73l.06-1a3.87,3.87,0,0,1,0-.48c0-.62.07-1.23.12-1.84s.08-1.24.13-1.86c.08-1,.17-2.08.27-3.1.07-.82.15-1.62.24-2.42s.18-1.65.27-2.47c.17-1.4.35-2.79.55-4.17.07-.5.14-1,.22-1.5s.14-1,.23-1.49q.24-1.58.51-3.12c.15-.84.3-1.67.46-2.5s.34-1.84.54-2.75q.06-.37.15-.75c.05-.25.1-.5.16-.75.14-.68.29-1.36.44-2l0-.14c.15-.67.3-1.33.46-2,.24-1,.49-2,.74-3s.48-1.85.73-2.76.57-2.07.87-3.08.56-1.9.85-2.84.52-1.65.79-2.46a.88.88,0,0,0,0-.15c.07-.2.13-.39.19-.58.2-.57.39-1.14.58-1.7a1,1,0,0,0,.05-.16c.22-.61.43-1.21.64-1.81.33-.93.66-1.84,1-2.75l.42-1.1c.8-2.09,1.64-4.14,2.5-6.13.4-.93.8-1.84,1.21-2.74l.72-1.56c.35-.76.7-1.5,1.06-2.23s.71-1.46,1.07-2.18c1.27-2.53,2.58-5,3.91-7.32l.68-1.18c.36-.62.72-1.24,1.09-1.85s.73-1.22,1.1-1.82.77-1.26,1.17-1.88.78-1.22,1.18-1.83.78-1.2,1.19-1.8.79-1.17,1.19-1.75c.3-.43.6-.87.91-1.3s.55-.79.84-1.18q1.51-2.12,3-4.11c.54-.7,1.07-1.38,1.61-2.05s1.07-1.33,1.6-2,1.06-1.28,1.59-1.91c.86-1,1.71-2,2.56-2.93.26-.3.53-.59.79-.88q1.84-2,3.65-3.89l.85-.86q.51-.53,1-1l1.1-1.09.91-.87c.33-.32.66-.63,1-.92l1-.9c.47-.44.92-.85,1.37-1.25.84-.76,1.67-1.48,2.46-2.15.26-.24.52-.46.78-.67,1.54-1.29,3-2.44,4.25-3.43l.59-.45c.75-.57,1.44-1.09,2.08-1.55l.79-.56.81-.57.69-.47.61-.41c1.14-.76,1.8-1.16,1.87-1.2a6,6,0,0,1,8.95,5.71c-.08,1-.15,2-.22,3s-.13,2-.18,2.94l-.06,1.3c0,.47-.05.93-.06,1.39,0,.62,0,1.24-.07,1.86s0,1.3-.05,1.95c0,2.08,0,4.14,0,6.18,0,.52,0,1,0,1.55,0,.13,0,.26,0,.38,0,.62,0,1.23,0,1.84,0,1.22.09,2.42.15,3.63l0,.74.09,1.6c0,.62.07,1.24.12,1.85,0,.42,0,.83.09,1.25.08,1.11.17,2.21.27,3.31s.19,2.06.3,3.08.18,1.76.29,2.64c.14,1.21.29,2.41.45,3.61,0,.4.11.79.16,1.18.2,1.41.41,2.81.63,4.19.07.45.14.9.22,1.35s.18,1.1.28,1.64.23,1.33.35,2,.19,1,.29,1.56.2,1.07.31,1.6.21,1.07.32,1.59c.15.75.3,1.49.46,2.22s.38,1.75.58,2.62.4,1.74.61,2.6.39,1.62.59,2.42.45,1.79.68,2.67l.42,1.6q.47,1.74,1,3.45c.31,1.07.62,2.14.93,3.19.47,1.55.94,3.08,1.43,4.59.42,1.32.85,2.63,1.29,3.91.31.92.62,1.83.94,2.73.51,1.44,1,2.86,1.54,4.25.15.42.31.83.47,1.24.27.73.55,1.46.83,2.18.39,1,.79,2,1.19,3s.69,1.72,1,2.57c1.88,4.55,3.79,8.78,5.65,12.66q.47,1,.93,1.92c1.56,3.2,3.08,6.14,4.52,8.81,1.62,3,3.13,5.65,4.48,7.93,1.53,2.58,2.86,4.69,3.9,6.29.55-.22,1.1-.45,1.67-.7s1.14-.5,1.72-.77l1.77-.84c.43-.2.86-.42,1.3-.64l.17-.09,1-.51.89-.46.91-.48c1-.54,2.06-1.11,3.1-1.69,1.77-1,3.55-2,5.33-3.1.76-.45,1.51-.91,2.26-1.37l.39-.24,2.62-1.63,1.86-1.18,1.82-1.17,1.48-1,1.05-.69,1.53-1c3.56-2.37,6.74-4.57,9.21-6.31,3.27-2.31,5.31-3.82,5.39-3.88a6,6,0,0,1,9.55,4.83c0,.54,0,1.08,0,1.64,0,.27,0,.55,0,.83s0,.84,0,1.27c0,.78-.07,1.57-.12,2.38,0,.44-.05.88-.08,1.33-.08,1.17-.18,2.36-.29,3.59,0,.18,0,.35-.05.53-.19,2.06-.43,4.2-.7,6.39l-.21,1.64q-.2,1.53-.42,3.09-.27,1.9-.57,3.84c-.07.43-.13.86-.2,1.29-.13.86-.27,1.74-.42,2.61-.23,1.39-.47,2.79-.72,4.21-.13.79-.28,1.59-.42,2.38s-.23,1.27-.35,1.91c-.24,1.35-.5,2.7-.76,4,0,.23-.09.46-.13.68l-.78,4h0c-.13.69-.27,1.37-.42,2-.55,2.74-1.12,5.45-1.7,8.1-.28,1.33-.57,2.64-.86,3.93-.14.65-.28,1.29-.43,1.93-.22,1-.45,2-.68,3-.91,4-1.8,7.75-2.63,11.19.9-.89,1.82-1.83,2.77-2.81l1-1c3.5-3.63,7.33-7.82,11.32-12.54l2.46-2.94.57-.7,1-1.26c.58-.71,1.15-1.43,1.73-2.16.8-1,1.59-2,2.39-3.07.55-.71,1.09-1.43,1.64-2.16h0l.67-.89c3.93-5.27,7.88-11,11.74-17.15h0c.23-.36.46-.72.68-1.09s.46-.74.68-1.11c.45-.74.9-1.48,1.35-2.24l1.35-2.28c.08-.13.16-.26.23-.39l1.2-2.11q.75-1.31,1.47-2.64c1-1.83,2-3.7,3-5.6.43-.85.87-1.7,1.3-2.56.25-.52.51-1,.77-1.55s.51-1,.76-1.57c.34-.7.67-1.4,1-2.11.69-1.47,1.37-3,2-4.47.3-.67.59-1.35.88-2,1.19-2.76,2.33-5.58,3.42-8.44.26-.66.51-1.33.75-2s.53-1.43.78-2.15c.38-1.08.76-2.15,1.13-3.24.29-.87.58-1.74.86-2.62s.64-2,.94-3,.61-2,.9-3c.18-.59.35-1.19.51-1.79.3-1,.58-2.08.85-3.13.11-.41.21-.82.32-1.23.19-.72.37-1.45.55-2.18C900.77,787.68,877.32,733,862.34,705.42Zm-19,168.38v0a.61.61,0,0,1,0,.12s0,.08.05.13S843.42,873.87,843.38,873.8Z"/><path class="cls-11" d="M742.76,774.49q0-3.06,0-6.18C742.74,770.39,742.74,772.45,742.76,774.49Z"/><path class="cls-11" d="M829.35,922.67h0Z"/><path class="cls-11" d="M843.48,874c0-.08-.06-.15-.1-.22v0a.61.61,0,0,1,0,.12S843.46,874,843.48,874Z"/></g><polyline class="cls-4" points="962.01 993.63 962.01 993.64 964.33 1003.69 959.04 1007.59 956.29 1013.73 955.89 1014.62 955.89 1024.87 963.31 1023.91 963.87 1018.81 964.33 1014.62 971.51 1008.86 972.35 999.51"/><circle class="cls-12" cx="779.17" cy="779.17" r="779.17"/></g></g></svg>