<svg xmlns="http://www.w3.org/2000/svg" xmlns:xlink="http://www.w3.org/1999/xlink" viewBox="0 0 1602.34 1558.35"><defs><style>.cls-1,.cls-2,.cls-3,.cls-4,.cls-5,.cls-6{fill:none;stroke:#1d1d1b;}.cls-1,.cls-4,.cls-5,.cls-6{stroke-miterlimit:10;}.cls-1,.cls-2{stroke-width:6px;}.cls-2,.cls-6{stroke-linecap:round;}.cls-2,.cls-3{stroke-linejoin:round;}.cls-4{stroke-width:0.75px;}.cls-5,.cls-6{stroke-width:5px;}.cls-7{fill:url(#radial-gradient);}</style><radialGradient id="radial-gradient" cx="779.17" cy="779.17" r="779.17" gradientUnits="userSpaceOnUse"><stop offset="0" stop-color="#e3312d" stop-opacity="0.1"/><stop offset="0.22" stop-color="#e95f32" stop-opacity="0.1"/><stop offset="0.48" stop-color="#f08a34" stop-opacity="0.08"/><stop offset="0.76" stop-color="#fbbf00" stop-opacity="0.05"/><stop offset="1" stop-color="#ffef26" stop-opacity="0.02"/></radialGradient></defs><g id="Layer_2" data-name="Layer 2"><g id="Layer_1-2" data-name="Layer 1"><path class="cls-1" d="M1278.67,801.33s12.86,21.65,13.65,23.1,26.38,46.85,26.51,47.51,36.75,47,40.42,51.18L1280,924.44H1178.4a14.93,14.93,0,0,1-5.78-8.14c-1.31-5.25-2.1-20.34,13.39-28.35s37.53-34.12,37.53-34.12l41.74-39.64s14.47-9.5,13.39-12.86c-3.28-10.24-16.28-25.2-16.28-25.2"/><path class="cls-1" d="M1178.4,924.44s-19.43.26-24.09,19.75c-.32,1.35.79,9.15,0,12.21s-3.25,4.13-17.32,6.89l-17.11.94a46.52,46.52,0,0,1-5,0l-17.75-.88a5.65,5.65,0,0,0-2.63.47,23,23,0,0,1-6.11,2.11c-7.7,1.32-13.43,1.06-21.82-.17l-6.61-1.7s-1.91-.88-12.34-.78-11.48-7.09-11.48-7.09,1.54-4.33,11.68-4.33,12.5,0,17.32-1,13-2.75,15.55-4.92,26.29-12,35.24-16.73c0,0,25.6-7.29,58.8-69.89s44.1-69.82,44.1-69.82,28.48-70.88,60.37-73.24c0,0,7.88-5.25,21.79,11s22.57,25.19,25.2,27.82,31,26,31,26l46.2,45.14,16.54,16.54s-10.76-10.76-27.83,32.55-32.81,47.77-32.81,47.77l3.41,6.83s16-8.53,23.37-3.41,16,17.85,16,17.85,9,13.75,10.5,22.43,7.35,33,7.35,33"/><path class="cls-1" d="M1463.2,661.16s7.09,42.65,8.4,51.45,6.3,42.52,6.3,42.52,8.14,39.37,7.09,49.35a66,66,0,0,0,.09,16.54l-3.3,14.12"/><path class="cls-1" d="M1475.54,808.15s4.85,18.25,6.56,28.88,3,48.56,3,48.56l4.11,48.56s8.26,48.3,9.71,52.76,29.92-.39,38.32,3.41,36.88,4.73,42,7.35,13.13,7.35,13.13,7.35-28.75,1.71-34.65,0-23.76-1-23.76-1h-13"/><path class="cls-1" d="M1512.81,999.82s20,8.35,21.13,8.88,20,3,15.62,6.3-9.32,3.54-15.62,2.36-22-4.73-23.23-5-8,4.76-23.36-3.46-10.37-6.51-10.76-15.44-1-13.38-1-13.38,0,3.14-7.09,13.12-38.06,6.62-38.06,6.62l-91.61-.06s-54.47.13-55.91,0-32.55.4-58.28-5.25-44.75-13.25-56.43-23.36-13.85-14.76-13.85-14.76"/><line class="cls-1" x1="1456.37" y1="901.34" x2="1475.54" y2="980.09"/><path class="cls-1" d="M1491.35,946.65s22.12-25.23,22.25-54.24,3.15-56.43,3.15-56.43,1.84-30.71,1.84-39.11,3.14-42.53,3.14-42.53,10-52.63-30.38-100.27-51-54.86-51-54.86l-22.83-24.67s-5.78-10.11-5.78-11.82,3.68-10.23,4.2-17.85,18.77-7,17.59-15.48,1.57-13.78-4.73-15.23-8-6.17-12.6,0-5.12,8.27-11.28,14.18-8.4,15.48-8.4,15.48,1-15.75,0-21.78-13-12.73-15-18.38a93.23,93.23,0,0,0-5.51-12.07s-5.9-4.73-7.35-4.73-15.75-2.62-15.75-2.62a155.69,155.69,0,0,0-5.51,19.16c-1.57,8.27-.26,15.49-2.36,20.21s3.94,7.22-16.28,21.26c0,0,13.92,9.72,14.44,20.48s.53,22.7.53,23.36-2.76,17.46,17.85,4.46,31.49-21.26,31.49-21.26"/><path class="cls-1" d="M1369.28,588.27s9.92-8.88,19.9,3.06,15,11.55,10.5,16.8-19.17,15-19.17,15-20.47,13.51-28.08,26.25c0,0-54.08,4.06-65.36,13.38,0,0-35,11.68-43.31,26,0,0-18.77,20.57-29.14,26.75S1176,748.3,1176,748.3s-9.84,10.9-12.07,12.87-31.5,42.78-31.76,47.51-2.89,19.42-1.58,27.82,1.05,22.18,2.89,23.63,4.86.65,5-3.68,1.44-15.09,1.83-18.37-.26-8.8,1.05-12.08,8.54-14,10.5-16.27,11.55-14.31,13.13-15,1,9.84,3.15,15.48,2.23,13.39,6.56,8.4,7-10.37,7.61-13.12,2.76-16.8,2.63-18.11.26-12.87.26-12.87l1.31-4.72s49-25.59,52.5-29.14l11.7-11.69s18.75-22.3,26.63-27.16"/><line class="cls-1" x1="1239.03" y1="740.69" x2="1252.78" y2="732.38"/><path class="cls-1" d="M1284.44,715.44s-3.15-3.23,17.85-9.66,58.41-22,62-26.51"/><path class="cls-1" d="M1355.05,674.54s21.26,4.07,25.46,8.93,7.35,8.14,7.35,8.14-1.18,20.37-1,23.83.27,20.27,2.89,25.25,4.86,9.58,5.25,13.13-.13,8.79,2.89,13.65a73.45,73.45,0,0,0,12.6,15c4.85,4.33,8.92,5.64,12.6,8.14s5.12,10.63,5,13.91-1.8,13.91-2.22,18.37a44.07,44.07,0,0,1-2.51,10.76c-.79,2.1-3.41,9.19-3.41,9.19s-6.17,20.74-5.51,26.25-3.42,4.07,9.45,15.23,32.54,17.06,32.54,17.06-3-23.76-1.57-39.9a143.71,143.71,0,0,0-1.31-32.29s-12.86-27.17-12.6-36-3.41-29.4-3.41-29.4l-7.88-43s-21-44.75-21-53-1.31-24.15-1.31-24.15,17.06-29.79,35.43-31.24"/><path class="cls-1" d="M1139.62,844.15s6.23,8.1,10.16,9.68,8.27,4.37,5.78-4.84-4.84-6.32-7.6-12.23a63.34,63.34,0,0,0-6.58-10.76"/><path class="cls-1" d="M1152.41,840.75s12.6,7.83,12.86,2.84-7-5.91-7.61-6.83-5.38-3.93-5.25-5.25-1.31-3.67-1.31-3.67"/><path class="cls-1" d="M1157.66,836.76a7.82,7.82,0,0,0,3.41-6.82c-.13-4.72-2.6-1.71-4.78-5.51s-1.78-1.45-3.36-5.51-3.66-6.06-1-9.19"/><path class="cls-1" d="M1387.1,706.06s3.78,17.7,8.11,20.72,9.06,1.64,11.82-3.84,4.59-11.25,4.72-13.75,0-26.51,0-26.51l0-3.41"/><line class="cls-1" x1="1426.4" y1="795.57" x2="1440.89" y2="793.19"/><path class="cls-1" d="M1473.7,726.74s11.42,1.62,17.59,2.93,8.13,2.48,10.5-1.32.52-15.8-2.1-31-3.81-15.2-4.73-21,.18-17.64.18-17.64"/><path class="cls-1" d="M1481.6,774.68s-.29.4,12.05-7.48,12.73-12.33,19.69-15.75a21,21,0,0,0,9.49-8.92"/><path class="cls-1" d="M1391.37,720.5s2.27-45.4,3.58-61.76,1.66-26.72,4.51-37.22.22-13.39.22-13.39"/><path class="cls-1" d="M1387.86,691.61s-.13-40,0-41.48,3.2-21,3.51-22.83,0-13.39,0-13.39"/><path class="cls-1" d="M1347.44,503.4s-12.7-6.3-12.8-14.37-2.65-8.37,2.37-11.81,7.28-4,5.31-7.88-18.11-8.27-6.69-16.14,23.13-9.16,25-9.06,11.42-1.38,11.42-1.38l9.25-4.92s11-5.21,12-5.51,16.14,2.36,16.14,2.36,26.88,7.09,27.37,8.07,14.17,11.13,15,11,4.59-.39,4.59-.39a44.73,44.73,0,0,1,4.07-11.42c3.25-6.5,8.17-9.55,8.67-7.88s-1.28,4.33,2.36,1.58,5.61.1,6.1.19,17.13,10.64,17.13,10.64,2.75,5.9,3.54,6.69,6.5,3.15,6.5,3.15-20.08,17.32-17.92,18.9,7.88,5.9,7.88,5.9,4.72,5.61,2.56,6.3-9,9.45-9.85,11-3.54,4.23-2.56,6.5,2.76,6.49,2.56,8.07-1.87,6.2-5.11,6.69-10.24,2.36-10.83,3.54-3,7.39-5.12,7.49-4.33,6.49-4.33,6.49,3.34,6.4,3.54,7.48a37.43,37.43,0,0,1-.59,7.68c-.29.69-5.61,6.5-7.68,6.89s-12.2.79-13.78,1-9.45-.6-9.45-.6-2.06,9.55-2,10.24-3.15,15.16-3.15,15.16l-.09,1.67"/><path class="cls-1" d="M1347.44,464.22s7.48,14.47,16.54,16.54,10-2.36,10-2.36,1.67-9,5.71-11,12.79-9.15,17.72-10"/><path class="cls-1" d="M1374,478.4s-5.71,13.48,9.45,21.85,16.14,8.47,16.14,8.47"/><path class="cls-1" d="M1405.71,469.32c.69.22,24.42,0,24.42,0l8.07,12"/><polyline class="cls-1" points="1456.38 453.4 1453.16 461.66 1443.71 471.11"/><path class="cls-1" d="M1443.71,487.45s-9.38,11.82,6.33,8.08,15.32,3,15.72-9.26l.39-12.2"/><polyline class="cls-1" points="1470.88 448.08 1478.56 459.5 1476 485.16 1475.8 497.49 1469.3 509.54"/><path class="cls-2" d="M335.33,442.82s18.47,16.28,18.66,17-4.11,8.36-10.93,16.34-4.32,5-4.12,10c0,0,4.4,43.53.45,50.19s.92,20.33-35.13,9.65c0,0-22.72-3.47-32.91-19"/><path class="cls-2" d="M345.92,472.64s-13.87-14.51-15.35-19.27c0,0-25.41-1.48-42.72-18.91,0,0,3.28,12-31.65,25.09,0,0,17.95,8.88,12.35,32h-2.41s1.49,5.4,0,6.18-2.8,1.4-7.24,2.22c0,0-8.16-.1-1.55,6.85s10.67,16.79,14,20.17c0,0-5,17.47-14,22.87,0,0-7.23.58-4.24-2.89s4.92-3.19,5.4-10,4-9.75,1.16-11.77-15.83-4.83-15.83-4.83-12.64-16.7-12.16-20.07-.51-7.34,0-9.27l.49-1.93s-11.58,1.06-14-4.05-9.65-8.21-8.69-13.51S224,445,235,448.16c0,0-4.63-4.57-4.11-6.37,0,0-14.22.06-14.67-1.54s1.67-13,6.82-14.67c0,0,2.51-9.27-18.28-16.09,0,0,11.2-.84,16.6,1.93s6.76,8.11,8.5,2.58,3.15-7.15-.65-12.1S213,392.83,218,388.77s11.32-9.2,20.33-2.44c0,0,2.19-.52,5.66,1.67s4.76-3.34,4.76-3.34,7.79-12.1,14.16,1.8c0,0-.65,10.55-.77,14,0,0-1.29,5,2.18,3.86s7-7.85,9.78-7.59,9.2-3.67,18.27,9.27c0,0,28.44-2.19,50.06,23.67l.65,19.82"/><path class="cls-2" d="M247.19,449.38s23.16-26.76,41.3-20.84"/><path class="cls-2" d="M264.3,404.34s-33.39,12.94-29.59,20.72"/><path class="cls-2" d="M225.44,469.84s4,.77,7.46,12.61,13.26,24.2,17.76,25.74,10.5,3.28,10.5,3.28"/><path class="cls-2" d="M239.6,461.61S242,478,250.66,483.74s6.22,7.14,16.11,11.42"/><path class="cls-2" d="M239.6,483.87s12.61,6.95,19.3,16.12"/><path class="cls-2" d="M320.86,498.15s8.93,7.12,9.4,14c.35,5.07-5,5-12.25,1.83"/><path class="cls-2" d="M269.36,532.63s4.49,29.48-16.18,42.09c0,0-39.19,18.27-42.28,23.16H196.23s-20.33-3.47-29.6,29.85c0,0-32.1,76.18-42.2,85.19,0,0-3.28,12.93,14.28,17.63,0,0,13.45,17.47,44.33,18.34,0,0,68.52,26.54,71.42,31.65,0,0,.67-6.85,7-9.07"/><path class="cls-2" d="M184.75,749.55S113.62,875.06,109.5,954.07c0,0,16,24.51,33.59,27.79s16.6,0,16.6,0,2.5-17.18,6.94-18.53,10.81-.77,10.81-.77,22-19.88,30.5-15.06S224,967.63,253,956.89"/><path class="cls-2" d="M181.05,796.56s-9,77,85.95,175.52"/><line class="cls-2" x1="240.36" y1="772.64" x2="251.18" y2="819.72"/><path class="cls-2" d="M254.46,780.54s-.19,34.17-4.83,45.75c0,0,4.93,13.7,3.77,21.42,0,0,.09,19.16-4.25,28.47,0,0,1.21,8.5,6.18,1.06,0,0,13.7-11.24,9.84-40.43"/><path class="cls-2" d="M259.89,871.43s-.94,13.68,4,14.79c0,0,2.6,1.64,6.37-10.81,0,0,4.58-18.58,4.63-28.86"/><path class="cls-2" d="M271.4,870.58s1.54,15.16,3.52,16.61c0,0,4.49,1.47,4.53-16.61,0,0,.58-24.27.58-26.82"/><path class="cls-2" d="M279.45,870.58s2.47,12.79,5.41,12.84S287.47,869,287.47,869s2.7-32.07,1.41-47.51,3-26.77-4.54-41a38.64,38.64,0,0,0-20.94-18.21l-17.63-9.26-41.05-36.29s-16.6-16-40.4-15.18"/><path class="cls-2" d="M184.75,703.65l3.76-8s-16.09-5.15-26.77,0"/><path class="cls-2" d="M188.51,695.68s10.45-22.47,35.4-39.1"/><path class="cls-2" d="M218.55,660.41s-7.91,28.63-16.4,33,14.67,2.29,14.67,2.29,20.85-26.77,24.71-46.59-6.21-65.69-6.21-65.69"/><path class="cls-2" d="M202.15,693.39s-8.59,12.68-8.67,15.53"/><path class="cls-2" d="M242.41,578.83s12,22.27,25.88,29.86"/><path class="cls-2" d="M247.5,587.12s15,30.32,12,47.82-4.07,37.21-2,41.19,16.71,21.09,22.12,21.35S304.06,690,304.06,690s14.8-9,17.25-18-4-42.72-5.92-49.41-11.84-43.76-11.84-43.76h12.1l10,36.29,3.86,33.72,2.83,25.48s1.29,34.48-2.83,42.46S308.44,760,308.44,760l-57.26-4.11"/><path class="cls-2" d="M308.44,760a56.09,56.09,0,0,0-13.13,38.6c1.16,23.42-.06,36.8-.06,36.8l2.38,30.07s2.64,6.22,7.75,9.57"/><path class="cls-2" d="M315.65,578.83h34.73s30.31,27.61,31.28,46.72-4.44,62.48-3.86,76,.19,33.42,2.32,48.67,5.21,60.22,8.1,69.48S400.58,861,400.58,861s-10.23-4.18-31.66,2.45l-7.46-16.93s-9.4-25.41-12.61-35.32.64-21.36-2.58-38.59-2.57-27.16-3.86-54.83a146.94,146.94,0,0,0-10.58-48.38"/><path class="cls-2" d="M365.45,766.84s.77,15.63,7.72,22"/><path class="cls-2" d="M159.69,981.86s-6.95,23.74,0,23.94,9.65-3.09,15.44-12a40.31,40.31,0,0,0,6.13-18.53"/><path class="cls-2" d="M168.93,975.3s3.23,11.71,9.16,12.9"/><path class="cls-2" d="M164.32,988.2s5.4,6.4,10.81,5.63c0,0,25.86-2.19,42.46-5.63s31.68-6.12,35.43-4.88l3.75,1.24"/><path class="cls-2" d="M257.5,961.91s-4.2,38.87-.73,41.18,14.19,8.13,14.63,2.71c0,0,14.71,17.37,13,22s11,15.25,15.44,16.21,8.87-6.37,2-13.51"/><path class="cls-2" d="M304.33,1041.85s11.32,7,14.4,2.25,2.9-2-3.08-9.35"/><path class="cls-2" d="M319.87,1042.45s16.82,5.22,15.08-2.2-2-6.47-7.48-10.52"/><path class="cls-2" d="M335,1040.25s19.3,5.12,2.7-8.59"/><path class="cls-2" d="M344.39,1038.74s17.44,7.56,10.88-10.07c0,0-16.88-8.75-19.45-13.9,0,0-24.23-14-30.44-24.22s-20.57-18.47-29.66-65l-8.35-29.34a25.37,25.37,0,0,0-1.51-10.87"/><path class="cls-2" d="M280.39,946.35s9.59-1,25-12.61S335,918.55,335,918.55l10.81-4.37s42.59-41.44,90.07-41.7"/><path class="cls-2" d="M400.58,861c18.67.58,82.1-17.28,82.1-17.28s34.48,7.07,33.73,29"/><path class="cls-2" d="M298.08,980.94s116.65-24.56,137.76-39.75c13.63-9.8,29-12.68,45.4-23.3"/><path class="cls-2" d="M368.92,863.48s-78.7,3.6-79.69,31.14"/><path class="cls-2" d="M400.58,940.94s55.2-19.35,70.25-28.59"/><path class="cls-2" d="M218,910.39s.31,32.48-7.44,37.76"/><path class="cls-2" d="M311.22,547.91s-14.36-6.91-14.88,9.56-3.47,21.75.26,22.91,6.95-1.55,6.95-1.55"/><polyline class="cls-3" points="483.88 982.49 490.7 983.66 496.94 994.64 500.33 995.47 510.01 997.84 516.83 1003.42 515.97 992.69 507.12 990.17 506.05 989.12 498.79 981.96 497.77 972.94 498.83 968.02"/><polyline class="cls-3" points="979.54 1027.56 994.06 1024.12 1005.73 1021.35 1013.49 1006.82 1014.9 1004.19"/><line class="cls-4" x1="482.12" y1="928.76" x2="481.43" y2="920.25"/><polyline class="cls-5" points="1008.47 884.48 1008.47 899.94 1017.52 906.62 1004.71 918.57 1018.85 925.57"/><polyline class="cls-5" points="517.33 1030.64 506.6 1024.01 493.79 1024.01 490.12 1023.28 480.47 1021.36 469 1026.67 468.99 1026.67"/><path class="cls-5" d="M957.83,951.78l2.08.42v0C959.22,952.06,958.53,951.92,957.83,951.78Z"/><path class="cls-5" d="M976.18,967l-5.29,3.9-2.75,6.14a50.33,50.33,0,0,0-12.85-4.85l-1.47-.31c-27.1-5.38-53.38,12-58.72,38.87l-20.32-4c.26-1.33.57-2.65.9-4s.71-2.58,1.12-3.85.85-2.51,1.32-3.74,1-2.44,1.52-3.63c.28-.61.56-1.22.86-1.82s.45-.91.69-1.36c.08-.18.18-.36.27-.53.2-.39.4-.77.62-1.14s.38-.71.59-1.06c.51-.89,1-1.76,1.58-2.62.69-1.09,1.41-2.15,2.15-3.19.37-.53.75-1,1.14-1.55s1-1.22,1.44-1.82c.31-.39.63-.78,1-1.16s.7-.83,1.07-1.23c1.33-1.5,2.72-2.93,4.17-4.31s2.81-2.56,4.29-3.75l1.71-1.33,1.15-.85a71.38,71.38,0,0,1,8.24-5.14l.08,0,.08,0,.08,0,.23-.12c.47-.24.94-.49,1.42-.72,1.2-.59,2.41-1.15,3.64-1.67.12-.05.23-.11.35-.15l.35-.15h0c.37-.16.75-.31,1.12-.45s.63-.25.94-.36l.94-.35c.48-.18.95-.34,1.43-.5l.12,0,.53-.18,1.57-.49.28-.08c.39-.12.77-.23,1.16-.33l.26-.07.78-.21c.46-.13.93-.24,1.4-.35l.3-.07h.05c.55-.14,1.1-.26,1.65-.37a3.43,3.43,0,0,1,.44-.09l.82-.17c.32-.07.64-.12,1-.17s.73-.14,1.1-.19c.68-.12,1.36-.21,2.05-.29l.39,0c.6-.08,1.2-.14,1.8-.2l.38,0c.67-.06,1.34-.11,2-.15h.1l1.26-.06c.35,0,.71,0,1.06,0,.7,0,1.41,0,2.11,0h.64l1.09,0c.43,0,.87,0,1.3.05l.56,0c.69,0,1.37.08,2.06.13q.33,0,.66.06l1,.09c1.09.11,2.19.25,3.29.42l1.1.17.79.14c.43.07.85.15,1.28.24l.17,0h0c.7.14,1.39.27,2.08.44a72.2,72.2,0,0,1,10.07,3.1c1.32.52,2.62,1.07,3.89,1.66Z"/><path class="cls-5" d="M1013.49,1006.82l-7.76,14.53-11.67,2.77a49.62,49.62,0,0,0-18.34-42l.46-4.19,7.18-5.76.84-9.35A70.67,70.67,0,0,1,1013.49,1006.82Z"/><path class="cls-5" d="M760.53,907.36l-80,16.29-22.78,4.77-51.69,10.83-14.1,3h0l-110.51-22-.19-2.36-.76-9.33L491.07,898l-4.93-13.55a91.06,91.06,0,0,1,30.27-11.76,112.9,112.9,0,0,1,44.14.16l59.23,11.76,14.69,2.92,7.35,1.46,9.16,1.82Z"/><polygon class="cls-5" points="591.94 942.2 587.44 943.15 571.45 946.5 482.12 928.76 481.43 920.25 591.94 942.2"/><path class="cls-5" d="M1018.86,925.57l-93.94,19.68-18.18,3.81L885,953.62l-14.5,3h0l-62,13h0L801,971.21h0l-51.18,10.73-2,.42L611.29,1011c-.17-.82-.36-1.64-.56-2.44-.1-.4-.2-.81-.31-1.2s-.14-.54-.22-.81-.22-.8-.34-1.2c-.18-.63-.37-1.24-.58-1.85,0-.17-.1-.33-.16-.49l-.06-.19v0a1.43,1.43,0,0,1-.08-.22q-.21-.63-.45-1.26c-.11-.31-.22-.62-.35-.93a4.84,4.84,0,0,0-.18-.49q-.19-.52-.42-1.05c-.2-.51-.41-1-.63-1.51s-.43-1-.66-1.49-.42-.89-.63-1.33c-.55-1.14-1.13-2.25-1.74-3.34-.18-.33-.36-.65-.55-1s-.4-.7-.61-1l-.64-1c-.42-.68-.86-1.36-1.31-2q-1.35-2-2.82-3.9c-.45-.58-.91-1.15-1.38-1.72-.09-.12-.19-.23-.29-.35-.33-.39-.66-.78-1-1.16a.53.53,0,0,0-.1-.12c-.14-.18-.3-.35-.46-.52l-.31-.33-.93-1-1-1-.14-.14-.83-.83-1-1c-.92-.87-1.87-1.71-2.83-2.53l-1.06-.88-.53-.42-.26-.21c-.45-.36-.9-.7-1.36-1s-.68-.52-1-.77l-.11-.08c-.52-.38-1-.75-1.58-1.11l-.15-.1-.09-.06,0,0c-.4-.27-.81-.55-1.23-.81l-.51-.33c-.38-.25-.76-.48-1.14-.71a3.24,3.24,0,0,0-.35-.21c-.37-.23-.75-.45-1.13-.67l-.38-.22c-.55-.31-1.1-.62-1.66-.92h0A72,72,0,0,0,526.3,956l45.15-9.46,16-3.35,4.5-.95h0l14.1-3,51.69-10.83,22.78-4.77,80-16.29,112.36-22.88q3.09-4.32,6.16-9c4.23,3.13,10.44,4.39,16.76,3.07l34.64-7.26c29.55-6.19,58.1-.55,78,13.19v15.46l9,6.68-12.81,12Z"/><path class="cls-5" d="M957.65,951.76c-1.06-.21-2.12-.39-3.17-.55-.55-.09-1.1-.16-1.65-.23s-1-.12-1.42-.16l-.29,0-1-.08q-.33,0-.66-.06c-.87-.07-1.75-.13-2.62-.16-.43,0-.87,0-1.3-.05l-1.73,0c-.7,0-1.41,0-2.11,0-.35,0-.71,0-1.06,0l-1.26.06h-.1c-.68,0-1.35.09-2,.15l-.38,0c-.6.06-1.2.12-1.8.2l-.39,0c-.48.06-1,.13-1.45.21l-.6.08-1,.17-.14,0h0l-.14,0-.82.14-.82.17a3.43,3.43,0,0,0-.44.09c-.55.11-1.1.23-1.65.37h-.05l-.3.07c-.47.11-.94.22-1.4.35l-.78.21-.26.07c-.39.1-.78.22-1.16.33l-.28.08-1.57.49-.53.18-.12,0c-.48.16-.95.32-1.43.5l-.94.35c-.31.11-.63.23-.94.36s-.75.29-1.12.45h0l-.35.15c-.12,0-.23.1-.35.15-1.23.52-2.44,1.08-3.64,1.67-.48.23-1,.48-1.42.72l-.23.12-.08,0-.08,0-.08,0c-.61.33-1.22.66-1.83,1-.3.16-.59.33-.89.52s-.7.4-1,.62l-.8.49c-.36.23-.72.46-1.07.7l-.84.55c-.6.41-1.19.82-1.77,1.24s-.91.67-1.35,1-1,.78-1.51,1.17-1,.8-1.46,1.21-.94.81-1.4,1.23l0,0c-.47.42-.93.85-1.39,1.28s-.92.88-1.36,1.33-.84.84-1.24,1.27-.57.61-.84.91-.5.53-.73.8c-.7.78-1.38,1.58-2,2.39-.49.6-1,1.2-1.44,1.82s-.76,1-1.14,1.55q-1.56,2.17-2.95,4.49l-.6,1c-.29.49-.57,1-.83,1.48-.19.34-.38.68-.56,1-.35.66-.69,1.34-1,2s-.54,1.12-.8,1.69a68,68,0,0,0-2.84,7.37c-.41,1.27-.78,2.55-1.12,3.85s-.63,2.62-.9,4l-125-24.81L801,971.21h0l7.43-1.56h0l62-13h0l14.5-3,21.78-4.56,18.18-3.81Z"/><line class="cls-5" x1="592.58" y1="930.1" x2="528.63" y2="917.4"/><line class="cls-5" x1="870.38" y1="950.73" x2="870.38" y2="950.73"/><line class="cls-5" x1="910.58" y1="958.71" x2="884.96" y2="953.62"/><line class="cls-5" x1="834.21" y1="974.77" x2="808.45" y2="969.65"/><polyline class="cls-5" points="562.3 889.54 667.09 910.35 708.81 917.89"/><path class="cls-5" d="M994.06,1024.12l-14.52,3.44-12.14-2.41a23.57,23.57,0,0,0-18-27.48c-.23-.06-.47-.1-.7-.15a23.58,23.58,0,0,0-27.8,18.4l-25.84-5.13c5.34-26.85,31.62-44.25,58.72-38.87l1.47.31a50.33,50.33,0,0,1,12.85,4.85l-.4.89v10.25l7.42-1,.56-5.1A49.62,49.62,0,0,1,994.06,1024.12Z"/><path class="cls-5" d="M921,1015.93a23.58,23.58,0,0,1,27.79-18.41l.7.16a23.56,23.56,0,0,1,18,27.47Z"/><path class="cls-5" d="M526.29,956c-.71.15-1.41.3-2.1.48v0Z"/><path class="cls-5" d="M610.72,1008.52c-.17-.68-.34-1.35-.53-2-.1-.4-.22-.8-.34-1.2-.18-.63-.37-1.24-.58-1.85,0-.17-.1-.33-.16-.49q-.29-.86-.6-1.71c-.11-.31-.22-.62-.35-.93a4.84,4.84,0,0,0-.18-.49q-.19-.52-.42-1.05c-.2-.51-.41-1-.63-1.51s-.43-1-.66-1.49-.42-.89-.63-1.33c-.55-1.14-1.13-2.25-1.74-3.34-.18-.33-.36-.65-.55-1s-.4-.7-.61-1l-.64-1c-.42-.68-.86-1.36-1.31-2q-1.35-2-2.82-3.9c-.45-.58-.91-1.15-1.38-1.72-.09-.12-.19-.23-.29-.35-.33-.39-.66-.78-1-1.16s-.57-.65-.87-1l-.93-1c-.36-.39-.72-.77-1.1-1.14l-.83-.83-1-1c-.92-.87-1.87-1.71-2.83-2.53s-2.11-1.74-3.21-2.55c-.37-.29-.75-.57-1.14-.85s-1-.75-1.58-1.11l-.15-.1h0l-.11-.07c-.4-.27-.81-.55-1.23-.81l-.51-.33-1.14-.71a3.24,3.24,0,0,0-.35-.21c-.37-.23-.75-.45-1.13-.67l-.38-.22c-.55-.31-1.1-.62-1.66-.92h0A72,72,0,0,0,526.29,956c-.72.15-1.42.3-2.11.47A72.22,72.22,0,0,0,498.83,968l-1.06,4.92,1,9,7.26,7.16,1.07,1,8.85,2.52.86,10.73L510,997.84l-9.68-2.37-3.39-.83-6.24-11-6.82-1.17A71,71,0,0,0,469,1026.67l11.47-5.31,9.65,1.92,3.67.73H506.6l10.73,6.63,47.12-9.87h0l26.21-5.49h0l20.6-4.32C611.11,1010.14,610.92,1009.32,610.72,1008.52Z"/><path class="cls-5" d="M564.46,1020.77l-47.12,9.88a23.94,23.94,0,0,1,18-28.12c.24-.07.48-.12.72-.17A24,24,0,0,1,564.46,1020.77Z"/><polyline class="cls-6" points="575.17 962.91 676.45 941.69 695.2 937.76"/><polyline class="cls-6" points="711.34 957.39 760.37 947.64 823.75 935.03 918.91 916.11"/><line class="cls-6" x1="877.33" y1="937.51" x2="967.75" y2="918.57"/><path class="cls-6" d="M869,889.81c6.7,3.36,16.67,5.59,30.62,2.37"/><path class="cls-5" d="M590.68,1015.26v0h0l-26.21,5.49h0l-47.12,9.87L506.6,1024H493.79l-3.67-.73a50.24,50.24,0,0,1,10.21-27.81l9.68,2.37,6.82,5.58L516,992.69l-8.85-2.52-1.07-1a50.79,50.79,0,0,1,23-12.41l1.49-.32C558.06,970.63,585,988,590.68,1015.26Z"/><path class="cls-5" d="M611.28,1011l-20.6,4.31h0l-26.21,5.49h0l-47.12,9.87L506.6,1024H493.79l-3.67-.73-9.65-1.92L469,1026.67a71,71,0,0,1,14.88-44.18l6.82,1.17,6.24,11,3.39.83,9.68,2.37,6.82,5.58L516,992.69l-8.85-2.52-1.07-1L498.79,982l-1-9,1.06-4.92a72.22,72.22,0,0,1,25.35-11.59v0h0l2.11-.44a72,72,0,0,1,48.86,6.95h0c.56.3,1.11.61,1.66.92l.38.22c.38.22.76.44,1.13.67a3.24,3.24,0,0,1,.35.21l1.14.71.51.33c.42.26.83.54,1.23.81l.11.07.15.11c.53.36,1.06.73,1.58,1.11s.77.56,1.14.85c1.1.81,2.16,1.66,3.21,2.55s1.91,1.66,2.83,2.53l1,1,.83.83c.38.37.74.75,1.1,1.14l.93,1c.3.32.59.64.87,1s.67.77,1,1.16c.1.12.2.23.29.35.47.57.93,1.14,1.38,1.72q1.47,1.89,2.82,3.9c.45.67.89,1.35,1.31,2l.64,1c.21.34.41.69.61,1s.37.64.55,1c.61,1.09,1.19,2.2,1.74,3.34.21.44.43.88.63,1.33s.45,1,.66,1.49.43,1,.63,1.51q.23.53.42,1.05a4.84,4.84,0,0,1,.18.49c.13.31.24.62.35.93q.32.86.6,1.71c.06.16.11.32.16.49.21.61.4,1.22.58,1.85.12.4.24.8.34,1.2.19.66.36,1.33.53,2S611.11,1010.14,611.28,1011Z"/><line class="cls-6" x1="605.21" y1="971.22" x2="668.92" y2="958.14"/><line class="cls-6" x1="765.6" y1="966.39" x2="657.3" y2="989.06"/><polyline class="cls-4" points="973.86 956.98 973.86 956.99 976.18 967.04 970.89 970.94 968.14 977.08 967.74 977.97 967.74 988.22 975.16 987.26 975.72 982.16 976.18 977.97 983.36 972.21 984.2 962.86"/><circle class="cls-7" cx="779.17" cy="779.17" r="779.17"/><line class="cls-6" x1="751.17" y1="930.26" x2="858.27" y2="909.23"/></g></g></svg>