<svg xmlns="http://www.w3.org/2000/svg" viewBox="0 0 1495.84 671.96"><defs><style>.cls-1,.cls-2,.cls-3,.cls-4{fill:none;stroke:#1d1d1b;}.cls-1,.cls-3,.cls-4{stroke-miterlimit:10;}.cls-1,.cls-2{stroke-width:6px;}.cls-2,.cls-4{stroke-linecap:round;}.cls-2{stroke-linejoin:round;}.cls-3,.cls-4{stroke-width:5px;}</style></defs><g id="Layer_2" data-name="Layer 2"><g id="Layer_1-2" data-name="Layer 1"><g id="camp"><g id="girlrigth"><path class="cls-1" d="M1172.17,424.55s12.86,21.66,13.65,23.1,26.38,46.86,26.51,47.51,36.75,47,40.42,51.19l-79.27,1.31H1071.9a14.93,14.93,0,0,1-5.78-8.14c-1.31-5.25-2.1-20.34,13.39-28.35S1117,477.05,1117,477.05l41.74-39.64s14.47-9.49,13.39-12.86c-3.28-10.24-16.28-25.2-16.28-25.2"/><path class="cls-1" d="M1071.9,547.66s-19.43.26-24.09,19.75c-.32,1.36.79,9.16,0,12.21s-3.25,4.13-17.32,6.89l-17.11.94a46.52,46.52,0,0,1-5,0l-17.75-.89a5.91,5.91,0,0,0-2.63.47,23.34,23.34,0,0,1-6.11,2.12c-7.7,1.31-13.43,1.05-21.82-.18l-6.61-1.69s-1.91-.89-12.34-.79-11.48-7.09-11.48-7.09,1.54-4.33,11.68-4.33,12.5,0,17.32-1,13-2.76,15.55-4.93,26.29-12,35.24-16.73c0,0,25.6-7.28,58.8-69.89s44.1-69.82,44.1-69.82,28.48-70.87,60.37-73.24c0,0,7.88-5.25,21.79,11s22.57,25.2,25.2,27.82,31,26,31,26l46.2,45.15L1313.39,466s-10.76-10.77-27.83,32.54-32.81,47.78-32.81,47.78l3.41,6.82s16-8.53,23.37-3.41,16,17.85,16,17.85,9,13.76,10.5,22.43,7.35,33,7.35,33"/><path class="cls-1" d="M1356.7,284.38s7.09,42.66,8.4,51.45,6.3,42.52,6.3,42.52,8.14,39.38,7.09,49.35a66,66,0,0,0,.09,16.54l-3.3,14.12"/><path class="cls-1" d="M1369,431.38s4.85,18.24,6.56,28.87,3,48.56,3,48.56l4.11,48.56s8.26,48.3,9.71,52.76,29.92-.39,38.32,3.42,36.88,4.72,42,7.35,13.13,7.35,13.13,7.35-28.75,1.7-34.65,0-23.76-1-23.76-1h-13"/><path class="cls-1" d="M1406.31,623.05s20,8.35,21.13,8.87,20,3,15.62,6.3-9.32,3.54-15.62,2.36-22-4.72-23.23-5-8,4.76-23.36-3.46-10.37-6.52-10.76-15.44-1-13.39-1-13.39,0,3.15-7.09,13.12-38.06,6.62-38.06,6.62l-91.61,0s-54.47.13-55.91,0-32.55.39-58.28-5.25-44.75-13.26-56.43-23.37-13.85-14.76-13.85-14.76"/><line class="cls-1" x1="1349.87" y1="524.56" x2="1369.04" y2="603.31"/><path class="cls-1" d="M1384.85,569.87s22.12-25.23,22.25-54.23,3.15-56.44,3.15-56.44,1.83-30.71,1.83-39.11,3.15-42.52,3.15-42.52,10-52.63-30.38-100.28-51-54.86-51-54.86L1311,197.76s-5.78-10.11-5.78-11.81,3.68-10.24,4.2-17.85,18.77-7,17.59-15.49,1.57-13.78-4.73-15.22-8-6.17-12.6,0-5.12,8.26-11.28,14.17-8.4,15.49-8.4,15.49,1-15.75,0-21.79-13-12.73-15-18.37a93,93,0,0,0-5.51-12.08s-5.9-4.72-7.35-4.72-15.75-2.63-15.75-2.63a156.29,156.29,0,0,0-5.51,19.16c-1.57,8.27-.26,15.49-2.36,20.22s3.94,7.21-16.28,21.26c0,0,13.92,9.71,14.44,20.47s.53,22.71.53,23.36-2.76,17.46,17.84,4.47,31.5-21.27,31.5-21.27"/><line class="cls-1" x1="1132.53" y1="363.92" x2="1146.28" y2="355.61"/><path class="cls-1" d="M1248.55,297.77s21.26,4.07,25.46,8.92,7.35,8.14,7.35,8.14-1.18,20.37-1,23.84.27,20.26,2.89,25.25,4.86,9.58,5.25,13.12-.13,8.79,2.89,13.65a73.18,73.18,0,0,0,12.6,15c4.85,4.33,8.92,5.65,12.6,8.14s5.12,10.63,5,13.91-1.8,13.91-2.22,18.38a44.07,44.07,0,0,1-2.51,10.76c-.79,2.1-3.41,9.19-3.41,9.19s-6.17,20.73-5.51,26.24-3.42,4.07,9.45,15.23,32.54,17.06,32.54,17.06-3-23.75-1.57-39.9a143.59,143.59,0,0,0-1.31-32.28s-12.87-27.17-12.6-36S1331,387,1331,387l-7.88-43s-21-44.76-21-53-1.31-24.15-1.31-24.15,17.06-29.79,35.43-31.23"/><g id="Arm"><path class="cls-1" d="M1262.78,211.49s9.92-8.87,19.9,3.07,15,11.55,10.5,16.8-19.17,15-19.17,15-20.47,13.52-28.08,26.25c0,0-54.08,4.07-65.36,13.39,0,0-35,11.68-43.31,26,0,0-18.77,20.57-29.14,26.76s-38.59,32.83-38.59,32.83-9.84,10.89-12.07,12.86-31.5,42.79-31.76,47.51-2.89,19.43-1.58,27.83,1.05,22.18,2.89,23.62,4.86.66,5-3.68,1.44-15.09,1.83-18.37-.26-8.79,1.05-12.07,8.54-14.05,10.5-16.28,11.55-14.3,13.13-15,1,9.84,3.15,15.49,2.23,13.38,6.56,8.4,7-10.37,7.61-13.13,2.76-16.8,2.63-18.11.26-12.86.26-12.86l1.31-4.73s49-25.59,52.5-29.13l11.7-11.7s18.75-22.3,26.63-27.15"/><path class="cls-1" d="M1172.82,335.6s2-.16,23-6.6,61.61-23.78,65.16-28.24"/><path class="cls-1" d="M1033.12,467.38s6.23,8.1,10.16,9.67,8.27,4.37,5.78-4.84-4.84-6.32-7.6-12.22a62.86,62.86,0,0,0-6.58-10.76"/><path class="cls-1" d="M1045.36,464.86s13.15,6.94,13.41,1.95-7-5.9-7.61-6.82-5.38-3.94-5.25-5.25-1.31-3.68-1.31-3.68"/><path class="cls-1" d="M1051.16,460a7.83,7.83,0,0,0,3.41-6.83c-.13-4.72-2.6-1.7-4.78-5.51s-1.78-1.44-3.36-5.51-3.66-6.05-1-9.19"/></g><path class="cls-1" d="M1280.6,329.28s3.78,17.71,8.11,20.72,9.06,1.65,11.82-3.83,4.59-11.26,4.72-13.75,0-26.51,0-26.51l0-3.42"/><line class="cls-1" x1="1319.9" y1="418.8" x2="1334.39" y2="416.41"/><path class="cls-1" d="M1367.2,350s11.42,1.61,17.59,2.92,8.13,2.48,10.5-1.32.52-15.79-2.1-31-3.81-15.2-4.73-21,.18-17.64.18-17.64"/><path class="cls-1" d="M1375.1,397.9s-.29.4,12.05-7.47,12.73-12.34,19.69-15.75a20.94,20.94,0,0,0,9.49-8.93"/><path class="cls-1" d="M1284.87,343.72s2.27-45.4,3.58-61.75,1.66-26.73,4.51-37.23.22-13.38.22-13.38"/><path class="cls-1" d="M1281.36,314.83s-.13-40,0-41.47,3.2-21,3.51-22.84,0-13.39,0-13.39"/><path class="cls-1" d="M1240.94,126.62s-12.7-6.3-12.8-14.37-2.65-8.36,2.37-11.81,7.28-4,5.31-7.87-18.11-8.27-6.69-16.15,23.13-9.15,25-9S1265.55,66,1265.55,66l9.25-4.92s11-5.22,12-5.52S1303,57.92,1303,57.92,1329.83,65,1330.32,66s14.17,11.12,15,11,4.59-.39,4.59-.39a44.87,44.87,0,0,1,4.07-11.42c3.25-6.5,8.17-9.55,8.67-7.87s-1.28,4.33,2.36,1.57,5.61.1,6.1.2,17.13,10.63,17.13,10.63,2.75,5.9,3.54,6.69,6.5,3.15,6.5,3.15-20.08,17.33-17.92,18.9,7.88,5.91,7.88,5.91,4.72,5.61,2.56,6.3-9,9.45-9.85,11-3.54,4.23-2.56,6.5,2.76,6.5,2.56,8.07-1.87,6.2-5.11,6.69-10.24,2.37-10.83,3.55-3,7.38-5.12,7.48-4.33,6.5-4.33,6.5,3.34,6.39,3.54,7.48a37.33,37.33,0,0,1-.59,7.67c-.29.69-5.61,6.5-7.68,6.89s-12.2.79-13.78,1-9.45-.59-9.45-.59-2.06,9.55-2,10.24-3.15,15.15-3.15,15.15l-.09,1.68"/><path class="cls-1" d="M1240.94,87.45s7.48,14.47,16.54,16.53,10-2.36,10-2.36,1.67-9,5.71-11,12.79-9.16,17.72-10"/><path class="cls-1" d="M1267.52,101.62s-5.71,13.49,9.45,21.85,16.14,8.47,16.14,8.47"/><path class="cls-1" d="M1299.21,92.54c.69.22,24.42,0,24.42,0l8.07,12"/><polyline class="cls-1" points="1349.87 76.62 1346.66 84.89 1337.21 94.34"/><path class="cls-1" d="M1337.21,110.68s-9.38,11.81,6.33,8.07,15.32,3,15.72-9.25l.39-12.21"/><polyline class="cls-1" points="1364.38 71.3 1372.06 82.72 1369.5 108.39 1369.3 120.72 1362.8 132.76"/></g><path class="cls-2" d="M228.83,66s18.47,16.28,18.66,17-4.11,8.36-10.93,16.34-4.32,5-4.12,10c0,0,4.4,43.52.45,50.18s.92,20.33-35.13,9.65c0,0-22.72-3.46-32.91-19"/><path class="cls-2" d="M239.42,95.86s-13.87-14.5-15.35-19.27c0,0-25.41-1.47-42.72-18.91,0,0,3.28,12-31.65,25.09,0,0,18,8.88,12.35,32h-2.41s1.49,5.41,0,6.18-2.8,1.4-7.24,2.22c0,0-8.16-.1-1.55,6.85s10.67,16.79,14,20.17c0,0-5,17.47-14,22.88,0,0-7.23.57-4.24-2.9s4.92-3.18,5.4-10,4-9.74,1.16-11.77-15.83-4.83-15.83-4.83-12.64-16.69-12.16-20.07-.51-7.34,0-9.27l.49-1.93s-11.58,1.07-14-4S102,100.05,103,94.74s14.48-26.54,25.48-23.36c0,0-4.63-4.56-4.11-6.37,0,0-14.22.07-14.67-1.54s1.67-13,6.82-14.67c0,0,2.51-9.27-18.28-16.09,0,0,11.2-.83,16.6,1.94s6.76,8.1,8.5,2.57,3.15-7.14-.65-12.1S106.46,16.05,111.48,12s11.32-9.2,20.33-2.45c0,0,2.19-.51,5.66,1.68s4.76-3.35,4.76-3.35,7.79-12.1,14.16,1.8c0,0-.65,10.55-.77,14,0,0-1.29,5,2.18,3.86s7-7.85,9.78-7.59,9.2-3.67,18.27,9.26c0,0,28.44-2.19,50.06,23.68l.65,19.81"/><path class="cls-2" d="M140.69,72.61S163.85,45.84,182,51.76"/><path class="cls-2" d="M157.8,27.57S124.41,40.5,128.21,48.29"/><path class="cls-2" d="M118.94,93.07s4,.77,7.46,12.61,13.26,24.19,17.76,25.73,10.5,3.28,10.5,3.28"/><path class="cls-2" d="M133.1,84.83s2.38,16.34,11.06,22.13,6.22,7.15,16.11,11.42"/><path class="cls-2" d="M133.1,107.09s12.61,7,19.3,16.12"/><path class="cls-2" d="M214.36,121.38s8.93,7.11,9.4,14c.35,5.07-5,5-12.25,1.84"/><path class="cls-2" d="M162.86,155.85s4.49,29.48-16.18,42.09c0,0-39.19,18.27-42.28,23.16H89.73S69.4,217.63,60.13,251c0,0-32.1,76.18-42.2,85.18,0,0-3.28,12.94,14.28,17.63,0,0,13.45,17.47,44.33,18.34,0,0,68.52,26.54,71.42,31.65,0,0,.67-6.85,6.95-9.07"/><path class="cls-2" d="M78.25,372.77S7.12,498.28,3,577.29c0,0,16,24.51,33.59,27.8s16.6,0,16.6,0,2.5-17.18,6.94-18.53,10.81-.78,10.81-.78,22-19.88,30.5-15,16,20.12,45.08,9.38"/><path class="cls-2" d="M74.55,419.79s-9,76.95,86,175.52"/><line class="cls-2" x1="133.86" y1="395.86" x2="144.68" y2="442.95"/><path class="cls-2" d="M148,403.76s-.19,34.17-4.83,45.75c0,0,4.93,13.71,3.77,21.43,0,0,.09,19.15-4.25,28.47,0,0,1.21,8.49,6.18,1.06,0,0,13.7-11.25,9.84-40.44"/><path class="cls-2" d="M153.39,494.66s-.94,13.67,4,14.78c0,0,2.6,1.64,6.37-10.81,0,0,4.58-18.57,4.63-28.85"/><path class="cls-2" d="M164.9,493.8s1.54,15.16,3.52,16.61c0,0,4.49,1.47,4.53-16.61,0,0,.58-24.26.58-26.82"/><path class="cls-2" d="M173,493.8s2.47,12.8,5.41,12.84S181,492.26,181,492.26s2.7-32.07,1.41-47.51,3-26.77-4.54-41a38.65,38.65,0,0,0-20.94-18.2l-17.63-9.27L98.22,340s-16.6-15.95-40.4-15.18"/><path class="cls-2" d="M78.25,326.88l3.76-8s-16.09-5.15-26.77,0"/><path class="cls-2" d="M82,318.9s10.45-22.47,35.4-39.09"/><path class="cls-2" d="M112.05,283.63s-7.91,28.64-16.4,33,14.67,2.29,14.67,2.29,20.85-26.77,24.71-46.58-6.21-65.7-6.21-65.7"/><path class="cls-2" d="M95.65,316.61S87.06,329.29,87,332.14"/><path class="cls-2" d="M135.91,202.06s12,22.26,25.88,29.85"/><path class="cls-2" d="M141,210.35s15,30.31,12,47.81-4.07,37.22-2,41.19,16.71,21.09,22.12,21.35,24.44-7.46,24.44-7.46,14.8-9,17.25-18-4-42.72-5.92-49.41-11.84-43.75-11.84-43.75h12.1l10,36.29L223,272.06l2.83,25.48S227.16,332,223,340s-21.1,43.24-21.1,43.24l-57.26-4.11"/><path class="cls-2" d="M201.94,383.24a56.09,56.09,0,0,0-13.13,38.6c1.16,23.42-.06,36.81-.06,36.81l2.38,30.06s2.64,6.22,7.75,9.57"/><path class="cls-2" d="M209.15,202.06h34.73s30.31,27.6,31.28,46.71-4.44,62.48-3.86,76,.19,33.42,2.31,48.67,5.22,60.22,8.11,69.49,12.36,41.3,12.36,41.3-10.23-4.18-31.66,2.45L255,469.78s-9.4-25.42-12.61-35.32.64-21.37-2.58-38.6S237.2,368.7,235.91,341a147,147,0,0,0-10.58-48.38"/><path class="cls-2" d="M259,390.06s.77,15.64,7.72,22"/><path class="cls-2" d="M53.19,605.09s-6.95,23.74,0,23.93,9.65-3.09,15.44-12a40.31,40.31,0,0,0,6.13-18.53"/><path class="cls-2" d="M62.43,598.52s3.23,11.71,9.16,12.9"/><path class="cls-2" d="M57.82,611.42s5.4,6.4,10.81,5.63c0,0,25.86-2.19,42.46-5.63s31.68-6.12,35.43-4.88l3.75,1.25"/><path class="cls-2" d="M151,585.14s-4.2,38.86-.73,41.18,14.19,8.12,14.63,2.71c0,0,14.71,17.36,13,22s11,15.25,15.44,16.22,8.87-6.37,2-13.51"/><path class="cls-2" d="M197.83,665.08s11.32,7,14.4,2.24,2.9-2-3.08-9.35"/><path class="cls-2" d="M213.37,665.68s16.82,5.21,15.08-2.21S226.43,657,221,653"/><path class="cls-2" d="M228.45,663.47s19.3,5.12,2.7-8.59"/><path class="cls-2" d="M237.89,662s17.44,7.56,10.88-10.07c0,0-16.88-8.75-19.45-13.89,0,0-24.23-14-30.44-24.22s-20.57-18.47-29.66-65.06l-8.35-29.34a25.31,25.31,0,0,0-1.51-10.86"/><path class="cls-2" d="M173.89,569.57s9.59-1,25-12.61,29.57-15.19,29.57-15.19l10.81-4.37s42.59-41.44,90.07-41.69"/><path class="cls-2" d="M294.08,484.26c18.67.58,82.1-17.28,82.1-17.28s34.48,7.07,33.73,29"/><path class="cls-2" d="M191.58,604.17s116.65-24.56,137.76-39.75c13.63-9.8,28.87-10.32,45.25-20.94"/><path class="cls-2" d="M262.42,486.7s-78.7,3.6-79.69,31.14"/><path class="cls-2" d="M294.08,564.17s55.2-19.36,70.25-28.6"/><path class="cls-2" d="M111.49,533.61s.31,32.49-7.44,37.76"/><path class="cls-2" d="M204.72,171.13s-14.36-6.9-14.88,9.57-3.47,21.74.26,22.9,7-1.54,7-1.54"/><path class="cls-3" d="M875.7,547.82l2.1.31v0C877.11,548,876.41,547.92,875.7,547.82Z"/><path class="cls-3" d="M795.4,606.72A69.72,69.72,0,0,1,828.83,557a70.81,70.81,0,0,1,46.86-9.2c.71.11,1.41.21,2.1.35,37.52,6.71,63.15,41.82,57.55,79.41l-20.5-3.06a49.78,49.78,0,0,0-40.69-56.16c-.49-.09-1-.16-1.48-.23-27.33-4.07-52.74,14.57-56.79,41.64Z"/><path class="cls-3" d="M674.44,515.36l-77.07,17.71-22.53,5.86-51.11,13.3-13.94,3.63h0L505.32,557l-15.81,4.12L374.51,544l.08-.52a55.9,55.9,0,0,1,1.75-7.49h0c10.43-33.83,52.9-54.67,98.74-47.85L534.81,497l14.81,2.21,7.41,1.11,9.24,1.38Z"/><path class="cls-3" d="M951.07,514.62,842.51,542.88l-18,4.68L803,553.16l-14.34,3.74h0l-61.3,16h0L720,574.77h0L669.38,588l-2,.52-135,35.14c-.17-.67-.36-1.33-.55-2-.11-.38-.22-.76-.34-1.14,0-.17-.1-.33-.16-.49s-.16-.53-.26-.8-.25-.78-.39-1.18c-.05-.15-.11-.29-.15-.43-.11-.3-.21-.59-.33-.89a3.61,3.61,0,0,0-.16-.42.11.11,0,0,0,0-.08c-.06-.17-.12-.32-.18-.48s-.05-.13-.07-.19l0,0-.09-.21c-.2-.52-.41-1-.63-1.54-.07-.18-.15-.36-.23-.53a.52.52,0,0,0-.06-.16c-.21-.48-.42-1-.65-1.43s-.46-1-.71-1.48-.47-1-.73-1.45-.46-.87-.69-1.3c-.64-1.15-1.29-2.28-2-3.39-.16-.27-.33-.55-.5-.81l-.66-1-.69-1c-.46-.66-.93-1.32-1.41-2-1-1.28-2-2.54-3-3.76-.48-.56-1-1.1-1.47-1.65-.09-.12-.2-.22-.3-.34l-1.06-1.11a.5.5,0,0,0-.1-.11c-.15-.17-.32-.34-.49-.5-1.4-1.41-2.85-2.77-4.36-4.06-1-.83-1.95-1.62-2.95-2.4l-.13-.1-.69-.52-1.19-.86-.3-.22-.42-.29-.6-.41-.61-.4a8.6,8.6,0,0,0-.74-.49l-1.2-.77a1.61,1.61,0,0,0-.26-.15l-.15-.1-.09-.05,0,0c-.42-.25-.84-.51-1.27-.75l-.53-.31c-.81-.47-1.64-.92-2.48-1.35l-.21-.11h0l-.14-.07-.24-.13c-.56-.28-1.13-.57-1.7-.84h0a72,72,0,0,0-49.14-4.59l44.64-11.62L505.32,557l4.45-1.16h0l13.94-3.63,51.11-13.3,22.53-5.86,77.07-17.71L784,490.2c3.15-4.62,6.3-9.56,9.38-14.8,4.37,2.92,10.64,3.88,16.89,2.26l34.25-8.92C893.43,456,941.16,476.55,951.07,514.62Z"/><path class="cls-3" d="M873.54,547.54a73.55,73.55,0,0,0-7.79-.49h-.42c-.56,0-1.12,0-1.67,0h-.54c-1,0-2,.08-2.93.14l-.72,0c-.32,0-.64,0-1,.1l-.78.07c-.18,0-.37,0-.55.06h0c-.4,0-.78.1-1.16.15-.61.08-1.21.15-1.8.24l-.58.09c-.23,0-.46.06-.69.11l-.33.07c-.48.08-1,.18-1.44.28l-.6.11-.94.21-.15,0a.11.11,0,0,0-.07,0l-.06,0-.82.18-.81.21a2.26,2.26,0,0,0-.43.11l-.91.23-.29.09a4.38,4.38,0,0,0-.43.13h0l-.3.08c-.46.14-.93.27-1.38.42-.26.07-.51.16-.77.25-.47.14-.94.3-1.4.47a1.71,1.71,0,0,0-.27.09c-.42.15-.82.29-1.22.45l-.1,0-.23.08-.52.21-.12,0c-.47.18-.93.36-1.4.56l-.92.4c-.31.12-.62.26-.93.4s-.73.33-1.09.51h0l-.34.16-.35.17c-.6.29-1.19.59-1.79.9s-.93.48-1.4.74l-1,.6-.7.39-.22.13-.08,0-.08.05-.07,0c-1.09.66-2.17,1.34-3.23,2s-2.08,1.44-3.09,2.2q-1.17.88-2.31,1.83c-.35.27-.69.56-1,.85s-.73.61-1.09.93c-.71.64-1.41,1.28-2.09,1.94s-1.35,1.33-2,2c-.34.35-.66.69-1,1s-.5.54-.74.82c-1.18,1.32-2.32,2.69-3.4,4.11-.34.43-.67.88-1,1.34s-.72,1-1.07,1.51c-.6.89-1.2,1.8-1.78,2.73l-.56.94c-.34.54-.65,1.1-1,1.65l-.71,1.3,0,0c-.29.57-.6,1.14-.88,1.71s-.56,1.16-.84,1.76-.45,1-.66,1.48c-.1.22-.19.43-.28.66-.18.42-.36.86-.54,1.3s-.32.82-.47,1.24-.25.65-.37,1c-.61,1.7-1.15,3.42-1.63,5.19-.1.37-.2.73-.29,1.1-.17.67-.34,1.35-.49,2s-.3,1.39-.43,2.08l0,.22c-.08.43-.16.87-.23,1.3s-.15.92-.22,1.38L669.38,588,720,574.77h0l7.35-1.91h0l61.3-16h0L803,553.16l21.54-5.6,18-4.68,32.12,4.79.1,0,1,.14-1.86-.25Z"/><polyline class="cls-4" points="445.35 534.13 509.83 543.74 544.97 546.7"/><polyline class="cls-3" points="376.03 535.93 376.34 535.97 509.77 555.85"/><line class="cls-3" x1="788.3" y1="550.98" x2="788.3" y2="550.98"/><line class="cls-3" x1="828.84" y1="557.01" x2="803" y2="553.16"/><line class="cls-3" x1="753.33" y1="576.73" x2="727.35" y2="572.85"/><polyline class="cls-4" points="477.64 504.68 583.31 520.42 627.9 526.51"/><path class="cls-3" d="M815.88,609.77c4-27.07,29.46-45.71,56.79-41.64.49.07,1,.14,1.48.23a49.78,49.78,0,0,1,40.69,56.16l-26.05-3.88a23.56,23.56,0,0,0-19.26-26.58c-.23,0-.47-.08-.71-.12A23.57,23.57,0,0,0,842,613.66Z"/><path class="cls-3" d="M842,613.66a23.57,23.57,0,0,1,26.87-19.72c.24,0,.48.07.71.12a23.56,23.56,0,0,1,19.26,26.58Z"/><path class="cls-3" d="M444.87,572.76c-.71.18-1.4.36-2.09.57v0Z"/><path class="cls-3" d="M531.86,621.64c-.11-.39-.23-.76-.35-1.15s-.15-.53-.24-.79-.11-.33-.17-.49c-.12-.39-.26-.79-.4-1.18a1.13,1.13,0,0,0-.08-.24c-.16-.47-.33-.94-.52-1.41a.85.85,0,0,0-.06-.17c-.06-.17-.12-.33-.19-.48a.45.45,0,0,0-.07-.18c-.09-.25-.19-.5-.29-.75-.24-.58-.48-1.16-.74-1.74-.11-.28-.23-.55-.36-.83-.27-.59-.55-1.19-.83-1.78s-.59-1.18-.89-1.76-.46-.87-.69-1.3a.78.78,0,0,1-.11-.2c-.16-.26-.3-.53-.45-.79l-.66-1.13c-.41-.7-.83-1.39-1.28-2.07s-.88-1.35-1.35-2-.92-1.31-1.4-2q-1.46-1.94-3-3.76c-.47-.56-1-1.11-1.46-1.65-.09-.12-.2-.22-.3-.34-.35-.37-.7-.75-1.06-1.11s-.47-.5-.72-.74l-.06-.06c-.44-.44-.88-.88-1.33-1.31-.23-.22-.46-.44-.71-.66-.69-.64-1.4-1.28-2.13-1.91-1-.82-1.95-1.61-2.95-2.39l-1.19-.89-.75-.54c-.76-.54-1.52-1.07-2.3-1.58l-.38-.25c-.5-.33-1-.64-1.52-1l-.15-.09h0l-.1-.05h0c-.41-.25-.83-.51-1.26-.75l-.53-.31c-.46-.27-.93-.53-1.4-.77s-1.11-.6-1.67-.89-1.14-.56-1.72-.84h0a72,72,0,0,0-49.13-4.59c-.72.18-1.41.37-2.09.57-37.2,10.85-59.3,49.12-49.57,86.5l20.39-5.3,25.91-6.75,46.59-12.12h0L512,628.91h0l20.36-5.31C532.23,622.94,532.05,622.29,531.86,621.64Z"/><path class="cls-3" d="M486.11,635.66l-46.6,12.13a24,24,0,0,1,16.6-29l.7-.2A24,24,0,0,1,486.11,635.66Z"/><polyline class="cls-4" points="494.02 577.35 594.16 551.28 612.7 546.45"/><line class="cls-4" x1="678.27" y1="553.18" x2="629.77" y2="565.28"/><line class="cls-4" x1="835.11" y1="514.06" x2="740.97" y2="537.54"/><line class="cls-4" x1="794.61" y1="537.44" x2="884.01" y2="514.17"/><path class="cls-4" d="M784,490.2c6.85,3,16.92,4.78,30.7.89"/><path class="cls-3" d="M512,628.89v0L413.6,654.53h0a50.6,50.6,0,0,1,35.06-61.16c.48-.15,1-.28,1.47-.4C477.31,585.88,505,602,512,628.89Z"/><path class="cls-3" d="M532.41,623.6,512,628.9h0l-25.92,6.75-46.59,12.12-25.92,6.75-20.39,5.3c-9.73-37.38,12.37-75.65,49.58-86.5l0,0,2.1-.54A72,72,0,0,1,494,577.35,70.83,70.83,0,0,1,532.41,623.6Z"/><line class="cls-4" x1="684.4" y1="571.66" x2="577.32" y2="599.52"/><line class="cls-4" x1="657.86" y1="541.26" x2="764.78" y2="517.2"/><path class="cls-1" d="M1151.46,343.91s21.84-10.59,31.75-9.91"/></g></g></g></svg>