<svg xmlns="http://www.w3.org/2000/svg" viewBox="0 0 368.92 498.52"><defs><style>.cls-1,.cls-2,.cls-3,.cls-4,.cls-5{fill:none;}.cls-1,.cls-3,.cls-4,.cls-5{stroke:#1d1d1b;stroke-miterlimit:10;}.cls-1,.cls-4,.cls-5{stroke-linecap:round;}.cls-1{stroke-width:8px;}.cls-3,.cls-5{stroke-width:7px;}.cls-4{stroke-width:5px;}</style></defs><g id="Layer_2" data-name="Layer 2"><g id="Layer_1-2" data-name="Layer 1"><path class="cls-1" d="M118.52,275.83h.07l23.95-.5,60.25-1.27,14.56-.3"/><polyline class="cls-1" points="212.71 237.66 167.66 237.67 118.4 237.68"/><path class="cls-1" d="M118.52,275.83h.07"/><polyline class="cls-1" points="247.38 309.58 178.98 309.74 143.5 309.82"/><line class="cls-2" x1="14.21" y1="224.92" x2="24.56" y2="219.06"/><path class="cls-1" d="M88.94,313,68.83,323.94a10.77,10.77,0,0,1-3.11,1.14,20.66,20.66,0,0,1-11.81-1.18,19.37,19.37,0,0,1-9.1-7.88c-6.77-11,5.7-20.33,5.7-20.33l41.83-27.88"/><path class="cls-1" d="M100.38,223.61l-68.81,39h0l-6,3.41c-21.63,11.63-11.74,28.19-11.74,28.19"/><path class="cls-1" d="M50.51,295.69s-24.66,16.19-36.73-1.5"/><path class="cls-1" d="M349,297.29c-6.66,24.19-24.86,48.07-70.56,49.15H148.79a19.75,19.75,0,0,1-16.35-8.39,19.06,19.06,0,0,1-2.75-6,20.7,20.7,0,0,1-.54-3.09s-4.14-18.48,14.35-19.1l-22.89-.38-.8,0a10.34,10.34,0,0,1-2.46-.5,20.6,20.6,0,0,1-9.7-6.85,19.36,19.36,0,0,1-4-11.34c-.43-12.26,13.39-14.65,14.85-14.87-1.64.07-17.72.65-26.12-8a18,18,0,0,1-5-11.39s-.44-19.28,24.11-18.74h6.93c-.53-.1-15.34-3-18-14.06h0a14.66,14.66,0,0,1-.42-3.53c0-15.11,12.92-18.2,21.9-18.65,4.77-.23,39-.22,70.08-.16,18.6,0,36.06.1,45.37.14a5.32,5.32,0,0,0,5.14-6.74l-11-40L229,145.76l-1.17-4.22a21.77,21.77,0,0,1,4.85-20.66c2.61-2.81,6.31-4.65,11.32-6.51a25.37,25.37,0,0,1,2.57-.78,18.45,18.45,0,0,1,4.31-.63c6.35-.06,17.46,4.09,32.24,32.19.39.72,1.72,2.81,2.18,3.48l.59.89,51.3,77A86.58,86.58,0,0,1,349,297.29Z"/><path class="cls-1" d="M31.57,262.58h0c-.74.25-17.87,5.83-24.7-6.23-7.44-13.16,2.27-22.21,9.87-27,6.45-4.09,78.77-44.72,100.46-56.9a5.32,5.32,0,0,0,1.16-8.39L79.41,125a21.78,21.78,0,0,1-6-20.37c.89-3.73,3.21-7.14,6.66-11.23a22.7,22.7,0,0,1,1.84-2c3.4-3.17,12.9-12.69,47.36,9.46.69.44,2.88,1.6,3.6,2l83.52,42.2a89.52,89.52,0,0,1,9.35,5.46"/><path class="cls-3" d="M96.56,344.26A18.67,18.67,0,0,1,93.22,343a19.28,19.28,0,0,1-7.36-6.33s-12.7-14,3.08-23.7l18.71-10.94a20.6,20.6,0,0,0,9.7,6.85,10.34,10.34,0,0,0,2.46.5l.8,0,22.89.38c-18.49.62-14.35,19.1-14.35,19.1a20.7,20.7,0,0,0,.54,3.09"/><path class="cls-3" d="M132.44,338.05a19.75,19.75,0,0,0,16.35,8.39h0a3.05,3.05,0,0,1,2.54,4.75L69.15,474.38A46.36,46.36,0,0,1,4.86,487.23h0A3.07,3.07,0,0,1,4,483L96.56,344.26"/><path class="cls-3" d="M237.31,201.41c-9.31,0-26.77-.1-45.37-.14l33.83-50.72,3.2-4.79,2.46,8.92,11,40A5.32,5.32,0,0,1,237.31,201.41Z"/><line class="cls-1" x1="96.56" y1="344.26" x2="119.81" y2="309.4"/><line class="cls-4" x1="324.1" y1="24.36" x2="285.06" y2="87.69"/><line class="cls-4" x1="322.68" y1="76.02" x2="280.37" y2="140.15"/><line class="cls-4" x1="127.05" y1="314.42" x2="73.17" y2="394.92"/><line class="cls-4" x1="110.31" y1="382.07" x2="55.95" y2="465.99"/><line class="cls-4" x1="60.71" y1="419.95" x2="24.96" y2="473.51"/><path class="cls-5" d="M364.07,32.28,285.86,149.52l-.59-.89c-.46-.67-1.79-2.76-2.18-3.48q-1.38-2.64-2.72-5C267,116.55,256.81,112.9,250.85,113L266.14,90s4.18-32.6,1-45.66a9,9,0,0,1,.9-6.45l7.48-13.52a7.81,7.81,0,0,1,11.35-2.55,35.45,35.45,0,0,0,20.57,6.24h0L323,4.85Z"/><line class="cls-5" x1="307.46" y1="28.09" x2="299.4" y2="41.02"/><path class="cls-5" d="M266.14,90s-.46,14.34-1.2,18.06"/><path class="cls-4" d="M14.23,483c1.57.19,21.88,11.11,41.72-5.33"/></g></g></svg>