<?xml version="1.0" encoding="utf-8"?>
<!-- Generator: Adobe Illustrator 24.1.1, SVG Export Plug-In . SVG Version: 6.00 Build 0)  -->
<svg version="1.1" id="Layer_1" xmlns="http://www.w3.org/2000/svg" xmlns:xlink="http://www.w3.org/1999/xlink" x="0px" y="0px"
	 viewBox="0 0 275.9 599.7" style="enable-background:new 0 0 275.9 599.7;" xml:space="preserve">
<style type="text/css">
	.st0{fill:url(#backfiree_1_);}
	.st1{fill:url(#SVGID_1_);}
	.st2{fill:url(#midlefire_1_);}
	.st3{fill:url(#Spark3_1_);}
	.st4{fill:url(#Spark2_1_);}
	.st5{fill:url(#Spark1_1_);}
</style>
<g id="Layer_2_1_">
	<g id="Layer_1-2">
		<g id="Fire">
			<linearGradient id="backfiree_1_" gradientUnits="userSpaceOnUse" x1="112.435" y1="262.8256" x2="112.435" y2="590.8776">
				<stop  offset="0" style="stop-color:#FFDA5A"/>
				<stop  offset="6.298263e-02" style="stop-color:#FED257"/>
				<stop  offset="0.1598" style="stop-color:#FABD50"/>
				<stop  offset="0.2777" style="stop-color:#F49A45"/>
				<stop  offset="0.3687" style="stop-color:#EE7A3A"/>
				<stop  offset="0.4581" style="stop-color:#EE7834"/>
				<stop  offset="0.5794" style="stop-color:#EE7423"/>
				<stop  offset="0.7185" style="stop-color:#ED6D06"/>
				<stop  offset="0.7235" style="stop-color:#ED6D05"/>
				<stop  offset="1" style="stop-color:#CE3719"/>
			</linearGradient>
			<path id="backfiree" class="st0" d="M205.3,474.7c-13.9,8.4-28.3,16-39.4,19.4c-3.9,1.1-8.1-0.3-10.6-3.5c-0.6-0.7-3-4.1-6.7-9.8
				c-7.2-11.3-13.8-23.1-19.8-35.1c-4.3-8.7-8.3-17.5-12-26.4c-2.5-5.9-4.8-11.9-6.9-17.9c-0.4-1.1-0.8-2.3-1.2-3.4
				c-13.1-37.2-23.6-83.6-22.3-135.2c-4.3,3.5-9.3,7.8-14.6,13c-14.3,14.1-31.3,34.7-45.2,63C14.2,365,6,393,2.5,421.7
				c-0.8,6-1.3,12.2-1.7,18.6c0,0.1,0,0.1,0,0.2c-0.4,6.6-0.6,13.5-0.6,20.6v0.5c0,0.3,0,0.6,0,0.9c0,0.6,0.1,1.2,0.1,1.8
				c0.1,1.6,0.2,3.1,0.4,4.7c0,0.4,0.1,0.8,0.1,1.2c0.1,0.9,0.2,2,0.3,2.8s0.2,1.5,0.3,2.2c0.1,0.7,0.2,1.5,0.3,2.2
				c0.4,2.4,0.8,4.9,1.3,7.2c0.1,0.5,0.2,0.9,0.3,1.3c0.2,0.9,0.4,1.7,0.6,2.5c0.2,0.7,0.3,1.3,0.5,2c0.2,0.8,0.4,1.7,0.6,2.5v0.1
				c0.2,0.8,0.4,1.6,0.6,2.4c0.5,1.6,0.9,3.2,1.4,4.8c0.2,0.8,0.5,1.6,0.8,2.4c0.5,1.6,1.1,3.1,1.6,4.6c0.3,0.9,0.6,1.8,1,2.7
				c0.4,0.9,0.7,1.8,1.1,2.8c0.3,0.6,0.5,1.2,0.8,1.9c0.5,1.1,0.9,2.1,1.4,3.2c0.2,0.3,0.3,0.7,0.5,1c0.3,0.7,0.7,1.5,1,2.1
				s0.7,1.3,1,2c0.4,0.7,0.7,1.5,1.1,2.2c0.4,0.9,0.9,1.7,1.3,2.5c0.3,0.6,0.5,1,0.9,1.7c0.4,0.7,0.7,1.3,1.1,1.9
				c0.2,0.4,0.4,0.7,0.5,1l0.5,0.9c0.4,0.6,0.7,1.3,1.1,1.9l1.1,1.8c0.4,0.6,0.8,1.4,1.1,1.8c0.3,0.5,0.6,0.9,0.9,1.4
				c0.5,0.8,1,1.5,1.5,2.3c0.3,0.5,0.6,0.9,0.9,1.4c0.6,0.8,1.2,1.7,1.8,2.5c0.6,0.8,1.2,1.7,1.8,2.5l1.8,2.4l1.8,2.4
				c1.9,2.4,3.8,4.8,5.7,7c1.6,1.9,3.1,3.6,4.7,5.3l1.9,2.1l1.4,1.5c3.3,3.4,6.4,6.4,9.2,9c4.4,3.1,9.1,5.8,14,8.1c0,0,0,0.1,0,0.1
				l1.1,0.5c1.1,0.5,2.2,1,3.4,1.5c0.1,0,0.2,0,0.3,0.1c24.8,3.8,50.1,3.3,74.9-1.7l1.1-0.5c4.9-2.3,9.6-5,14-8.1
				c2.8-2.6,5.9-5.6,9.2-9l1.4-1.5l1.9-2.1c1.5-1.7,3.1-3.4,4.7-5.3c1.9-2.2,3.8-4.6,5.7-7l1.8-2.4l1.8-2.4c0.6-0.8,1.2-1.6,1.8-2.5
				c0.6-0.8,1.2-1.7,1.8-2.6c0.3-0.4,0.6-0.9,0.9-1.3c0.5-0.8,1-1.5,1.5-2.3c0.3-0.5,0.6-0.9,0.9-1.4c0.3-0.5,0.8-1.2,1.1-1.8
				l1.1-1.8c0.4-0.6,0.7-1.2,1.1-1.9l0.5-0.9c0.2-0.3,0.4-0.6,0.5-1c0.4-0.6,0.7-1.3,1.1-1.9c0.4-0.6,0.6-1.1,0.9-1.7
				c0.2-0.3,0.3-0.6,0.5-1c0.3-0.5,0.5-1,0.8-1.6c0.4-0.7,0.7-1.4,1.1-2.1c0.4-0.7,0.7-1.4,1-2c0.3-0.6,0.7-1.4,1-2.1
				c0.2-0.3,0.3-0.7,0.5-1c0.5-1.1,1-2.1,1.4-3.2c0.3-0.6,0.5-1.2,0.8-1.8c0.4-0.9,0.8-1.8,1.1-2.8s0.7-1.8,1-2.7
				c0.6-1.5,1.1-3,1.6-4.6c0.3-0.8,0.5-1.6,0.8-2.3c0.5-1.6,1-3.2,1.4-4.8c0.2-0.8,0.4-1.6,0.6-2.3v-0.1c0.2-0.8,0.4-1.6,0.6-2.5
				c0.2-0.7,0.3-1.3,0.5-2c0.2-0.9,0.4-1.7,0.6-2.5c0.1-0.4,0.2-0.9,0.3-1.3c0.5-2.4,0.9-4.8,1.3-7.2c0.1-0.7,0.2-1.5,0.3-2.2
				c0.1-0.7,0.2-1.5,0.3-2.2c0.1-0.8,0.2-1.8,0.3-2.6c0-0.4,0.1-0.8,0.1-1.2c0.1-1.5,0.3-3.1,0.3-4.7c0-0.6,0.1-1.3,0.1-1.9
				C218.7,466.4,212.1,470.6,205.3,474.7z M115.2,465.8c0-0.1,0-0.3,0-0.4C115.2,465.2,115.4,465.5,115.2,465.8z"/>
			<linearGradient id="SVGID_1_" gradientUnits="userSpaceOnUse" x1="137.9656" y1="174.9956" x2="137.9656" y2="599.6401">
				<stop  offset="0" style="stop-color:#FFDA5A"/>
				<stop  offset="6.298263e-02" style="stop-color:#FED257"/>
				<stop  offset="0.1598" style="stop-color:#FABD50"/>
				<stop  offset="0.2777" style="stop-color:#F49A45"/>
				<stop  offset="0.3687" style="stop-color:#EE7A3A"/>
				<stop  offset="0.4581" style="stop-color:#EE7834"/>
				<stop  offset="0.5794" style="stop-color:#EE7423"/>
				<stop  offset="0.7185" style="stop-color:#ED6D06"/>
				<stop  offset="0.7235" style="stop-color:#ED6D05"/>
				<stop  offset="1" style="stop-color:#CE3719"/>
			</linearGradient>
			<path class="st1" d="M272.1,465.8c-0.2,0.7-0.4,1.5-0.5,2.2c-0.1,0.4-0.2,0.8-0.3,1.2c-0.3,1-0.5,2.1-0.8,3.1
				c-0.2,0.6-0.3,1.2-0.5,1.8c-0.3,1-0.6,2-0.9,3c-0.3,1-0.6,2-0.9,3s-0.6,1.8-0.9,2.6c-0.4,1.1-0.8,2.2-1.1,3.2
				c-0.3,0.7-0.5,1.4-0.8,2.2c-0.3,0.7-0.5,1.3-0.8,2c-1.1,2.9-2.2,5.7-3.4,8.5c-0.3,0.7-0.6,1.3-0.9,2c-0.7,1.5-1.3,3-2,4.5
				c-0.3,0.7-0.7,1.4-1,2.1c-0.3,0.5-0.5,1-0.8,1.6c-0.3,0.5-0.5,1-0.8,1.6l-1.3,2.6c-1,1.9-2,3.8-3,5.6c-0.5,0.9-1,1.8-1.5,2.7
				l-1.2,2.1l-0.2,0.4c-0.5,0.8-0.9,1.5-1.3,2.3l-1.4,2.3l-0.7,1.1c-0.2,0.4-0.5,0.7-0.7,1.1c-3.9,6.1-7.8,11.9-11.7,17.1
				c-0.2,0.3-0.4,0.6-0.7,0.9c-0.5,0.7-1.1,1.5-1.6,2.2c-0.8,1-1.6,2.1-2.4,3.1c-0.6,0.7-1.2,1.5-1.7,2.2l-1,1.3
				c-0.2,0.2-0.4,0.5-0.6,0.7l-2.5,2.9c-4,4.7-7.8,8.9-11.3,12.5c-0.3,0.4-0.6,0.7-1,1c-1,1-1.9,1.9-2.8,2.8c-4,2.4-8,4.6-11.9,6.5
				c-51.4,25.9-94.9,15.1-118.4,4.8c-1.3-0.6-2.5-1.1-3.7-1.7l-1.1-0.5c0,0,0,0,0,0c-4.9-2.3-9.5-5-14-8.1c-2.8-2.6-5.9-5.6-9.2-9
				l-1.4-1.5l-1.9-2.1c-1.5-1.7-3.1-3.4-4.7-5.3c-1.9-2.2-3.8-4.6-5.7-7l-1.8-2.4l-1.8-2.4c-0.6-0.8-1.2-1.6-1.8-2.5
				c-0.6-0.8-1.2-1.7-1.8-2.5c-0.3-0.5-0.6-0.9-0.9-1.4c-0.5-0.8-1-1.5-1.5-2.3c-0.3-0.5-0.6-0.9-0.9-1.4c-0.3-0.5-0.8-1.2-1.1-1.8
				l-1.1-1.8c-0.4-0.6-0.7-1.2-1.1-1.9l-0.5-0.9c-0.2-0.3-0.4-0.6-0.5-1c-0.4-0.6-0.7-1.3-1.1-1.9c-0.3-0.7-0.6-1.1-0.9-1.7
				c-0.5-0.8-0.9-1.7-1.3-2.5c-0.4-0.7-0.7-1.4-1.1-2.2c-0.3-0.7-0.7-1.4-1-2s-0.7-1.4-1-2.1c-0.2-0.3-0.3-0.7-0.5-1
				c-0.5-1.1-1-2.1-1.4-3.2c-0.3-0.6-0.5-1.2-0.8-1.9c-0.4-0.9-0.8-1.8-1.1-2.8c-0.4-0.9-0.7-1.8-1-2.7c-0.6-1.5-1.1-3-1.6-4.6
				c-0.3-0.8-0.5-1.6-0.8-2.4c-0.5-1.6-1-3.2-1.4-4.8c-0.2-0.8-0.4-1.6-0.6-2.4v-0.1c-0.2-0.8-0.4-1.6-0.6-2.5
				c-0.2-0.7-0.3-1.3-0.5-2c-0.2-0.8-0.4-1.7-0.6-2.5c-0.1-0.4-0.2-0.9-0.3-1.3c-0.5-2.4-0.9-4.8-1.3-7.2c-0.1-0.7-0.2-1.5-0.3-2.2
				c-0.1-0.7-0.2-1.5-0.3-2.2s-0.2-1.9-0.3-2.8c0-0.4-0.1-0.8-0.1-1.2c-0.2-1.5-0.3-3.1-0.4-4.7c0-0.6-0.1-1.2-0.1-1.8
				c0,0,0-0.1,0-0.1V461c0-0.6,0-1.2-0.1-1.9c0,0-0.1-0.1-0.1-0.2v-6c0-0.9,0-1.8,0.1-2.8c0-0.4,0-0.9,0.1-1.4
				c0.1-0.5,0-0.9,0.1-1.4c0-0.7,0.1-1.5,0.1-2.2c0.1-0.7,0.1-1.3,0.2-1.9c0-0.3,0-0.6,0.1-0.9c0.1-0.3,0-0.6,0.1-1
				c0-0.3,0.1-0.7,0.1-1.1c0-0.1,0-0.1,0-0.2c0-0.1,0-0.1,0-0.2c0.1-0.4,0.1-1,0.2-1.6c0.1-0.6,0.1-1.2,0.2-1.8
				c0.2-1.8,0.5-3.7,0.8-5.5c0.1-0.9,0.3-1.9,0.5-2.8c0.1-0.5,0.2-0.9,0.3-1.4c0.1-0.8,0.3-1.6,0.5-2.4s0.3-1.4,0.4-2
				c0.3-1.3,0.6-2.6,0.9-3.8c0.4-1.5,0.8-3,1.2-4.6c0.2-0.8,0.4-1.5,0.7-2.3c0.2-0.8,0.5-1.6,0.7-2.3c0.2-0.8,0.5-1.6,0.7-2.3
				c1-3,2.1-6.1,3.2-9.2c0.2-0.6,0.4-1.2,0.7-1.7c0.4-1,0.8-2.1,1.2-3.1l0.4-1.1c0.1-0.4,0.3-0.7,0.5-1.1c0.3-0.7,0.6-1.3,0.8-2
				c0.9-2,1.8-4,2.7-6h-0.1c17.7-37.3,32.5-65.4,44.4-87.9c3.6-6.9,7-13.2,10.1-19.2c20.7-39.8,29.9-63,27-100.8
				c25.3,15,91.6,62.7,98.5,150.9c0.3,4.4,0.6,8.7,0.9,12.9c4.1,69.8-5.2,100.7-11.4,113.1c-0.9,2.1-2.2,4-3.6,5.8
				c-2.3,2.4-4.9,14.6-4.1,13.9c2.4-2.1,5.3-3.7,8.3-4.6c2.9-0.8,5.5-2.4,7.5-4.7c31.8-37.1,50-83.9,51.9-132.8
				C261.8,357.1,285.2,411.8,272.1,465.8z"/>
			<linearGradient id="midlefire_1_" gradientUnits="userSpaceOnUse" x1="135.4949" y1="396.0256" x2="135.4949" y2="599.7073">
				<stop  offset="0" style="stop-color:#FFDA5A"/>
				<stop  offset="6.298263e-02" style="stop-color:#FED257"/>
				<stop  offset="0.1598" style="stop-color:#FABD50"/>
				<stop  offset="0.2777" style="stop-color:#F49A45"/>
				<stop  offset="0.3687" style="stop-color:#EE7A3A"/>
				<stop  offset="0.4581" style="stop-color:#EE7834"/>
				<stop  offset="0.5794" style="stop-color:#EE7423"/>
				<stop  offset="0.7185" style="stop-color:#ED6D06"/>
				<stop  offset="0.7235" style="stop-color:#ED6D05"/>
				<stop  offset="1" style="stop-color:#CE3719"/>
			</linearGradient>
			<path id="midlefire" class="st2" d="M189.9,527.5c-8.6,5.2-17.5,9.9-24.5,12c-2.4,0.7-5.1-0.1-6.6-2.2c-0.3-0.4-1.9-2.5-4.1-6.1
				c-4.5-7-8.6-14.3-12.3-21.8c-10.5-21.1-22.6-52.7-25.6-90.2c-0.6-6.9-0.8-14.1-0.7-21.4V396c-1.9,1.5-4,3.3-6.2,5.4
				c-16.1,14.9-39.5,44.2-45.8,92.6c-2.8,21.4-2.1,46.6,4,76c0.9,4.1,1.8,8.3,2.9,12.6c0.3,1.2,0.6,2.4,1,3.6c0,0,0,0.1,0,0.1
				l1.1,0.5c1.1,0.5,2.2,1,3.4,1.5c23.4,10.3,67.1,21.3,118.7-4.7c0,0,0,0,0-0.1c0.1-0.6,0.3-1.2,0.5-1.9c0.5-2.2,1.1-4.5,1.7-7
				c0.2-0.7,0.3-1.4,0.5-2.1c1.8-7.6,3.7-16.2,5.4-25c1.4-7.2,2.7-14.4,3.7-21.2c0.2-1.6,0.4-3.1,0.6-4.6c0,0,0-0.1,0-0.1
				c0.3-2.1,0.5-4.2,0.7-6.1C203.3,519,196.7,523.4,189.9,527.5z M134.1,521.8c0-0.1,0.1,0.1,0,0.2V521.8z"/>
			<linearGradient id="Spark3_1_" gradientUnits="userSpaceOnUse" x1="235.5834" y1="160.93" x2="235.5834" y2="217.3125">
				<stop  offset="0" style="stop-color:#FFDA5A"/>
				<stop  offset="6.298263e-02" style="stop-color:#FED257"/>
				<stop  offset="0.1598" style="stop-color:#FABD50"/>
				<stop  offset="0.2777" style="stop-color:#F49A45"/>
				<stop  offset="0.3687" style="stop-color:#EE7A3A"/>
				<stop  offset="0.4581" style="stop-color:#EE7834"/>
				<stop  offset="0.5794" style="stop-color:#EE7423"/>
				<stop  offset="0.7185" style="stop-color:#ED6D06"/>
				<stop  offset="0.7235" style="stop-color:#ED6D05"/>
				<stop  offset="1" style="stop-color:#CE3719"/>
			</linearGradient>
			<path id="Spark3" class="st3" d="M236.1,160.9c0,0,14.5,10.6,9.1,27.2s-18.8,30.9-19.4,29s-2.1-17.4,0-28
				S236.1,160.9,236.1,160.9z"/>
			<linearGradient id="Spark2_1_" gradientUnits="userSpaceOnUse" x1="17" y1="217.34" x2="17" y2="289.0281">
				<stop  offset="0" style="stop-color:#FFDA5A"/>
				<stop  offset="6.298263e-02" style="stop-color:#FED257"/>
				<stop  offset="0.1598" style="stop-color:#FABD50"/>
				<stop  offset="0.2777" style="stop-color:#F49A45"/>
				<stop  offset="0.3687" style="stop-color:#EE7A3A"/>
				<stop  offset="0.4581" style="stop-color:#EE7834"/>
				<stop  offset="0.5794" style="stop-color:#EE7423"/>
				<stop  offset="0.7185" style="stop-color:#ED6D06"/>
				<stop  offset="0.7235" style="stop-color:#ED6D05"/>
				<stop  offset="1" style="stop-color:#CE3719"/>
			</linearGradient>
			<path id="Spark2" class="st4" d="M16.3,217.3c0,0-18.5,13.4-11.5,34.6c6.9,21.1,23.8,39.2,24.6,36.9s2.7-22.1,0-35.7
				C26.7,239.6,16.3,217.3,16.3,217.3z"/>
			<linearGradient id="Spark1_1_" gradientUnits="userSpaceOnUse" x1="73.4741" y1="1.682073e-05" x2="73.4741" y2="56.3825">
				<stop  offset="0" style="stop-color:#FFDA5A"/>
				<stop  offset="6.298263e-02" style="stop-color:#FED257"/>
				<stop  offset="0.1598" style="stop-color:#FABD50"/>
				<stop  offset="0.2777" style="stop-color:#F49A45"/>
				<stop  offset="0.3687" style="stop-color:#EE7A3A"/>
				<stop  offset="0.4581" style="stop-color:#EE7834"/>
				<stop  offset="0.5794" style="stop-color:#EE7423"/>
				<stop  offset="0.7185" style="stop-color:#ED6D06"/>
				<stop  offset="0.7235" style="stop-color:#ED6D05"/>
				<stop  offset="1" style="stop-color:#CE3719"/>
			</linearGradient>
			<path id="Spark1" class="st5" d="M72.9,0c0,0-14.5,10.6-9.1,27.2s18.8,30.8,19.4,29s2.1-17.4,0-28S72.9,0,72.9,0z"/>
		</g>
	</g>
</g>
</svg>
