<svg xmlns="http://www.w3.org/2000/svg" xmlns:xlink="http://www.w3.org/1999/xlink" viewBox="0 0 275.93 599.66"><defs><style>.cls-1{fill:url(#Orange_Yellow);}.cls-2{fill:url(#Orange_Yellow-2);}.cls-3{fill:url(#Orange_Yellow-3);}.cls-4{fill:url(#Orange_Yellow-4);}.cls-5{fill:url(#Orange_Yellow-5);}.cls-6{fill:url(#Orange_Yellow-6);}</style><linearGradient id="Orange_Yellow" x1="12.84" y1="566.87" x2="12.84" y2="339.18" gradientTransform="translate(99.61)" gradientUnits="userSpaceOnUse"><stop offset="0" stop-color="#ffef26"/><stop offset="0.02" stop-color="#ffea21"/><stop offset="0.1" stop-color="#fed70f"/><stop offset="0.19" stop-color="#fdcc04"/><stop offset="0.28" stop-color="#fdc800"/><stop offset="0.67" stop-color="#f18f34"/><stop offset="0.89" stop-color="#e95f32"/><stop offset="1" stop-color="#e3312d"/></linearGradient><linearGradient id="Orange_Yellow-2" x1="275.93" y1="387.3" x2="0" y2="387.3" gradientTransform="matrix(1, 0, 0, 1, 0, 0)" xlink:href="#Orange_Yellow"/><linearGradient id="Orange_Yellow-3" x1="135.53" y1="584.74" x2="135.53" y2="443.49" gradientTransform="matrix(1, 0, 0, 1, 0, 0)" xlink:href="#Orange_Yellow"/><linearGradient id="Orange_Yellow-4" x1="-46.18" y1="213.21" x2="-46.18" y2="174.08" gradientTransform="matrix(-1, 0, 0, 1, 189.41, 0)" xlink:href="#Orange_Yellow"/><linearGradient id="Orange_Yellow-5" x1="17" y1="283.77" x2="17" y2="234.05" gradientTransform="matrix(1, 0, 0, 1, 0, 0)" xlink:href="#Orange_Yellow"/><linearGradient id="Orange_Yellow-6" x1="21.91" y1="52.28" x2="21.91" y2="13.15" gradientTransform="translate(51.56)" xlink:href="#Orange_Yellow"/></defs><g id="Layer_2" data-name="Layer 2"><g id="Layer_1-2" data-name="Layer 1"><g id="Fire"><path id="backfiree" class="cls-1" d="M9.1,543.07q2.09,9.93,4.69,20.28c.52,2,1,3.93,1.55,5.91,3.66,1.77,7.72,3.61,12.17,5.43a215.51,215.51,0,0,0,124.25,12l1.06-.51a94.76,94.76,0,0,0,14-8.1c2.83-2.61,5.93-5.63,9.19-9l1.41-1.49,1.9-2.07c1.54-1.68,3.09-3.44,4.67-5.3,1.89-2.23,3.8-4.56,5.7-7l1.8-2.36,1.8-2.44,0,0c.58-.82,1.17-1.64,1.75-2.47s1.19-1.7,1.77-2.55q.47-.68.9-1.35c.51-.77,1-1.54,1.52-2.31.3-.47.6-.94.89-1.41s.76-1.2,1.13-1.82l1.11-1.83c.37-.62.74-1.23,1.1-1.87l.54-.93c.19-.32.37-.64.54-1,.36-.64.72-1.27,1.07-1.92s.61-1.1.9-1.66q.67-1.24,1.32-2.52c.37-.7.73-1.42,1.08-2.15s.68-1.37,1-2,.66-1.39,1-2.1c.16-.33.32-.7.48-1,.48-1.06.95-2.11,1.4-3.19.27-.62.53-1.24.78-1.85.38-.92.75-1.83,1.11-2.75s.69-1.81,1-2.73c.56-1.52,1.1-3,1.62-4.61.26-.78.52-1.56.76-2.35q.75-2.37,1.42-4.77c.22-.79.43-1.56.64-2.35a.37.37,0,0,0,0-.09c.21-.81.42-1.63.62-2.46.17-.66.32-1.34.47-2,.2-.85.39-1.68.56-2.54.1-.44.19-.86.27-1.31q.72-3.57,1.26-7.23c.11-.73.22-1.48.31-2.22s.2-1.49.28-2.24.2-1.76.28-2.64c0-.4.08-.79.11-1.19.15-1.54.26-3.11.35-4.68,0-.64.07-1.28.1-1.94-6,4-12.64,8.22-19.4,12.29-13.85,8.37-28.29,16-39.42,19.38a9.76,9.76,0,0,1-10.57-3.53c-.57-.71-3-4.08-6.69-9.77v0a372.24,372.24,0,0,1-19.8-35.14,426.36,426.36,0,0,1-20.13-47.62c-13.12-37.23-23.57-83.59-22.29-135.17-15.89,12.79-40.78,37.21-59.76,76.07A266.84,266.84,0,0,0,2.53,421.67C-1.76,456-.68,496.26,9.1,543.07Zm106.14-77.65c0-.24.16.05,0,.39C115.27,465.68,115.24,465.53,115.24,465.42Z"/><path id="frontfire" class="cls-2" d="M272.06,465.85c-.18.73-.36,1.45-.55,2.17-.11.41-.21.83-.32,1.23-.27,1.05-.55,2.1-.85,3.14-.16.59-.33,1.2-.51,1.79q-.43,1.5-.9,3c-.3,1-.61,2-.94,3s-.57,1.75-.86,2.61c-.37,1.1-.75,2.16-1.13,3.24-.25.72-.51,1.43-.78,2.15s-.49,1.34-.75,2c-1.09,2.86-2.23,5.69-3.42,8.45-.29.67-.58,1.35-.88,2-.67,1.5-1.35,3-2,4.47-.33.71-.66,1.4-1,2.1-.25.53-.5,1.05-.76,1.57s-.52,1-.77,1.56l-1.3,2.55c-1,1.9-2,3.77-3,5.6-.48.9-1,1.77-1.47,2.65l-1.2,2.1-.23.4c-.45.77-.9,1.52-1.35,2.27s-.9,1.5-1.35,2.25l-.68,1.1c-.22.38-.45.73-.68,1.1h0c-3.86,6.14-7.81,11.87-11.74,17.14-.22.31-.44.6-.67.9-.55.73-1.09,1.46-1.64,2.17-.8,1-1.59,2.06-2.39,3.06-.58.73-1.15,1.46-1.73,2.16l-1,1.27c-.19.22-.38.46-.57.69l-2.46,2.94c-4,4.73-7.82,8.92-11.32,12.54-.32.35-.64.67-1,1-.95,1-1.87,1.93-2.77,2.81q-6,3.62-11.85,6.55c-54.25,27.34-99.69,13.77-122.1,3.14l-1.06-.51a94.76,94.76,0,0,1-14-8.1c-2.83-2.61-5.93-5.63-9.19-9l-1.41-1.49-1.9-2.07c-1.54-1.68-3.09-3.44-4.67-5.3-1.89-2.23-3.8-4.56-5.7-7l-1.8-2.36-1.8-2.44,0,0c-.58-.82-1.17-1.64-1.75-2.47s-1.19-1.7-1.77-2.55q-.46-.68-.9-1.35c-.51-.77-1-1.54-1.52-2.31-.3-.47-.6-.94-.89-1.41s-.76-1.2-1.13-1.82l-1.11-1.83c-.37-.62-.74-1.23-1.1-1.87l-.54-.93c-.19-.32-.37-.64-.54-1-.36-.64-.72-1.27-1.07-1.92s-.61-1.1-.9-1.66q-.67-1.24-1.32-2.52c-.37-.7-.73-1.42-1.08-2.15s-.68-1.37-1-2-.66-1.39-1-2.1c-.16-.33-.32-.7-.48-1-.48-1.06-.95-2.11-1.4-3.19-.27-.62-.53-1.24-.78-1.85-.38-.92-.75-1.83-1.11-2.75s-.69-1.81-1-2.73c-.56-1.52-1.1-3-1.62-4.61-.26-.78-.52-1.56-.76-2.35q-.75-2.37-1.42-4.77c-.22-.79-.43-1.56-.64-2.35a.37.37,0,0,1,0-.09c-.21-.81-.42-1.63-.62-2.46-.17-.66-.32-1.34-.47-2-.2-.85-.39-1.68-.56-2.54-.1-.44-.19-.86-.27-1.31q-.72-3.57-1.26-7.23c-.11-.73-.22-1.48-.31-2.22s-.2-1.49-.28-2.24S.78,471,.7,470.08c0-.4-.08-.79-.11-1.19-.15-1.54-.26-3.11-.35-4.68,0-.64-.07-1.28-.1-1.94l0-.78c0-.1,0-.22,0-.33,0-.67,0-1.33-.06-2A.74.74,0,0,1,0,459c0-.26,0-.53,0-.79,0-.75,0-1.51,0-2.27,0-.58,0-1.15,0-1.72,0-.39,0-.79,0-1.19,0-.92,0-1.84.08-2.76,0-.45,0-.91.06-1.39s0-.92.07-1.39c0-.73.09-1.46.14-2.18s.09-1.26.15-1.89c0-.31,0-.63.08-.94s.05-.62.09-.95.09-1,.15-1.44.11-1,.17-1.57.14-1.19.22-1.8q.35-2.73.81-5.54c.15-.92.32-1.85.49-2.8.09-.46.17-.92.26-1.38.15-.79.31-1.58.48-2.39s.28-1.36.44-2c.27-1.28.57-2.56.89-3.84.37-1.51.77-3,1.18-4.56q.32-1.15.66-2.31c.23-.78.46-1.57.7-2.35s.48-1.57.73-2.34q1.47-4.56,3.23-9.24c.22-.57.44-1.16.67-1.74.4-1,.81-2.06,1.24-3.09l.44-1.08c.14-.35.29-.7.45-1.07.28-.66.56-1.32.85-2q1.29-3,2.73-6h-.1c17.67-37.35,32.5-65.36,44.36-87.9C89.44,242.64,102.18,218.53,98.84,175c25.25,15,91.63,62.73,98.48,150.94q.52,6.64.88,12.87c4.15,69.84-5.23,100.68-11.41,113.09a25.31,25.31,0,0,1-3.64,5.75c-2.31,2.37-4.94,14.63-4.09,13.94a22,22,0,0,1,8.33-4.62,15.08,15.08,0,0,0,7.54-4.66A216.72,216.72,0,0,0,246.8,329.54C261.78,357.11,285.23,411.8,272.06,465.85Z"/><path id="midlefire" class="cls-3" d="M189.94,527.47c-8.59,5.19-17.55,9.94-24.45,12a6,6,0,0,1-6.56-2.19c-.35-.44-1.87-2.53-4.15-6.06h0a230.41,230.41,0,0,1-12.28-21.8c-12.39-25-27.12-64.72-26.35-111.57,0-.6,0-1.21,0-1.82-15.52,12.5-44.9,42.87-52,98-2.75,21.44-2.13,46.63,4,76q1.29,6.16,2.91,12.58c.32,1.22.62,2.44,1,3.67l1.06.51c22.41,10.63,67.85,24.2,122.1-3.14.15-.63.31-1.27.47-1.93h0q.81-3.25,1.68-7c.16-.7.33-1.42.5-2.15h0c3.53-15.12,7.66-34.55,9.81-50.81,0,0,0-.06,0-.09.28-2.11.51-4.16.72-6.14C203.28,519,196.73,523.38,189.94,527.47ZM134.07,522a2.24,2.24,0,0,1,0-.24C134.05,521.65,134.14,521.83,134.07,522Z"/><path id="Spark3" class="cls-4" d="M236.12,160.93s14.52,10.59,9.08,27.22-18.75,30.85-19.36,29-2.12-17.38,0-28S236.12,160.93,236.12,160.93Z"/><path id="Spark2" class="cls-5" d="M16.32,217.34S-2.13,230.79,4.79,251.93s23.83,39.2,24.59,36.9,2.69-22.09,0-35.65S16.32,217.34,16.32,217.34Z"/><path id="Spark1" class="cls-6" d="M72.93,0S58.42,10.59,63.86,27.22s18.75,30.85,19.36,29,2.11-17.38,0-28S72.93,0,72.93,0Z"/></g></g></g></svg>