<svg xmlns="http://www.w3.org/2000/svg" viewBox="0 0 299.47 488">
  <title>Asset 3</title>
  <g id="flask" data-name="Layer 2">
    <g id="Layer_1-2" data-name="Layer 1">


      <g id="clippedOilReveal" clip-path="url(#theOilClip)">
        <rect id="flaskOil" x="0" y="50" width="3000" height="1000" fill="url(#water)" />
      </g>
      <defs>

        <pattern id="water" width=".25" height="1.1" patternContentUnits="objectBoundingBox">
          <path stroke-width="5" fill="black" d="M0.25,1H0c0,0,0-0.659,0-0.916c0.083-0.303,0.158,0.334,0.25,0C0.25,0.327,0.25,1,0.25,1z"/>
        </pattern>
      </defs>

      <defs>
        <clipPath id="theOilClip">
          <path id="liquid" d="M225.38,255.26c-5.12,0-29.68-52.32-99-7.16l-4.68,4.69a19.31,19.31,0,0,1-27.32,0L84,242.45v208a32,32,0,0,0,32,32H260a32,32,0,0,0,32-32v-192L281.66,248.1a19.34,19.34,0,0,0-27.32,0l-4.68,4.69a19.31,19.31,0,0,1-27.32,0" fill="none"/>
        </clipPath>
      </defs>

      <path d="M84,84H292V452a32,32,0,0,1-32,32H116a32,32,0,0,1-32-32Z" fill="none" stroke="#000" stroke-miterlimit="10" stroke-width="8"/>
      <path d="M84,84H28A24,24,0,0,0,4,108V276H36V116H84" fill="none" stroke="#000" stroke-miterlimit="10" stroke-width="8"/>
      <path d="M292,4H100V52H260Z" fill="none" stroke="#000" stroke-miterlimit="10" stroke-width="8"/>
      <path d="M260,84H100V52H260Z" fill="none" stroke="#000" stroke-miterlimit="10" stroke-width="8"/>
    </g>
  </g>
</svg>