<svg id="flaskSVG" xmlns="http://www.w3.org/2000/svg" viewBox="0 0 655.22 482.57">
  <title>Asset 18</title>
  <g id="Layer_2" data-name="Layer 2">
    <g id="Layer_1-2" data-name="Layer 1">
      <path id="liquid" d="M225.38,273.17c-5.12,0-29.68-46.3-99-6.33L121.66,271a21.13,21.13,0,0,1-27.32,0L84,261.83V445.9c0,15.63,14.33,28.31,32,28.31H260c17.67,0,32-12.68,32-28.31V276l-10.34-9.15a21.13,21.13,0,0,0-27.32,0L249.66,271a21.13,21.13,0,0,1-27.32,0" stroke="#000" stroke-miterlimit="10" stroke-width="8"/>
      <path d="M84,238.56H292V459.37c0,10.6-14.33,19.2-32,19.2H116c-17.67,0-32-8.6-32-19.2V238.56Z" fill="none" stroke="#000" stroke-miterlimit="10" stroke-width="8"/>
      <path d="M84,238.56H28a24,24,0,0,0-24,24v168H36v-160H84" fill="none" stroke="#000" stroke-miterlimit="10" stroke-width="8"/>
      <path d="M333.46,158.56H84v48H291.88Z" fill="none" stroke="#000" stroke-miterlimit="10" stroke-width="8"/>
      <path d="M292,238.56H84v-32H292Z" fill="none" stroke="#000" stroke-miterlimit="10" stroke-width="8"/>
      <path id="ShiftedLiquid" d="M123.62,385.77c27.86-41.7,27.8-45.58,41.46-60.15,4.22-4.5,21.56-19.22,56.06-48.47,26-22,35.43-29.93,39.71-45,5.23-18.37-4.77-20.94.59-38.54,8.49-27.91,18.34-3.2,18-26.35-.1-7-2.21-2.37,1.76-8.73.87-1.4,5.72-.42,19.36-4.63,14-4.32-6-4.79,0,0,9,7.18,43.72-10.18,32.9,4.63-10.27,14.06-7.12,9.79-20.79,24-16.05,16.69-24.37,12.68-24.37,29.77,0,79.42-2.06,264.33-6.52,261.11-16.26-11.75-183.42,20.72-192.62-17.59C87,446.94,84.37,444.5,123.62,385.77Z" stroke="#000" stroke-miterlimit="10" stroke-width="8"/>
      <path id="pouringLiquid2" d="M281.2,158.56c-.06-8.05,44.69-86.68,78.93-84.64,20.24,1.21,47.44-36,65.41-32.7,33.87,6.21,54.23-10.94,70.66-11.68,30.07-1.37,98.73-13.66,108.58-23.2,18.68-18.1,47.25,75,26.32,68.17-66.58-21.61-123.22,5.9-195.43,26.27-40.24,11.36-64.65,18.76-70.87,20.44-28.11,7.6-22.81,37-29.27,30.1C326.65,141.84,281.32,177,281.2,158.56Z" stroke="#000" stroke-miterlimit="10" stroke-width="8"/>
      <path id="pouringliquidOne" d="M370.06,77.43c18.93,2.71,81.68-58.1,97.54-49.64,17.14,9.14,32.67,9.43,80.57,5.25,24.06-2.1,29.47-32,63.66-26.28C625.6,9.05,647.61,68.94,651,75.67c5.66,11.43-81.18-5.19-108,4.74-10.1,3.73-58.67,14-80,13-10.64-.46-18.32,31.47-53.73,27.8-33.87-3.5-29.12,12.67-45.55,21.61-15.47,8.42-33.91,5.79-40.3,6.95-22.77,4.15-50.3,9-34.72-2C296.8,142,367.13,77,370.06,77.43Z" stroke="#000" stroke-miterlimit="10" stroke-width="8"/>
      <path id="startingPoint" d="M262.19,207.47c-.29-1.74-.47-2.88-.63-4.51a72.49,72.49,0,0,1,3-25.82c6.48-20.42,36-50.66,49.06-45.62,6.52,2.52,8.19,13.51,6.75,21.81C317.87,168,306,172.64,292.84,191.26c-18.09,25.62-18.58,49.29-23.18,49.34C267.67,240.63,265.85,229.57,262.19,207.47Z" stroke="#000" stroke-miterlimit="10" stroke-width="8"/>
    </g>
  </g>
</svg>