<?xml version="1.0" encoding="utf-8"?>
<!-- Generator: Adobe Illustrator 23.1.1, SVG Export Plug-In . SVG Version: 6.00 Build 0)  -->
<svg version="1.1" id="Layer_1" xmlns="http://www.w3.org/2000/svg" xmlns:xlink="http://www.w3.org/1999/xlink" x="0px" y="0px"
	 viewBox="0 0 480 480" style="enable-background:new 0 0 480 480;" xml:space="preserve">
<style type="text/css">
	.st0{fill:#FFFFFF;stroke:#000000;stroke-width:8;stroke-miterlimit:10;}
</style>
<path class="st0" d="M80,80h208v368c0,17.7-14.3,32-32,32H112c-17.7,0-32-14.3-32-32V80z"/>
<path class="st0" d="M181.7,250.3"/>
<path class="st0" d="M164,225.7"/>
<path class="st0" d="M221.4,251.3c-5.1,0-29.7-52.3-99-7.2l-4.7,4.7c-3.6,3.6-8.5,5.7-13.7,5.7s-10-2-13.7-5.7L80,238.4v208
	c0,17.7,14.3,32,32,32h144c17.7,0,32-14.3,32-32v-192l-10.3-10.3c-3.6-3.6-8.5-5.7-13.7-5.7s-10,2-13.7,5.7l-4.7,4.7
	c-3.6,3.6-8.5,5.7-13.7,5.7s-10-2-13.7-5.7"/>
<path class="st0" d="M181.7,250.3"/>
<path class="st0" d="M200,240"/>
<path class="st0" d="M207,241.4"/>
<path class="st0" d="M80,80H24C10.7,80,0,90.7,0,104v168h32V112h48"/>
<path class="st0" d="M288,0H96v48h160L288,0z"/>
<path class="st0" d="M256,80H96V48h160V80z"/>
<g>
	<path class="st0" d="M256,304c0,8.8-7.2,16-16,16s-16-7.2-16-16s7.2-16,16-16S256,295.2,256,304z"/>
	<path class="st0" d="M248,368h16v16h-16V368z"/>
	<path class="st0" d="M112,440h16v16h-16V440z"/>
</g>
</svg>
