<svg xmlns="http://www.w3.org/2000/svg" viewBox="0 0 342.22 328.01">
  <title>Asset 4</title>
  <g id="Layer_2" data-name="Layer 2">
    <g id="Layer_1-2" data-name="Layer 1">

      <defs>
        <clipPath id="theClipPathOIl">
          <rect id="flaskOil" x="0" y="0" width="1000" height="1000" fill="#fff" />
        </clipPath>
      </defs>



      <g id="theOilClip" clip-path="url(#theClipPathOIl)">
        <path id="liquid" d="M225.38,161c-5.12,0-29.68-36.53-99-5l-4.68,3.27a25.59,25.59,0,0,1-27.32,0L84,152.09V297.31c0,12.34,14.33,22.34,32,22.34H260c17.67,0,32-10,32-22.34v-134L281.66,156a25.59,25.59,0,0,0-27.32,0l-4.68,3.27a25.59,25.59,0,0,1-27.32,0" fill="black"/>
      </g>



      <path d="M84,84H292V304.81c0,10.6-14.33,19.2-32,19.2H116c-17.67,0-32-8.6-32-19.2Z" fill="none" stroke="#000" stroke-miterlimit="10" stroke-width="8"/>
      <path d="M84,84H28A24,24,0,0,0,4,108V276H36V116H84" fill="none" stroke="#000" stroke-miterlimit="10" stroke-width="8"/>
      <path d="M333.46,4H84V52H291.88Z" fill="none" stroke="#000" stroke-miterlimit="10" stroke-width="8"/>
      <path d="M292,84H84V52H292Z" fill="none" stroke="#000" stroke-miterlimit="10" stroke-width="8"/>
    </g>
  </g>
</svg>