<svg id="flaskSVG" xmlns="http://www.w3.org/2000/svg" viewBox="0 0 653.25 470.71">
  <title>Asset 20</title>
  <g id="Layer_2" data-name="Layer 2">
    <g id="Layer_1-2" data-name="Layer 1">
      <path id="liquid" d="M225.38,261.31c-5.12,0-29.68-46.31-99-6.34l-4.68,4.15a21.13,21.13,0,0,1-27.32,0L84,250V434c0,15.64,14.33,28.32,32,28.32H260c17.67,0,32-12.68,32-28.32V264.13L281.66,255a21.16,21.16,0,0,0-27.32,0l-4.68,4.15a21.13,21.13,0,0,1-27.32,0" stroke="#000" stroke-miterlimit="10" stroke-width="8"/>
      <path d="M84,226.7H292V447.51c0,10.6-14.33,19.2-32,19.2H116c-17.67,0-32-8.6-32-19.2V226.7Z" fill="none" stroke="#000" stroke-miterlimit="10" stroke-width="8"/>
      <path d="M84,226.7H28a24,24,0,0,0-24,24v168H36v-160H84" fill="none" stroke="#000" stroke-miterlimit="10" stroke-width="8"/>
      <path d="M333.46,146.7H84v48H291.88Z" fill="none" stroke="#000" stroke-miterlimit="10" stroke-width="8"/>
      <path d="M292,226.7H84v-32H292Z" fill="none" stroke="#000" stroke-miterlimit="10" stroke-width="8"/>
      <path id="ShiftedLiquid" d="M123.62,373.91c27.86-41.7,27.8-45.58,41.46-60.15,4.22-4.51,21.56-19.22,56.06-48.47,26-22.05,35.43-29.94,39.71-45,5.23-18.38-.72-20.2.59-38.54,2-27.77,15.79-28.72,19.76-35.08.87-1.4,72.95-21.72,62.13-6.91-10.27,14.06-17,16.7-30.66,30.91-16.05,16.68-24.37,12.68-24.37,29.76,0,79.43-2.06,264.34-6.52,261.11C265.52,449.83,98.36,482.29,89.16,444,87,435.08,84.37,432.63,123.62,373.91Z" stroke="#000" stroke-miterlimit="10" stroke-width="8"/>
      <path id="pouringLiquid2" d="M292,158.56c-.05-8.05,31.55-84,65.79-81.95,20.24,1.2,57.4-21.11,78.55-35.39,28.54-19.28,107-17.74,123.46-18.48,30.07-1.37,45.93-6.86,55.78-16.4,18.69-18.1,47.25,75,26.32,68.17C575.33,52.9,514.12,79,445.79,110,358.16,149.69,298.22,156.88,292,158.56" stroke="#000" stroke-miterlimit="10" stroke-width="8"/>
      <path id="pouringliquidOne" d="M361.75,75.38c18.93,2.72,81.69-58.09,97.54-49.64C476.43,34.89,492,35.18,539.87,31c24-2.1,29.46-32,63.65-26.28C617.29,7,639.3,66.89,642.65,73.63c5.67,11.42-81.18-5.19-108,4.73-10.1,3.74-58.67,14-80,13-10.64-.47-18.32,31.46-53.72,27.8-33.87-3.5-39.84,19.64-45.09,22.46-19.68,10.58-34.38,4.94-40.77,6.1-22.77,4.14-34.72-2-34.72-2C288.49,140,358.82,75,361.75,75.38Z" stroke="#000" stroke-miterlimit="10" stroke-width="8"/>
      <path id="startingPoint" d="M267.79,204.32c-.28-1.74-.47-2.88-.62-4.51,0,0-.13-9.32,3-25.83,4-21,61.46-68.72,49.06-45.61-3.31,6.17,8.19,13.51,6.76,21.81-2.53,14.64-14.4,19.31-27.55,37.93-18.1,25.62-18.59,49.29-23.18,49.34C273.28,237.47,271.45,226.42,267.79,204.32Z" stroke="#000" stroke-miterlimit="10" stroke-width="8"/>
    </g>
  </g>
</svg>