<svg xmlns="http://www.w3.org/2000/svg" viewBox="0 0 544.93 93.33"><defs><style>.cls-1,.cls-2,.cls-3{fill:none;stroke:#1d1d1b;stroke-miterlimit:10;}.cls-1{stroke-width:8px;}.cls-2,.cls-3{stroke-width:5px;}.cls-3{stroke-linecap:round;}</style></defs><g id="Layer_2" data-name="Layer 2"><g id="Layer_1-2" data-name="Layer 1"><path class="cls-1" d="M69,89.29c.67,0,1.34,0,2,0H69Z"/><path class="cls-1" d="M138,4c0,26.5-9.49,50.19-24.38,65.85C102,82,87.18,89.33,71,89.33c-.67,0-1.34,0-2,0C32.91,87.94,4,50.26,4,4Z"/><path class="cls-1" d="M540.93,4v.66a82.16,82.16,0,0,1-.59,9.34c-5.05,42.59-41.93,75.33-85.81,75.33H71c16.19,0,31-7.31,42.61-19.48C128.49,54.19,138,30.5,138,4Z"/><path class="cls-2" d="M93.41,4c0,15.77-10,28.56-22.42,28.56h-.67C58.25,32.1,48.57,19.49,48.57,4Z"/><line class="cls-3" x1="233.06" y1="4.01" x2="334.53" y2="4.01"/><line class="cls-3" x1="196.93" y1="50.13" x2="329.15" y2="50.13"/><line class="cls-3" x1="414.23" y1="28.6" x2="475.97" y2="28.6"/><line class="cls-3" x1="373.73" y1="14" x2="540.64" y2="14"/><line class="cls-3" x1="113.6" y1="69.85" x2="192.98" y2="69.85"/><line class="cls-3" x1="192.98" y1="4" x2="137.98" y2="4"/><line class="cls-3" x1="181.56" y1="32.57" x2="270.73" y2="32.57"/><line class="cls-3" x1="317.47" y1="69.85" x2="449.83" y2="69.85"/><path class="cls-2" d="M118.36,4c0,33.33-21.21,60.34-47.37,60.34-.47,0-.95,0-1.42,0C44.07,63.37,23.62,36.73,23.62,4Z"/></g></g></svg>