<?xml version="1.0" encoding="utf-8"?>
<!-- Generator: Adobe Illustrator 23.1.1, SVG Export Plug-In . SVG Version: 6.00 Build 0)  -->
<svg version="1.1" id="Lightbulb" xmlns="http://www.w3.org/2000/svg" xmlns:xlink="http://www.w3.org/1999/xlink" x="0px" y="0px"
	 viewBox="0 0 512 512" style="enable-background:new 0 0 512 512;" xml:space="preserve">
<style type="text/css">
	.st0{fill:#FFFFFF;stroke:#000000;stroke-width:8;stroke-miterlimit:10;}
</style>
<path id="LightBulbCirlce" class="st0" d="M314.6,391.5c6.4-21.3,19.2-40.5,36.3-55.5c32-26.7,52.3-67.2,52.3-112
	c0-83.2-69.3-151.5-154.7-147.2C172.8,80,110.9,144,108.8,219.7C107.7,266.7,128,308.3,161,336c18.1,14.9,30.9,34.1,37.3,55.5H314.6
	L314.6,391.5z"/>
<path id="LightBulbWire" class="st0" d="M238.3,389.3h11.8l-52.7-193.8c1.3,0,2.6,0,3.9,0c6.6,0,13.2-2.6,18.4-7.8
	c2.6-2.6,5.3-3.9,9.2-3.9c3.9,0,6.6,1.3,9.2,3.9c9.2,10.4,25,10.4,34.2,0c2.6-2.6,5.3-3.9,9.2-3.9c2.6,0,6.6,1.3,9.2,3.9
	c5.3,5.2,10.5,7.8,18.4,7.8c1.3,0,2.6,0,3.9,0L262,389.3h11.8l54-202.9c0-2.6,0-5.2-2.6-6.5c-2.6-1.3-5.3,0-6.6,1.3
	c-2.6,2.6-5.3,3.9-7.9,3.9c-3.9,0-6.6-1.3-10.5-3.9c-5.3-5.2-10.5-7.8-17.1-7.8s-11.8,2.6-17.1,7.8c-5.3,5.2-13.2,5.2-18.4,0
	c-3.9-5.2-10.5-7.8-17.1-7.8l0,0c-6.6,0-13.2,2.6-17.1,7.8c-2.6,2.6-6.6,3.9-10.5,3.9c-2.6,0-6.6-1.3-7.9-3.9
	c-1.3-1.3-3.9-2.6-6.6-1.3c-2.6,1.3-3.9,3.9-2.6,6.5L238.3,389.3z"/>
<g id="Patron">
	<path class="st0" d="M222.9,489.6C228.2,502.4,241,512,256,512c14.9,0,27.7-9.6,33.1-22.4H222.9z"/>
	<path class="st0" d="M295.4,490.7h-77.9c-10.7,0-19.2-8.5-19.2-19.2v-81.1h116.3v81.1C314.6,482.1,306.1,490.7,295.4,490.7z"/>
</g>
<g id="Lightbulb-core">
	<path class="st0" d="M313.6,430.9H198.4c-6.4,0-11.7-5.3-11.7-11.7l0,0c0-6.4,5.3-11.7,11.7-11.7h115.2c6.4,0,11.7,5.3,11.7,11.7
		l0,0C325.3,425.6,320,430.9,313.6,430.9z"/>
	<path class="st0" d="M313.6,468.3H198.4c-6.4,0-11.7-5.3-11.7-11.7l0,0c0-6.4,5.3-11.7,11.7-11.7h115.2c6.4,0,11.7,5.3,11.7,11.7
		l0,0C325.3,462.9,320,468.3,313.6,468.3z"/>
</g>
<g id="Light-dashes">
	<path class="st0" d="M256,0c-5.3,0-10.7,4.3-10.7,10.7v36.3c0,5.3,4.3,10.7,10.7,10.7s10.7-4.3,10.7-10.7V10.7
		C266.6,4.3,261.3,0,256,0z"/>
	<path class="st0" d="M113,65.1c-4.3-4.3-10.7-4.3-14.9,0s-4.3,10.7,0,14.9l25.6,25.6c4.3,4.3,10.7,4.3,14.9,0s4.3-10.7,0-14.9
		L113,65.1z"/>
	<path class="st0" d="M80,212.3H43.7c-5.3,0-10.7,4.3-10.7,10.7l0,0c0,5.3,4.3,10.7,10.7,10.7H80c5.3,0,10.7-4.3,10.7-10.7l0,0
		C90.6,217.6,85.3,212.3,80,212.3z"/>
	<path class="st0" d="M123.7,340.3l-25.6,25.6c-4.3,4.3-4.3,10.7,0,14.9s10.7,4.3,14.9,0l25.6-25.6c4.3-4.3,4.3-10.7,0-14.9
		S128,336,123.7,340.3z"/>
	<path class="st0" d="M388.2,340.3c-4.3-4.3-10.7-4.3-14.9,0s-4.3,10.7,0,14.9l25.6,25.6c4.3,4.3,10.7,4.3,14.9,0s4.3-10.7,0-14.9
		L388.2,340.3z"/>
	<path class="st0" d="M468.2,212.3H432c-5.3,0-10.7,4.3-10.7,10.7l0,0c0,5.3,4.3,10.7,10.7,10.7h36.3c5.3,0,10.7-4.3,10.7-10.7l0,0
		C478.9,217.6,474.6,212.3,468.2,212.3z"/>
	<path class="st0" d="M398.9,65.1l-25.6,25.6c-4.3,4.3-4.3,10.7,0,14.9c4.3,4.3,10.7,4.3,14.9,0L413.8,80c4.3-4.3,4.3-10.7,0-14.9
		S403.2,60.8,398.9,65.1z"/>
</g>
</svg>
