<?xml version="1.0" encoding="utf-8"?>
<!-- Generator: Adobe Illustrator 23.1.1, SVG Export Plug-In . SVG Version: 6.00 Build 0)  -->
<svg version="1.1" id="Layer_1" xmlns="http://www.w3.org/2000/svg" xmlns:xlink="http://www.w3.org/1999/xlink" x="0px" y="0px"
	 viewBox="0 0 512 512" style="enable-background:new 0 0 512 512;" xml:space="preserve">
<style type="text/css">
	.st0{fill:#FFFFFF;stroke:#000000;stroke-width:8;stroke-miterlimit:10;}
</style>
<path class="st0" d="M355.2,286.2c-31.1-11.9-54.7-36.5-55.6-72.9c-1.9-84.6,86.5-63.4,86.5-188.3c0,0,138.4,73,124.9,186.4
	c-4.1,34.6-25.2,58.1-52.6,71.1c-0.2,0.1-0.4,0.2-0.5,0.2"/>
<path class="st0" d="M370.4,270.1c-12.9-25.7-20.3-66.4,31.1-101.1c2.4,48.1,42.3,55.7,42.3,90.3c0,3.4-0.2,6.5-0.5,9.4v0"/>
<polygon class="st0" points="458,274.7 450.6,305.2 23.2,487 7,447.2 7,447.2 0,429.9 200.4,348.2 407.8,256 425.3,262.5 "/>
<polygon class="st0" points="429,268.8 7.6,447.2 7.6,447.2 0.6,429.9 201,348.2 408.4,256 425.9,262.5 "/>
</svg>
