<svg id="oiLampColorised" xmlns="http://www.w3.org/2000/svg" xmlns:xlink="http://www.w3.org/1999/xlink" viewBox="0 0 455.85 407.13">
  <defs>
    <linearGradient id="linear-gradient" x1="41.37" y1="123.8" x2="41.37" y2="29.76" gradientUnits="userSpaceOnUse">
      <stop offset="0" stop-color="#fff"/>
      <stop offset="0" stop-color="#ff4200"/>
      <stop offset="0.38" stop-color="#ffab02"/>
      <stop offset="1" stop-color="#ffae02"/>
    </linearGradient>
    <linearGradient id="linear-gradient-2" x1="75.48" y1="123.8" x2="75.48" y2="29.76" gradientTransform="matrix(-1, 0, 0, 1, 122.06, 0)" gradientUnits="userSpaceOnUse">
      <stop offset="0" stop-color="#fff"/>
      <stop offset="0" stop-color="#ff4200"/>
      <stop offset="0.8" stop-color="#ffab02"/>
      <stop offset="1" stop-color="#ffae02"/>
    </linearGradient>
  </defs>
  <title>Asset 13</title>
  <g id="Layer_2" data-name="Layer 2">
    <g id="oilLampFull">
      <g id="lamp_lid">
        <path d="M357.91,197.28a80.24,80.24,0,0,0-56.63-50l21.94-22a8.61,8.61,0,0,0,0-12.19L288.75,78.67a8.61,8.61,0,0,0-12.19,0l-34.48,34.47a8.61,8.61,0,0,0,0,12.19L264,147.27a80.37,80.37,0,0,0-56.44,49.54Z" fill="#fff" stroke="#000" stroke-miterlimit="10" stroke-width="8"/>
        <rect x="266.89" y="103.48" width="31.52" height="31.52" transform="translate(-1.53 234.79) rotate(-45)" fill="#fff" stroke="#000" stroke-miterlimit="10" stroke-width="8"/>
        <path d="M226.39,196.81a63.15,63.15,0,0,1,112.52,0Z" fill="#fff" stroke="#000" stroke-miterlimit="10" stroke-width="8"/>
      </g>
      <g id="lamp">
        <polygon points="37.91 179.04 68.3 179.04 110.6 197.28 170.76 213.79 240.34 213.51 346.1 214.29 363.8 229.77 365.65 253.86 351.92 291.55 315.23 323.15 279.5 333.78 233.82 333.78 195.76 327.28 125.1 280.76 37.91 179.04"/>
        <path d="M195.76,196.27h-11a196.11,196.11,0,0,1-109.09-33,8.56,8.56,0,0,0-4.78-1.45H19.17A8.62,8.62,0,0,0,12.62,176L112,292a170.11,170.11,0,0,0,104,57.56,118,118,0,0,1-47.35,34.51l-6.17,2.46a8.62,8.62,0,0,0,3.2,16.62h200a8.62,8.62,0,0,0,3.21-16.62l-6.17-2.46A119.59,119.59,0,0,1,311.05,344a112.55,112.55,0,0,0,53.09-42.48,37.72,37.72,0,0,0,2.42,27.92,8.62,8.62,0,1,0,15.42-7.7A20.82,20.82,0,0,1,396.52,292l14.61-2.92a50.91,50.91,0,0,0,40.72-49.86v-.86a42.12,42.12,0,0,0-42.07-42.07h-1a43.09,43.09,0,0,0-34.48,17.27,43.13,43.13,0,0,0-28.17-16.8m26.33,90a111.65,111.65,0,0,0,10.46-47.41,25.89,25.89,0,0,1,25.86-25.86h1a24.86,24.86,0,0,1,24.84,24.83v.86a33.62,33.62,0,0,1-26.86,32.95l-14.61,2.93A37.71,37.71,0,0,0,372.43,286.78Zm-26.33-90-150.34-.47m40.48,155.07c1.67.05,3.34.08,5,.08h29.6a112.2,112.2,0,0,0,22.74-2.33,137,137,0,0,0,36.31,36.8H201.58A135,135,0,0,0,236.24,351.34ZM37.91,179H68.3a213.24,213.24,0,0,0,116.45,34.47H339.8a25.89,25.89,0,0,1,25.85,25.86,94.79,94.79,0,0,1-94.81,94.81h-29.6A152.85,152.85,0,0,1,125.1,280.76Z" fill="#fff" stroke="#000" stroke-miterlimit="10" stroke-width="8"/>
        <path d="M265.73,307.35a8.61,8.61,0,0,0,8.62,8.61,77.65,77.65,0,0,0,77.57-77.57,8.62,8.62,0,1,0-17.23,0,60.41,60.41,0,0,1-60.34,60.34A8.62,8.62,0,0,0,265.73,307.35Z" fill="#fff" stroke="#000" stroke-miterlimit="10" stroke-width="8"/>
        <line x1="37.91" y1="161.8" x2="37.91" y2="136.71" fill="#fff" stroke="#000" stroke-miterlimit="10" stroke-width="8"/>
      </g>
      <g id="light">
        <path class="firedot" d="M4,4H20V20H4Z" fill="#fff" stroke="#000" stroke-miterlimit="10" stroke-width="8"/>
        <path class="firedot" data-name="firedot" d="M92,100h16v16H92Z" fill="#fff" stroke="#000" stroke-miterlimit="10" stroke-width="8"/>
        <path class="firedot" data-name="firedot" d="M81.59,4h16V20h-16Z" fill="#fff" stroke="#000" stroke-miterlimit="10" stroke-width="8"/>
        <path id="lightStrokeLarge" d="M11.29,93.82a48.08,48.08,0,0,0,6.16,14.31c.16.26.32.51.49.76.69,1.06,1.38,2,2.08,3a50.11,50.11,0,0,0,8.55,9l.54.23.25.1h0a34,34,0,0,0,13.09,2.61A35.24,35.24,0,0,0,56,121.11l.37-.17h0a31.52,31.52,0,0,0,2.53-2.09l.93-.87c.57-.56,1.19-1.18,1.84-1.88.38-.41.76-.84,1.16-1.29.71-.84,1.44-1.75,2.17-2.74.29-.4.59-.81.88-1.24,5.44-8,9.88-20.36,2.63-35.72-3.68-7.76-6.74-13.58-9.22-18.24C53.22,45.29,50.93,41,52.19,31.16a1.23,1.23,0,0,0-.11-.68h0a1.24,1.24,0,0,0-1.65-.59c-.22.1-21.9,10.45-23.8,34.33-.75,9.48-.36,16,.39,20.4a43.6,43.6,0,0,1-5.61-23.9,1.24,1.24,0,0,0-2.25-.82C18.71,60.56,7.15,77,11.29,93.82Z" stroke="#000" stroke-miterlimit="10" stroke-width="8" fill="url(#linear-gradient)"/>
        <path id="smallLight" d="M68.78,59.89a1.24,1.24,0,0,0-2.25.82,43.6,43.6,0,0,1-5.61,23.9c.75-4.42,1.14-10.92.39-20.4C59.41,40.33,37.73,30,37.51,29.88a1.24,1.24,0,0,0-1.65.59h0a1.23,1.23,0,0,0-.11.68c1.26,9.8-1,14.13-7.14,25.71-2.48,4.66-5.54,10.48-9.22,18.24-7.25,15.36-2.81,27.73,2.63,35.72.29.43.59.84.88,1.24.73,1,1.46,1.9,2.17,2.74l1.16,1.29c.65.7,1.27,1.32,1.84,1.88l.93.87a31.52,31.52,0,0,0,2.53,2.09h0l.37.17a35.24,35.24,0,0,0,13.57,2.69,34,34,0,0,0,13.09-2.61h0l.25-.1.54-.23a50.11,50.11,0,0,0,8.55-9c.7-.92,1.39-1.9,2.08-3,.17-.25.33-.5.49-.76a48.08,48.08,0,0,0,6.16-14.31C80.79,77,69.23,60.56,68.78,59.89Z" stroke="#000" stroke-miterlimit="10" stroke-width="8" fill="url(#linear-gradient-2)"/>
      </g>
    </g>
  </g>
</svg>