<?xml version="1.0" encoding="utf-8"?>
<!-- Generator: Adobe Illustrator 23.1.1, SVG Export Plug-In . SVG Version: 6.00 Build 0)  -->
<svg version="1.1" id="Layer_1" xmlns="http://www.w3.org/2000/svg" xmlns:xlink="http://www.w3.org/1999/xlink" x="0px" y="0px" viewBox="0 0 480 480" style="enable-background:new 0 0 480 480;" xml:space="preserve">
	<style type="text/css">
	.st0{fill:#FFFFFF;stroke:#000000;stroke-width:8;}
	.st1{fill:#FFFFFF;}
	</style>
	<g>
		<g id="light">
			<path class="st0" d="M56.7,76.5c28.2-22,43.5-43.1,45.9-63.8c9.7,10.5,15.6,24,16.8,38.2c-0.6,11.7-6.7,22.5-16.6,29
			C83.5,94.3,66,111,50.7,129.7c-6.5-7-10.4-16.1-10.9-25.7C40.9,92.7,47.1,82.6,56.7,76.5z"/>
			<path class="st0" d="M11.8,30.2h16v16h-16V30.2z"/>
			<path class="st0" d="M99.8,126.2h16v16h-16V126.2z"/>
			<path class="st0" d="M155.8,62.2h16v16h-16V62.2z"/>
		</g>
		<g id="lamp_x5F_lid">
			<path class="st0" d="M366.7,223.5c-9.5-25.4-30.9-43.9-56.6-50l21.9-21.9c3.4-3.4,3.4-8.8,0-12.2l-34.5-34.5
			c-3.4-3.4-8.8-3.4-12.2,0l-34.5,34.5c-3.4,3.4-3.4,8.8,0,12.2l21.9,21.9c-24.9,5.9-46.7,23.8-56.4,49.5L366.7,223.5z"/>

			<rect x="275.7" y="129.7" transform="matrix(0.7071 -0.7071 0.7071 0.7071 -17.4833 248.6898)" class="st0" width="31.5" height="31.5"/>
			<path class="st0" d="M235.2,223c10.3-20.2,31.5-34.5,56.3-34.5c24,0,45.6,13.5,56.3,34.5H235.2z"/>
		</g>
		<g id="lamp">
			<polygon class="st1" points="46.7,205.2 77.1,205.2 119.4,223.5 179.6,240 249.1,239.7 354.9,240.5 372.6,256 374.5,280.1 
			360.7,317.8 324,349.4 288.3,360 242.6,360 204.6,353.5 133.9,307 		"/>
			<g>
				<g>
					<path class="st0" d="M204.6,222.5h-11c-39,0-76.7-11.4-109.1-33c-1.4-0.9-3.1-1.4-4.8-1.4H28c-3.4,0-6.4,2-7.8,5
					c-1.4,3.1-0.9,6.7,1.3,9.2l99.4,116c26.7,31.1,63.6,51.5,104,57.6c-12.6,15.3-28.7,27.1-47.3,34.5l-6.2,2.5
					c-3.8,1.5-6,5.6-5.3,9.6c0.8,4.1,4.3,7,8.5,7h200c4.1,0,7.7-2.9,8.5-7c0.8-4.1-1.4-8.1-5.3-9.6l-6.2-2.5
					c-20.6-8.2-38.6-22.3-51.6-40.1c21.7-8.3,40.2-23.2,53.1-42.5c-2.8,9.2-2,19.1,2.4,27.9c2.1,4.3,7.3,6,11.6,3.9
					c4.3-2.1,6-7.3,3.9-11.6c-2.9-5.9-3-12.6-0.1-18.5c2.9-5.9,8.2-10,14.6-11.3c4.9-1,9.8-2,14.6-2.9c23.6-4.7,40.7-25.7,40.7-49.9
					v-0.9c0-23.2-18.9-42.1-42.1-42.1h-1c-14.1,0-26.6,6.8-34.5,17.3c-6.7-8.9-16.7-15.1-28.2-16.8 M381.2,313
					c6.8-14.7,10.5-30.8,10.5-47.4c0-14.3,11.6-25.9,25.9-25.9h1c13.7,0,24.8,11.1,24.8,24.8v0.9c0,16-11.3,29.8-26.9,33
					c-4.8,1-9.8,1.9-14.6,2.9C393.8,302.9,386.6,307,381.2,313z M354.9,222.9l-150.3-0.5 M245,377.6c1.7,0,3.3,0.1,5,0.1h29.6
					c7.7,0,15.3-0.8,22.7-2.3c9.6,14.5,22,27,36.3,36.8H210.4C223.9,402.9,235.6,391.2,245,377.6z M46.7,205.2h30.4
					c34.8,22.6,75,34.5,116.4,34.5c7.3,0,149,0,155,0c14.3,0,25.9,11.6,25.9,25.9c0,52.8-42.9,94.8-94.8,94.8H250
					c-45.3,0-87.4-19.9-116.1-53.4L46.7,205.2z"/>
				</g>
			</g>
			<g>
				<g>
					<path class="st0" d="M274.5,333.6c0,4.8,3.9,8.6,8.6,8.6c42.8,0,77.6-34.8,77.6-77.6c0-4.8-3.9-8.6-8.6-8.6
					c-4.8,0-8.6,3.9-8.6,8.6c0,33.3-27.1,60.3-60.3,60.3C278.4,324.9,274.5,328.8,274.5,333.6z"/>
				</g>
			</g>
			<line class="st0" x1="46.7" y1="188" x2="46.7" y2="162.9"/>
		</g>
	</g>
</svg>
