<svg id="oilLampFull" xmlns="http://www.w3.org/2000/svg" viewBox="0 0 455.85 422.15">
  <title>Asset 12</title>
  <g id="Layer_2" data-name="Layer 2">
    <g >
      <g id="lamp_lid">
        <path d="M357.91,212.29a80.25,80.25,0,0,0-56.63-50l21.94-22a8.61,8.61,0,0,0,0-12.19L288.75,93.69a8.61,8.61,0,0,0-12.19,0l-34.48,34.47a8.61,8.61,0,0,0,0,12.19L264,162.29a80.37,80.37,0,0,0-56.44,49.54Z" fill="#fff" stroke="#000" stroke-miterlimit="10" stroke-width="8"/>
        <rect x="266.89" y="118.5" width="31.52" height="31.52" transform="translate(-12.15 239.19) rotate(-45)" fill="#fff" stroke="#000" stroke-miterlimit="10" stroke-width="8"/>
        <path d="M226.39,211.83a63.14,63.14,0,0,1,112.52,0Z" fill="#fff" stroke="#000" stroke-miterlimit="10" stroke-width="8"/>
      </g>
      <g id="lamp">
        <polygon points="37.91 194.06 68.3 194.06 110.6 212.29 170.76 228.81 240.34 228.53 346.1 229.31 363.8 244.79 365.65 268.88 351.92 306.57 315.23 338.17 279.5 348.8 233.82 348.8 195.76 342.3 125.1 295.78 37.91 194.06"/>
        <path d="M195.76,211.29h-11a196,196,0,0,1-109.09-33,8.63,8.63,0,0,0-4.78-1.44H19.17A8.62,8.62,0,0,0,12.62,191L112,307a170.05,170.05,0,0,0,104,57.55,118,118,0,0,1-47.35,34.51l-6.17,2.47a8.62,8.62,0,0,0,3.2,16.62h200a8.62,8.62,0,0,0,3.21-16.62l-6.17-2.47A119.56,119.56,0,0,1,311.05,359a112.55,112.55,0,0,0,53.09-42.48,37.72,37.72,0,0,0,2.42,27.92,8.62,8.62,0,1,0,15.42-7.7A20.82,20.82,0,0,1,396.52,307l14.61-2.93a50.89,50.89,0,0,0,40.72-49.85v-.87a42.12,42.12,0,0,0-42.07-42.06h-1a43.06,43.06,0,0,0-34.48,17.27,43.13,43.13,0,0,0-28.17-16.8m26.33,90a111.65,111.65,0,0,0,10.46-47.41,25.89,25.89,0,0,1,25.86-25.86h1a24.86,24.86,0,0,1,24.84,24.82v.87a33.62,33.62,0,0,1-26.86,33l-14.61,2.92A37.79,37.79,0,0,0,372.43,301.8Zm-26.33-90-150.34-.47m40.48,155.07c1.67.05,3.34.08,5,.08h29.6a112.2,112.2,0,0,0,22.74-2.33,137,137,0,0,0,36.31,36.8H201.58A135,135,0,0,0,236.24,366.36ZM37.91,194.05H68.3a213.17,213.17,0,0,0,116.45,34.48H339.8a25.89,25.89,0,0,1,25.85,25.86,94.79,94.79,0,0,1-94.81,94.81h-29.6A152.88,152.88,0,0,1,125.1,295.78Z" fill="#fff" stroke="#000" stroke-miterlimit="10" stroke-width="8"/>
        <path d="M265.73,322.36a8.62,8.62,0,0,0,8.62,8.62,77.65,77.65,0,0,0,77.57-77.57,8.62,8.62,0,1,0-17.23,0,60.4,60.4,0,0,1-60.34,60.33A8.62,8.62,0,0,0,265.73,322.36Z" fill="#fff" stroke="#000" stroke-miterlimit="10" stroke-width="8"/>
        <line x1="37.91" y1="176.82" x2="37.91" y2="151.73" fill="#fff" stroke="#000" stroke-miterlimit="10" stroke-width="8"/>
      </g>
      <g id="light">
        <path class="firedot" d="M4,19H20V35H4Z" fill="#fff" stroke="#000" stroke-miterlimit="10" stroke-wclassth="8"/>
        <path class="firedot" data-name="firedot" d="M92,115h16v16H92Z" fill="#fff" stroke="#000" stroke-miterlimit="10" stroke-wclassth="8"/>
        <path class="firedot" data-name="firedot" d="M148,51h16V67H148Z" fill="#fff" stroke="#000" stroke-miterlimit="10" stroke-width="8"/>
        <g id="surface1">
          <path id="lightStrokeLarge" d="M94.15,34.13a1.23,1.23,0,0,0-2.24.82,43.52,43.52,0,0,1-5.62,23.9c.76-4.42,1.14-10.92.4-20.4C84.79,14.57,63.11,4.22,62.89,4.12a1.24,1.24,0,0,0-1.65.59h0a1.23,1.23,0,0,0-.11.68c1.26,9.8-1,14.13-7.15,25.71-2.47,4.66-5.53,10.48-9.21,18.24C37.51,64.71,42,77.08,47.4,85.07c.29.43.58.84.88,1.24.72,1,1.46,1.9,2.17,2.73.39.46.78.89,1.16,1.3.65.7,1.27,1.32,1.84,1.88l.93.87a31.52,31.52,0,0,0,2.53,2.09h0l.38.17A35.24,35.24,0,0,0,70.87,98,34,34,0,0,0,84,95.43h0l.24-.1.54-.23a50,50,0,0,0,8.56-9c.69-.92,1.39-1.91,2.08-3,.17-.25.33-.5.49-.76A48.6,48.6,0,0,0,102,68.06C106.16,51.24,94.61,34.8,94.15,34.13Z" fill="none" stroke="#000" stroke-miterlimit="10" stroke-width="8"/>
        </g>
        <path id="smallLight" d="M34.69,68.42a48.6,48.6,0,0,0,6.16,14.31c.16.26.32.51.49.76.69,1.05,1.39,2,2.08,3a50.51,50.51,0,0,0,8.55,9l.55.23.24.1h0a33.82,33.82,0,0,0,13.09,2.6,35.3,35.3,0,0,0,13.57-2.68l.38-.17h0a31.52,31.52,0,0,0,2.53-2.09l.93-.88c.57-.55,1.19-1.17,1.84-1.87.38-.41.77-.84,1.16-1.3.71-.83,1.45-1.74,2.17-2.73.3-.4.59-.82.88-1.24,5.44-8,9.89-20.36,2.63-35.72C88.27,42,85.21,36.13,82.74,31.47c-6.12-11.58-8.41-15.91-7.15-25.71a1.21,1.21,0,0,0-.11-.68h0a1.24,1.24,0,0,0-1.65-.59c-.22.09-21.9,10.45-23.8,34.33-.74,9.48-.36,16,.4,20.39a43.46,43.46,0,0,1-5.62-23.89,1.24,1.24,0,0,0-2.24-.83C42.11,35.16,30.56,51.59,34.69,68.42Z" fill="none" stroke="#000" stroke-miterlimit="10" stroke-width="8"/>
      </g>
    </g>
  </g>
</svg>