<svg id="oiLampColorised" xmlns="http://www.w3.org/2000/svg" xmlns:xlink="http://www.w3.org/1999/xlink" viewBox="0 0 461.72 411.9">
  <defs>
    <linearGradient id="linear-gradient" x1="87.89" y1="127.51" x2="87.89" y2="33.47" gradientTransform="matrix(-1, 0, 0, 1, 133.8, 0)" gradientUnits="userSpaceOnUse">
      <stop offset="0" stop-color="#fff"/>
      <stop offset="0" stop-color="#ff4200"/>
      <stop offset="0.8" stop-color="#ffab02"/>
      <stop offset="1" stop-color="#ffae02"/>
    </linearGradient>
    <linearGradient id="linear-gradient-2" x1="89.21" y1="127.51" x2="89.21" y2="33.47" gradientTransform="translate(-46.24)" xlink:href="#linear-gradient"/>
  </defs>
  <title>Asset 16</title>
  <g id="Layer_2" data-name="Layer 2">
    <g id="oilLampFull">
      <g id="lamp_lid">
        <path d="M363.78,202.05a80.24,80.24,0,0,0-56.63-50l21.94-21.94a8.61,8.61,0,0,0,0-12.19L294.62,83.44a8.61,8.61,0,0,0-12.19,0L248,117.92a8.63,8.63,0,0,0,0,12.19L269.88,152a80.39,80.39,0,0,0-56.44,49.54Z" fill="#fff" stroke="#000" stroke-miterlimit="10" stroke-width="8"/>
        <rect x="272.76" y="108.25" width="31.52" height="31.52" transform="translate(-3.18 240.34) rotate(-45)" fill="#fff" stroke="#000" stroke-miterlimit="10" stroke-width="8"/>
        <path d="M232.26,201.58a63.15,63.15,0,0,1,112.52,0Z" fill="#fff" stroke="#000" stroke-miterlimit="10" stroke-width="8"/>
      </g>
      <g id="lamp">
        <polygon points="43.78 183.81 74.17 183.81 116.47 202.05 176.63 218.56 246.21 218.28 351.97 219.06 369.67 234.54 371.53 258.63 357.8 296.32 321.1 327.92 285.37 338.55 239.69 338.55 201.64 332.05 161 312.41 43.78 183.81"/>
        <path d="M201.64,201.05h-11A196.08,196.08,0,0,1,81.54,168a8.59,8.59,0,0,0-4.79-1.45H25A8.62,8.62,0,0,0,18.5,180.8l99.38,116a170.11,170.11,0,0,0,104,57.56,118,118,0,0,1-47.35,34.51l-6.17,2.46a8.62,8.62,0,0,0,3.2,16.62h200a8.62,8.62,0,0,0,3.2-16.62l-6.17-2.46a119.59,119.59,0,0,1-51.64-40.08A112.55,112.55,0,0,0,370,306.26a37.76,37.76,0,0,0,2.42,27.92,8.62,8.62,0,0,0,15.43-7.7,20.81,20.81,0,0,1,14.53-29.73L417,293.83A50.91,50.91,0,0,0,457.72,244v-.86a42.11,42.11,0,0,0-42.07-42.06h-1a43,43,0,0,0-34.47,17.26A43.17,43.17,0,0,0,352,201.51m26.33,90a111.65,111.65,0,0,0,10.46-47.41,25.89,25.89,0,0,1,25.86-25.86h1a24.86,24.86,0,0,1,24.83,24.83V244a33.62,33.62,0,0,1-26.86,33L399,279.85A37.71,37.71,0,0,0,378.3,291.55Zm-26.33-90-150.33-.46m40.47,155.06c1.67.05,3.34.08,5,.08h29.61a112.35,112.35,0,0,0,22.74-2.33,136.82,136.82,0,0,0,36.3,36.8H207.45A135,135,0,0,0,242.11,356.11ZM43.78,183.81H74.17a213.24,213.24,0,0,0,116.45,34.47H345.67a25.89,25.89,0,0,1,25.86,25.86A94.8,94.8,0,0,1,276.72,339H247.11A152.85,152.85,0,0,1,131,285.53Z" fill="#fff" stroke="#000" stroke-miterlimit="10" stroke-width="8"/>
        <path d="M271.61,312.12a8.61,8.61,0,0,0,8.61,8.62,77.66,77.66,0,0,0,77.58-77.58,8.62,8.62,0,0,0-17.24,0,60.41,60.41,0,0,1-60.34,60.34A8.61,8.61,0,0,0,271.61,312.12Z" fill="#fff" stroke="#000" stroke-miterlimit="10" stroke-width="8"/>
        <line x1="43.78" y1="166.57" x2="43.78" y2="141.48" fill="#fff" stroke="#000" stroke-miterlimit="10" stroke-width="8"/>
      </g>
      <g id="light">
        <path class="firedot" d="M4,16.86H20v16H4Z" fill="#fff" stroke="#000" stroke-miterlimit="10" stroke-width="8"/>
        <path class="firedot" data-name="firedot" d="M81.94,117.57h16v16h-16Z" fill="#fff" stroke="#000" stroke-miterlimit="10" stroke-width="8"/>
        <path class="firedot" data-name="firedot" d="M73.94,4h16V20h-16Z" fill="#fff" stroke="#000" stroke-miterlimit="10" stroke-width="8"/>
        <path id="lightStrokeLarge" d="M68.11,63.6a1.24,1.24,0,0,0-1.73-.29,1.22,1.22,0,0,0-.51,1.12,43.57,43.57,0,0,1-5.62,23.89c.76-4.42,1.14-10.92.4-20.39-1.9-23.88-23.58-34.24-23.8-34.34a1.24,1.24,0,0,0-1.65.6h0a1.23,1.23,0,0,0-.11.68c1.26,9.81-1,14.14-7.15,25.71-2.48,4.67-5.54,10.48-9.21,18.24-7.26,15.37-2.81,27.73,2.63,35.72.29.43,16.52,13,23.47,13,4.49,0,13.09-2.6,13.09-2.6s11.75-12.81,11.91-13.07A48.49,48.49,0,0,0,76,97.53C80.12,80.71,68.56,64.27,68.11,63.6Z" stroke="#000" stroke-miterlimit="10" stroke-width="8" fill="url(#linear-gradient)"/>
        <path id="smallLight" d="M12.89,97.53a48.49,48.49,0,0,0,6.16,14.31c.16.26,11.83,13,11.91,13.07s8.6,2.61,13.09,2.6c7,0,23.18-12.54,23.47-13,5.44-8,9.89-20.35,2.63-35.72-3.67-7.76-6.73-13.57-9.21-18.24C54.82,49,52.53,44.68,53.79,34.87a1.23,1.23,0,0,0-.11-.68h0a1.24,1.24,0,0,0-1.65-.6c-.22.1-21.9,10.46-23.8,34.34-.74,9.47-.36,16,.4,20.39A43.57,43.57,0,0,1,23,64.43a1.24,1.24,0,0,0-2.24-.83C20.32,64.27,8.76,80.71,12.89,97.53Z" stroke="#000" stroke-miterlimit="10" stroke-width="8" fill="url(#linear-gradient-2)"/>
      </g>
    </g>
  </g>
</svg>