<?xml version="1.0" encoding="utf-8"?>
<!-- Generator: Adobe Illustrator 23.1.1, SVG Export Plug-In . SVG Version: 6.00 Build 0)  -->
<svg version="1.1" id="Layer_1" xmlns="http://www.w3.org/2000/svg" xmlns:xlink="http://www.w3.org/1999/xlink" x="0px" y="0px"
	 viewBox="0 0 3000 3000" style="enable-background:new 0 0 3000 3000;" xml:space="preserve">
<style type="text/css">
	.st0{clip-path:url(#SVGID_2_);}
	.st1{clip-path:url(#SVGID_4_);}
	
		.st2{clip-path:url(#SVGID_4_);fill:none;stroke:#000000;stroke-width:5;stroke-linecap:round;stroke-linejoin:round;stroke-miterlimit:10;}
	.st3{clip-path:url(#SVGID_4_);fill:#FFFFFF;}
	
		.st4{clip-path:url(#SVGID_4_);fill:none;stroke:#000000;stroke-width:2;stroke-linecap:round;stroke-linejoin:round;stroke-miterlimit:10;}
	.st5{clip-path:url(#SVGID_4_);fill:#FFDE00;}
	.st6{clip-path:url(#SVGID_4_);fill:none;stroke:#000000;stroke-width:2;stroke-linecap:round;stroke-miterlimit:10;}
	.st7{clip-path:url(#SVGID_4_);fill:none;stroke:#000000;stroke-width:5;stroke-linecap:round;stroke-miterlimit:10;}
	.st8{clip-path:url(#SVGID_4_);fill:none;stroke:#000000;stroke-width:3;stroke-miterlimit:10;}
	.st9{clip-path:url(#SVGID_4_);fill:none;stroke:#000000;stroke-width:5;stroke-miterlimit:10;}
	.st10{clip-path:url(#SVGID_4_);fill:none;stroke:#B2B2B2;stroke-width:3;stroke-miterlimit:10;}
	.st11{clip-path:url(#SVGID_4_);fill:none;stroke:#DADADA;stroke-width:3;stroke-miterlimit:10;}
	.st12{clip-path:url(#SVGID_4_);fill:none;stroke:#000000;stroke-miterlimit:10;}
	.st13{clip-path:url(#SVGID_4_);fill:none;stroke:#000000;stroke-width:2;stroke-miterlimit:10;}
	.st14{clip-path:url(#SVGID_4_);fill:none;stroke:#000000;stroke-width:0.75;stroke-miterlimit:10;}
	.st15{opacity:0.77;clip-path:url(#SVGID_4_);}
	.st16{filter:url(#Adobe_OpacityMaskFilter);}
	.st17{clip-path:url(#SVGID_8_);fill:url(#SVGID_10_);}
	.st18{clip-path:url(#SVGID_8_);mask:url(#SVGID_9_);fill:url(#SVGID_11_);}
</style>
<g>
	<defs>
		<rect id="SVGID_1_" width="3000" height="3000"/>
	</defs>
	<clipPath id="SVGID_2_">
		<use xlink:href="#SVGID_1_"  style="overflow:visible;"/>
	</clipPath>
	<g class="st0">
		<defs>
			<rect id="SVGID_3_" width="3000" height="3000"/>
		</defs>
		<clipPath id="SVGID_4_">
			<use xlink:href="#SVGID_3_"  style="overflow:visible;"/>
		</clipPath>
		<path class="st1" d="M1233.7,906.2l-31.4,80.8l-0.3,0.9c-0.6,1.5-2.4,2-3.6,1.1c-0.5-0.4-1.1-0.8-1.7-1.2
			c-0.2-0.2-0.4-0.3-0.7-0.5c-2.2-1.6-4.5-3.2-6.8-4.7c-0.7-0.5-1.3-0.9-2-1.4c-0.5-0.3-1-0.7-1.5-1c0,0,0,0,0,0c0,0,0,0-0.1,0
			c0,0,0,0,0,0c-0.1-0.1-0.1-0.1-0.2-0.1c-0.1,0-0.1-0.1-0.2-0.1c-0.1,0-0.3-0.1-0.4-0.2c0,0-0.1,0-0.1-0.1
			c-0.4-0.2-0.8-0.3-1.2-0.5c-0.4-0.1-0.8-0.3-1.2-0.4c-1.5-0.6-3.1-1.1-4.7-1.7c-0.4-0.1-0.9-0.3-1.3-0.4c-0.6-0.2-1.1-0.4-1.7-0.5
			c-0.8-0.2-1.5-0.5-2.3-0.7c-0.7-0.2-1.4-0.4-2.2-0.7c-2.1-0.6-4.1-1.1-6.1-1.6c-12.3-2.9-23.3-3.2-25.1,4.1
			c-0.1,0.3-0.1,0.7-0.2,1c-0.1,0.5-0.1,1.1,0,1.6c0,0.1,0,0.2,0,0.4c0,0,0,0.1,0,0.1c0,0.2,0,0.3,0.1,0.5c0,0,0,0.1,0,0.1
			c0,0.2,0.1,0.5,0.2,0.8c0.1,0.2,0.1,0.5,0.2,0.7c0.2,0.5,0.4,1,0.7,1.5c0.1,0.1,0.1,0.2,0.2,0.4c0.1,0.2,0.2,0.3,0.3,0.5
			c0.1,0.1,0.2,0.3,0.3,0.4c0.1,0.1,0.2,0.3,0.3,0.4c0.2,0.3,0.4,0.5,0.6,0.8c0.2,0.2,0.3,0.4,0.5,0.6c0.1,0.1,0.1,0.2,0.2,0.2
			c0.2,0.2,0.4,0.4,0.6,0.6c0.2,0.2,0.4,0.4,0.6,0.6c0.5,0.5,1.1,1,1.7,1.5c0.2,0.2,0.4,0.3,0.6,0.5c0.4,0.4,0.9,0.7,1.3,1.1
			c0.3,0.2,0.6,0.5,1,0.7c0.3,0.2,0.7,0.5,1,0.7c0.3,0.2,0.6,0.4,0.8,0.6c1.5,1,3,1.9,4.7,2.8c0.4,0.2,0.8,0.4,1.2,0.6
			c0.6,0.3,1.2,0.6,1.8,1c2.2,1.1,4.6,2.2,6.9,3.2c0.8,0.4,1.7,0.7,2.6,1.1c0.7,0.3,1.5,0.6,2.2,0.9c0.1,0,0.2,0.1,0.3,0.1
			c0.6,0.2,1.3,0.5,1.9,0.7c0.2,0.1,0.4,0.2,0.6,0.2c0.5,0.2,1,0.4,1.5,0.6c6.2,2.3,11.8,4.1,15.3,5.2c0.4,0.1,0.7,0.2,1,0.3
			c0.2,0.1,0.3,0.1,0.5,0.2c1.3,0.4,2,1.8,1.5,3.1l-3,7.8c-0.5,1.3-2,1.9-3.3,1.3c-0.2-0.1-0.4-0.2-0.6-0.3c-0.3-0.2-0.7-0.3-1-0.5
			c-0.3-0.1-0.6-0.3-1-0.5c-0.7-0.3-1.4-0.7-2.2-1.1c-0.5-0.2-1-0.5-1.5-0.7c-0.7-0.4-1.5-0.7-2.3-1.1c0,0-0.1,0-0.1-0.1
			c-3.7-1.8-8-3.8-12.6-5.8c-0.4-0.2-0.8-0.3-1.2-0.5c-1-0.4-2-0.9-3-1.3c-1.3-0.6-2.6-1.1-3.9-1.6c-1.5-0.6-2.9-1.1-4.4-1.7
			c-4.2-1.6-8.3-2.9-11.9-3.8c-0.3-0.1-0.6-0.1-0.9-0.2c-0.7-0.2-1.3-0.3-2-0.4c-0.9-0.2-1.7-0.3-2.5-0.4c-0.3,0-0.5-0.1-0.8-0.1
			c-0.3,0-0.5-0.1-0.8-0.1c-0.4,0-0.7-0.1-1.1-0.1c-0.3,0-0.6,0-0.9,0c-0.6,0-1.2,0-1.7,0.1c-0.7,0.1-1.3,0.2-1.8,0.4
			c-0.2,0.1-0.4,0.1-0.5,0.2c-0.3,0.2-0.7,0.3-0.9,0.5c-0.5,0.4-0.9,0.9-1.2,1.5c-0.6,1.3-0.8,2.6-0.8,3.9c0,0.2,0,0.5,0,0.8
			c0.1,1.5,0.6,3,1.4,4.5c0.1,0.2,0.3,0.5,0.4,0.7c0.6,1,1.3,2,2.2,2.9c0.2,0.2,0.3,0.4,0.5,0.6c0.2,0.2,0.4,0.5,0.7,0.7
			c0.2,0.2,0.4,0.4,0.6,0.6c0.2,0.2,0.4,0.4,0.6,0.6c1.2,1,2.4,2.1,3.8,3c0.3,0.2,0.6,0.4,0.9,0.7c0.2,0.2,0.5,0.3,0.8,0.5
			c2.7,1.8,5.6,3.4,8.8,5c0.4,0.2,0.8,0.4,1.1,0.6c2.3,1.1,4.7,2.2,7.1,3.1c0.8,0.3,1.6,0.6,2.4,1c0,0,0.1,0,0.1,0
			c0.7,0.3,1.4,0.5,2.1,0.8c2.9,1,5.7,1.9,8.4,2.7c0.4,0.1,0.8,0.2,1.1,0.3c0.4,0.1,0.8,0.2,1.2,0.3c0.6,0.2,1.2,0.3,1.8,0.5
			c0.4,0.1,0.9,0.2,1.3,0.3c0.3,0.1,0.7,0.2,1,0.2c0.1,0,0.2,0,0.3,0.1c0.6,0.1,1.2,0.3,1.8,0.4c0.3,0.1,0.6,0.1,0.8,0.2l0,0
			c0,0,0,0,0.1,0c0,0,0.1,0,0.1,0c0.2,0,0.4,0.1,0.7,0.1c0.3,0.1,0.6,0.1,0.8,0.2c0.4,0.1,0.8,0.1,1.2,0.2c0.1,0,0.2,0,0.4,0.1
			c1.4,0.3,2.2,1.8,1.7,3.2l-1.1,2.9c0,0,0,0,0,0l-0.3,0.7l-0.4,1.1c-0.4,1.1-1.5,1.6-2.6,1.5c-0.3,0-0.6-0.1-0.9-0.3
			c-11.7-6-49.9-23.4-52.2-11.6c-0.2,0.9-0.2,1.8-0.1,2.7c0,0.2,0,0.3,0.1,0.5c0,0.2,0,0.3,0.1,0.5c0,0.1,0,0.1,0,0.1
			c0,0.2,0.1,0.3,0.1,0.5c0.2,0.9,0.6,1.8,1.1,2.7c0.1,0.2,0.2,0.3,0.3,0.5c0.8,1.4,1.8,2.7,3,4c0.2,0.2,0.3,0.3,0.5,0.5
			c0.2,0.2,0.4,0.4,0.5,0.6c0.2,0.2,0.4,0.4,0.6,0.6c0.1,0.1,0.1,0.1,0.2,0.2c0.2,0.2,0.4,0.4,0.6,0.6c0.2,0.2,0.4,0.4,0.7,0.6
			c0.2,0.2,0.5,0.4,0.7,0.6c0,0,0,0,0,0c0.5,0.4,1,0.8,1.5,1.2c0.2,0.2,0.5,0.4,0.8,0.6l8.2,3.8c0,0,0,0,0.1,0l3.7,1.7h0l1.3,0.6
			l0.1,0l1.1,0.5c0,0,0,0,0,0l16.3,7.5c0,0,0,0,0.1,0v0h0c0.9,0.2,1.9,0.4,2.7,0.6c1.5,0.3,2.3,1.8,1.8,3.2l-1.1,2.8c0,0,0,0,0,0
			l-0.5,1.4h0c-0.9-0.3-48.4-16.1-52.7-11.7c-4.1,4.2-4,9.9,4.9,13.9c0,0,0,0,0.1,0c0.8,0.3,1.6,0.7,2.4,1h0c0.3,0.1,0.7,0.2,1,0.3
			c6.8,2.3,18.8,4.7,27.8,6.3c6.5,1.2,8.2,5.8,8.5,5.9h0c0,0,0,0,0,0c0.6,0.5,0.9,1.2,0.9,1.9c0,0.3,0,0.6-0.2,0.9l-0.2,0.5
			c0,0.1-0.1,0.1-0.1,0.2c0,0,0,0,0,0c-0.3,0.7-0.7,1.3-1.2,1.7c-0.3,0.2-0.5,0.4-0.8,0.6c0,0,0,0,0,0c-0.8,0.5-1.8,0.8-2.9,0.8
			h-87.9c-3.8,0-6.4-3.8-5-7.3l13.1-33.7l37.1-95.4l23.8-61.1c0.8-2.1,2.8-3.4,5-3.4h87.9C1232.4,898.9,1235,902.7,1233.7,906.2"/>
		<path class="st2" d="M1233.7,906.2l-31.4,80.8l-0.3,0.9c-0.6,1.5-2.4,2-3.6,1.1c-0.5-0.4-1.1-0.8-1.7-1.2
			c-0.2-0.2-0.4-0.3-0.7-0.5c-2.2-1.6-4.5-3.2-6.8-4.7c-0.7-0.5-1.3-0.9-2-1.4c-0.5-0.3-1-0.7-1.5-1c0,0,0,0,0,0c0,0,0,0-0.1,0
			c0,0,0,0,0,0c-0.1-0.1-0.1-0.1-0.2-0.1c-0.1,0-0.1-0.1-0.2-0.1c-0.1,0-0.3-0.1-0.4-0.2c0,0-0.1,0-0.1-0.1
			c-0.4-0.2-0.8-0.3-1.2-0.5c-0.4-0.1-0.8-0.3-1.2-0.4c-1.5-0.6-3.1-1.1-4.7-1.7c-0.4-0.1-0.9-0.3-1.3-0.4c-0.6-0.2-1.1-0.4-1.7-0.5
			c-0.8-0.2-1.5-0.5-2.3-0.7c-0.7-0.2-1.4-0.4-2.2-0.7c-2.1-0.6-4.1-1.1-6.1-1.6c-12.3-2.9-23.3-3.2-25.1,4.1
			c-0.1,0.3-0.1,0.7-0.2,1c-0.1,0.5-0.1,1.1,0,1.6c0,0.1,0,0.2,0,0.4c0,0,0,0.1,0,0.1c0,0.2,0,0.3,0.1,0.5c0,0,0,0.1,0,0.1
			c0,0.2,0.1,0.5,0.2,0.8c0.1,0.2,0.1,0.5,0.2,0.7c0.2,0.5,0.4,1,0.7,1.5c0.1,0.1,0.1,0.2,0.2,0.4c0.1,0.2,0.2,0.3,0.3,0.5
			c0.1,0.1,0.2,0.3,0.3,0.4c0.1,0.1,0.2,0.3,0.3,0.4c0.2,0.3,0.4,0.5,0.6,0.8c0.2,0.2,0.3,0.4,0.5,0.6c0.1,0.1,0.1,0.2,0.2,0.2
			c0.2,0.2,0.4,0.4,0.6,0.6c0.2,0.2,0.4,0.4,0.6,0.6c0.5,0.5,1.1,1,1.7,1.5c0.2,0.2,0.4,0.3,0.6,0.5c0.4,0.4,0.9,0.7,1.3,1.1
			c0.3,0.2,0.6,0.5,1,0.7c0.3,0.2,0.7,0.5,1,0.7c0.3,0.2,0.6,0.4,0.8,0.6c1.5,1,3,1.9,4.7,2.8c0.4,0.2,0.8,0.4,1.2,0.6
			c0.6,0.3,1.2,0.6,1.8,1c2.2,1.1,4.6,2.2,6.9,3.2c0.8,0.4,1.7,0.7,2.6,1.1c0.7,0.3,1.5,0.6,2.2,0.9c0.1,0,0.2,0.1,0.3,0.1
			c0.6,0.2,1.3,0.5,1.9,0.7c0.2,0.1,0.4,0.2,0.6,0.2c0.5,0.2,1,0.4,1.5,0.6c6.2,2.3,11.8,4.1,15.3,5.2c0.4,0.1,0.7,0.2,1,0.3
			c0.2,0.1,0.3,0.1,0.5,0.2c1.3,0.4,2,1.8,1.5,3.1l-3,7.8c-0.5,1.3-2,1.9-3.3,1.3c-0.2-0.1-0.4-0.2-0.6-0.3c-0.3-0.2-0.7-0.3-1-0.5
			c-0.3-0.1-0.6-0.3-1-0.5c-0.7-0.3-1.4-0.7-2.2-1.1c-0.5-0.2-1-0.5-1.5-0.7c-0.7-0.4-1.5-0.7-2.3-1.1c0,0-0.1,0-0.1-0.1
			c-3.7-1.8-8-3.8-12.6-5.8c-0.4-0.2-0.8-0.3-1.2-0.5c-1-0.4-2-0.9-3-1.3c-1.3-0.6-2.6-1.1-3.9-1.6c-1.5-0.6-2.9-1.1-4.4-1.7
			c-4.2-1.6-8.3-2.9-11.9-3.8c-0.3-0.1-0.6-0.1-0.9-0.2c-0.7-0.2-1.3-0.3-2-0.4c-0.9-0.2-1.7-0.3-2.5-0.4c-0.3,0-0.5-0.1-0.8-0.1
			c-0.3,0-0.5-0.1-0.8-0.1c-0.4,0-0.7-0.1-1.1-0.1c-0.3,0-0.6,0-0.9,0c-0.6,0-1.2,0-1.7,0.1c-0.7,0.1-1.3,0.2-1.8,0.4
			c-0.2,0.1-0.4,0.1-0.5,0.2c-0.3,0.2-0.7,0.3-0.9,0.5c-0.5,0.4-0.9,0.9-1.2,1.5c-0.6,1.3-0.8,2.6-0.8,3.9c0,0.2,0,0.5,0,0.8
			c0.1,1.5,0.6,3,1.4,4.5c0.1,0.2,0.3,0.5,0.4,0.7c0.6,1,1.3,2,2.2,2.9c0.2,0.2,0.3,0.4,0.5,0.6c0.2,0.2,0.4,0.5,0.7,0.7
			c0.2,0.2,0.4,0.4,0.6,0.6c0.2,0.2,0.4,0.4,0.6,0.6c1.2,1,2.4,2.1,3.8,3c0.3,0.2,0.6,0.4,0.9,0.7c0.2,0.2,0.5,0.3,0.8,0.5
			c2.7,1.8,5.6,3.4,8.8,5c0.4,0.2,0.8,0.4,1.1,0.6c2.3,1.1,4.7,2.2,7.1,3.1c0.8,0.3,1.6,0.6,2.4,1c0,0,0.1,0,0.1,0
			c0.7,0.3,1.4,0.5,2.1,0.8c2.9,1,5.7,1.9,8.4,2.7c0.4,0.1,0.8,0.2,1.1,0.3c0.4,0.1,0.8,0.2,1.2,0.3c0.6,0.2,1.2,0.3,1.8,0.5
			c0.4,0.1,0.9,0.2,1.3,0.3c0.3,0.1,0.7,0.2,1,0.2c0.1,0,0.2,0,0.3,0.1c0.6,0.1,1.2,0.3,1.8,0.4c0.3,0.1,0.6,0.1,0.8,0.2l0,0
			c0,0,0,0,0.1,0c0,0,0.1,0,0.1,0c0.2,0,0.4,0.1,0.7,0.1c0.3,0.1,0.6,0.1,0.8,0.2c0.4,0.1,0.8,0.1,1.2,0.2c0.1,0,0.2,0,0.4,0.1
			c1.4,0.3,2.2,1.8,1.7,3.2l-1.1,2.9c0,0,0,0,0,0l-0.3,0.7l-0.4,1.1c-0.4,1.1-1.5,1.6-2.6,1.5c-0.3,0-0.6-0.1-0.9-0.3
			c-11.7-6-49.9-23.4-52.2-11.6c-0.2,0.9-0.2,1.8-0.1,2.7c0,0.2,0,0.3,0.1,0.5c0,0.2,0,0.3,0.1,0.5c0,0.1,0,0.1,0,0.1
			c0,0.2,0.1,0.3,0.1,0.5c0.2,0.9,0.6,1.8,1.1,2.7c0.1,0.2,0.2,0.3,0.3,0.5c0.8,1.4,1.8,2.7,3,4c0.2,0.2,0.3,0.3,0.5,0.5
			c0.2,0.2,0.4,0.4,0.5,0.6c0.2,0.2,0.4,0.4,0.6,0.6c0.1,0.1,0.1,0.1,0.2,0.2c0.2,0.2,0.4,0.4,0.6,0.6c0.2,0.2,0.4,0.4,0.7,0.6
			c0.2,0.2,0.5,0.4,0.7,0.6c0,0,0,0,0,0c0.5,0.4,1,0.8,1.5,1.2c0.2,0.2,0.5,0.4,0.8,0.6l8.2,3.8c0,0,0,0,0.1,0l3.7,1.7h0l1.3,0.6
			l0.1,0l1.1,0.5c0,0,0,0,0,0l16.3,7.5c0,0,0,0,0.1,0v0h0c0.9,0.2,1.9,0.4,2.7,0.6c1.5,0.3,2.3,1.8,1.8,3.2l-1.1,2.8c0,0,0,0,0,0
			l-0.5,1.4h0c-0.9-0.3-48.4-16.1-52.7-11.7c-4.1,4.2-4,9.9,4.9,13.9c0,0,0,0,0.1,0c0.8,0.3,1.6,0.7,2.4,1h0c0.3,0.1,0.7,0.2,1,0.3
			c6.8,2.3,18.8,4.7,27.8,6.3c6.5,1.2,8.2,5.8,8.5,5.9h0c0,0,0,0,0,0c0.6,0.5,0.9,1.2,0.9,1.9c0,0.3,0,0.6-0.2,0.9l-0.2,0.5
			c0,0.1-0.1,0.1-0.1,0.2c0,0,0,0,0,0c-0.3,0.7-0.7,1.3-1.2,1.7c-0.3,0.2-0.5,0.4-0.8,0.6c0,0,0,0,0,0c-0.8,0.5-1.8,0.8-2.9,0.8
			h-87.9c-3.8,0-6.4-3.8-5-7.3l13.1-33.7l37.1-95.4l23.8-61.1c0.8-2.1,2.8-3.4,5-3.4h87.9C1232.4,898.9,1235,902.7,1233.7,906.2z"/>
		<path class="st2" d="M888.4,947.6c0.8,3.4,1,8.4,0.5,14.5"/>
		<path class="st2" d="M885.6,984c1.7,14.2-2.1,51-2.6,56.4c-0.5,5.6-6.7,38.4-6.7,38.4s-0.5,14.5-4.9,21.5c0,0,5.3,9.4,5.7,20v0
			c0.1,0.5,0.2,1,0.3,1.5v0"/>
		<line class="st2" x1="511.3" y1="1194.6" x2="498.5" y2="1207.4"/>
		<polyline class="st2" points="591.3,1296.9 591.3,1297.7 591.2,1305.3 		"/>
		<path class="st2" d="M591,1307c0.1-0.3,0.2-0.5,0.2-0.6l0,0c0,0,0-0.2,0-0.5c0-0.1,0-0.3,0-0.5c0-1.4,0.1-4,0.1-7.7"/>
		<line class="st2" x1="590.3" y1="1308.6" x2="569.3" y2="1361.1"/>
		<line class="st2" x1="569" y1="1361.9" x2="558.7" y2="1385.2"/>
		<path class="st2" d="M868.6,1304.2L868.6,1304.2c-0.2-0.7-0.4-1.4-0.5-2.1v0c0-0.2-0.1-0.4-0.2-0.5"/>
		<path class="st2" d="M863.2,1300.5c-0.3,2.3-0.6,4.9-0.9,7.7"/>
		<path class="st2" d="M722,2335.7C722,2335.7,722,2335.7,722,2335.7"/>
		<path class="st2" d="M688.7,1308.1c-5.8-4.8-11.9-8.3-17.8-11c-16.9-7.7-31.5-7.7-31.5-7.7"/>
		<path class="st2" d="M826.4,1858.3c2.3-6.9,2.3-2.8,9.7-13.3c7.4-10.5,15.1-40.2,24.1-59.5c9-19.2,23.8-67.6,29-86.1
			c0.9-3.3,2.1-8.4,3.3-14.5"/>
		<path class="st2" d="M832.1,1790.6c0,0-12.3,68.2-5.6,88.7c6.7,20.5-2.3,42.3-9.2,51.8c-6.9,9.5-21.3,21-25.1,43
			c-3.8,22-3.6,31.3-9.7,65.1c-6.1,33.8-41,130.7-44.1,135.8c-3.1,5.1-17.9,49.7-20,58.9c-2,9.2-25.4,13.3,0,49.2
			c25.4,35.9,67.6,51.8,90.7,56.4"/>
		<path class="st3" d="M744,2247.4c-5.4-2.4-10-2-13.8,1.4c-2.2,1.9-4,4.3-5.4,6.9c-0.4,0.7-0.7,1.4-1.1,2.2
			c-0.3,0.4-0.6,0.9-0.8,1.3h-5c-8.7,0.9-17.3,1.1-26,0c-4.9-0.6-9.9-1.7-14.9-3.2c-0.3-0.1-0.6-0.2-0.8-0.3h-13.6
			c-2.9-0.6-5.7-1.1-8.6-1.5c-1.6-0.2-3.2-0.4-4.8-0.6c-0.5,0-1,0-1.5-0.1c-0.1,0.5,0,1.2-0.7,1.2c-0.3-0.1-0.7-0.8-1-1.2
			c-0.6-0.1-1.2-0.2-1.9-0.2c-0.6,1.8-1.9,1.6-3.3,0.6c-0.8,0.1-1.7,0.3-2.5,0.4c-1.9,0.2-2.4,1.5-2.4,3.2
			c-0.2,5.8-1.9,11.4-1.4,17.4c0.3,0.7,0.5,1.3-0.3,1.8c0,0.3,0,0.6,0,0.9c0,0.3,0.1,0.6,0.1,0.9c0.2,0.3,0.3,0.5,0.4,0.8
			c-3.5,0.2-0.5,2.4-0.8,3.5c-1.8,6.7,0.4,13.6,0.6,20.4c0.3,8.2,4.9,15.7,5.1,23.8c0,1.1,0.5,1.9,1.8,1.8c0.5,4.9,0.9,9.8,2.1,14.5
			c-0.8,4.7-1.7,8.7-2.8,10.7c-3.6,6.4,26.3,10,26.3,10s12.6,2.9,19.5-1.1c1.1,0.2,2.2,0.3,3.3,0.4c0.2-0.3,0.3-0.6,0.4-0.9
			c0,0,0.6,0.4,2.3,1.1c3.9,1.5,13.3,4.4,34,7.1c2.3,0.3,4.5,0.6,6.8,0.8c12.3,3.7,24.5,7.9,37,10.2c7,1.3,14.1,2.9,21.2,2.1h1.7
			c1.5,1.1,3,0.8,4.4,0.2c0.8,0,1.6,0,2.5,0.1c1.8,1.1,3.6,0.7,5.3,0.1c0.8,0,1.6,0,2.5,0c2.1,1.2,4.1,0.6,6.1,0.1
			c0.9,0.1,1.7,0.2,2.6,0.3c2.4,0.8,4.6,0.2,6.9-0.4c0.5,0,1.1,0,1.6,0c1,1,2.2,0.6,3.3,0.6c24.5-0.6,48.7-2.7,72.7-5.8
			c8.9-1.1,18.2-1.8,25.6-7.1c2.4-1.7,3.7-3.9,3.3-6.8c-0.4-2.3-1.8-4.3-4.7-4.1c1.2-1.4,2.3-2.8,3.4-4.2c2-3.3,0.3-9.9-3.5-13.1
			c-0.9-0.7-2.1-1.1-2.3-2.4c-1.9-9.6-9.4-14-17.5-17.5c-10.6-4.7-21.6-7.9-32.7-10.7c-3.2-0.8-6.6-0.9-9.5-2.2
			c-3.5-1.7-7.2-2.1-10.8-3c-12.4-3.2-23.8-8.3-34.3-16.1c-1.6-3.1-3.9-5.5-7.3-7c-0.6,0.1-0.9-0.2-1-0.8c-0.3-0.3-0.6-0.5-1-0.8
			c-0.4-0.2-0.8-0.4-1.1-0.5c-0.2-0.1-0.4-0.2-0.6-0.3c-1.2-1.8-4.2-2.5-3.6-5.4c0.2-0.7-0.8-1.5-1.8-1.5c-5.4,0.2-8.5-2.9-10.6-7.5
			c-0.5-1.1-1.1-2.1-2.5-2.1c-5-0.1-8.2-2.5-9.4-7.5c-0.2-0.9-1-2-1.7-1.6c-2.9,2-5-1.6-7.5-1.5c-0.6-0.6-1.7-1.2-1.8-1.8
			c-0.7-4.7-3.9-6.5-8.1-8.6c-4.8-2.5-5.8-3.4-8.4,0.8c-1.4,2.3-2.4,1.9-4.6,0.5C746.3,2245.1,745.1,2247.9,744,2247.4"/>
		<path class="st2" d="M744,2247.4c-5.4-2.4-10-2-13.8,1.4c-2.2,1.9-4,4.3-5.4,6.9c-0.4,0.7-0.7,1.4-1.1,2.2
			c-0.3,0.4-0.6,0.9-0.8,1.3h-5c-8.7,0.9-17.3,1.1-26,0c-4.9-0.6-9.9-1.7-14.9-3.2c-0.3-0.1-0.6-0.2-0.8-0.3h-13.6
			c-2.9-0.6-5.7-1.1-8.6-1.5c-1.6-0.2-3.2-0.4-4.8-0.6c-0.5,0-1,0-1.5-0.1c-0.1,0.5,0,1.2-0.7,1.2c-0.3-0.1-0.7-0.8-1-1.2
			c-0.6-0.1-1.2-0.2-1.9-0.2c-0.6,1.8-1.9,1.6-3.3,0.6c-0.8,0.1-1.7,0.3-2.5,0.4c-1.9,0.2-2.4,1.5-2.4,3.2
			c-0.2,5.8-1.9,11.4-1.4,17.4c0.3,0.7,0.5,1.3-0.3,1.8c0,0.3,0,0.6,0,0.9c0,0.3,0.1,0.6,0.1,0.9c0.2,0.3,0.3,0.5,0.4,0.8
			c-3.5,0.2-0.5,2.4-0.8,3.5c-1.8,6.7,0.4,13.6,0.6,20.4c0.3,8.2,4.9,15.7,5.1,23.8c0,1.1,0.5,1.9,1.8,1.8c0.5,4.9,0.9,9.8,2.1,14.5
			c-0.8,4.7-1.7,8.7-2.8,10.7c-3.6,6.4,26.3,10,26.3,10s12.6,2.9,19.5-1.1c1.1,0.2,2.2,0.3,3.3,0.4c0.2-0.3,0.3-0.6,0.4-0.9
			c0,0,0.6,0.4,2.3,1.1c3.9,1.5,13.3,4.4,34,7.1c2.3,0.3,4.5,0.6,6.8,0.8c12.3,3.7,24.5,7.9,37,10.2c7,1.3,14.1,2.9,21.2,2.1h1.7
			c1.5,1.1,3,0.8,4.4,0.2c0.8,0,1.6,0,2.5,0.1c1.8,1.1,3.6,0.7,5.3,0.1c0.8,0,1.6,0,2.5,0c2.1,1.2,4.1,0.6,6.1,0.1
			c0.9,0.1,1.7,0.2,2.6,0.3c2.4,0.8,4.6,0.2,6.9-0.4c0.5,0,1.1,0,1.6,0c1,1,2.2,0.6,3.3,0.6c24.5-0.6,48.7-2.7,72.7-5.8
			c8.9-1.1,18.2-1.8,25.6-7.1c2.4-1.7,3.7-3.9,3.3-6.8c-0.4-2.3-1.8-4.3-4.7-4.1c1.2-1.4,2.3-2.8,3.4-4.2c2-3.3,0.3-9.9-3.5-13.1
			c-0.9-0.7-2.1-1.1-2.3-2.4c-1.9-9.6-9.4-14-17.5-17.5c-10.6-4.7-21.6-7.9-32.7-10.7c-3.2-0.8-6.6-0.9-9.5-2.2
			c-3.5-1.7-7.2-2.1-10.8-3c-12.4-3.2-23.8-8.3-34.3-16.1c-1.6-3.1-3.9-5.5-7.3-7c-0.6,0.1-0.9-0.2-1-0.8c-0.3-0.3-0.6-0.5-1-0.8
			c-0.4-0.2-0.8-0.4-1.1-0.5c-0.2-0.1-0.4-0.2-0.6-0.3c-1.2-1.8-4.2-2.5-3.6-5.4c0.2-0.7-0.8-1.5-1.8-1.5c-5.4,0.2-8.5-2.9-10.6-7.5
			c-0.5-1.1-1.1-2.1-2.5-2.1c-5-0.1-8.2-2.5-9.4-7.5c-0.2-0.9-1-2-1.7-1.6c-2.9,2-5-1.6-7.5-1.5c-0.6-0.6-1.7-1.2-1.8-1.8
			c-0.7-4.7-3.9-6.5-8.1-8.6c-4.8-2.5-5.8-3.4-8.4,0.8c-1.4,2.3-2.4,1.9-4.6,0.5C746.3,2245.1,745.1,2247.9,744,2247.4"/>
		<path class="st2" d="M822.4,1917.7c0,0-25.7,6.1-36.8,7.2"/>
		<path class="st3" d="M864.3,1308.1c2.4,0,4.1-1.8,4.3-4c7.5,29.5,20.9,92,23.9,107.7c3.8,19.7,3.8,15.5,5.2,32.6
			c1.4,17.8-4.6,20.5-2.6,43.3c2,22.8,1.6,62.8,6.6,92.7c2.8,17,0.1,46.9-3.7,73.1c-1.7,11.6-3.6,22.4-5.3,31c0,0,0,0.1,0,0.2
			c0,0,0,0.1,0,0.1c-0.9,5.4-13,75.3-17.4,111.2c-4.6,37.3-57.6,175.3-72.8,242.1c-15.1,66.9-9.9,38.4-29.8,125.3
			c-19.9,86.9-31,89.9-31,89.9H695c-0.1-10.9,1.7-22.2,6.9-33.3c18.4-40,36.9-199.9,36.9-199.9s8.7-28.2,12.3-39
			c3.6-10.8,13.8-30.2,23.6-55.3c2.8-7.1,4.6-14.3,5.8-22c3.2-19.5,2.8-42.1,5.2-73.4c3.3-43.6,3.3-52.3,0-66.6
			c-3.3-14.3-4.3-60.5-6.9-71.7c-1.1-4.9-1-20.8,0-38.7c1.2-23.2,3.9-49.8,6.9-60.8c2.8-10.3,0.3-33.8-4.2-57.2
			c0.4,0.1,0.8,0.2,1.4,0.2c6.9,1.1,27.8,3.4,33.8-9.2c6.5-13.6,6.9-14.5,9.2-40.1c0-0.1,0-0.2,0-0.4c0-0.4,0.1-0.8,0.1-1.2
			c0.1-1.2,0.2-2.5,0.4-3.8"/>
		<path class="st2" d="M864.3,1308.1c2.4,0,4.1-1.8,4.3-4c7.5,29.5,20.9,92,23.9,107.7c3.8,19.7,3.8,15.5,5.2,32.6
			c1.4,17.8-4.6,20.5-2.6,43.3c2,22.8,1.6,62.8,6.6,92.7c2.8,17,0.1,46.9-3.7,73.1c-1.7,11.6-3.6,22.4-5.3,31c0,0,0,0.1,0,0.2
			c0,0,0,0.1,0,0.1c-0.9,5.4-13,75.3-17.4,111.2c-4.6,37.3-57.6,175.3-72.8,242.1c-15.1,66.9-9.9,38.4-29.8,125.3
			c-19.9,86.9-31,89.9-31,89.9H695c-0.1-10.9,1.7-22.2,6.9-33.3c18.4-40,36.9-199.9,36.9-199.9s8.7-28.2,12.3-39
			c3.6-10.8,13.8-30.2,23.6-55.3c2.8-7.1,4.6-14.3,5.8-22c3.2-19.5,2.8-42.1,5.2-73.4c3.3-43.6,3.3-52.3,0-66.6
			c-3.3-14.3-4.3-60.5-6.9-71.7c-1.1-4.9-1-20.8,0-38.7c1.2-23.2,3.9-49.8,6.9-60.8c2.8-10.3,0.3-33.8-4.2-57.2
			c0.4,0.1,0.8,0.2,1.4,0.2c6.9,1.1,27.8,3.4,33.8-9.2c6.5-13.6,6.9-14.5,9.2-40.1c0-0.1,0-0.2,0-0.4c0-0.4,0.1-0.8,0.1-1.2
			c0.1-1.2,0.2-2.5,0.4-3.8"/>
		<path class="st2" d="M781.4,1535.6c-0.6-0.1-1-0.2-1-0.2"/>
		<path class="st2" d="M889.2,961.5L889.2,961.5c0,0-5.6,18-3.6,22.5c1.7,14.2-2.1,51-2.6,56.4c-0.5,5.6-6.7,38.4-6.7,38.4
			s-0.5,14.5-4.9,21.5c0,0,5.3,9.4,5.7,20v0c0.1,0.5,0.2,1,0.3,1.5v0"/>
		<path class="st2" d="M977.2,1068.7c1.5,4,2.5,7.3,2.8,9.6"/>
		<path class="st2" d="M575.3,1038.3c-3.6,14.9-21.6,70.2-32.8,101.5c-2.3,6.5-4.4,12-5.9,15.8c-0.6,1.5-1.2,2.8-1.9,4.1
			c-9.7,17.8-28,15.5-29.7,27.7c-1.8,13.1,6.2,7.2,6.2,7.2c38.4,47.7,16.4,90.7,21.5,108.1c5.1,17.4,13.6,19.7,21.5,66.1
			c1,6.1,2.5,11.5,4.4,16.4c12.1,32.3,38.7,39.5,38.7,39.5s-6.4,16-10.2,33.1c-3.9,17.1-50.7,13.5-50.7,13.5
			c-2.3-25.4-50.7-74-67.1-86.1c-16.4-12-27.2-37.9-34.3-48.7c-7.2-10.8-29.7-88.6-29.7-88.6s-7.4-22.8-13.3-41
			c-5.9-18.2,27.7-40.7,34.3-108.1c2.9-29.1,7.9-49.9,12.6-64.1c7.3-22.1,10-45.5,7.7-68.6v0c-0.5-5.4-0.2-10.9,0.9-16.2l14.2-64.5
			c0,0,22.9-20.6,34.5-29.3c2.3-1.8,4.6-3,7-3.9h0c1.1-0.1,17.9-2.3,24.4,5.3c0.4,0.5,0.8,1,1.1,1.5c0,0.1,0.1,0.1,0.1,0.1
			c5.5,9.8,24,37.1,31.8,55.4"/>
		<path class="st2" d="M929.5,993.9c0,0.2-0.1,0.3-0.1,0.3"/>
		<path class="st2" d="M854.9,689.6c-1.5,17.6-3.2,7.4-5.6,26.1c-0.2,1.5-0.4,2.8-0.5,4.1c0,0,0,0.1,0,0.1c-0.1,0.6-0.3,1.2-0.4,1.7
			c-0.8,3.5-1.5,7-2.2,10.5l0,0.2v0c-5.2,26.6-7.9,52.4-12,59.9c-3.3,6.1-15.5,7.2-26.7,6.7c-4.1-0.2-8.1-0.6-11.5-1h0
			c-6-0.7-10.2-1.6-10.2-1.6c-0.2,0-0.4-0.1-0.7-0.1c-12.2-2.5-49.9-26.6-65.4-47.7c-2.7-3.7-4.7-7.3-5.8-10.6
			c-3.9-12-1.9-19.9,0.9-28.8c6.3-7.1,5-19.5,5-19.5c1.7,8.1,6.1-9.5,9.8,3.9c0.8,2.9,1.2,5.3,1.3,7.4c0.6-1.8,1.2-3.9,2-6.3
			c4.3-13.9,0-21.1-5.5-40c-5.5-18.9-0.8-5.5,1.8-21.4c0.3-1.6,0.6-3,1-4.3c2.1-7.1,12.7-5,12,2.4c-3,30.9,6.2,40.4,12.7,58.4
			c7.4,20.1,3.7,12.9,2.9,28.7c-0.3,5-0.9,8.2-1.7,10.2c10.7-10.8,8.5-30.6,9.9-37.9c1.6-8.1-5-19-6.1-26.3
			c-1.1-7.3-3.6-9.8-5.2-24.3c-1.6-14.5-0.2-13.8-0.2-22.4c0-8.6,1.9-8.3,12.3-11.2c10.4-2.9,6.6,0.4,17.3,4.1
			c10.7,3.8,22.5,7.4,22.5,7.4c27.3,0.9,41.1-3.1,41.1-3.1s3.3,1.3,3.3,3c0,0.7,0.9,1.5,2.2,3.1c1.8,6,3.7,11,5.4,15.2c0,0,0,0,0,0
			c0,0.2,0,0.4,0.1,0.6c1.3,14.2-1,14.1,1,30.7C861.6,684.1,856.5,672.1,854.9,689.6z"/>
		<path class="st2" d="M740.6,850.6c-1.6-2.4-0.5-1.7-1.8-4.2c-2.1-3.9-6.6-7.5-12-10.3c-5.4-2.8-9.9-4.5-9.9-4.5s4.6,0-2.3-1.9
			c0,0,0,0,0,0c-6.2-5.1-23.1-19-27-22c-4.9-3.7-15.2-14.6-20.2-18.1c-3.4-2.3-10.1-11.3-14.2-16.9c3.5-3.8,6.1-7.6,8.1-11.1
			c0.2,0,0.5,0,0.7,0c3.8-0.2,6.8-0.6,6.8-0.6s7-21.6,7.8-1.8c0.4,9.7-2.3,14.6-5.2,17.1c3.3-1.5,8.2-3.9,15.2-7.4
			c16.4-8.4,2.2-21.1,5.2-34.3c3-13.2,2.4-23.5,11-39l0,0c0,0,0,0,0,0c1.4-2.1,3-4.2,5-6c4.5-4.1,5.4-22.1,5.5-34.7
			c0.4,0.3,0.8,0.6,1.2,1.1c2,26.5-3.1,51.1-4.6,56.2c-0.1,0.4,0.3,0.7,0.7,0.6c1.7-0.8,3.1-1.9,4.3-3.2c-2.8,8.8-4.9,16.8-0.9,28.8
			c1.1,3.4,3.1,7,5.8,10.6"/>
		<path class="st4" d="M786.3,896.9c7.6-12.5,2.1-80.9-0.7-86.1"/>
		<path class="st4" d="M715.7,761.6c-5.3,18.5,2.8,34.9,2.8,34.9c13,35.8,47.2,50.9,51.5,62.5c1.3,3.6,2.4,7.6,3.5,11
			c1.2,3.8,0.9,10.3,10.2,22c12.3,15.5,1.9,95,1.9,95"/>
		<path class="st2" d="M853,621c-0.8-2.8-1.7-5.8-2.5-9c-10.2-42-81-65.1-127.1-54.3C704.9,562,691,568.9,681,581
			c-0.1,0.1-0.2,0.3-0.3,0.4l0,0c-1.6,2-3.2,4.2-4.6,6.6c-0.4,0.6-0.8,1.3-1.2,2v0c-10.4,18.4-14.8,46.2-14.5,88.7
			c0.1,14,11.8,37.7,8.7,51.2c-0.8,3.4-0.9,7.7-1.6,12.7c-0.1,0.4-0.1,0.8-0.2,1.2v0c-0.6,3.9-1.6,8.2-3.5,12.8
			c-0.2,0.6-0.5,1.1-0.8,1.7c-0.3,0.7-0.7,1.4-1,2.1c-0.2,0.4-0.5,0.9-0.7,1.4"/>
		<path class="st2" d="M630.8,825.3c0,0-7.7-1.4-14,0c-6.3,1.4-11.4,6.2-29.2,11.5c-16.8,5.1-23.3,9.3-40.3,12.4
			c-3.6,3.9-5.2,6.2-5.2,6.2s-5.9,0.6-13.7,1.9c-0.3,0-0.5,0.1-0.8,0.1c-6.5-7.6-23.2-5.4-24.4-5.3h0c-2.4,0.9-4.7,2.1-7,3.9
			c28.5-26.6,92-40.7,92-40.7c8.5-5.6,18.4-11.5,29.7-17.3c2.5-1.3,4.8-2.5,7.1-3.8c0,0.1,0,0.1,0,0.2
			C623.8,802,628.4,817.8,630.8,825.3z"/>
		<path class="st2" d="M858.4,636.2c3.4,8.2,6.3,13.8,7.6,19.6c0.1,0.4,0.2,0.8,0.2,1.3c0.2,1.1,0.3,2.2,0.4,3.4c0,0.5,0,0.9,0,1.4
			c0,2.9-0.4,6.1-1.5,9.7c-0.2,0.7-0.4,1.4-0.7,2.2c-1.1,3.5-2.7,7.4-4.9,12c-4.6,9.8-8.1,21.7-10.9,34.1"/>
		<path class="st2" d="M536.4,1471.4c2.2,23.9,31.6,46,52.1,66.8c1.3,1.3,2.5,2.6,3.7,3.9"/>
		<path class="st2" d="M822.9,1303.2c-1.1-1.9-3.1-2.6-5.4-4.7"/>
		<path class="st2" d="M707.7,653c0,0,2.6-0.5,5.5,1.7"/>
		<path class="st2" d="M714.3,655.7c2.9,3.1,5.8,9.6,6,22.9c0.2,13.6-3,22.5-5.6,30.7"/>
		<path class="st3" d="M868.6,1288.2l-0.4,13.8c0-0.1-0.1-0.2-0.3-0.3v0c-0.6-0.4-2.2-0.8-4.8-1.1c-0.7-0.1-1.4-0.2-2.2-0.2
			c-0.2,0-0.4,0-0.6-0.1c-0.6-0.1-1.3-0.1-1.9-0.2c-1.4-0.1-2.9-0.2-4.6-0.3c-0.5,0-1.1-0.1-1.6-0.1c0,0-0.1,0-0.1,0
			c-0.6,0-1.3-0.1-2-0.1c-0.6,0-1.2-0.1-1.8-0.1c-1.5-0.1-3.1-0.1-4.8-0.2c-0.4,0-0.8,0-1.2,0c-0.2,0-0.3,0-0.5,0
			c-0.6,0-1.3-0.1-1.9-0.1c-0.8,0-1.7-0.1-2.6-0.1c-0.4,0-0.9,0-1.3,0c-0.9,0-1.8,0-2.7-0.1c-1.4,0-2.8-0.1-4.2-0.1l-6.3-0.2
			c-1.8,0-3.6-0.1-5.4-0.1h0c-0.7,0-1.5,0-2.2,0c-0.8,0-1.5,0-2.3,0c-0.2,0-0.4,0-0.6,0c-0.8,0-1.7,0-2.6-0.1c-0.9,0-1.7,0-2.6,0
			c-2.6,0-5.4-0.1-8.2-0.1c-0.4,0-0.8,0-1.2,0c-1.3,0-2.6,0-3.9,0c-0.7,0-1.4,0-2.1,0c-1.5,0-3,0-4.5,0c-0.8,0-1.5,0-2.3,0
			c-1.4,0-2.8,0-4.3-0.1c-1.6,0-3.3,0-4.9,0c-1.7,0-3.4,0-5.1-0.1c-5.4-0.1-11-0.1-16.8-0.2c-1.4,0-2.8,0-4.3,0c-0.7,0-1.4,0-2,0
			c-0.5,0-1.1,0-1.6,0c-0.9,0-1.8,0-2.7,0c-1.9,0-3.8,0-5.8,0c-1.5,0-3,0-4.5,0c-1.5,0-3,0-4.6,0c-0.9,0-1.8,0-2.8,0
			c-0.9,0-1.9,0-2.8,0c-5,0-10.2-0.1-15.5-0.1c-1.7,0-3.3,0-5,0c-2.1,0-4.2,0-6.3,0c-3.3,0-6.7,0-10.1-0.1c-0.7,0-1.4,0-2.2,0
			c-4.2,0-8.4-0.1-12.7-0.1c-13.3-0.1-27.4-0.1-42.1-0.2v-6.5h-6.3v6.4c-9.1,0-18.6-0.1-28.2-0.2c-1.1,0-2.1,0.3-3,0.9v-1.2l0-1.4
			v-6.9H868.6z"/>
		<path class="st2" d="M868.6,1288.2l-0.4,13.8c0-0.1-0.1-0.2-0.3-0.3v0c-0.6-0.4-2.2-0.8-4.8-1.1c-0.7-0.1-1.4-0.2-2.2-0.2
			c-0.2,0-0.4,0-0.6-0.1c-0.6-0.1-1.3-0.1-1.9-0.2c-1.4-0.1-2.9-0.2-4.6-0.3c-0.5,0-1.1-0.1-1.6-0.1c0,0-0.1,0-0.1,0
			c-0.6,0-1.3-0.1-2-0.1c-0.6,0-1.2-0.1-1.8-0.1c-1.5-0.1-3.1-0.1-4.8-0.2c-0.4,0-0.8,0-1.2,0c-0.2,0-0.3,0-0.5,0
			c-0.6,0-1.3-0.1-1.9-0.1c-0.8,0-1.7-0.1-2.6-0.1c-0.4,0-0.9,0-1.3,0c-0.9,0-1.8,0-2.7-0.1c-1.4,0-2.8-0.1-4.2-0.1l-6.3-0.2
			c-1.8,0-3.6-0.1-5.4-0.1h0c-0.7,0-1.5,0-2.2,0c-0.8,0-1.5,0-2.3,0c-0.2,0-0.4,0-0.6,0c-0.8,0-1.7,0-2.6-0.1c-0.9,0-1.7,0-2.6,0
			c-2.6,0-5.4-0.1-8.2-0.1c-0.4,0-0.8,0-1.2,0c-1.3,0-2.6,0-3.9,0c-0.7,0-1.4,0-2.1,0c-1.5,0-3,0-4.5,0c-0.8,0-1.5,0-2.3,0
			c-1.4,0-2.8,0-4.3-0.1c-1.6,0-3.3,0-4.9,0c-1.7,0-3.4,0-5.1-0.1c-5.4-0.1-11-0.1-16.8-0.2c-1.4,0-2.8,0-4.3,0c-0.7,0-1.4,0-2,0
			c-0.5,0-1.1,0-1.6,0c-0.9,0-1.8,0-2.7,0c-1.9,0-3.8,0-5.8,0c-1.5,0-3,0-4.5,0c-1.5,0-3,0-4.6,0c-0.9,0-1.8,0-2.8,0
			c-0.9,0-1.9,0-2.8,0c-5,0-10.2-0.1-15.5-0.1c-1.7,0-3.3,0-5,0c-2.1,0-4.2,0-6.3,0c-3.3,0-6.7,0-10.1-0.1c-0.7,0-1.4,0-2.2,0
			c-4.2,0-8.4-0.1-12.7-0.1c-13.3-0.1-27.4-0.1-42.1-0.2v-6.5h-6.3v6.4c-9.1,0-18.6-0.1-28.2-0.2c-1.1,0-2.1,0.3-3,0.9v-1.2l0-1.4
			v-6.9H868.6z"/>
		<path class="st2" d="M868.6,1303.8c0,0.1,0,0.2,0,0.4v0c-0.2,2.1-2,4-4.3,4l3.8-6v0l0.1-0.2
			C868.5,1302.5,868.6,1303.2,868.6,1303.8z"/>
		<path class="st2" d="M722.7,1297.5c-0.5,4-1.2,7.5-2,10.7"/>
		<line class="st2" x1="898.2" y1="1653.6" x2="898" y2="1653.6"/>
		<path class="st3" d="M628.8,1308.1v8h-6.3v-8h-28.2c-1.3,0-2.4-0.4-3.3-1.2c0,0.1-0.1,0.2-0.1,0.3c-0.1,0.3-0.2,0.6-0.4,0.9
			c0,0.1-0.1,0.2-0.1,0.3c-0.1,0.2-0.2,0.5-0.3,0.8c-0.1,0.3-0.2,0.5-0.3,0.8c-3.5,9.1-12.8,32.5-20.4,50.9
			c-0.1,0.3-0.2,0.5-0.3,0.8c-4.6,11.1-8.5,20.3-10.3,23.3c12.2,32.3,38.7,39.5,38.7,39.5c5.4,0.3,23.7,2.2,38.7,5.8
			c9,2.2,52.3,4.7,52.3,12.4c0,9.6-55.9,6.3-48.7,7.7c13.8,2.6,4.5,20.2-9.2,43.6c-6.5,11.1-29.3,32.5-41.9,44
			c-5.2,4.7-8.7,7.8-8.7,7.8s16,25.1,17.5,40.5c0.7,6.7,5.5,17.6,6.3,37.4v0c-0.1,1-7.4,69.1,4.6,109.9
			c12.1,41.1,28.2,118.4,25.5,141.4c-2.7,23.1-23.4,96.5-25.5,123.8c-2.2,27.3-6.9,70.7-6.9,70.7s5.1,205.6,5.5,207.6
			c0.3,1.3,0.5,29.4,0.7,46.1c0,2.4,0,4.6,0,6.5c3.4,0.5,6.8,1,10.2,1.7h16.1c0.3,0.1,0.7,0.2,1,0.3c2.5,0.8,5,1.4,7.4,2
			c3.4,0.8,6.8,1.4,10.1,1.8H689c0.3-0.5,0.6-1.1,1-1.6c0.4-0.9,0.8-1.7,1.2-2.5c1.7-3.1,3.8-5.8,6.4-8.1c4.5-4,10-4.5,16.3-1.6
			c0-0.1-0.1-0.2-0.1-0.3c-0.5-1.5-1.1-3.1-1.8-4.8c-5.2-13.5-15-34.3-16.7-57.3c-0.2-2-0.3-4.1-0.3-6.1
			c-0.1-10.9,1.7-22.2,6.9-33.3c18.4-40,36.9-199.9,36.9-199.9s8.7-28.2,12.3-39c3.6-10.8,13.8-30.2,23.6-55.3
			c2.8-7.1,4.6-14.3,5.8-22c3.2-19.5,2.8-42.1,5.2-73.4c3.3-43.6,3.3-52.3,0-66.6c-3.3-14.3-4.3-60.5-6.9-71.7
			c-1.1-4.9-1-20.8,0-38.7c1.2-23.2,3.9-49.8,6.9-60.8c2.8-10.3,0.3-33.8-4.2-57.2c-4.1-21.1-9.9-42.1-15-53.5
			c-10.8-24.1-21.5-57.4-21.5-57.4"/>
		<path class="st2" d="M628.8,1308.1v8h-6.3v-8h-28.2c-1.3,0-2.4-0.4-3.3-1.2c0,0.1-0.1,0.2-0.1,0.3c-0.1,0.3-0.2,0.6-0.4,0.9
			c0,0.1-0.1,0.2-0.1,0.3c-0.1,0.2-0.2,0.5-0.3,0.8c-0.1,0.3-0.2,0.5-0.3,0.8c-3.5,9.1-12.8,32.5-20.4,50.9
			c-0.1,0.3-0.2,0.5-0.3,0.8c-4.6,11.1-8.5,20.3-10.3,23.3c12.2,32.3,38.7,39.5,38.7,39.5c5.4,0.3,23.7,2.2,38.7,5.8
			c9,2.2,52.3,4.7,52.3,12.4c0,9.6-55.9,6.3-48.7,7.7c13.8,2.6,4.5,20.2-9.2,43.6c-6.5,11.1-29.3,32.5-41.9,44
			c-5.2,4.7-8.7,7.8-8.7,7.8s16,25.1,17.5,40.5c0.7,6.7,5.5,17.6,6.3,37.4v0c-0.1,1-7.4,69.1,4.6,109.9
			c12.1,41.1,28.2,118.4,25.5,141.4c-2.7,23.1-23.4,96.5-25.5,123.8c-2.2,27.3-6.9,70.7-6.9,70.7s5.1,205.6,5.5,207.6
			c0.3,1.3,0.5,29.4,0.7,46.1c0,2.4,0,4.6,0,6.5c3.4,0.5,6.8,1,10.2,1.7h16.1c0.3,0.1,0.7,0.2,1,0.3c2.5,0.8,5,1.4,7.4,2
			c3.4,0.8,6.8,1.4,10.1,1.8H689c0.3-0.5,0.6-1.1,1-1.6c0.4-0.9,0.8-1.7,1.2-2.5c1.7-3.1,3.8-5.8,6.4-8.1c4.5-4,10-4.5,16.3-1.6
			c0-0.1-0.1-0.2-0.1-0.3c-0.5-1.5-1.1-3.1-1.8-4.8c-5.2-13.5-15-34.3-16.7-57.3c-0.2-2-0.3-4.1-0.3-6.1
			c-0.1-10.9,1.7-22.2,6.9-33.3c18.4-40,36.9-199.9,36.9-199.9s8.7-28.2,12.3-39c3.6-10.8,13.8-30.2,23.6-55.3
			c2.8-7.1,4.6-14.3,5.8-22c3.2-19.5,2.8-42.1,5.2-73.4c3.3-43.6,3.3-52.3,0-66.6c-3.3-14.3-4.3-60.5-6.9-71.7
			c-1.1-4.9-1-20.8,0-38.7c1.2-23.2,3.9-49.8,6.9-60.8c2.8-10.3,0.3-33.8-4.2-57.2c-4.1-21.1-9.9-42.1-15-53.5
			c-10.8-24.1-21.5-57.4-21.5-57.4"/>
		<path class="st3" d="M706.3,2317.3c-5.4-2.4-10-2-13.8,1.4c-2.2,1.9-4,4.3-5.4,6.9c-0.4,0.7-0.7,1.4-1.1,2.1
			c-0.3,0.4-0.6,0.9-0.8,1.3h-5c-8.7,0.9-17.3,1.1-26,0c-4.9-0.6-9.9-1.7-14.9-3.2c-0.3-0.1-0.6-0.2-0.8-0.3h-13.6
			c-2.9-0.6-5.7-1.1-8.6-1.5c-1.6-0.2-3.2-0.4-4.8-0.6c-0.5,0-1,0-1.5-0.1c-0.1,0.5,0,1.2-0.7,1.2c-0.3-0.1-0.7-0.8-1-1.2
			c-0.6-0.1-1.2-0.2-1.9-0.2c-0.6,1.8-1.9,1.6-3.3,0.6c-0.8,0.1-1.7,0.3-2.5,0.4c-1.9,0.2-2.4,1.5-2.4,3.2
			c-0.2,5.8-1.9,11.4-1.4,17.4c0.3,0.7,0.5,1.3-0.3,1.8c0,0.3,0,0.6,0,0.9c0,0.3,0.1,0.6,0.1,0.9c0.2,0.3,0.3,0.5,0.4,0.8
			c-3.5,0.2-0.5,2.4-0.8,3.5c-1.8,6.7,0.4,13.6,0.6,20.4c0.3,8.2,4.9,15.7,5.1,23.8c0,1.1,0.5,1.9,1.8,1.8c0.5,4.9,0.9,9.8,2.1,14.5
			c-0.8,4.7-1.7,8.7-2.8,10.7c-3.6,6.4,26.3,10,26.3,10s12.6,2.9,19.5-1.1c1.1,0.2,2.2,0.3,3.3,0.4c0.2-0.3,0.3-0.6,0.4-0.9
			c0,0,0.6,0.4,2.3,1.1c3.9,1.5,13.3,4.4,34,7.1c2.3,0.3,4.5,0.6,6.8,0.8c12.3,3.7,24.5,7.9,37,10.2c7,1.3,14.1,2.9,21.2,2.1h1.7
			c1.5,1.1,3,0.8,4.4,0.2c0.8,0,1.6,0,2.5,0.1c1.8,1.1,3.6,0.7,5.3,0.1c0.8,0,1.6,0,2.5,0c2.1,1.2,4.1,0.6,6.1,0.1
			c0.9,0.1,1.7,0.2,2.6,0.3c2.4,0.8,4.7,0.2,6.9-0.4c0.5,0,1.1,0,1.6,0c1,1,2.2,0.6,3.3,0.6c24.5-0.6,48.7-2.7,72.7-5.8
			c8.9-1.1,18.2-1.8,25.6-7.1c2.4-1.7,3.7-3.9,3.3-6.8c-0.4-2.3-1.8-4.3-4.7-4.1c1.2-1.4,2.3-2.8,3.4-4.2c2-3.3,0.3-9.9-3.5-13.1
			c-0.9-0.7-2.1-1.1-2.3-2.4c-1.9-9.6-9.4-14-17.5-17.5c-10.6-4.7-21.6-7.9-32.7-10.7c-3.2-0.8-6.6-0.9-9.5-2.2
			c-3.5-1.7-7.2-2.1-10.8-3c-12.4-3.2-23.8-8.3-34.3-16.1c-1.6-3.1-3.9-5.5-7.3-7c-0.6,0.1-0.9-0.2-1-0.8c-0.3-0.3-0.6-0.5-1-0.8
			c-0.4-0.2-0.8-0.4-1.1-0.5c-0.2-0.1-0.4-0.2-0.6-0.3c-1.2-1.8-4.2-2.5-3.6-5.4c0.2-0.7-0.8-1.5-1.8-1.5c-5.4,0.2-8.5-2.9-10.6-7.5
			c-0.5-1.1-1.1-2.1-2.5-2.1c-5-0.1-8.2-2.5-9.4-7.5c-0.2-0.9-1-2-1.7-1.6c-2.9,2-5-1.6-7.5-1.6c-0.6-0.6-1.7-1.2-1.8-1.8
			c-0.7-4.7-3.9-6.5-8.1-8.6c-4.8-2.5-5.8-3.4-8.4,0.8c-1.4,2.3-2.4,1.9-4.6,0.5C708.5,2314.9,707.4,2317.8,706.3,2317.3"/>
		<path class="st2" d="M706.3,2317.3c-5.4-2.4-10-2-13.8,1.4c-2.2,1.9-4,4.3-5.4,6.9c-0.4,0.7-0.7,1.4-1.1,2.1
			c-0.3,0.4-0.6,0.9-0.8,1.3h-5c-8.7,0.9-17.3,1.1-26,0c-4.9-0.6-9.9-1.7-14.9-3.2c-0.3-0.1-0.6-0.2-0.8-0.3h-13.6
			c-2.9-0.6-5.7-1.1-8.6-1.5c-1.6-0.2-3.2-0.4-4.8-0.6c-0.5,0-1,0-1.5-0.1c-0.1,0.5,0,1.2-0.7,1.2c-0.3-0.1-0.7-0.8-1-1.2
			c-0.6-0.1-1.2-0.2-1.9-0.2c-0.6,1.8-1.9,1.6-3.3,0.6c-0.8,0.1-1.7,0.3-2.5,0.4c-1.9,0.2-2.4,1.5-2.4,3.2
			c-0.2,5.8-1.9,11.4-1.4,17.4c0.3,0.7,0.5,1.3-0.3,1.8c0,0.3,0,0.6,0,0.9c0,0.3,0.1,0.6,0.1,0.9c0.2,0.3,0.3,0.5,0.4,0.8
			c-3.5,0.2-0.5,2.4-0.8,3.5c-1.8,6.7,0.4,13.6,0.6,20.4c0.3,8.2,4.9,15.7,5.1,23.8c0,1.1,0.5,1.9,1.8,1.8c0.5,4.9,0.9,9.8,2.1,14.5
			c-0.8,4.7-1.7,8.7-2.8,10.7c-3.6,6.4,26.3,10,26.3,10s12.6,2.9,19.5-1.1c1.1,0.2,2.2,0.3,3.3,0.4c0.2-0.3,0.3-0.6,0.4-0.9
			c0,0,0.6,0.4,2.3,1.1c3.9,1.5,13.3,4.4,34,7.1c2.3,0.3,4.5,0.6,6.8,0.8c12.3,3.7,24.5,7.9,37,10.2c7,1.3,14.1,2.9,21.2,2.1h1.7
			c1.5,1.1,3,0.8,4.4,0.2c0.8,0,1.6,0,2.5,0.1c1.8,1.1,3.6,0.7,5.3,0.1c0.8,0,1.6,0,2.5,0c2.1,1.2,4.1,0.6,6.1,0.1
			c0.9,0.1,1.7,0.2,2.6,0.3c2.4,0.8,4.7,0.2,6.9-0.4c0.5,0,1.1,0,1.6,0c1,1,2.2,0.6,3.3,0.6c24.5-0.6,48.7-2.7,72.7-5.8
			c8.9-1.1,18.2-1.8,25.6-7.1c2.4-1.7,3.7-3.9,3.3-6.8c-0.4-2.3-1.8-4.3-4.7-4.1c1.2-1.4,2.3-2.8,3.4-4.2c2-3.3,0.3-9.9-3.5-13.1
			c-0.9-0.7-2.1-1.1-2.3-2.4c-1.9-9.6-9.4-14-17.5-17.5c-10.6-4.7-21.6-7.9-32.7-10.7c-3.2-0.8-6.6-0.9-9.5-2.2
			c-3.5-1.7-7.2-2.1-10.8-3c-12.4-3.2-23.8-8.3-34.3-16.1c-1.6-3.1-3.9-5.5-7.3-7c-0.6,0.1-0.9-0.2-1-0.8c-0.3-0.3-0.6-0.5-1-0.8
			c-0.4-0.2-0.8-0.4-1.1-0.5c-0.2-0.1-0.4-0.2-0.6-0.3c-1.2-1.8-4.2-2.5-3.6-5.4c0.2-0.7-0.8-1.5-1.8-1.5c-5.4,0.2-8.5-2.9-10.6-7.5
			c-0.5-1.1-1.1-2.1-2.5-2.1c-5-0.1-8.2-2.5-9.4-7.5c-0.2-0.9-1-2-1.7-1.6c-2.9,2-5-1.6-7.5-1.6c-0.6-0.6-1.7-1.2-1.8-1.8
			c-0.7-4.7-3.9-6.5-8.1-8.6c-4.8-2.5-5.8-3.4-8.4,0.8c-1.4,2.3-2.4,1.9-4.6,0.5C708.5,2314.9,707.4,2317.8,706.3,2317.3"/>
		<path class="st1" d="M822.9,1298.6v9.5H628.8V1297c14.7,0.1,28.7,0.2,42.1,0.2c18.6,0.1,35.8,0.2,51.8,0.3
			c39.8,0.3,71.3,0.6,94.8,1h0C819.3,1298.5,821.1,1298.6,822.9,1298.6"/>
		<path class="st2" d="M822.9,1298.6v9.5H628.8V1297c14.7,0.1,28.7,0.2,42.1,0.2c18.6,0.1,35.8,0.2,51.8,0.3
			c39.8,0.3,71.3,0.6,94.8,1h0C819.3,1298.5,821.1,1298.6,822.9,1298.6z"/>
		<path class="st1" d="M622.5,1296.9v11.2h-28.2c-1.3,0-2.4-0.4-3.3-1.2c-1.2-1-2-2.4-2-4.1v-0.8c0-1.8,0.9-3.4,2.3-4.4h0
			c0.8-0.6,1.9-0.9,3-0.9C604,1296.8,613.4,1296.9,622.5,1296.9"/>
		<path class="st2" d="M622.5,1296.9v11.2h-28.2c-1.3,0-2.4-0.4-3.3-1.2c-1.2-1-2-2.4-2-4.1v-0.8c0-1.8,0.9-3.4,2.3-4.4h0
			c0.8-0.6,1.9-0.9,3-0.9C604,1296.8,613.4,1296.9,622.5,1296.9z"/>
		<path class="st2" d="M927,1151c3,1.8,1.5,2.1,1.5,2.1"/>
		<line class="st2" x1="877.4" y1="1121.9" x2="877.4" y2="1121.9"/>
		<path class="st2" d="M1014.5,1184.2c0,0-4.9,3.5-24.6,12.2"/>
		<path class="st2" d="M926.9,1151c-3.8-7.9-4.1-9.3-4.1-9.3"/>
		<path class="st2" d="M1104.7,1063l-3.1,8.8c-0.5,1.4-1.1,3.1-1.8,5.1c-4.4,12.6-5.7,12-10.7,23"/>
		<path class="st2" d="M1185.2,979.9c-7.7-5.2-14.2-9.4-14.2-9.4"/>
		<path class="st2" d="M1067.1,1054.8c0,0,3,1.6,7.8,4c6.5,3.3,16.3,8.2,26.7,12.9c5.9,2.7,11.9,5.4,17.7,7.7"/>
		<path class="st2" d="M1121.9,1080.5c11,4.4,20.8,7.4,25.9,7.1c1-0.1,2-0.2,2.9-0.4"/>
		<path class="st2" d="M1141.4,982l10.2-4.1c0,0,6-2.4,12.3-4.7c2.5-0.9,4.9-1.9,7.1-2.7c2.2-0.8,4.1-1.5,5.2-1.8
			c4.4-1.3,12.8-16.1,17.8-30.4v0c0.8-2.4,1.6-4.7,2.2-7c1.6-5.8-1-9.3-5-11.5c-5.4-3-13.3-3.4-16.8-3.4c-1.1,0-1.8,0-1.8,0
			s-9,9.6-16.8,22.2c-1.1,1.8-2.2,3.6-3.2,5.5c-8.2,15.1-38.4,18.4-38.4,18.4c-0.8,0.3-1.5,0.6-2.2,0.9"/>
		<path class="st2" d="M954.3,1100.3l16.1-31.7c0,0,2.7,0.2,6.7,0.1"/>
		<line class="st2" x1="1075.1" y1="999.3" x2="1067.1" y2="1042.4"/>
		<path class="st1" d="M1202.3,987l-1.5,3.8c-4.7-3.5-10.4-7.4-15.6-10.9C1194.9,983.5,1202.3,987,1202.3,987"/>
		<path class="st2" d="M1202.3,987l-1.5,3.8c-4.7-3.5-10.4-7.4-15.6-10.9C1194.9,983.5,1202.3,987,1202.3,987z"/>
		<path class="st3" d="M1129.1,1002.5c-0.7,0.1-1.3,0.2-1.8,0.4C1127.9,1002.7,1128.5,1002.5,1129.1,1002.5"/>
		<path class="st2" d="M1129.1,1002.5c-0.7,0.1-1.3,0.2-1.8,0.4C1127.9,1002.7,1128.5,1002.5,1129.1,1002.5z"/>
		<path class="st3" d="M1138.8,977.3c-0.1,0.3-0.1,0.7-0.2,1C1138.7,977.9,1138.8,977.6,1138.8,977.3"/>
		<path class="st2" d="M1138.8,977.3c-0.1,0.3-0.1,0.7-0.2,1C1138.7,977.9,1138.8,977.6,1138.8,977.3z"/>
		<path class="st3" d="M1156.2,1009.2c-1.5-0.6-2.9-1.1-4.4-1.7C1153.3,1008.1,1154.7,1008.7,1156.2,1009.2"/>
		<path class="st2" d="M1156.2,1009.2c-1.5-0.6-2.9-1.1-4.4-1.7C1153.3,1008.1,1154.7,1008.7,1156.2,1009.2z"/>
		<path class="st3" d="M1164.2,1069.2c2,0.5,3.9,0.8,5.7,1l-2.2,5.6C1168.8,1073,1167.1,1069.9,1164.2,1069.2"/>
		<path class="st2" d="M1164.2,1069.2c2,0.5,3.9,0.8,5.7,1l-2.2,5.6C1168.8,1073,1167.1,1069.9,1164.2,1069.2z"/>
		<path class="st3" d="M1175.4,1040.1c2.2,0.4,4.3,0.7,5.9,0.8l-2.2,5.8C1180.1,1043.8,1178.4,1040.7,1175.4,1040.1"/>
		<path class="st2" d="M1175.4,1040.1c2.2,0.4,4.3,0.7,5.9,0.8l-2.2,5.8C1180.1,1043.8,1178.4,1040.7,1175.4,1040.1z"/>
		<path class="st3" d="M1192.8,1011.2l-4.9,12.7c0,0-4.4-2.3-10.9-5.4c5.6,2.7,8.2,1.3,10.5-4.2c0.2-0.5,0.3-1.1,0.4-1.6l0-0.8
			c-0.1-0.7-0.4-1.5-1-1.7c-7.8-2.2-50.4-15.7-48.2-32C1136.5,996.1,1192.8,1011.2,1192.8,1011.2"/>
		<path class="st2" d="M1192.8,1011.2l-4.9,12.7c0,0-4.4-2.3-10.9-5.4c5.6,2.7,8.2,1.3,10.5-4.2c0.2-0.5,0.3-1.1,0.4-1.6l0-0.8
			c-0.1-0.7-0.4-1.5-1-1.7c-7.8-2.2-50.4-15.7-48.2-32C1136.5,996.1,1192.8,1011.2,1192.8,1011.2z"/>
		<path class="st3" d="M1133.3,1055c-0.3,0-0.5-0.4-0.8-0.6c-0.5-0.4-1-0.8-1.5-1.2c-0.2-0.2-0.5-0.4-0.7-0.6
			c-0.2-0.2-0.4-0.4-0.7-0.6c-0.2-0.2-0.4-0.4-0.6-0.6c-0.1-0.1-0.1-0.1-0.2-0.2c-0.2-0.2-0.4-0.4-0.6-0.6c-0.2-0.2-0.4-0.4-0.5-0.5
			c-0.2-0.2-0.3-0.3-0.5-0.5c-1.2-1.3-2.2-2.7-3-4.1c-0.1-0.2-0.2-0.3-0.3-0.5c-0.5-0.9-0.8-1.8-1.1-2.7c-0.1-0.1-0.1-0.3-0.1-0.5
			c0,0,0-0.1,0-0.1c0-0.2-0.1-0.3-0.1-0.5c0-0.2-0.1-0.3-0.1-0.5c-0.1-0.9-0.1-1.8,0.1-2.7"/>
		<path class="st2" d="M1133.3,1055c-0.3,0-0.5-0.4-0.8-0.6c-0.5-0.4-1-0.8-1.5-1.2c-0.2-0.2-0.5-0.4-0.7-0.6
			c-0.2-0.2-0.4-0.4-0.7-0.6c-0.2-0.2-0.4-0.4-0.6-0.6c-0.1-0.1-0.1-0.1-0.2-0.2c-0.2-0.2-0.4-0.4-0.6-0.6c-0.2-0.2-0.4-0.4-0.5-0.5
			c-0.2-0.2-0.3-0.3-0.5-0.5c-1.2-1.3-2.2-2.7-3-4.1c-0.1-0.2-0.2-0.3-0.3-0.5c-0.5-0.9-0.8-1.8-1.1-2.7c-0.1-0.1-0.1-0.3-0.1-0.5
			c0,0,0-0.1,0-0.1c0-0.2-0.1-0.3-0.1-0.5c0-0.2-0.1-0.3-0.1-0.5c-0.1-0.9-0.1-1.8,0.1-2.7"/>
		<path class="st3" d="M1164.1,1071.2c0.1,0,0.1,0,0.2,0.1c0.6,0.3,5.4,2.4,1.2-1.6l-1.3-0.5"/>
		<path class="st2" d="M1164.1,1071.2c0.1,0,0.1,0,0.2,0.1c0.6,0.3,5.4,2.4,1.2-1.6l-1.3-0.5"/>
		<path class="st1" d="M1121.9,1080.5c-0.1,0-0.2-0.1-0.3-0.1c-0.8-0.3-1.5-0.6-2.2-0.9C1120.3,1079.8,1121.1,1080.2,1121.9,1080.5"
			/>
		<path class="st2" d="M1121.9,1080.5c-0.1,0-0.2-0.1-0.3-0.1c-0.8-0.3-1.5-0.6-2.2-0.9C1120.3,1079.8,1121.1,1080.2,1121.9,1080.5z
			"/>
		<path class="st5" d="M1173.4,923.8c-3.3,8.4-12.7,15.2-21.1,15.2c-8.4,0-12.6-6.8-9.3-15.2c3.3-8.4,12.7-15.2,21.1-15.2
			C1172.5,908.6,1176.7,915.4,1173.4,923.8"/>
		<path class="st2" d="M1173.4,923.8c-3.3,8.4-12.7,15.2-21.1,15.2c-8.4,0-12.6-6.8-9.3-15.2c3.3-8.4,12.7-15.2,21.1-15.2
			C1172.5,908.6,1176.7,915.4,1173.4,923.8z"/>
		<path class="st3" d="M1219.6,923.8c-3.3,8.4-12.7,15.2-21.1,15.2s-12.6-6.8-9.3-15.2c3.3-8.4,12.7-15.2,21.1-15.2
			S1222.8,915.4,1219.6,923.8"/>
		<path class="st2" d="M1219.6,923.8c-3.3,8.4-12.7,15.2-21.1,15.2s-12.6-6.8-9.3-15.2c3.3-8.4,12.7-15.2,21.1-15.2
			S1222.8,915.4,1219.6,923.8z"/>
		<path class="st3" d="M1179.1,1069.7c0,0-31.2-7.4-34.1-9c-3-1.7-14-7.5-14-7.5"/>
		<path class="st2" d="M1179.1,1069.7c0,0-31.2-7.4-34.1-9c-3-1.7-14-7.5-14-7.5"/>
		<path class="st3" d="M1175.7,1050c0,0,3.1-1.7,3.3-3.3c1.1-2.9-0.6-6-3.7-6.6l0,0c-0.3,0-0.6-0.1-0.8-0.2
			c-0.6-0.1-1.2-0.2-1.8-0.4c-0.1,0-0.2,0-0.3-0.1c-0.3-0.1-0.6-0.2-1-0.2c-0.4-0.1-0.9-0.2-1.3-0.3c-0.6-0.1-1.2-0.3-1.8-0.5
			c-0.4-0.1-0.8-0.2-1.2-0.3c-0.4-0.1-0.8-0.2-1.1-0.3c-2.7-0.8-5.5-1.7-8.4-2.7c-0.7-0.3-1.4-0.5-2.1-0.8c0,0-0.1,0-0.1-0.1
			c-0.8-0.3-1.6-0.6-2.4-0.9c-2.4-1-4.8-2-7.1-3.1c-0.4-0.2-0.8-0.4-1.2-0.6c-3.1-1.5-6.1-3.2-8.8-5c-0.3-0.2-0.5-0.3-0.8-0.5
			c-0.3-0.2-0.6-0.4-0.9-0.7c-1.4-1-2.7-2-3.8-3c-0.2-0.2-0.4-0.4-0.6-0.6c-0.2-0.2-0.4-0.4-0.6-0.6c-0.2-0.2-0.5-0.5-0.7-0.7
			c-0.2-0.2-0.4-0.4-0.5-0.6c-0.8-0.9-1.6-1.9-2.2-2.9c-0.1-0.2-0.3-0.5-0.4-0.7c-0.8-1.5-1.3-3-1.4-4.5c0-0.2,0-0.5,0-0.8
			c0-1.3,0.3-2.6,0.8-3.9c0.2-0.6,0.6-1.1,1.2-1.5c0.3-0.2,0.6-0.4,0.9-0.5c0.2-0.1,0.3-0.2,0.5-0.2c0.5-0.2,1.1-0.3,1.8-0.4
			c0.5-0.1,1.1-0.1,1.7-0.1c0.3,0,0.6,0,0.9,0c0.3,0,0.7,0,1.1,0.1c0.3,0,0.5,0.1,0.8,0.1c0.3,0,0.5,0.1,0.8,0.1
			c0.8,0.1,1.7,0.3,2.5,0.4c0.6,0.1,1.3,0.3,2,0.4c0.3,0.1,0.6,0.1,0.9,0.2c3.7,0.9,7.8,2.3,12,3.8c1.5,0.5,2.9,1.1,4.4,1.7
			c1.3,0.5,2.6,1.1,3.9,1.6c1,0.4,2,0.8,3,1.3c0.4,0.2,0.8,0.3,1.2,0.5c4.6,2,8.9,4,12.6,5.8c0,0,0.1,0,0.1,0.1
			c6.5,3.1,10.9,5.4,10.9,5.4l4.9-12.7c0,0-56.3-15.2-54.2-32.9c0-0.3,0.1-0.7,0.2-1c1.8-7.3,12.8-7.1,25.1-4.1c2,0.5,4.1,1,6.1,1.6
			c0.7,0.2,1.4,0.4,2.2,0.7c0.8,0.2,1.5,0.5,2.3,0.7c0.6,0.2,1.1,0.3,1.7,0.5c0.5,0.2,0.9,0.3,1.3,0.5c1.6,0.5,3.2,1.1,4.7,1.7
			c0.4,0.1,0.8,0.3,1.2,0.4c0.4,0.2,0.8,0.3,1.2,0.4c0,0,0.1,0,0.1,0.1c0.3,0.1,0.6,0.3,0.9,0.5c0,0,0,0,0,0c0.5,0.3,1,0.7,1.5,1
			c0.7,0.4,1.3,0.9,2,1.4c4,2.7,8.1,5.6,11.6,8.2c5.4,4,9.4,7.3,9.8,8.6c1,3.9-10.3,36.2-11.2,38.9c0,0.1-0.1,0.2-0.1,0.3
			c-0.6,1.4-4.8,10.5-13.8,21.8c-2,2.5-5,7.3-8.5,12.7c-6.5,10.1-14.4,22.3-19.3,25.8c0,0,3.9-4,3-4.7c-0.8-0.6-1.4-1.1-1.4-1.1
			c-0.3-0.1,10-2.7,3.4-3.9c-9.4-1.7-34-6.3-40.6-8.7h0c-0.8-0.3-1.6-0.6-2.4-1c0,0,0,0-0.1,0c-8.9-4.1-9-9.8-4.9-13.9
			c0,0,1.9-7.5,17.3-3.2l21.8,6.2c1.4,0.4,3.2,0.9,4.6,1.2c2.1,0.5,1.2,1,4.2,1c0,0,1.7-1.4,1.7-1.4c0.8-2.1-1.1-3.5-3.9-4.2
			l-15.4-4.4"/>
		<path class="st2" d="M1175.7,1050c0,0,3.1-1.7,3.3-3.3c1.1-2.9-0.6-6-3.7-6.6l0,0c-0.3,0-0.6-0.1-0.8-0.2
			c-0.6-0.1-1.2-0.2-1.8-0.4c-0.1,0-0.2,0-0.3-0.1c-0.3-0.1-0.6-0.2-1-0.2c-0.4-0.1-0.9-0.2-1.3-0.3c-0.6-0.1-1.2-0.3-1.8-0.5
			c-0.4-0.1-0.8-0.2-1.2-0.3c-0.4-0.1-0.8-0.2-1.1-0.3c-2.7-0.8-5.5-1.7-8.4-2.7c-0.7-0.3-1.4-0.5-2.1-0.8c0,0-0.1,0-0.1-0.1
			c-0.8-0.3-1.6-0.6-2.4-0.9c-2.4-1-4.8-2-7.1-3.1c-0.4-0.2-0.8-0.4-1.2-0.6c-3.1-1.5-6.1-3.2-8.8-5c-0.3-0.2-0.5-0.3-0.8-0.5
			c-0.3-0.2-0.6-0.4-0.9-0.7c-1.4-1-2.7-2-3.8-3c-0.2-0.2-0.4-0.4-0.6-0.6c-0.2-0.2-0.4-0.4-0.6-0.6c-0.2-0.2-0.5-0.5-0.7-0.7
			c-0.2-0.2-0.4-0.4-0.5-0.6c-0.8-0.9-1.6-1.9-2.2-2.9c-0.1-0.2-0.3-0.5-0.4-0.7c-0.8-1.5-1.3-3-1.4-4.5c0-0.2,0-0.5,0-0.8
			c0-1.3,0.3-2.6,0.8-3.9c0.2-0.6,0.6-1.1,1.2-1.5c0.3-0.2,0.6-0.4,0.9-0.5c0.2-0.1,0.3-0.2,0.5-0.2c0.5-0.2,1.1-0.3,1.8-0.4
			c0.5-0.1,1.1-0.1,1.7-0.1c0.3,0,0.6,0,0.9,0c0.3,0,0.7,0,1.1,0.1c0.3,0,0.5,0.1,0.8,0.1c0.3,0,0.5,0.1,0.8,0.1
			c0.8,0.1,1.7,0.3,2.5,0.4c0.6,0.1,1.3,0.3,2,0.4c0.3,0.1,0.6,0.1,0.9,0.2c3.7,0.9,7.8,2.3,12,3.8c1.5,0.5,2.9,1.1,4.4,1.7
			c1.3,0.5,2.6,1.1,3.9,1.6c1,0.4,2,0.8,3,1.3c0.4,0.2,0.8,0.3,1.2,0.5c4.6,2,8.9,4,12.6,5.8c0,0,0.1,0,0.1,0.1
			c6.5,3.1,10.9,5.4,10.9,5.4l4.9-12.7c0,0-56.3-15.2-54.2-32.9c0-0.3,0.1-0.7,0.2-1c1.8-7.3,12.8-7.1,25.1-4.1c2,0.5,4.1,1,6.1,1.6
			c0.7,0.2,1.4,0.4,2.2,0.7c0.8,0.2,1.5,0.5,2.3,0.7c0.6,0.2,1.1,0.3,1.7,0.5c0.5,0.2,0.9,0.3,1.3,0.5c1.6,0.5,3.2,1.1,4.7,1.7
			c0.4,0.1,0.8,0.3,1.2,0.4c0.4,0.2,0.8,0.3,1.2,0.4c0,0,0.1,0,0.1,0.1c0.3,0.1,0.6,0.3,0.9,0.5c0,0,0,0,0,0c0.5,0.3,1,0.7,1.5,1
			c0.7,0.4,1.3,0.9,2,1.4c4,2.7,8.1,5.6,11.6,8.2c5.4,4,9.4,7.3,9.8,8.6c1,3.9-10.3,36.2-11.2,38.9c0,0.1-0.1,0.2-0.1,0.3
			c-0.6,1.4-4.8,10.5-13.8,21.8c-2,2.5-5,7.3-8.5,12.7c-6.5,10.1-14.4,22.3-19.3,25.8c0,0,3.9-4,3-4.7c-0.8-0.6-1.4-1.1-1.4-1.1
			c-0.3-0.1,10-2.7,3.4-3.9c-9.4-1.7-34-6.3-40.6-8.7h0c-0.8-0.3-1.6-0.6-2.4-1c0,0,0,0-0.1,0c-8.9-4.1-9-9.8-4.9-13.9
			c0,0,1.9-7.5,17.3-3.2l21.8,6.2c1.4,0.4,3.2,0.9,4.6,1.2c2.1,0.5,1.2,1,4.2,1c0,0,1.7-1.4,1.7-1.4c0.8-2.1-1.1-3.5-3.9-4.2
			l-15.4-4.4"/>
		<path class="st6" d="M823.3,671.7c0,0,6.7,29.3,6.1,38.3c-0.6,8.8-4.9,11.9-18.4,11"/>
		<path class="st1" d="M846.1,732.2l2.1-8.9c-2.1,14.6-2.2,9.4-2.2,9.1v0L846.1,732.2z"/>
		<path class="st7" d="M846.1,732.2l2.1-8.9c-2.1,14.6-2.2,9.4-2.2,9.1v0L846.1,732.2z"/>
		<path class="st1" d="M888.3,676.6c-2.1,2.6-10.5,2-17.5,0.4c-1.8-1.6-3.8-3.1-5.5-4.1c-0.2,0.7-0.4,1.4-0.7,2.2
			c1.8,0.7,3.9,1.4,6.2,1.9c3.2,2.9,5.9,6.3,6.1,9.1c0.4,7.2-5.8,27.8-17.2,34.2c0,0-4.2,4.7,1.3-10.8l-6.5,4.5c0,0,5.5,2.7-2,7.1
			c-1.4,0.8-2.8,1.5-4.1,2l-0.1,0.3c0.1-1,0.3-2.1,0.5-3.4c0,0,0-0.1,0-0.1c0.2-1.2,0.4-2.6,0.5-4.1c2.5-18.8,4.1-8.6,5.6-26.1
			c1.5-17.6,6.6-5.6,4.6-22.1c-2-16.5,0.2-16.5-1-30.7c0-0.2,0-0.4-0.1-0.6c0,0,0,0,0,0c-0.8-8.3-3.5-12.7-5.4-15.2
			c-1.2-1.6-2.2-2.4-2.2-3.1c0-1.7-3.3-3-3.3-3s-13.7,4-41.1,3.1c0,0-11.8-3.6-22.5-7.4c-10.7-3.8-6.9-7.1-17.3-4.1
			c-10.4,2.9-12.3,2.6-12.3,11.2c0,8.6-1.4,7.9,0.2,22.4c1.6,14.5,4.1,17,5.2,24.3c1.1,7.3,7.7,18.2,6.1,26.3
			c-1.4,7.3,0.8,27.1-9.9,37.9c0.8-2,1.4-5.2,1.7-10.2c0.8-15.8,4.5-8.6-2.9-28.7c-6.6-17.9-15.7-27.4-12.7-58.4
			c0.7-7.3-9.9-9.5-12-2.4c-0.4,1.3-0.7,2.7-1,4.3c-2.6,15.9-7.3,2.5-1.8,21.4c5.5,18.9,9.8,26.1,5.5,40c-0.8,2.4-1.4,4.5-2,6.3
			c-0.1-2.1-0.5-4.5-1.3-7.4c-3.8-13.4-8.2,4.2-9.9-3.9c0,0,1.3,12.4-5,19.5c-1.2,1.3-2.6,2.4-4.3,3.2c-0.4,0.2-0.8-0.2-0.7-0.6
			c1.5-5.2,6.6-29.7,4.6-56.2c0-0.1,0-0.3,0-0.4l-1.3-13.3c0,0,0.2,5.5,0.2,12.7c0,12.6-0.9,30.7-5.5,34.7c-2,1.8-3.6,3.9-5,6
			c0,0,0,0,0,0l0,0c-8.6,15.6-8.1,25.8-11,39c-3,13.2,11.2,25.9-5.2,34.3c-6.9,3.5-11.8,5.9-15.2,7.4c2.9-2.5,5.6-7.5,5.2-17.1
			c-0.8-19.8-7.8,1.8-7.8,1.8s-3,0.5-6.8,0.6c-0.2,0-0.5,0-0.7,0c-4.8,0.2-10.6-0.1-13.7-2.3c-4.7-3.3,8.9,1.6,15.5-1.1
			c0.3-0.1,0.5-0.2,0.8-0.4c1.1-0.6,1.9-1.5,2.3-2.8c2.3-7.7,8.5-5.4,1.4-11.2c-0.1-0.1-0.1-0.1-0.2-0.1v0c-0.7-0.6-1.6-1.2-2.6-2
			c-11.2-8.5-11.2,3.9-12.8-13.5c-1.6-17.4,2.2-19.2-4.1-26.5c-6.3-7.3-10.7,3.8-8.3-12.6c2.3-16.4,7.4-7.5,2.8-21.3
			c-4.5-13.9-4.6-18.2-2.8-27.3c1.8-9.2,11.6-7.9,9.5-18.6c-2.1-10.7-4.4-11.1,1-17.7c5.4-6.6,7.7-4.4,10.1-9.6
			c1.8-4,9.3-2,14.7-4.6v0c0.4-0.2,0.8-0.4,1.2-0.6c1.3-0.8,2.4-2,3.2-3.6c0.7-1.3,1.1-2.2,1.3-2.9l0,0c0.3-0.9,0.4-1.4,0.3-1.7
			c-0.2-1.2-1.6-1,2.3-10.2c6-14.2,4.6-14.3,18.5-18.8c13.9-4.5,12.7-3.9,24.9-10.1c12.1-6.2,13.1,0.2,19.3-4
			c6.1-4.2,6.1-7.9,20.2-8.2c14.1-0.4,20.6,2.2,27.3,6.9s21.1,12.4,24.4,16.5c3.3,4.1,17.1,5.7,21,6.5c3.9,0.8,15,20.2,17,24.5
			c2,4.3,5.9,12.7,8.7,17.8c2.8,5.1,5.5,15,5.8,19.4c0.3,4.4-4.8,11.9-2.4,20.6c2.4,8.7,1.9,10.7,0.4,13.8c-0.5,1-1.3,1.3-1.9,1.5
			c-0.1,0-0.2,0-0.2,0.1c-1.3,0.3-2,0.3,0.3,4.1c0.1,0.2,0.2,0.3,0.3,0.5c0,0,0,0.1,0,0.1c3.1,5.5-0.4,5.8,8.6,9.6
			C884.7,675.3,892,672.1,888.3,676.6"/>
		<path class="st7" d="M888.3,676.6c-2.1,2.6-10.5,2-17.5,0.4c-1.8-1.6-3.8-3.1-5.5-4.1c-0.2,0.7-0.4,1.4-0.7,2.2
			c1.8,0.7,3.9,1.4,6.2,1.9c3.2,2.9,5.9,6.3,6.1,9.1c0.4,7.2-5.8,27.8-17.2,34.2c0,0-4.2,4.7,1.3-10.8l-6.5,4.5c0,0,5.5,2.7-2,7.1
			c-1.4,0.8-2.8,1.5-4.1,2l-0.1,0.3c0.1-1,0.3-2.1,0.5-3.4c0,0,0-0.1,0-0.1c0.2-1.2,0.4-2.6,0.5-4.1c2.5-18.8,4.1-8.6,5.6-26.1
			c1.5-17.6,6.6-5.6,4.6-22.1c-2-16.5,0.2-16.5-1-30.7c0-0.2,0-0.4-0.1-0.6c0,0,0,0,0,0c-0.8-8.3-3.5-12.7-5.4-15.2
			c-1.2-1.6-2.2-2.4-2.2-3.1c0-1.7-3.3-3-3.3-3s-13.7,4-41.1,3.1c0,0-11.8-3.6-22.5-7.4c-10.7-3.8-6.9-7.1-17.3-4.1
			c-10.4,2.9-12.3,2.6-12.3,11.2c0,8.6-1.4,7.9,0.2,22.4c1.6,14.5,4.1,17,5.2,24.3c1.1,7.3,7.7,18.2,6.1,26.3
			c-1.4,7.3,0.8,27.1-9.9,37.9c0.8-2,1.4-5.2,1.7-10.2c0.8-15.8,4.5-8.6-2.9-28.7c-6.6-17.9-15.7-27.4-12.7-58.4
			c0.7-7.3-9.9-9.5-12-2.4c-0.4,1.3-0.7,2.7-1,4.3c-2.6,15.9-7.3,2.5-1.8,21.4c5.5,18.9,9.8,26.1,5.5,40c-0.8,2.4-1.4,4.5-2,6.3
			c-0.1-2.1-0.5-4.5-1.3-7.4c-3.8-13.4-8.2,4.2-9.9-3.9c0,0,1.3,12.4-5,19.5c-1.2,1.3-2.6,2.4-4.3,3.2c-0.4,0.2-0.8-0.2-0.7-0.6
			c1.5-5.2,6.6-29.7,4.6-56.2c0-0.1,0-0.3,0-0.4l-1.3-13.3c0,0,0.2,5.5,0.2,12.7c0,12.6-0.9,30.7-5.5,34.7c-2,1.8-3.6,3.9-5,6
			c0,0,0,0,0,0l0,0c-8.6,15.6-8.1,25.8-11,39c-3,13.2,11.2,25.9-5.2,34.3c-6.9,3.5-11.8,5.9-15.2,7.4c2.9-2.5,5.6-7.5,5.2-17.1
			c-0.8-19.8-7.8,1.8-7.8,1.8s-3,0.5-6.8,0.6c-0.2,0-0.5,0-0.7,0c-4.8,0.2-10.6-0.1-13.7-2.3c-4.7-3.3,8.9,1.6,15.5-1.1
			c0.3-0.1,0.5-0.2,0.8-0.4c1.1-0.6,1.9-1.5,2.3-2.8c2.3-7.7,8.5-5.4,1.4-11.2c-0.1-0.1-0.1-0.1-0.2-0.1v0c-0.7-0.6-1.6-1.2-2.6-2
			c-11.2-8.5-11.2,3.9-12.8-13.5c-1.6-17.4,2.2-19.2-4.1-26.5c-6.3-7.3-10.7,3.8-8.3-12.6c2.3-16.4,7.4-7.5,2.8-21.3
			c-4.5-13.9-4.6-18.2-2.8-27.3c1.8-9.2,11.6-7.9,9.5-18.6c-2.1-10.7-4.4-11.1,1-17.7c5.4-6.6,7.7-4.4,10.1-9.6
			c1.8-4,9.3-2,14.7-4.6v0c0.4-0.2,0.8-0.4,1.2-0.6c1.3-0.8,2.4-2,3.2-3.6c0.7-1.3,1.1-2.2,1.3-2.9l0,0c0.3-0.9,0.4-1.4,0.3-1.7
			c-0.2-1.2-1.6-1,2.3-10.2c6-14.2,4.6-14.3,18.5-18.8c13.9-4.5,12.7-3.9,24.9-10.1c12.1-6.2,13.1,0.2,19.3-4
			c6.1-4.2,6.1-7.9,20.2-8.2c14.1-0.4,20.6,2.2,27.3,6.9s21.1,12.4,24.4,16.5c3.3,4.1,17.1,5.7,21,6.5c3.9,0.8,15,20.2,17,24.5
			c2,4.3,5.9,12.7,8.7,17.8c2.8,5.1,5.5,15,5.8,19.4c0.3,4.4-4.8,11.9-2.4,20.6c2.4,8.7,1.9,10.7,0.4,13.8c-0.5,1-1.3,1.3-1.9,1.5
			c-0.1,0-0.2,0-0.2,0.1c-1.3,0.3-2,0.3,0.3,4.1c0.1,0.2,0.2,0.3,0.3,0.5c0,0,0,0.1,0,0.1c3.1,5.5-0.4,5.8,8.6,9.6
			C884.7,675.3,892,672.1,888.3,676.6z"/>
		<rect x="622.5" y="1290.5" class="st3" width="6.3" height="25.6"/>
		<rect x="622.5" y="1290.5" class="st8" width="6.3" height="25.6"/>
		<path class="st1" d="M868.2,1301.9l-0.1,0.2v0l-3.8,6h-41.4l6.3-9.4c16.7,0.4,28,1,34,1.7c2.6,0.3,4.1,0.7,4.8,1.1v0
			C868.1,1301.7,868.2,1301.8,868.2,1301.9"/>
		<path class="st9" d="M868.2,1301.9l-0.1,0.2v0l-3.8,6h-41.4l6.3-9.4c16.7,0.4,28,1,34,1.7c2.6,0.3,4.1,0.7,4.8,1.1v0
			C868.1,1301.7,868.2,1301.8,868.2,1301.9z"/>
		<line class="st8" x1="695" y1="2253.4" x2="695" y2="2253.4"/>
		<rect x="852.2" y="1290.1" class="st3" width="6.3" height="25.6"/>
		<rect x="852.2" y="1290.1" class="st8" width="6.3" height="25.6"/>
		<rect x="683.9" y="1289.1" class="st3" width="6.3" height="25.6"/>
		<rect x="683.9" y="1289.1" class="st8" width="6.3" height="25.6"/>
		<rect x="747.4" y="1287.7" class="st3" width="6.3" height="25.6"/>
		<rect x="747.4" y="1287.7" class="st8" width="6.3" height="25.6"/>
		<rect x="798.9" y="1292.5" class="st10" width="34.5" height="21.9"/>
		<rect x="817.6" y="1301.9" class="st11" width="20.1" height="1.7"/>
		<path class="st3" d="M581.5,1544.4c0,0-4.8-8.6-8.5-14.5c-3.7-5.9-4.7-11.2-4.7-11.2"/>
		<path class="st8" d="M581.5,1544.4c0,0-4.8-8.6-8.5-14.5c-3.7-5.9-4.7-11.2-4.7-11.2"/>
		<path class="st12" d="M582.4,1550.2c0,0,33.2-31.5,36.5-35c3.1-3.2,8.5-8.2,13.6-16.1c5.1-7.8,17-29.1,17.7-33.7
			c0.6-4.2,0.1-15.6,0.1-15.6"/>
		<path class="st9" d="M714.6,829.8c1.4,1.2,2.3,1.9,2.3,1.9"/>
		<path class="st9" d="M796.1,798.4c-0.1-0.1-0.2-0.2-0.2-0.4"/>
		<path class="st9" d="M824.5,838.7c0.1-0.5,0.3-0.9,0.4-1.3c0,0,2.2-3.7,5.7-4.7c2.6-0.7,1.3,7.1,1.9,11.4c0.4,2.6,3.4,14,3.6,14.2
			c0.1,0.1,2-3.9,3.6-6.3c1-1.5,0.4-7.6,0.2-9.4c-0.4-4.4-0.9-7-1.1-9.5c-0.4-5.3-15-13.5-17.9-17.7c-2.6-3.8-7.3-9.1-8.3-10.7
			c-0.4-0.7-2.7-3.2-5.2-5.6c-4.1-0.2-8.1-0.6-11.5-1h0c-6-0.7-10.2-1.6-10.2-1.6c-0.2,0-0.4-0.1-0.7-0.1l0.7,14.5l24.5,17.6
			l1.8,1.3l1.4,1l9.1,6.5L824.5,838.7"/>
		<path class="st13" d="M783.8,1025.3c0.6-1.1,7.9-13.4,8-14c0.5-2.1,16.5-53.6,17.3-56.6c0.8-3,3.1-16.4,7.2-24.6
			c4.2-8.2,7.2-28.3,8.3-35.8c1.1-7.5,0.4-10.9-1.7-15.9c-2.1-4.9-4.3-9.3-4.5-10.9c0,0,0.3-2.5,0.7-5c1.1-6.5,3.4-17.6,5.2-23.8"/>
		<path class="st13" d="M791.9,1011.3c0.2,1.2,0.5,2.2,2.4,8.2c0.8,2.6,3.7,7.5,4.7,14.9c1.8,12.9,0.8,30.9,4.5,42.8
			c1.7,5.3,1.6,12.4,2.4,18.3c0.3,1.9-0.1,2.2,0.2,4.1l0.4,3.5c0,0.4,0.6,4.1,0.5,4.6c0.1,0.2,0.4,4.5,0.5,4.6
			c1.2,12.3,2.5,13.6,3.6,23c0.9,8.5,1.4,11.6,2,14.4c0,0,0,0,0,0.1l1.1,5"/>
		<path class="st13" d="M814.2,1154.8c0.1,0.3,0.1,0.6,0.2,0.9c0,0.2,0.1,0.3,0.1,0.5c0,0,0,0,0,0c0,0.2,0.1,0.5,0.2,0.7
			c0,0.1,0,0.2,0.1,0.3c0,0.1,0.1,0.3,0.1,0.4c0.1,0.5,0.2,1.1,0.3,1.7c2.2,11.1,6.1,37.1,9.2,50.2c3,13.1,6.7,23.6,7,44.2
			c0.2,15.3,5.3,28.2,5.8,34.2"/>
		<path class="st9" d="M839.7,851.9l8.8,4c0,0,40.5,2.6,49.7,12.3c9.3,9.7,6.1,21.5,25.1,47.1c18.1,24.4,7.3,74.1,6.2,78.6
			c5.5,4.4,11.5,9.2,17.3,13.7c0,0,22.3,39.9,30.3,61.1c7.9-0.1,20.9-1,28.9-5.8c12-7.2,53.8-37.1,61-49.2c2.8-4.7,5.6-9.7,8.1-14.4
			c3.8-7.4,6.9-14.4,8.3-19.4c0,0,8.6-8.1,28.5-16.5l-37.1,95.4l-13.1,33.7c-1.4,3.5,1.2,7.3,5,7.3h22.4c-0.5,1.1-1,2.3-1.6,3.7
			c-6.4,14.9-24.8,40-35.9,53.3c-11,13.3-21,22.5-31.8,33.8c-10.6,11.1-29.6,6-30.1,5.9h0c-5.1,2.2-10.8,3.3-17,2.3
			c-21-3.2-37.5-30.7-45.8-47.7h0c-1.5-0.9-4.1-2.1-8.5-3.8c-13.2-5.1-40.7-25-41.1-25.3c0.8,5.5-0.5,11.2-4.3,20.5
			c-0.6,1.4-1.2,2.8-1.7,4.2v0c-2,7.3-3.6,12.8-3.6,12.8s2.8,20.8,2.8,26.8c0,6,6,27.3,3.8,35.8c-2.2,8.5-7.5,34.7-9.3,43.4
			c-1.8,8.7,3.6,22.8,3.6,22.8h-31.5"/>
		<path class="st9" d="M796.1,798.4c-0.1-0.1-0.2-0.2-0.2-0.4"/>
		<path class="st9" d="M503.1,852.1C503.1,852.1,503.1,852.1,503.1,852.1"/>
		<path class="st3" d="M813.4,830.7l-1.3,6.1l-27.9,179.8c0,0,0,0,0,0"/>
		<path class="st13" d="M813.4,830.7l-1.3,6.1l-27.9,179.8c0,0,0,0,0,0"/>
		<path class="st9" d="M714.6,829.8c-1.8-0.5-4.5-1.1-8.2-1.9c-10-2.1-30.5,3.6-46.9,8.2c-12.9,3.7-22.9,7.9-22.9,7.9l-4.4-14.5
			c0,0-0.6-1.6-1.4-4.2c-2.4-7.5-7-23.3-5.9-30.9c0-0.1,0-0.1,0-0.2c1.7-10.3,20-26.2,20-26.2h4.9c0,0,1.3,2,3.3,4.7
			c4,5.6,10.8,14.6,14.2,16.9c5.1,3.5,15.4,14.4,20.2,18.1C691.5,810.8,708.4,824.7,714.6,829.8z"/>
		<path class="st13" d="M659.4,835.9c0,0,13.5,17.8,61.1,17.4c6.8-0.1,12.4-0.1,20.7-1"/>
		<path class="st9" d="M560.4,914.4c-7.7-18.3-26.2-45.6-31.8-55.4c0,0,0,0-0.1-0.1c-0.1-0.2-0.4-0.8-0.3-1.6c3.4-0.5,6.4-1,8.8-1.3
			c3.1-0.4,5.9-1.9,7.9-4.3c0.6-0.7,5.2-2.3,6-3.2c17.1-3.1,19.8-6.6,36.5-11.6c17.8-5.4,22.9-10.1,29.2-11.5c6.3-1.4,14,0,14,0
			c0.8,2.6,1.4,4.2,1.4,4.2l4.4,14.5c0,0,10.1-3.9,22.9-7.8"/>
		<path class="st9" d="M819.5,1288.2h-65.8v-0.5h-6.3v0.5h-156v6.9l0,1.4c0-3.1,0-6.9-0.1-11.1c-0.3-12.8-2.3-61.5-10.8-88.7
			c-8.5-27.2-37.9-56.8-37.9-56.8c11.2-31.3,29.1-86.7,32.8-101.5"/>
		<path class="st3" d="M741.8,852.1c0.7,2.8,6.4,14.6,8.3,20.4c4,12.6,9.4,28,9.4,28s8.2,26.4,13.4,44.5c4.6,20.8,8.7,43,11,61.6
			c0.8,4.4,0.4,7.7,0.4,9.9c0,0.9-0.9,11.3,0,14.8c0.1,0.5,0.2,0.9,0.3,1c0.2,0.4,0.7,5.7,1.3,12.4c1,11.3,2.2,26.3,2.2,27.2
			c0,0.8,2.2,18.6,4,33c1.2,9.9,2.3,18.2,2.3,18.2l9.7,58.8l0.3,1.6l14.6,103.9"/>
		<path class="st13" d="M741.8,852.1c0.7,2.8,6.4,14.6,8.3,20.4c4,12.6,9.4,28,9.4,28s8.2,26.4,13.4,44.5c4.6,20.8,8.7,43,11,61.6
			c0.8,4.4,0.4,7.7,0.4,9.9c0,0.9-0.9,11.3,0,14.8c0.1,0.5,0.2,0.9,0.3,1c0.2,0.4,0.7,5.7,1.3,12.4c1,11.3,2.2,26.3,2.2,27.2
			c0,0.8,2.2,18.6,4,33c1.2,9.9,2.3,18.2,2.3,18.2l9.7,58.8l0.3,1.6l14.6,103.9"/>
		<path class="st9" d="M796.2,1050.3c0,1.5-1.2,2.7-2.7,2.7c-1.5,0-2.7-1.2-2.7-2.7c0-1.5,1.2-2.7,2.7-2.7
			C795,1047.6,796.2,1048.8,796.2,1050.3z"/>
		<path class="st9" d="M775.5,983c0,1.5-1.2,2.7-2.7,2.7c-1.5,0-2.7-1.2-2.7-2.7c0-1.5,1.2-2.7,2.7-2.7
			C774.3,980.3,775.5,981.5,775.5,983z"/>
		<path class="st9" d="M761.6,932c0,1.5-1.2,2.7-2.7,2.7c-1.5,0-2.7-1.2-2.7-2.7c0-1.5,1.2-2.7,2.7-2.7
			C760.4,929.3,761.6,930.5,761.6,932z"/>
		<path class="st9" d="M750,889.3c0,1.5-1.2,2.7-2.7,2.7c-1.5,0-2.7-1.2-2.7-2.7c0-1.5,1.2-2.7,2.7-2.7
			C748.8,886.6,750,887.8,750,889.3z"/>
		<path class="st14" d="M798.8,972.4c-0.1,1.5-1.2,3.2-2.3,3.9c-1.1,0.7-2,0-1.8-1.4c0.1-1.5,1.2-3.2,2.3-3.9
			C798.1,970.3,798.9,970.9,798.8,972.4z"/>
		<path class="st14" d="M807.7,931.9c-0.1,1.5-1.2,3.2-2.3,3.9c-1.1,0.7-2,0-1.8-1.4c0.1-1.5,1.2-3.2,2.3-3.9
			C807,929.8,807.8,930.4,807.7,931.9z"/>
		<path class="st14" d="M816.1,890.8c-0.1,1.5-1.2,3.2-2.3,3.9c-1.1,0.7-2,0-1.8-1.4c0.1-1.5,1.2-3.2,2.3-3.9
			C815.4,888.6,816.2,889.3,816.1,890.8z"/>
		<path class="st9" d="M797.9,1115c-0.2-1.5,0.7-2.8,2.2-3.1c1.5-0.2,2.8,0.7,3.1,2.2c0.2,1.5-0.7,2.8-2.2,3.1
			C799.5,1117.5,798.2,1116.5,797.9,1115z"/>
		<path class="st9" d="M809.8,1173.1c-1.5,0.1-2.8-1-2.9-2.5c-0.1-1.5,1-2.8,2.5-2.9c1.5-0.1,2.8,1,2.9,2.5
			C812.4,1171.7,811.2,1173,809.8,1173.1z"/>
		<path class="st9" d="M819.3,1230.8c-1.5,0.1-2.8-1-2.9-2.5c-0.1-1.5,1-2.8,2.5-2.9c1.5-0.1,2.8,1,2.9,2.5
			C821.9,1229.4,820.7,1230.7,819.3,1230.8z"/>
		<g class="st15">
			<g>
				<defs>
					<rect id="SVGID_5_" x="36" y="61.9" width="2964" height="2889.7"/>
				</defs>
				<clipPath id="SVGID_6_">
					<use xlink:href="#SVGID_5_"  style="overflow:visible;"/>
				</clipPath>
			</g>
		</g>
	</g>
	<g class="st0">
		<defs>
			<polygon id="SVGID_7_" points="1164.1,908.6 1152.3,939 1764.5,2567 2708.5,696.4 			"/>
		</defs>
		<clipPath id="SVGID_8_">
			<use xlink:href="#SVGID_7_"  style="overflow:visible;"/>
		</clipPath>
		<defs>
			<filter id="Adobe_OpacityMaskFilter" filterUnits="userSpaceOnUse" x="217" y="-81.6" width="3426.7" height="3426.7">
				<feColorMatrix  type="matrix" values="1 0 0 0 0  0 1 0 0 0  0 0 1 0 0  0 0 0 1 0"/>
			</filter>
		</defs>
		<mask maskUnits="userSpaceOnUse" x="217" y="-81.6" width="3426.7" height="3426.7" id="SVGID_9_">
			<g class="st16">
				
					<linearGradient id="SVGID_10_" gradientUnits="userSpaceOnUse" x1="0" y1="3000.1355" x2="1" y2="3000.1355" gradientTransform="matrix(-1129.4182 -1129.4182 -1129.4182 1129.4182 3390722.75 -3386391.25)">
					<stop  offset="0" style="stop-color:#000000"/>
					<stop  offset="1" style="stop-color:#4D4D4D"/>
				</linearGradient>
				<polygon class="st17" points="1930.4,3345.1 217,1631.7 1930.4,-81.6 3643.8,1631.7 				"/>
			</g>
		</mask>
		
			<linearGradient id="SVGID_11_" gradientUnits="userSpaceOnUse" x1="0" y1="3000.1355" x2="1" y2="3000.1355" gradientTransform="matrix(-1129.4182 -1129.4182 -1129.4182 1129.4182 3390722.75 -3386391.25)">
			<stop  offset="0" style="stop-color:#FFEF26"/>
			<stop  offset="1" style="stop-color:#FDC800"/>
		</linearGradient>
		<polygon class="st18" points="1930.4,3345.1 217,1631.7 1930.4,-81.6 3643.8,1631.7 		"/>
	</g>
</g>
</svg>
