<svg xmlns="http://www.w3.org/2000/svg" xmlns:xlink="http://www.w3.org/1999/xlink" viewBox="0 0 3426.8 3426.7">
  <defs>
    <clipPath id="clip-path" transform="translate(-48.1)">
      <rect y="550.5" width="3000" height="3000" fill="none"/>
    </clipPath>
    <clipPath id="clip-path-137" transform="translate(-48.1)">
      <polyline points="3000 826.47 3000 3550.5 0 3550.5 0 826.47" fill="none"/>
    </clipPath>
    <clipPath id="clip-path-138" transform="translate(-48.1)">
      <polygon points="1164.1 1459.1 1152.3 1489.5 1764.5 3117.5 2708.5 1246.9 1164.1 1459.1" fill="none"/>
    </clipPath>
    <linearGradient id="linear-gradient" x1="1635.93" y1="3550.13" x2="1637.11" y2="3550.45" gradientTransform="matrix(-1129.42, -1129.42, -1129.42, 1129.42, 5859522.73, -2159884.11)" gradientUnits="userSpaceOnUse">
      <stop offset="0" stop-color="#fff"/>
      <stop offset="1" stop-color="#ffef26"/>
    </linearGradient>
  </defs>
  <title>Asset 1</title>
  <g id="Layer_2" data-name="Layer 2">
    <g id="phoneMan">
      <g id="lightGradient">
        <g clip-path="url(#clip-path)">
          <g clip-path="url(#clip-path)">
            <path d="M1233.7,1456.7l-31.4,80.8-.3.9a2.37,2.37,0,0,1-3.6,1.1c-.5-.4-1.1-.8-1.7-1.2a4.23,4.23,0,0,0-.7-.5c-2.2-1.6-4.5-3.2-6.8-4.7l-2-1.4c-.5-.3-1-.7-1.5-1h-.1c-.1-.1-.1-.1-.2-.1s-.1-.1-.2-.1a.76.76,0,0,1-.4-.2.1.1,0,0,1-.1-.1c-.4-.2-.8-.3-1.2-.5s-.8-.3-1.2-.4c-1.5-.6-3.1-1.1-4.7-1.7-.4-.1-.9-.3-1.3-.4a10.93,10.93,0,0,0-1.7-.5c-.8-.2-1.5-.5-2.3-.7s-1.4-.4-2.2-.7c-2.1-.6-4.1-1.1-6.1-1.6-12.3-2.9-23.3-3.2-25.1,4.1-.1.3-.1.7-.2,1a4.3,4.3,0,0,0,0,1.6v.5a.9.9,0,0,0,.1.5v.1a3.09,3.09,0,0,0,.2.8c.1.2.1.5.2.7a10.09,10.09,0,0,0,.7,1.5c.1.1.1.2.2.4s.2.3.3.5.2.3.3.4.2.3.3.4c.2.3.4.5.6.8s.3.4.5.6.1.2.2.2l.6.6.6.6c.5.5,1.1,1,1.7,1.5.2.2.4.3.6.5.4.4.9.7,1.3,1.1a8.65,8.65,0,0,0,1,.7l1,.7a5.55,5.55,0,0,1,.8.6,53,53,0,0,0,4.7,2.8l1.2.6a16.18,16.18,0,0,1,1.8,1c2.2,1.1,4.6,2.2,6.9,3.2.8.4,1.7.7,2.6,1.1.7.3,1.5.6,2.2.9.1,0,.2.1.3.1.6.2,1.3.5,1.9.7a1.42,1.42,0,0,0,.6.2l1.5.6c6.2,2.3,11.8,4.1,15.3,5.2.4.1.7.2,1,.3s.3.1.5.2a2.34,2.34,0,0,1,1.5,3.1l-3,7.8a2.42,2.42,0,0,1-3.3,1.3l-.6-.3c-.3-.2-.7-.3-1-.5a9.25,9.25,0,0,1-1-.5c-.7-.3-1.4-.7-2.2-1.1-.5-.2-1-.5-1.5-.7-.7-.4-1.5-.7-2.3-1.1a.1.1,0,0,1-.1-.1c-3.7-1.8-8-3.8-12.6-5.8-.4-.2-.8-.3-1.2-.5-1-.4-2-.9-3-1.3-1.3-.6-2.6-1.1-3.9-1.6-1.5-.6-2.9-1.1-4.4-1.7a107.26,107.26,0,0,0-11.9-3.8c-.3-.1-.6-.1-.9-.2a14.16,14.16,0,0,0-2-.4c-.9-.2-1.7-.3-2.5-.4-.3,0-.5-.1-.8-.1s-.5-.1-.8-.1-.7-.1-1.1-.1h-.9a9.15,9.15,0,0,0-1.7.1,8,8,0,0,0-1.8.4c-.2.1-.4.1-.5.2a7.26,7.26,0,0,0-.9.5,4.43,4.43,0,0,0-1.2,1.5,9.09,9.09,0,0,0-.8,3.9v.8a11.19,11.19,0,0,0,1.4,4.5c.1.2.3.5.4.7a14.8,14.8,0,0,0,2.2,2.9c.2.2.3.4.5.6a4.62,4.62,0,0,0,.7.7l.6.6.6.6a38.63,38.63,0,0,0,3.8,3,5.5,5.5,0,0,1,.9.7,5.58,5.58,0,0,0,.8.5,81.16,81.16,0,0,0,8.8,5,10.91,10.91,0,0,1,1.1.6c2.3,1.1,4.7,2.2,7.1,3.1a24.43,24.43,0,0,1,2.4,1h.1c.7.3,1.4.5,2.1.8q4.35,1.5,8.4,2.7c.4.1.8.2,1.1.3l1.2.3c.6.2,1.2.3,1.8.5l1.3.3a3.55,3.55,0,0,0,1,.2.37.37,0,0,1,.3.1c.6.1,1.2.3,1.8.4.3.1.6.1.8.2h.2c.2,0,.4.1.7.1s.6.1.8.2c.4.1.8.1,1.2.2a.76.76,0,0,1,.4.1,2.41,2.41,0,0,1,1.7,3.2l-1.1,2.9h0l-.3.7-.4,1.1a2.42,2.42,0,0,1-2.6,1.5,1.61,1.61,0,0,1-.9-.3c-11.7-6-49.9-23.4-52.2-11.6a8.17,8.17,0,0,0-.1,2.7,1166137699054.18,1166137699054.18,0,0,1,.2,1v.1c0,.2.1.3.1.5a10.24,10.24,0,0,0,1.1,2.7c.1.2.2.3.3.5a22,22,0,0,0,3,4l.5.5a2.65,2.65,0,0,1,.5.6l.6.6.2.2.6.6a4.35,4.35,0,0,0,.7.6c.2.2.5.4.7.6h0l1.5,1.2a5.55,5.55,0,0,0,.8.6l8.2,3.8h.1l3.7,1.7h0l1.3.6h.1l1.1.5h0l16.3,7.5h.1c.9.2,1.9.4,2.7.6a2.4,2.4,0,0,1,1.8,3.2l-1.1,2.8h0l-.5,1.4h0c-.9-.3-48.4-16.1-52.7-11.7-4.1,4.2-4,9.9,4.9,13.9h.1c.8.3,1.6.7,2.4,1h0l1,.3c6.8,2.3,18.8,4.7,27.8,6.3a11.92,11.92,0,0,1,8.5,5.9h0a2.46,2.46,0,0,1,.9,1.9,1.49,1.49,0,0,1-.2.9l-.2.5c0,.1-.1.1-.1.2h0a4.34,4.34,0,0,1-1.2,1.7c-.3.2-.5.4-.8.6h0a5.47,5.47,0,0,1-2.9.8h-87.9a5.34,5.34,0,0,1-5-7.3l13.1-33.7,37.1-95.4,23.8-61.1a5.3,5.3,0,0,1,5-3.4h87.9a5.64,5.64,0,0,1,5,7.5" transform="translate(-48.1)"/>
          </g>
          <g clip-path="url(#clip-path)">
            <path d="M1233.7,1456.7l-31.4,80.8-.3.9a2.37,2.37,0,0,1-3.6,1.1c-.5-.4-1.1-.8-1.7-1.2a4.23,4.23,0,0,0-.7-.5c-2.2-1.6-4.5-3.2-6.8-4.7l-2-1.4c-.5-.3-1-.7-1.5-1h-.1c-.1-.1-.1-.1-.2-.1s-.1-.1-.2-.1a.76.76,0,0,1-.4-.2.1.1,0,0,1-.1-.1c-.4-.2-.8-.3-1.2-.5s-.8-.3-1.2-.4c-1.5-.6-3.1-1.1-4.7-1.7-.4-.1-.9-.3-1.3-.4a10.93,10.93,0,0,0-1.7-.5c-.8-.2-1.5-.5-2.3-.7s-1.4-.4-2.2-.7c-2.1-.6-4.1-1.1-6.1-1.6-12.3-2.9-23.3-3.2-25.1,4.1-.1.3-.1.7-.2,1a4.3,4.3,0,0,0,0,1.6v.5a.9.9,0,0,0,.1.5v.1a3.09,3.09,0,0,0,.2.8c.1.2.1.5.2.7a10.09,10.09,0,0,0,.7,1.5c.1.1.1.2.2.4s.2.3.3.5.2.3.3.4.2.3.3.4c.2.3.4.5.6.8s.3.4.5.6.1.2.2.2l.6.6.6.6c.5.5,1.1,1,1.7,1.5.2.2.4.3.6.5.4.4.9.7,1.3,1.1a8.65,8.65,0,0,0,1,.7l1,.7a5.55,5.55,0,0,1,.8.6,53,53,0,0,0,4.7,2.8l1.2.6a16.18,16.18,0,0,1,1.8,1c2.2,1.1,4.6,2.2,6.9,3.2.8.4,1.7.7,2.6,1.1.7.3,1.5.6,2.2.9.1,0,.2.1.3.1.6.2,1.3.5,1.9.7a1.42,1.42,0,0,0,.6.2l1.5.6c6.2,2.3,11.8,4.1,15.3,5.2.4.1.7.2,1,.3s.3.1.5.2a2.34,2.34,0,0,1,1.5,3.1l-3,7.8a2.42,2.42,0,0,1-3.3,1.3l-.6-.3c-.3-.2-.7-.3-1-.5a9.25,9.25,0,0,1-1-.5c-.7-.3-1.4-.7-2.2-1.1-.5-.2-1-.5-1.5-.7-.7-.4-1.5-.7-2.3-1.1a.1.1,0,0,1-.1-.1c-3.7-1.8-8-3.8-12.6-5.8-.4-.2-.8-.3-1.2-.5-1-.4-2-.9-3-1.3-1.3-.6-2.6-1.1-3.9-1.6-1.5-.6-2.9-1.1-4.4-1.7a107.26,107.26,0,0,0-11.9-3.8c-.3-.1-.6-.1-.9-.2a14.16,14.16,0,0,0-2-.4c-.9-.2-1.7-.3-2.5-.4-.3,0-.5-.1-.8-.1s-.5-.1-.8-.1-.7-.1-1.1-.1h-.9a9.15,9.15,0,0,0-1.7.1,8,8,0,0,0-1.8.4c-.2.1-.4.1-.5.2a7.26,7.26,0,0,0-.9.5,4.43,4.43,0,0,0-1.2,1.5,9.09,9.09,0,0,0-.8,3.9v.8a11.19,11.19,0,0,0,1.4,4.5c.1.2.3.5.4.7a14.8,14.8,0,0,0,2.2,2.9c.2.2.3.4.5.6a4.62,4.62,0,0,0,.7.7l.6.6.6.6a38.63,38.63,0,0,0,3.8,3,5.5,5.5,0,0,1,.9.7,5.58,5.58,0,0,0,.8.5,81.16,81.16,0,0,0,8.8,5,10.91,10.91,0,0,1,1.1.6c2.3,1.1,4.7,2.2,7.1,3.1a24.43,24.43,0,0,1,2.4,1h.1c.7.3,1.4.5,2.1.8q4.35,1.5,8.4,2.7c.4.1.8.2,1.1.3l1.2.3c.6.2,1.2.3,1.8.5l1.3.3a3.55,3.55,0,0,0,1,.2.37.37,0,0,1,.3.1c.6.1,1.2.3,1.8.4.3.1.6.1.8.2h.2c.2,0,.4.1.7.1s.6.1.8.2c.4.1.8.1,1.2.2a.76.76,0,0,1,.4.1,2.41,2.41,0,0,1,1.7,3.2l-1.1,2.9h0l-.3.7-.4,1.1a2.42,2.42,0,0,1-2.6,1.5,1.61,1.61,0,0,1-.9-.3c-11.7-6-49.9-23.4-52.2-11.6a8.17,8.17,0,0,0-.1,2.7,1166137699054.18,1166137699054.18,0,0,1,.2,1v.1c0,.2.1.3.1.5a10.24,10.24,0,0,0,1.1,2.7c.1.2.2.3.3.5a22,22,0,0,0,3,4l.5.5a2.65,2.65,0,0,1,.5.6l.6.6.2.2.6.6a4.35,4.35,0,0,0,.7.6c.2.2.5.4.7.6h0l1.5,1.2a5.55,5.55,0,0,0,.8.6l8.2,3.8h.1l3.7,1.7h0l1.3.6h.1l1.1.5h0l16.3,7.5h.1c.9.2,1.9.4,2.7.6a2.4,2.4,0,0,1,1.8,3.2l-1.1,2.8h0l-.5,1.4h0c-.9-.3-48.4-16.1-52.7-11.7-4.1,4.2-4,9.9,4.9,13.9h.1c.8.3,1.6.7,2.4,1h0l1,.3c6.8,2.3,18.8,4.7,27.8,6.3a11.92,11.92,0,0,1,8.5,5.9h0a2.46,2.46,0,0,1,.9,1.9,1.49,1.49,0,0,1-.2.9l-.2.5c0,.1-.1.1-.1.2h0a4.34,4.34,0,0,1-1.2,1.7c-.3.2-.5.4-.8.6h0a5.47,5.47,0,0,1-2.9.8h-87.9a5.34,5.34,0,0,1-5-7.3l13.1-33.7,37.1-95.4,23.8-61.1a5.3,5.3,0,0,1,5-3.4h87.9A5.64,5.64,0,0,1,1233.7,1456.7Z" transform="translate(-48.1)" fill="none" stroke="#000" stroke-linecap="round" stroke-linejoin="round" stroke-width="5"/>
          </g>
          <g clip-path="url(#clip-path)">
            <path d="M888.4,1498.1c.8,3.4,1,8.4.5,14.5" transform="translate(-48.1)" fill="none" stroke="#000" stroke-linecap="round" stroke-linejoin="round" stroke-width="5"/>
          </g>
          <g clip-path="url(#clip-path)">
            <path d="M885.6,1534.5c1.7,14.2-2.1,51-2.6,56.4-.5,5.6-6.7,38.4-6.7,38.4s-.5,14.5-4.9,21.5c0,0,5.3,9.4,5.7,20h0l.3,1.5h0" transform="translate(-48.1)" fill="none" stroke="#000" stroke-linecap="round" stroke-linejoin="round" stroke-width="5"/>
          </g>
          <g clip-path="url(#clip-path)">
            <line x1="463.2" y1="1745.1" x2="450.4" y2="1757.9" fill="none" stroke="#000" stroke-linecap="round" stroke-linejoin="round" stroke-width="5"/>
          </g>
          <g clip-path="url(#clip-path)">
            <polyline points="543.2 1847.4 543.2 1848.2 543.1 1855.8" fill="none" stroke="#000" stroke-linecap="round" stroke-linejoin="round" stroke-width="5"/>
          </g>
          <g clip-path="url(#clip-path)">
            <path d="M591,1857.5a3.93,3.93,0,0,0,.2-.6h0v-1c0-1.4.1-4,.1-7.7" transform="translate(-48.1)" fill="none" stroke="#000" stroke-linecap="round" stroke-linejoin="round" stroke-width="5"/>
          </g>
          <g clip-path="url(#clip-path)">
            <line x1="542.2" y1="1859.1" x2="521.2" y2="1911.6" fill="none" stroke="#000" stroke-linecap="round" stroke-linejoin="round" stroke-width="5"/>
          </g>
          <g clip-path="url(#clip-path)">
            <line x1="520.9" y1="1912.4" x2="510.6" y2="1935.7" fill="none" stroke="#000" stroke-linecap="round" stroke-linejoin="round" stroke-width="5"/>
          </g>
          <g clip-path="url(#clip-path)">
            <path d="M868.6,1854.7h0a16,16,0,0,1-.5-2.1h0a.76.76,0,0,0-.2-.5" transform="translate(-48.1)" fill="none" stroke="#000" stroke-linecap="round" stroke-linejoin="round" stroke-width="5"/>
          </g>
          <g clip-path="url(#clip-path)">
            <path d="M863.2,1851c-.3,2.3-.6,4.9-.9,7.7" transform="translate(-48.1)" fill="none" stroke="#000" stroke-linecap="round" stroke-linejoin="round" stroke-width="5"/>
          </g>
          <g clip-path="url(#clip-path)">
            <path d="M722,2886.2h0" transform="translate(-48.1)" fill="none" stroke="#000" stroke-linecap="round" stroke-linejoin="round" stroke-width="5"/>
          </g>
          <g clip-path="url(#clip-path)">
            <path d="M688.7,1858.6a79.6,79.6,0,0,0-17.8-11,84,84,0,0,0-31.5-7.7" transform="translate(-48.1)" fill="none" stroke="#000" stroke-linecap="round" stroke-linejoin="round" stroke-width="5"/>
          </g>
          <g clip-path="url(#clip-path)">
            <path d="M826.4,2408.8c2.3-6.9,2.3-2.8,9.7-13.3s15.1-40.2,24.1-59.5,23.8-67.6,29-86.1c.9-3.3,2.1-8.4,3.3-14.5" transform="translate(-48.1)" fill="none" stroke="#000" stroke-linecap="round" stroke-linejoin="round" stroke-width="5"/>
          </g>
          <g clip-path="url(#clip-path)">
            <path d="M832.1,2341.1s-12.3,68.2-5.6,88.7-2.3,42.3-9.2,51.8-21.3,21-25.1,43-3.6,31.3-9.7,65.1-41,130.7-44.1,135.8-17.9,49.7-20,58.9-25.4,13.3,0,49.2,67.6,51.8,90.7,56.4" transform="translate(-48.1)" fill="none" stroke="#000" stroke-linecap="round" stroke-linejoin="round" stroke-width="5"/>
          </g>
          <g clip-path="url(#clip-path)">
            <path d="M744,2797.9c-5.4-2.4-10-2-13.8,1.4a24.31,24.31,0,0,0-5.4,6.9c-.4.7-.7,1.4-1.1,2.2a9.13,9.13,0,0,0-.8,1.3h-5a113,113,0,0,1-26,0,90.27,90.27,0,0,1-14.9-3.2,6.89,6.89,0,0,1-.8-.3H662.6c-2.9-.6-5.7-1.1-8.6-1.5l-4.8-.6a7.57,7.57,0,0,1-1.5-.1c-.1.5,0,1.2-.7,1.2-.3-.1-.7-.8-1-1.2a11.08,11.08,0,0,0-1.9-.2c-.6,1.8-1.9,1.6-3.3.6-.8.1-1.7.3-2.5.4-1.9.2-2.4,1.5-2.4,3.2-.2,5.8-1.9,11.4-1.4,17.4.3.7.5,1.3-.3,1.8v.9c0,.3.1.6.1.9a3,3,0,0,1,.4.8c-3.5.2-.5,2.4-.8,3.5-1.8,6.7.4,13.6.6,20.4.3,8.2,4.9,15.7,5.1,23.8,0,1.1.5,1.9,1.8,1.8a99.31,99.31,0,0,0,2.1,14.5c-.8,4.7-1.7,8.7-2.8,10.7-3.6,6.4,26.3,10,26.3,10s12.6,2.9,19.5-1.1c1.1.2,2.2.3,3.3.4a3.55,3.55,0,0,0,.4-.9,15.09,15.09,0,0,0,2.3,1.1c3.9,1.5,13.3,4.4,34,7.1,2.3.3,4.5.6,6.8.8,12.3,3.7,24.5,7.9,37,10.2,7,1.3,14.1,2.9,21.2,2.1h1.7a4.13,4.13,0,0,0,4.4.2,21.75,21.75,0,0,1,2.5.1c1.8,1.1,3.6.7,5.3.1h2.5c2.1,1.2,4.1.6,6.1.1l2.6.3c2.4.8,4.6.2,6.9-.4h1.6c1,1,2.2.6,3.3.6a700.74,700.74,0,0,0,72.7-5.8c8.9-1.1,18.2-1.8,25.6-7.1,2.4-1.7,3.7-3.9,3.3-6.8-.4-2.3-1.8-4.3-4.7-4.1,1.2-1.4,2.3-2.8,3.4-4.2,2-3.3.3-9.9-3.5-13.1-.9-.7-2.1-1.1-2.3-2.4-1.9-9.6-9.4-14-17.5-17.5-10.6-4.7-21.6-7.9-32.7-10.7-3.2-.8-6.6-.9-9.5-2.2-3.5-1.7-7.2-2.1-10.8-3a97.19,97.19,0,0,1-34.3-16.1,14.65,14.65,0,0,0-7.3-7c-.6.1-.9-.2-1-.8a8.74,8.74,0,0,0-1-.8,9.74,9.74,0,0,0-1.1-.5l-.6-.3c-1.2-1.8-4.2-2.5-3.6-5.4.2-.7-.8-1.5-1.8-1.5-5.4.2-8.5-2.9-10.6-7.5-.5-1.1-1.1-2.1-2.5-2.1-5-.1-8.2-2.5-9.4-7.5-.2-.9-1-2-1.7-1.6-2.9,2-5-1.6-7.5-1.5-.6-.6-1.7-1.2-1.8-1.8-.7-4.7-3.9-6.5-8.1-8.6-4.8-2.5-5.8-3.4-8.4.8-1.4,2.3-2.4,1.9-4.6.5-.8-1-2,1.8-3.1,1.3" transform="translate(-48.1)" fill="#fff"/>
          </g>
          <g clip-path="url(#clip-path)">
            <path d="M744,2797.9c-5.4-2.4-10-2-13.8,1.4a24.31,24.31,0,0,0-5.4,6.9c-.4.7-.7,1.4-1.1,2.2a9.13,9.13,0,0,0-.8,1.3h-5a113,113,0,0,1-26,0,90.27,90.27,0,0,1-14.9-3.2,6.89,6.89,0,0,1-.8-.3H662.6c-2.9-.6-5.7-1.1-8.6-1.5l-4.8-.6a7.57,7.57,0,0,1-1.5-.1c-.1.5,0,1.2-.7,1.2-.3-.1-.7-.8-1-1.2a11.08,11.08,0,0,0-1.9-.2c-.6,1.8-1.9,1.6-3.3.6-.8.1-1.7.3-2.5.4-1.9.2-2.4,1.5-2.4,3.2-.2,5.8-1.9,11.4-1.4,17.4.3.7.5,1.3-.3,1.8v.9c0,.3.1.6.1.9a3,3,0,0,1,.4.8c-3.5.2-.5,2.4-.8,3.5-1.8,6.7.4,13.6.6,20.4.3,8.2,4.9,15.7,5.1,23.8,0,1.1.5,1.9,1.8,1.8a99.31,99.31,0,0,0,2.1,14.5c-.8,4.7-1.7,8.7-2.8,10.7-3.6,6.4,26.3,10,26.3,10s12.6,2.9,19.5-1.1c1.1.2,2.2.3,3.3.4a3.55,3.55,0,0,0,.4-.9,15.09,15.09,0,0,0,2.3,1.1c3.9,1.5,13.3,4.4,34,7.1,2.3.3,4.5.6,6.8.8,12.3,3.7,24.5,7.9,37,10.2,7,1.3,14.1,2.9,21.2,2.1h1.7a4.13,4.13,0,0,0,4.4.2,21.75,21.75,0,0,1,2.5.1c1.8,1.1,3.6.7,5.3.1h2.5c2.1,1.2,4.1.6,6.1.1l2.6.3c2.4.8,4.6.2,6.9-.4h1.6c1,1,2.2.6,3.3.6a700.74,700.74,0,0,0,72.7-5.8c8.9-1.1,18.2-1.8,25.6-7.1,2.4-1.7,3.7-3.9,3.3-6.8-.4-2.3-1.8-4.3-4.7-4.1,1.2-1.4,2.3-2.8,3.4-4.2,2-3.3.3-9.9-3.5-13.1-.9-.7-2.1-1.1-2.3-2.4-1.9-9.6-9.4-14-17.5-17.5-10.6-4.7-21.6-7.9-32.7-10.7-3.2-.8-6.6-.9-9.5-2.2-3.5-1.7-7.2-2.1-10.8-3a97.19,97.19,0,0,1-34.3-16.1,14.65,14.65,0,0,0-7.3-7c-.6.1-.9-.2-1-.8a8.74,8.74,0,0,0-1-.8,9.74,9.74,0,0,0-1.1-.5l-.6-.3c-1.2-1.8-4.2-2.5-3.6-5.4.2-.7-.8-1.5-1.8-1.5-5.4.2-8.5-2.9-10.6-7.5-.5-1.1-1.1-2.1-2.5-2.1-5-.1-8.2-2.5-9.4-7.5-.2-.9-1-2-1.7-1.6-2.9,2-5-1.6-7.5-1.5-.6-.6-1.7-1.2-1.8-1.8-.7-4.7-3.9-6.5-8.1-8.6-4.8-2.5-5.8-3.4-8.4.8-1.4,2.3-2.4,1.9-4.6.5-.8-1-2,1.8-3.1,1.3" transform="translate(-48.1)" fill="none" stroke="#000" stroke-linecap="round" stroke-linejoin="round" stroke-width="5"/>
          </g>
          <g clip-path="url(#clip-path)">
            <path d="M822.4,2468.2s-25.7,6.1-36.8,7.2" transform="translate(-48.1)" fill="none" stroke="#000" stroke-linecap="round" stroke-linejoin="round" stroke-width="5"/>
          </g>
          <g clip-path="url(#clip-path)">
            <path d="M864.3,1858.6a4.28,4.28,0,0,0,4.3-4c7.5,29.5,20.9,92,23.9,107.7,3.8,19.7,3.8,15.5,5.2,32.6,1.4,17.8-4.6,20.5-2.6,43.3s1.6,62.8,6.6,92.7c2.8,17,.1,46.9-3.7,73.1-1.7,11.6-3.6,22.4-5.3,31v.3c-.9,5.4-13,75.3-17.4,111.2-4.6,37.3-57.6,175.3-72.8,242.1s-9.9,38.4-29.8,125.3-31,89.9-31,89.9H695a75.77,75.77,0,0,1,6.9-33.3c18.4-40,36.9-199.9,36.9-199.9s8.7-28.2,12.3-39,13.8-30.2,23.6-55.3a101.81,101.81,0,0,0,5.8-22c3.2-19.5,2.8-42.1,5.2-73.4,3.3-43.6,3.3-52.3,0-66.6s-4.3-60.5-6.9-71.7c-1.1-4.9-1-20.8,0-38.7,1.2-23.2,3.9-49.8,6.9-60.8,2.8-10.3.3-33.8-4.2-57.2a5.21,5.21,0,0,0,1.4.2c6.9,1.1,27.8,3.4,33.8-9.2,6.5-13.6,6.9-14.5,9.2-40.1v-.4c0-.4.1-.8.1-1.2.1-1.2.2-2.5.4-3.8" transform="translate(-48.1)" fill="#fff"/>
          </g>
          <g clip-path="url(#clip-path)">
            <path d="M864.3,1858.6a4.28,4.28,0,0,0,4.3-4c7.5,29.5,20.9,92,23.9,107.7,3.8,19.7,3.8,15.5,5.2,32.6,1.4,17.8-4.6,20.5-2.6,43.3s1.6,62.8,6.6,92.7c2.8,17,.1,46.9-3.7,73.1-1.7,11.6-3.6,22.4-5.3,31v.3c-.9,5.4-13,75.3-17.4,111.2-4.6,37.3-57.6,175.3-72.8,242.1s-9.9,38.4-29.8,125.3-31,89.9-31,89.9H695a75.77,75.77,0,0,1,6.9-33.3c18.4-40,36.9-199.9,36.9-199.9s8.7-28.2,12.3-39,13.8-30.2,23.6-55.3a101.81,101.81,0,0,0,5.8-22c3.2-19.5,2.8-42.1,5.2-73.4,3.3-43.6,3.3-52.3,0-66.6s-4.3-60.5-6.9-71.7c-1.1-4.9-1-20.8,0-38.7,1.2-23.2,3.9-49.8,6.9-60.8,2.8-10.3.3-33.8-4.2-57.2a5.21,5.21,0,0,0,1.4.2c6.9,1.1,27.8,3.4,33.8-9.2,6.5-13.6,6.9-14.5,9.2-40.1v-.4c0-.4.1-.8.1-1.2.1-1.2.2-2.5.4-3.8" transform="translate(-48.1)" fill="none" stroke="#000" stroke-linecap="round" stroke-linejoin="round" stroke-width="5"/>
          </g>
          <g clip-path="url(#clip-path)">
            <path d="M781.4,2086.1c-.6-.1-1-.2-1-.2" transform="translate(-48.1)" fill="none" stroke="#000" stroke-linecap="round" stroke-linejoin="round" stroke-width="5"/>
          </g>
          <g clip-path="url(#clip-path)">
            <path d="M889.2,1512h0s-5.6,18-3.6,22.5c1.7,14.2-2.1,51-2.6,56.4-.5,5.6-6.7,38.4-6.7,38.4s-.5,14.5-4.9,21.5c0,0,5.3,9.4,5.7,20h0l.3,1.5h0" transform="translate(-48.1)" fill="none" stroke="#000" stroke-linecap="round" stroke-linejoin="round" stroke-width="5"/>
          </g>
          <g clip-path="url(#clip-path)">
            <path d="M977.2,1619.2a48.37,48.37,0,0,1,2.8,9.6" transform="translate(-48.1)" fill="none" stroke="#000" stroke-linecap="round" stroke-linejoin="round" stroke-width="5"/>
          </g>
          <g clip-path="url(#clip-path)">
            <path d="M575.3,1588.8c-3.6,14.9-21.6,70.2-32.8,101.5-2.3,6.5-4.4,12-5.9,15.8a39,39,0,0,1-1.9,4.1c-9.7,17.8-28,15.5-29.7,27.7-1.8,13.1,6.2,7.2,6.2,7.2,38.4,47.7,16.4,90.7,21.5,108.1s13.6,19.7,21.5,66.1a81.52,81.52,0,0,0,4.4,16.4c12.1,32.3,38.7,39.5,38.7,39.5a244.4,244.4,0,0,0-10.2,33.1c-3.9,17.1-50.7,13.5-50.7,13.5-2.3-25.4-50.7-74-67.1-86.1s-27.2-37.9-34.3-48.7-29.7-88.6-29.7-88.6-7.4-22.8-13.3-41,27.7-40.7,34.3-108.1c2.9-29.1,7.9-49.9,12.6-64.1a166.38,166.38,0,0,0,7.7-68.6h0a55,55,0,0,1,.9-16.2l14.2-64.5s22.9-20.6,34.5-29.3a25.77,25.77,0,0,1,7-3.9h0c1.1-.1,17.9-2.3,24.4,5.3a14.31,14.31,0,0,1,1.1,1.5.1.1,0,0,0,.1.1c5.5,9.8,24,37.1,31.8,55.4" transform="translate(-48.1)" fill="none" stroke="#000" stroke-linecap="round" stroke-linejoin="round" stroke-width="5"/>
          </g>
          <g clip-path="url(#clip-path)">
            <path d="M929.5,1544.4a.44.44,0,0,1-.1.3" transform="translate(-48.1)" fill="none" stroke="#000" stroke-linecap="round" stroke-linejoin="round" stroke-width="5"/>
          </g>
          <g clip-path="url(#clip-path)">
            <path d="M854.9,1240.1c-1.5,17.6-3.2,7.4-5.6,26.1-.2,1.5-.4,2.8-.5,4.1v.1c-.1.6-.3,1.2-.4,1.7-.8,3.5-1.5,7-2.2,10.5v.2h0c-5.2,26.6-7.9,52.4-12,59.9-3.3,6.1-15.5,7.2-26.7,6.7-4.1-.2-8.1-.6-11.5-1h0c-6-.7-10.2-1.6-10.2-1.6-.2,0-.4-.1-.7-.1-12.2-2.5-49.9-26.6-65.4-47.7a40.2,40.2,0,0,1-5.8-10.6c-3.9-12-1.9-19.9.9-28.8,6.3-7.1,5-19.5,5-19.5,1.7,8.1,6.1-9.5,9.8,3.9a34,34,0,0,1,1.3,7.4c.6-1.8,1.2-3.9,2-6.3,4.3-13.9,0-21.1-5.5-40s-.8-5.5,1.8-21.4a39.24,39.24,0,0,1,1-4.3c2.1-7.1,12.7-5,12,2.4-3,30.9,6.2,40.4,12.7,58.4,7.4,20.1,3.7,12.9,2.9,28.7-.3,5-.9,8.2-1.7,10.2,10.7-10.8,8.5-30.6,9.9-37.9,1.6-8.1-5-19-6.1-26.3s-3.6-9.8-5.2-24.3-.2-13.8-.2-22.4,1.9-8.3,12.3-11.2,6.6.4,17.3,4.1,22.5,7.4,22.5,7.4c27.3.9,41.1-3.1,41.1-3.1s3.3,1.3,3.3,3c0,.7.9,1.5,2.2,3.1,1.8,6,3.7,11,5.4,15.2h0a1.27,1.27,0,0,0,.1.6c1.3,14.2-1,14.1,1,30.7S856.5,1222.6,854.9,1240.1Z" transform="translate(-48.1)" fill="none" stroke="#000" stroke-linecap="round" stroke-linejoin="round" stroke-width="5"/>
          </g>
          <g clip-path="url(#clip-path)">
            <path d="M740.6,1401.1c-1.6-2.4-.5-1.7-1.8-4.2-2.1-3.9-6.6-7.5-12-10.3a103.43,103.43,0,0,0-9.9-4.5s4.6,0-2.3-1.9h0c-6.2-5.1-23.1-19-27-22-4.9-3.7-15.2-14.6-20.2-18.1-3.4-2.3-10.1-11.3-14.2-16.9a60.79,60.79,0,0,0,8.1-11.1h.7c3.8-.2,6.8-.6,6.8-.6s7-21.6,7.8-1.8c.4,9.7-2.3,14.6-5.2,17.1,3.3-1.5,8.2-3.9,15.2-7.4,16.4-8.4,2.2-21.1,5.2-34.3s2.4-23.5,11-39h0a31.25,31.25,0,0,1,5-6c4.5-4.1,5.4-22.1,5.5-34.7a6,6,0,0,1,1.2,1.1c2,26.5-3.1,51.1-4.6,56.2a.53.53,0,0,0,.7.6,13.82,13.82,0,0,0,4.3-3.2c-2.8,8.8-4.9,16.8-.9,28.8a37.34,37.34,0,0,0,5.8,10.6" transform="translate(-48.1)" fill="none" stroke="#000" stroke-linecap="round" stroke-linejoin="round" stroke-width="5"/>
          </g>
          <g clip-path="url(#clip-path)">
            <path d="M786.3,1447.4c7.6-12.5,2.1-80.9-.7-86.1" transform="translate(-48.1)" fill="none" stroke="#000" stroke-linecap="round" stroke-linejoin="round" stroke-width="2"/>
          </g>
          <g clip-path="url(#clip-path)">
            <path d="M715.7,1312.1c-5.3,18.5,2.8,34.9,2.8,34.9,13,35.8,47.2,50.9,51.5,62.5,1.3,3.6,2.4,7.6,3.5,11,1.2,3.8.9,10.3,10.2,22,12.3,15.5,1.9,95,1.9,95" transform="translate(-48.1)" fill="none" stroke="#000" stroke-linecap="round" stroke-linejoin="round" stroke-width="2"/>
          </g>
          <g clip-path="url(#clip-path)">
            <path d="M853,1171.5c-.8-2.8-1.7-5.8-2.5-9-10.2-42-81-65.1-127.1-54.3-18.5,4.3-32.4,11.2-42.4,23.3-.1.1-.2.3-.3.4h0a55,55,0,0,0-4.6,6.6c-.4.6-.8,1.3-1.2,2h0c-10.4,18.4-14.8,46.2-14.5,88.7.1,14,11.8,37.7,8.7,51.2-.8,3.4-.9,7.7-1.6,12.7-.1.4-.1.8-.2,1.2h0a54.91,54.91,0,0,1-3.5,12.8,13,13,0,0,1-.8,1.7c-.3.7-.7,1.4-1,2.1-.2.4-.5.9-.7,1.4" transform="translate(-48.1)" fill="none" stroke="#000" stroke-linecap="round" stroke-linejoin="round" stroke-width="5"/>
          </g>
          <g clip-path="url(#clip-path)">
            <path d="M630.8,1375.8s-7.7-1.4-14,0-11.4,6.2-29.2,11.5c-16.8,5.1-23.3,9.3-40.3,12.4a65.75,65.75,0,0,0-5.2,6.2s-5.9.6-13.7,1.9c-.3,0-.5.1-.8.1-6.5-7.6-23.2-5.4-24.4-5.3h0a25.77,25.77,0,0,0-7,3.9c28.5-26.6,92-40.7,92-40.7a317.74,317.74,0,0,1,29.7-17.3c2.5-1.3,4.8-2.5,7.1-3.8v.2C623.8,1352.5,628.4,1368.3,630.8,1375.8Z" transform="translate(-48.1)" fill="none" stroke="#000" stroke-linecap="round" stroke-linejoin="round" stroke-width="5"/>
          </g>
          <g clip-path="url(#clip-path)">
            <path d="M858.4,1186.7c3.4,8.2,6.3,13.8,7.6,19.6a5.07,5.07,0,0,1,.2,1.3c.2,1.1.3,2.2.4,3.4v1.4a32.81,32.81,0,0,1-1.5,9.7c-.2.7-.4,1.4-.7,2.2a92.42,92.42,0,0,1-4.9,12c-4.6,9.8-8.1,21.7-10.9,34.1" transform="translate(-48.1)" fill="none" stroke="#000" stroke-linecap="round" stroke-linejoin="round" stroke-width="5"/>
          </g>
          <g clip-path="url(#clip-path)">
            <path d="M536.4,2021.9c2.2,23.9,31.6,46,52.1,66.8,1.3,1.3,2.5,2.6,3.7,3.9" transform="translate(-48.1)" fill="none" stroke="#000" stroke-linecap="round" stroke-linejoin="round" stroke-width="5"/>
          </g>
          <g clip-path="url(#clip-path)">
            <path d="M822.9,1853.7c-1.1-1.9-3.1-2.6-5.4-4.7" transform="translate(-48.1)" fill="none" stroke="#000" stroke-linecap="round" stroke-linejoin="round" stroke-width="5"/>
          </g>
          <g clip-path="url(#clip-path)">
            <path d="M707.7,1203.5a7.45,7.45,0,0,1,5.5,1.7" transform="translate(-48.1)" fill="none" stroke="#000" stroke-linecap="round" stroke-linejoin="round" stroke-width="5"/>
          </g>
          <g clip-path="url(#clip-path)">
            <path d="M714.3,1206.2c2.9,3.1,5.8,9.6,6,22.9.2,13.6-3,22.5-5.6,30.7" transform="translate(-48.1)" fill="none" stroke="#000" stroke-linecap="round" stroke-linejoin="round" stroke-width="5"/>
          </g>
          <g clip-path="url(#clip-path)">
            <path d="M868.6,1838.7l-.4,13.8q0-.15-.3-.3h0c-.6-.4-2.2-.8-4.8-1.1a15,15,0,0,0-2.2-.2,1.27,1.27,0,0,1-.6-.1c-.6-.1-1.3-.1-1.9-.2-1.4-.1-2.9-.2-4.6-.3-.5,0-1.1-.1-1.6-.1h-.1c-.6,0-1.3-.1-2-.1s-1.2-.1-1.8-.1c-1.5-.1-3.1-.1-4.8-.2h-1.7c-.6,0-1.3-.1-1.9-.1-.8,0-1.7-.1-2.6-.1H836a24.37,24.37,0,0,1-2.7-.1c-1.4,0-2.8-.1-4.2-.1l-6.3-.2c-1.8,0-3.6-.1-5.4-.1h-5.1a23.48,23.48,0,0,1-2.6-.1h-2.6c-2.6,0-5.4-.1-8.2-.1h-14c-1.4,0-2.8,0-4.3-.1h-4.9c-1.7,0-3.4,0-5.1-.1-5.4-.1-11-.1-16.8-.2H722.7c-5,0-10.2-.1-15.5-.1H695.9c-3.3,0-6.7,0-10.1-.1h-2.2c-4.2,0-8.4-.1-12.7-.1-13.3-.1-27.4-.1-42.1-.2v-6.5h-6.3v6.4c-9.1,0-18.6-.1-28.2-.2a5.29,5.29,0,0,0-3,.9v-9.5H868.6v-.4Z" transform="translate(-48.1)" fill="#fff"/>
          </g>
          <g clip-path="url(#clip-path)">
            <path d="M868.6,1838.7l-.4,13.8q0-.15-.3-.3h0c-.6-.4-2.2-.8-4.8-1.1a15,15,0,0,0-2.2-.2,1.27,1.27,0,0,1-.6-.1c-.6-.1-1.3-.1-1.9-.2-1.4-.1-2.9-.2-4.6-.3-.5,0-1.1-.1-1.6-.1h-.1c-.6,0-1.3-.1-2-.1s-1.2-.1-1.8-.1c-1.5-.1-3.1-.1-4.8-.2h-1.7c-.6,0-1.3-.1-1.9-.1-.8,0-1.7-.1-2.6-.1H836a24.37,24.37,0,0,1-2.7-.1c-1.4,0-2.8-.1-4.2-.1l-6.3-.2c-1.8,0-3.6-.1-5.4-.1h-5.1a23.48,23.48,0,0,1-2.6-.1h-2.6c-2.6,0-5.4-.1-8.2-.1h-14c-1.4,0-2.8,0-4.3-.1h-4.9c-1.7,0-3.4,0-5.1-.1-5.4-.1-11-.1-16.8-.2H722.7c-5,0-10.2-.1-15.5-.1H695.9c-3.3,0-6.7,0-10.1-.1h-2.2c-4.2,0-8.4-.1-12.7-.1-13.3-.1-27.4-.1-42.1-.2v-6.5h-6.3v6.4c-9.1,0-18.6-.1-28.2-.2a5.29,5.29,0,0,0-3,.9v-9.5H868.6v-.4Z" transform="translate(-48.1)" fill="none" stroke="#000" stroke-linecap="round" stroke-linejoin="round" stroke-width="5"/>
          </g>
          <g clip-path="url(#clip-path)">
            <path d="M868.6,1854.3v.4h0a4.43,4.43,0,0,1-4.3,4l3.8-6h0l.1-.2A3.66,3.66,0,0,1,868.6,1854.3Z" transform="translate(-48.1)" fill="none" stroke="#000" stroke-linecap="round" stroke-linejoin="round" stroke-width="5"/>
          </g>
          <g clip-path="url(#clip-path)">
            <path d="M722.7,1848a89.24,89.24,0,0,1-2,10.7" transform="translate(-48.1)" fill="none" stroke="#000" stroke-linecap="round" stroke-linejoin="round" stroke-width="5"/>
          </g>
          <g clip-path="url(#clip-path)">
            <line x1="850.1" y1="2204.1" x2="849.9" y2="2204.1" fill="none" stroke="#000" stroke-linecap="round" stroke-linejoin="round" stroke-width="5"/>
          </g>
          <g clip-path="url(#clip-path)">
            <path d="M628.8,1858.6v8h-6.3v-8H594.3a4.79,4.79,0,0,1-3.3-1.2c0,.1-.1.2-.1.3a3.55,3.55,0,0,1-.4.9c0,.1-.1.2-.1.3a6.89,6.89,0,0,0-.3.8c-.1.3-.2.5-.3.8-3.5,9.1-12.8,32.5-20.4,50.9-.1.3-.2.5-.3.8-4.6,11.1-8.5,20.3-10.3,23.3,12.2,32.3,38.7,39.5,38.7,39.5a267.53,267.53,0,0,1,38.7,5.8c9,2.2,52.3,4.7,52.3,12.4,0,9.6-55.9,6.3-48.7,7.7,13.8,2.6,4.5,20.2-9.2,43.6-6.5,11.1-29.3,32.5-41.9,44-5.2,4.7-8.7,7.8-8.7,7.8s16,25.1,17.5,40.5c.7,6.7,5.5,17.6,6.3,37.4h0c-.1,1-7.4,69.1,4.6,109.9,12.1,41.1,28.2,118.4,25.5,141.4s-23.4,96.5-25.5,123.8-6.9,70.7-6.9,70.7,5.1,205.6,5.5,207.6c.3,1.3.5,29.4.7,46.1v6.5c3.4.5,6.8,1,10.2,1.7H634c.3.1.7.2,1,.3,2.5.8,5,1.4,7.4,2a93.3,93.3,0,0,0,10.1,1.8H689a14,14,0,0,1,1-1.6c.4-.9.8-1.7,1.2-2.5a29.77,29.77,0,0,1,6.4-8.1c4.5-4,10-4.5,16.3-1.6,0-.1-.1-.2-.1-.3q-.75-2.25-1.8-4.8c-5.2-13.5-15-34.3-16.7-57.3-.2-2-.3-4.1-.3-6.1a75.77,75.77,0,0,1,6.9-33.3c18.4-40,36.9-199.9,36.9-199.9s8.7-28.2,12.3-39,13.8-30.2,23.6-55.3a101.81,101.81,0,0,0,5.8-22c3.2-19.5,2.8-42.1,5.2-73.4,3.3-43.6,3.3-52.3,0-66.6s-4.3-60.5-6.9-71.7c-1.1-4.9-1-20.8,0-38.7,1.2-23.2,3.9-49.8,6.9-60.8,2.8-10.3.3-33.8-4.2-57.2-4.1-21.1-9.9-42.1-15-53.5-10.8-24.1-21.5-57.4-21.5-57.4" transform="translate(-48.1)" fill="#fff"/>
          </g>
          <g clip-path="url(#clip-path)">
            <path d="M628.8,1858.6v8h-6.3v-8H594.3a4.79,4.79,0,0,1-3.3-1.2c0,.1-.1.2-.1.3a3.55,3.55,0,0,1-.4.9c0,.1-.1.2-.1.3a6.89,6.89,0,0,0-.3.8c-.1.3-.2.5-.3.8-3.5,9.1-12.8,32.5-20.4,50.9-.1.3-.2.5-.3.8-4.6,11.1-8.5,20.3-10.3,23.3,12.2,32.3,38.7,39.5,38.7,39.5a267.53,267.53,0,0,1,38.7,5.8c9,2.2,52.3,4.7,52.3,12.4,0,9.6-55.9,6.3-48.7,7.7,13.8,2.6,4.5,20.2-9.2,43.6-6.5,11.1-29.3,32.5-41.9,44-5.2,4.7-8.7,7.8-8.7,7.8s16,25.1,17.5,40.5c.7,6.7,5.5,17.6,6.3,37.4h0c-.1,1-7.4,69.1,4.6,109.9,12.1,41.1,28.2,118.4,25.5,141.4s-23.4,96.5-25.5,123.8-6.9,70.7-6.9,70.7,5.1,205.6,5.5,207.6c.3,1.3.5,29.4.7,46.1v6.5c3.4.5,6.8,1,10.2,1.7H634c.3.1.7.2,1,.3,2.5.8,5,1.4,7.4,2a93.3,93.3,0,0,0,10.1,1.8H689a14,14,0,0,1,1-1.6c.4-.9.8-1.7,1.2-2.5a29.77,29.77,0,0,1,6.4-8.1c4.5-4,10-4.5,16.3-1.6,0-.1-.1-.2-.1-.3q-.75-2.25-1.8-4.8c-5.2-13.5-15-34.3-16.7-57.3-.2-2-.3-4.1-.3-6.1a75.77,75.77,0,0,1,6.9-33.3c18.4-40,36.9-199.9,36.9-199.9s8.7-28.2,12.3-39,13.8-30.2,23.6-55.3a101.81,101.81,0,0,0,5.8-22c3.2-19.5,2.8-42.1,5.2-73.4,3.3-43.6,3.3-52.3,0-66.6s-4.3-60.5-6.9-71.7c-1.1-4.9-1-20.8,0-38.7,1.2-23.2,3.9-49.8,6.9-60.8,2.8-10.3.3-33.8-4.2-57.2-4.1-21.1-9.9-42.1-15-53.5-10.8-24.1-21.5-57.4-21.5-57.4" transform="translate(-48.1)" fill="none" stroke="#000" stroke-linecap="round" stroke-linejoin="round" stroke-width="5"/>
          </g>
          <g clip-path="url(#clip-path)">
            <path d="M706.3,2867.8c-5.4-2.4-10-2-13.8,1.4a24.31,24.31,0,0,0-5.4,6.9c-.4.7-.7,1.4-1.1,2.1a9.13,9.13,0,0,0-.8,1.3h-5a113,113,0,0,1-26,0,90.27,90.27,0,0,1-14.9-3.2,6.89,6.89,0,0,1-.8-.3H624.9c-2.9-.6-5.7-1.1-8.6-1.5l-4.8-.6a7.57,7.57,0,0,1-1.5-.1c-.1.5,0,1.2-.7,1.2-.3-.1-.7-.8-1-1.2a11.08,11.08,0,0,0-1.9-.2c-.6,1.8-1.9,1.6-3.3.6-.8.1-1.7.3-2.5.4-1.9.2-2.4,1.5-2.4,3.2-.2,5.8-1.9,11.4-1.4,17.4.3.7.5,1.3-.3,1.8v.9c0,.3.1.6.1.9a3,3,0,0,1,.4.8c-3.5.2-.5,2.4-.8,3.5-1.8,6.7.4,13.6.6,20.4.3,8.2,4.9,15.7,5.1,23.8,0,1.1.5,1.9,1.8,1.8a99.31,99.31,0,0,0,2.1,14.5c-.8,4.7-1.7,8.7-2.8,10.7-3.6,6.4,26.3,10,26.3,10s12.6,2.9,19.5-1.1c1.1.2,2.2.3,3.3.4a3.55,3.55,0,0,0,.4-.9,15.09,15.09,0,0,0,2.3,1.1c3.9,1.5,13.3,4.4,34,7.1,2.3.3,4.5.6,6.8.8,12.3,3.7,24.5,7.9,37,10.2,7,1.3,14.1,2.9,21.2,2.1h1.7a4.13,4.13,0,0,0,4.4.2,21.75,21.75,0,0,1,2.5.1c1.8,1.1,3.6.7,5.3.1h2.5c2.1,1.2,4.1.6,6.1.1l2.6.3c2.4.8,4.7.2,6.9-.4h1.6c1,1,2.2.6,3.3.6a700.74,700.74,0,0,0,72.7-5.8c8.9-1.1,18.2-1.8,25.6-7.1,2.4-1.7,3.7-3.9,3.3-6.8-.4-2.3-1.8-4.3-4.7-4.1,1.2-1.4,2.3-2.8,3.4-4.2,2-3.3.3-9.9-3.5-13.1-.9-.7-2.1-1.1-2.3-2.4-1.9-9.6-9.4-14-17.5-17.5-10.6-4.7-21.6-7.9-32.7-10.7-3.2-.8-6.6-.9-9.5-2.2-3.5-1.7-7.2-2.1-10.8-3a97.19,97.19,0,0,1-34.3-16.1,14.65,14.65,0,0,0-7.3-7c-.6.1-.9-.2-1-.8a8.74,8.74,0,0,0-1-.8,9.74,9.74,0,0,0-1.1-.5l-.6-.3c-1.2-1.8-4.2-2.5-3.6-5.4.2-.7-.8-1.5-1.8-1.5-5.4.2-8.5-2.9-10.6-7.5-.5-1.1-1.1-2.1-2.5-2.1-5-.1-8.2-2.5-9.4-7.5-.2-.9-1-2-1.7-1.6-2.9,2-5-1.6-7.5-1.6-.6-.6-1.7-1.2-1.8-1.8-.7-4.7-3.9-6.5-8.1-8.6-4.8-2.5-5.8-3.4-8.4.8-1.4,2.3-2.4,1.9-4.6.5-.9-.9-2,2-3.1,1.5" transform="translate(-48.1)" fill="#fff"/>
          </g>
          <g clip-path="url(#clip-path)">
            <path d="M706.3,2867.8c-5.4-2.4-10-2-13.8,1.4a24.31,24.31,0,0,0-5.4,6.9c-.4.7-.7,1.4-1.1,2.1a9.13,9.13,0,0,0-.8,1.3h-5a113,113,0,0,1-26,0,90.27,90.27,0,0,1-14.9-3.2,6.89,6.89,0,0,1-.8-.3H624.9c-2.9-.6-5.7-1.1-8.6-1.5l-4.8-.6a7.57,7.57,0,0,1-1.5-.1c-.1.5,0,1.2-.7,1.2-.3-.1-.7-.8-1-1.2a11.08,11.08,0,0,0-1.9-.2c-.6,1.8-1.9,1.6-3.3.6-.8.1-1.7.3-2.5.4-1.9.2-2.4,1.5-2.4,3.2-.2,5.8-1.9,11.4-1.4,17.4.3.7.5,1.3-.3,1.8v.9c0,.3.1.6.1.9a3,3,0,0,1,.4.8c-3.5.2-.5,2.4-.8,3.5-1.8,6.7.4,13.6.6,20.4.3,8.2,4.9,15.7,5.1,23.8,0,1.1.5,1.9,1.8,1.8a99.31,99.31,0,0,0,2.1,14.5c-.8,4.7-1.7,8.7-2.8,10.7-3.6,6.4,26.3,10,26.3,10s12.6,2.9,19.5-1.1c1.1.2,2.2.3,3.3.4a3.55,3.55,0,0,0,.4-.9,15.09,15.09,0,0,0,2.3,1.1c3.9,1.5,13.3,4.4,34,7.1,2.3.3,4.5.6,6.8.8,12.3,3.7,24.5,7.9,37,10.2,7,1.3,14.1,2.9,21.2,2.1h1.7a4.13,4.13,0,0,0,4.4.2,21.75,21.75,0,0,1,2.5.1c1.8,1.1,3.6.7,5.3.1h2.5c2.1,1.2,4.1.6,6.1.1l2.6.3c2.4.8,4.7.2,6.9-.4h1.6c1,1,2.2.6,3.3.6a700.74,700.74,0,0,0,72.7-5.8c8.9-1.1,18.2-1.8,25.6-7.1,2.4-1.7,3.7-3.9,3.3-6.8-.4-2.3-1.8-4.3-4.7-4.1,1.2-1.4,2.3-2.8,3.4-4.2,2-3.3.3-9.9-3.5-13.1-.9-.7-2.1-1.1-2.3-2.4-1.9-9.6-9.4-14-17.5-17.5-10.6-4.7-21.6-7.9-32.7-10.7-3.2-.8-6.6-.9-9.5-2.2-3.5-1.7-7.2-2.1-10.8-3a97.19,97.19,0,0,1-34.3-16.1,14.65,14.65,0,0,0-7.3-7c-.6.1-.9-.2-1-.8a8.74,8.74,0,0,0-1-.8,9.74,9.74,0,0,0-1.1-.5l-.6-.3c-1.2-1.8-4.2-2.5-3.6-5.4.2-.7-.8-1.5-1.8-1.5-5.4.2-8.5-2.9-10.6-7.5-.5-1.1-1.1-2.1-2.5-2.1-5-.1-8.2-2.5-9.4-7.5-.2-.9-1-2-1.7-1.6-2.9,2-5-1.6-7.5-1.6-.6-.6-1.7-1.2-1.8-1.8-.7-4.7-3.9-6.5-8.1-8.6-4.8-2.5-5.8-3.4-8.4.8-1.4,2.3-2.4,1.9-4.6.5-.9-.9-2,2-3.1,1.5" transform="translate(-48.1)" fill="none" stroke="#000" stroke-linecap="round" stroke-linejoin="round" stroke-width="5"/>
          </g>
          <g clip-path="url(#clip-path)">
            <path d="M822.9,1849.1v9.5H628.8v-11.1c14.7.1,28.7.2,42.1.2l51.8.3c39.8.3,71.3.6,94.8,1h0c1.8,0,3.6.1,5.4.1" transform="translate(-48.1)"/>
          </g>
          <g clip-path="url(#clip-path)">
            <path d="M822.9,1849.1v9.5H628.8v-11.1c14.7.1,28.7.2,42.1.2l51.8.3c39.8.3,71.3.6,94.8,1h0C819.3,1849,821.1,1849.1,822.9,1849.1Z" transform="translate(-48.1)" fill="none" stroke="#000" stroke-linecap="round" stroke-linejoin="round" stroke-width="5"/>
          </g>
          <g clip-path="url(#clip-path)">
            <path d="M622.5,1847.4v11.2H594.3a4.79,4.79,0,0,1-3.3-1.2,5.27,5.27,0,0,1-2-4.1v-.8a5.4,5.4,0,0,1,2.3-4.4h0a5.07,5.07,0,0,1,3-.9c9.7.1,19.1.2,28.2.2" transform="translate(-48.1)"/>
          </g>
          <g clip-path="url(#clip-path)">
            <path d="M622.5,1847.4v11.2H594.3a4.79,4.79,0,0,1-3.3-1.2,5.27,5.27,0,0,1-2-4.1v-.8a5.4,5.4,0,0,1,2.3-4.4h0a5.07,5.07,0,0,1,3-.9C604,1847.3,613.4,1847.4,622.5,1847.4Z" transform="translate(-48.1)" fill="none" stroke="#000" stroke-linecap="round" stroke-linejoin="round" stroke-width="5"/>
          </g>
          <g clip-path="url(#clip-path)">
            <path d="M927,1701.5c3,1.8,1.5,2.1,1.5,2.1" transform="translate(-48.1)" fill="none" stroke="#000" stroke-linecap="round" stroke-linejoin="round" stroke-width="5"/>
          </g>
          <g clip-path="url(#clip-path)">
            <line x1="829.3" y1="1672.4" x2="829.3" y2="1672.4" fill="none" stroke="#000" stroke-linecap="round" stroke-linejoin="round" stroke-width="5"/>
          </g>
          <g clip-path="url(#clip-path)">
            <path d="M1014.5,1734.7s-4.9,3.5-24.6,12.2" transform="translate(-48.1)" fill="none" stroke="#000" stroke-linecap="round" stroke-linejoin="round" stroke-width="5"/>
          </g>
          <g clip-path="url(#clip-path)">
            <path d="M926.9,1701.5c-3.8-7.9-4.1-9.3-4.1-9.3" transform="translate(-48.1)" fill="none" stroke="#000" stroke-linecap="round" stroke-linejoin="round" stroke-width="5"/>
          </g>
          <g clip-path="url(#clip-path)">
            <path d="M1104.7,1613.5l-3.1,8.8q-.75,2.1-1.8,5.1c-4.4,12.6-5.7,12-10.7,23" transform="translate(-48.1)" fill="none" stroke="#000" stroke-linecap="round" stroke-linejoin="round" stroke-width="5"/>
          </g>
          <g clip-path="url(#clip-path)">
            <path d="M1185.2,1530.4c-7.7-5.2-14.2-9.4-14.2-9.4" transform="translate(-48.1)" fill="none" stroke="#000" stroke-linecap="round" stroke-linejoin="round" stroke-width="5"/>
          </g>
          <g clip-path="url(#clip-path)">
            <path d="M1067.1,1605.3s3,1.6,7.8,4c6.5,3.3,16.3,8.2,26.7,12.9,5.9,2.7,11.9,5.4,17.7,7.7" transform="translate(-48.1)" fill="none" stroke="#000" stroke-linecap="round" stroke-linejoin="round" stroke-width="5"/>
          </g>
          <g clip-path="url(#clip-path)">
            <path d="M1121.9,1631c11,4.4,20.8,7.4,25.9,7.1a25.35,25.35,0,0,0,2.9-.4" transform="translate(-48.1)" fill="none" stroke="#000" stroke-linecap="round" stroke-linejoin="round" stroke-width="5"/>
          </g>
          <g clip-path="url(#clip-path)">
            <path d="M1141.4,1532.5l10.2-4.1s6-2.4,12.3-4.7c2.5-.9,4.9-1.9,7.1-2.7s4.1-1.5,5.2-1.8c4.4-1.3,12.8-16.1,17.8-30.4h0c.8-2.4,1.6-4.7,2.2-7,1.6-5.8-1-9.3-5-11.5-5.4-3-13.3-3.4-16.8-3.4h-1.8a157.59,157.59,0,0,0-16.8,22.2c-1.1,1.8-2.2,3.6-3.2,5.5-8.2,15.1-38.4,18.4-38.4,18.4-.8.3-1.5.6-2.2.9" transform="translate(-48.1)" fill="none" stroke="#000" stroke-linecap="round" stroke-linejoin="round" stroke-width="5"/>
          </g>
          <g clip-path="url(#clip-path)">
            <path d="M954.3,1650.8l16.1-31.7s2.7.2,6.7.1" transform="translate(-48.1)" fill="none" stroke="#000" stroke-linecap="round" stroke-linejoin="round" stroke-width="5"/>
          </g>
          <g clip-path="url(#clip-path)">
            <line x1="1027" y1="1549.8" x2="1019" y2="1592.9" fill="none" stroke="#000" stroke-linecap="round" stroke-linejoin="round" stroke-width="5"/>
          </g>
          <g clip-path="url(#clip-path)">
            <path d="M1202.3,1537.5l-1.5,3.8c-4.7-3.5-10.4-7.4-15.6-10.9,9.7,3.6,17.1,7.1,17.1,7.1" transform="translate(-48.1)"/>
          </g>
          <g clip-path="url(#clip-path)">
            <path d="M1202.3,1537.5l-1.5,3.8c-4.7-3.5-10.4-7.4-15.6-10.9C1194.9,1534,1202.3,1537.5,1202.3,1537.5Z" transform="translate(-48.1)" fill="none" stroke="#000" stroke-linecap="round" stroke-linejoin="round" stroke-width="5"/>
          </g>
          <g clip-path="url(#clip-path)">
            <path d="M1129.1,1553a8,8,0,0,0-1.8.4,5.84,5.84,0,0,1,1.8-.4" transform="translate(-48.1)" fill="#fff"/>
          </g>
          <g clip-path="url(#clip-path)">
            <path d="M1129.1,1553a8,8,0,0,0-1.8.4A5.84,5.84,0,0,1,1129.1,1553Z" transform="translate(-48.1)" fill="none" stroke="#000" stroke-linecap="round" stroke-linejoin="round" stroke-width="5"/>
          </g>
          <g clip-path="url(#clip-path)">
            <path d="M1138.8,1527.8c-.1.3-.1.7-.2,1a4.4,4.4,0,0,0,.2-1" transform="translate(-48.1)" fill="#fff"/>
          </g>
          <g clip-path="url(#clip-path)">
            <path d="M1138.8,1527.8c-.1.3-.1.7-.2,1A4.4,4.4,0,0,0,1138.8,1527.8Z" transform="translate(-48.1)" fill="none" stroke="#000" stroke-linecap="round" stroke-linejoin="round" stroke-width="5"/>
          </g>
          <g clip-path="url(#clip-path)">
            <path d="M1156.2,1559.7c-1.5-.6-2.9-1.1-4.4-1.7,1.5.6,2.9,1.2,4.4,1.7" transform="translate(-48.1)" fill="#fff"/>
          </g>
          <g clip-path="url(#clip-path)">
            <path d="M1156.2,1559.7c-1.5-.6-2.9-1.1-4.4-1.7C1153.3,1558.6,1154.7,1559.2,1156.2,1559.7Z" transform="translate(-48.1)" fill="none" stroke="#000" stroke-linecap="round" stroke-linejoin="round" stroke-width="5"/>
          </g>
          <g clip-path="url(#clip-path)">
            <path d="M1164.2,1619.7a42.79,42.79,0,0,0,5.7,1l-2.2,5.6a5,5,0,0,0-3.5-6.6" transform="translate(-48.1)" fill="#fff"/>
          </g>
          <g clip-path="url(#clip-path)">
            <path d="M1164.2,1619.7a42.79,42.79,0,0,0,5.7,1l-2.2,5.6A5,5,0,0,0,1164.2,1619.7Z" transform="translate(-48.1)" fill="none" stroke="#000" stroke-linecap="round" stroke-linejoin="round" stroke-width="5"/>
          </g>
          <g clip-path="url(#clip-path)">
            <path d="M1175.4,1590.6a54.23,54.23,0,0,0,5.9.8l-2.2,5.8a5,5,0,0,0-3.7-6.6" transform="translate(-48.1)" fill="#fff"/>
          </g>
          <g clip-path="url(#clip-path)">
            <path d="M1175.4,1590.6a54.23,54.23,0,0,0,5.9.8l-2.2,5.8A5,5,0,0,0,1175.4,1590.6Z" transform="translate(-48.1)" fill="none" stroke="#000" stroke-linecap="round" stroke-linejoin="round" stroke-width="5"/>
          </g>
          <g clip-path="url(#clip-path)">
            <path d="M1192.8,1561.7l-4.9,12.7s-4.4-2.3-10.9-5.4c5.6,2.7,8.2,1.3,10.5-4.2a9.36,9.36,0,0,0,.4-1.6v-.8c-.1-.7-.4-1.5-1-1.7-7.8-2.2-50.4-15.7-48.2-32-2.2,17.9,54.1,33,54.1,33" transform="translate(-48.1)" fill="#fff"/>
          </g>
          <g clip-path="url(#clip-path)">
            <path d="M1192.8,1561.7l-4.9,12.7s-4.4-2.3-10.9-5.4c5.6,2.7,8.2,1.3,10.5-4.2a9.36,9.36,0,0,0,.4-1.6v-.8c-.1-.7-.4-1.5-1-1.7-7.8-2.2-50.4-15.7-48.2-32C1136.5,1546.6,1192.8,1561.7,1192.8,1561.7Z" transform="translate(-48.1)" fill="none" stroke="#000" stroke-linecap="round" stroke-linejoin="round" stroke-width="5"/>
          </g>
          <g clip-path="url(#clip-path)">
            <path d="M1133.3,1605.5c-.3,0-.5-.4-.8-.6l-1.5-1.2c-.2-.2-.5-.4-.7-.6a4.35,4.35,0,0,0-.7-.6l-.6-.6-.2-.2-.6-.6-.5-.5-.5-.5a22.59,22.59,0,0,1-3-4.1c-.1-.2-.2-.3-.3-.5a15.33,15.33,0,0,1-1.1-2.7.75.75,0,0,1-.1-.5v-.1c0-.2-.1-.3-.1-.5s-.1-.3-.1-.5a8.17,8.17,0,0,1,.1-2.7" transform="translate(-48.1)" fill="#fff"/>
          </g>
          <g clip-path="url(#clip-path)">
            <path d="M1133.3,1605.5c-.3,0-.5-.4-.8-.6l-1.5-1.2c-.2-.2-.5-.4-.7-.6a4.35,4.35,0,0,0-.7-.6l-.6-.6-.2-.2-.6-.6-.5-.5-.5-.5a22.59,22.59,0,0,1-3-4.1c-.1-.2-.2-.3-.3-.5a15.33,15.33,0,0,1-1.1-2.7.75.75,0,0,1-.1-.5v-.1c0-.2-.1-.3-.1-.5s-.1-.3-.1-.5a8.17,8.17,0,0,1,.1-2.7" transform="translate(-48.1)" fill="none" stroke="#000" stroke-linecap="round" stroke-linejoin="round" stroke-width="5"/>
          </g>
          <g clip-path="url(#clip-path)">
            <path d="M1164.1,1621.7c.1,0,.1,0,.2.1.6.3,5.4,2.4,1.2-1.6l-1.3-.5" transform="translate(-48.1)" fill="#fff"/>
          </g>
          <g clip-path="url(#clip-path)">
            <path d="M1164.1,1621.7c.1,0,.1,0,.2.1.6.3,5.4,2.4,1.2-1.6l-1.3-.5" transform="translate(-48.1)" fill="none" stroke="#000" stroke-linecap="round" stroke-linejoin="round" stroke-width="5"/>
          </g>
          <g clip-path="url(#clip-path)">
            <path d="M1121.9,1631c-.1,0-.2-.1-.3-.1-.8-.3-1.5-.6-2.2-.9.9.3,1.7.7,2.5,1" transform="translate(-48.1)"/>
          </g>
          <g clip-path="url(#clip-path)">
            <path d="M1121.9,1631c-.1,0-.2-.1-.3-.1-.8-.3-1.5-.6-2.2-.9C1120.3,1630.3,1121.1,1630.7,1121.9,1631Z" transform="translate(-48.1)" fill="none" stroke="#000" stroke-linecap="round" stroke-linejoin="round" stroke-width="5"/>
          </g>
          <g clip-path="url(#clip-path)">
            <path d="M1173.4,1474.3c-3.3,8.4-12.7,15.2-21.1,15.2s-12.6-6.8-9.3-15.2,12.7-15.2,21.1-15.2,12.6,6.8,9.3,15.2" transform="translate(-48.1)" fill="#ffde00"/>
          </g>
          <g clip-path="url(#clip-path)">
            <path d="M1173.4,1474.3c-3.3,8.4-12.7,15.2-21.1,15.2s-12.6-6.8-9.3-15.2,12.7-15.2,21.1-15.2S1176.7,1465.9,1173.4,1474.3Z" transform="translate(-48.1)" fill="none" stroke="#000" stroke-linecap="round" stroke-linejoin="round" stroke-width="5"/>
          </g>
          <g clip-path="url(#clip-path)">
            <path d="M1219.6,1474.3c-3.3,8.4-12.7,15.2-21.1,15.2s-12.6-6.8-9.3-15.2,12.7-15.2,21.1-15.2,12.5,6.8,9.3,15.2" transform="translate(-48.1)" fill="#fff"/>
          </g>
          <g clip-path="url(#clip-path)">
            <path d="M1219.6,1474.3c-3.3,8.4-12.7,15.2-21.1,15.2s-12.6-6.8-9.3-15.2,12.7-15.2,21.1-15.2S1222.8,1465.9,1219.6,1474.3Z" transform="translate(-48.1)" fill="none" stroke="#000" stroke-linecap="round" stroke-linejoin="round" stroke-width="5"/>
          </g>
          <g clip-path="url(#clip-path)">
            <path d="M1179.1,1620.2s-31.2-7.4-34.1-9-14-7.5-14-7.5" transform="translate(-48.1)" fill="#fff"/>
          </g>
          <g clip-path="url(#clip-path)">
            <path d="M1179.1,1620.2s-31.2-7.4-34.1-9-14-7.5-14-7.5" transform="translate(-48.1)" fill="none" stroke="#000" stroke-linecap="round" stroke-linejoin="round" stroke-width="5"/>
          </g>
          <g clip-path="url(#clip-path)">
            <path d="M1175.7,1600.5s3.1-1.7,3.3-3.3a4.88,4.88,0,0,0-3.7-6.6h0a1.88,1.88,0,0,1-.8-.2,11.63,11.63,0,0,1-1.8-.4.37.37,0,0,1-.3-.1,3,3,0,0,0-1-.2l-1.3-.3a12.09,12.09,0,0,1-1.8-.5l-1.2-.3c-.4-.1-.8-.2-1.1-.3q-4.05-1.2-8.4-2.7c-.7-.3-1.4-.5-2.1-.8a.1.1,0,0,1-.1-.1l-2.4-.9c-2.4-1-4.8-2-7.1-3.1l-1.2-.6a74.55,74.55,0,0,1-8.8-5c-.3-.2-.5-.3-.8-.5a5.5,5.5,0,0,1-.9-.7,42,42,0,0,1-3.8-3l-.6-.6-.6-.6-.7-.7a2.65,2.65,0,0,1-.5-.6,20.14,20.14,0,0,1-2.2-2.9c-.1-.2-.3-.5-.4-.7a11.19,11.19,0,0,1-1.4-4.5v-.8a10.87,10.87,0,0,1,.8-3.9,2.89,2.89,0,0,1,1.2-1.5,4.05,4.05,0,0,1,.9-.5c.2-.1.3-.2.5-.2a8,8,0,0,1,1.8-.4,9.15,9.15,0,0,1,1.7-.1h.9a4.48,4.48,0,0,1,1.1.1c.3,0,.5.1.8.1s.5.1.8.1c.8.1,1.7.3,2.5.4.6.1,1.3.3,2,.4.3.1.6.1.9.2a125.32,125.32,0,0,1,12,3.8c1.5.5,2.9,1.1,4.4,1.7,1.3.5,2.6,1.1,3.9,1.6,1,.4,2,.8,3,1.3.4.2.8.3,1.2.5,4.6,2,8.9,4,12.6,5.8a.1.1,0,0,1,.1.1c6.5,3.1,10.9,5.4,10.9,5.4l4.9-12.7s-56.3-15.2-54.2-32.9a3.55,3.55,0,0,1,.2-1c1.8-7.3,12.8-7.1,25.1-4.1,2,.5,4.1,1,6.1,1.6.7.2,1.4.4,2.2.7s1.5.5,2.3.7c.6.2,1.1.3,1.7.5s.9.3,1.3.5c1.6.5,3.2,1.1,4.7,1.7.4.1.8.3,1.2.4a5.64,5.64,0,0,0,1.2.4.1.1,0,0,1,.1.1,4.05,4.05,0,0,1,.9.5h0c.5.3,1,.7,1.5,1a24.26,24.26,0,0,1,2,1.4c4,2.7,8.1,5.6,11.6,8.2,5.4,4,9.4,7.3,9.8,8.6,1,3.9-10.3,36.2-11.2,38.9,0,.1-.1.2-.1.3-.6,1.4-4.8,10.5-13.8,21.8-2,2.5-5,7.3-8.5,12.7-6.5,10.1-14.4,22.3-19.3,25.8,0,0,3.9-4,3-4.7s-1.4-1.1-1.4-1.1c-.3-.1,10-2.7,3.4-3.9-9.4-1.7-34-6.3-40.6-8.7h0a24.43,24.43,0,0,1-2.4-1h-.1c-8.9-4.1-9-9.8-4.9-13.9,0,0,1.9-7.5,17.3-3.2l21.8,6.2c1.4.4,3.2.9,4.6,1.2,2.1.5,1.2,1,4.2,1l1.7-1.4c.8-2.1-1.1-3.5-3.9-4.2l-15.4-4.4" transform="translate(-48.1)" fill="#fff"/>
          </g>
          <g clip-path="url(#clip-path)">
            <path d="M1175.7,1600.5s3.1-1.7,3.3-3.3a4.88,4.88,0,0,0-3.7-6.6h0a1.88,1.88,0,0,1-.8-.2,11.63,11.63,0,0,1-1.8-.4.37.37,0,0,1-.3-.1,3,3,0,0,0-1-.2l-1.3-.3a12.09,12.09,0,0,1-1.8-.5l-1.2-.3c-.4-.1-.8-.2-1.1-.3q-4.05-1.2-8.4-2.7c-.7-.3-1.4-.5-2.1-.8a.1.1,0,0,1-.1-.1l-2.4-.9c-2.4-1-4.8-2-7.1-3.1l-1.2-.6a74.55,74.55,0,0,1-8.8-5c-.3-.2-.5-.3-.8-.5a5.5,5.5,0,0,1-.9-.7,42,42,0,0,1-3.8-3l-.6-.6-.6-.6-.7-.7a2.65,2.65,0,0,1-.5-.6,20.14,20.14,0,0,1-2.2-2.9c-.1-.2-.3-.5-.4-.7a11.19,11.19,0,0,1-1.4-4.5v-.8a10.87,10.87,0,0,1,.8-3.9,2.89,2.89,0,0,1,1.2-1.5,4.05,4.05,0,0,1,.9-.5c.2-.1.3-.2.5-.2a8,8,0,0,1,1.8-.4,9.15,9.15,0,0,1,1.7-.1h.9a4.48,4.48,0,0,1,1.1.1c.3,0,.5.1.8.1s.5.1.8.1c.8.1,1.7.3,2.5.4.6.1,1.3.3,2,.4.3.1.6.1.9.2a125.32,125.32,0,0,1,12,3.8c1.5.5,2.9,1.1,4.4,1.7,1.3.5,2.6,1.1,3.9,1.6,1,.4,2,.8,3,1.3.4.2.8.3,1.2.5,4.6,2,8.9,4,12.6,5.8a.1.1,0,0,1,.1.1c6.5,3.1,10.9,5.4,10.9,5.4l4.9-12.7s-56.3-15.2-54.2-32.9a3.55,3.55,0,0,1,.2-1c1.8-7.3,12.8-7.1,25.1-4.1,2,.5,4.1,1,6.1,1.6.7.2,1.4.4,2.2.7s1.5.5,2.3.7c.6.2,1.1.3,1.7.5s.9.3,1.3.5c1.6.5,3.2,1.1,4.7,1.7.4.1.8.3,1.2.4a5.64,5.64,0,0,0,1.2.4.1.1,0,0,1,.1.1,4.05,4.05,0,0,1,.9.5h0c.5.3,1,.7,1.5,1a24.26,24.26,0,0,1,2,1.4c4,2.7,8.1,5.6,11.6,8.2,5.4,4,9.4,7.3,9.8,8.6,1,3.9-10.3,36.2-11.2,38.9,0,.1-.1.2-.1.3-.6,1.4-4.8,10.5-13.8,21.8-2,2.5-5,7.3-8.5,12.7-6.5,10.1-14.4,22.3-19.3,25.8,0,0,3.9-4,3-4.7s-1.4-1.1-1.4-1.1c-.3-.1,10-2.7,3.4-3.9-9.4-1.7-34-6.3-40.6-8.7h0a24.43,24.43,0,0,1-2.4-1h-.1c-8.9-4.1-9-9.8-4.9-13.9,0,0,1.9-7.5,17.3-3.2l21.8,6.2c1.4.4,3.2.9,4.6,1.2,2.1.5,1.2,1,4.2,1l1.7-1.4c.8-2.1-1.1-3.5-3.9-4.2l-15.4-4.4" transform="translate(-48.1)" fill="none" stroke="#000" stroke-linecap="round" stroke-linejoin="round" stroke-width="5"/>
          </g>
          <g clip-path="url(#clip-path)">
            <path d="M823.3,1222.2s6.7,29.3,6.1,38.3c-.6,8.8-4.9,11.9-18.4,11" transform="translate(-48.1)" fill="none" stroke="#000" stroke-linecap="round" stroke-miterlimit="10" stroke-width="2"/>
          </g>
          <g clip-path="url(#clip-path)">
            <path d="M846.1,1282.7l2.1-8.9c-2.1,14.6-2.2,9.4-2.2,9.1h0Z" transform="translate(-48.1)"/>
          </g>
          <g clip-path="url(#clip-path)">
            <path d="M846.1,1282.7l2.1-8.9c-2.1,14.6-2.2,9.4-2.2,9.1h0Z" transform="translate(-48.1)" fill="none" stroke="#000" stroke-linecap="round" stroke-miterlimit="10" stroke-width="5"/>
          </g>
          <g clip-path="url(#clip-path)">
            <path d="M888.3,1227.1c-2.1,2.6-10.5,2-17.5.4a37.23,37.23,0,0,0-5.5-4.1c-.2.7-.4,1.4-.7,2.2a41.47,41.47,0,0,0,6.2,1.9c3.2,2.9,5.9,6.3,6.1,9.1.4,7.2-5.8,27.8-17.2,34.2,0,0-4.2,4.7,1.3-10.8l-6.5,4.5s5.5,2.7-2,7.1a30.72,30.72,0,0,1-4.1,2l-.1.3c.1-1,.3-2.1.5-3.4v-.1c.2-1.2.4-2.6.5-4.1,2.5-18.8,4.1-8.6,5.6-26.1s6.6-5.6,4.6-22.1.2-16.5-1-30.7a1.27,1.27,0,0,0-.1-.6h0c-.8-8.3-3.5-12.7-5.4-15.2-1.2-1.6-2.2-2.4-2.2-3.1,0-1.7-3.3-3-3.3-3s-13.7,4-41.1,3.1c0,0-11.8-3.6-22.5-7.4s-6.9-7.1-17.3-4.1-12.3,2.6-12.3,11.2-1.4,7.9.2,22.4,4.1,17,5.2,24.3,7.7,18.2,6.1,26.3c-1.4,7.3.8,27.1-9.9,37.9.8-2,1.4-5.2,1.7-10.2.8-15.8,4.5-8.6-2.9-28.7-6.6-17.9-15.7-27.4-12.7-58.4.7-7.3-9.9-9.5-12-2.4a39.24,39.24,0,0,0-1,4.3c-2.6,15.9-7.3,2.5-1.8,21.4s9.8,26.1,5.5,40c-.8,2.4-1.4,4.5-2,6.3a34,34,0,0,0-1.3-7.4c-3.8-13.4-8.2,4.2-9.9-3.9,0,0,1.3,12.4-5,19.5a13.82,13.82,0,0,1-4.3,3.2.51.51,0,0,1-.7-.6c1.5-5.2,6.6-29.7,4.6-56.2v-.4l-1.3-13.3s.2,5.5.2,12.7c0,12.6-.9,30.7-5.5,34.7a31.25,31.25,0,0,0-5,6h0c-8.6,15.6-8.1,25.8-11,39s11.2,25.9-5.2,34.3c-6.9,3.5-11.8,5.9-15.2,7.4,2.9-2.5,5.6-7.5,5.2-17.1-.8-19.8-7.8,1.8-7.8,1.8a54.82,54.82,0,0,1-6.8.6H661c-4.8.2-10.6-.1-13.7-2.3-4.7-3.3,8.9,1.6,15.5-1.1a3,3,0,0,0,.8-.4,4.63,4.63,0,0,0,2.3-2.8c2.3-7.7,8.5-5.4,1.4-11.2-.1-.1-.1-.1-.2-.1h0c-.7-.6-1.6-1.2-2.6-2-11.2-8.5-11.2,3.9-12.8-13.5s2.2-19.2-4.1-26.5-10.7,3.8-8.3-12.6,7.4-7.5,2.8-21.3-4.6-18.2-2.8-27.3,11.6-7.9,9.5-18.6-4.4-11.1,1-17.7,7.7-4.4,10.1-9.6c1.8-4,9.3-2,14.7-4.6h0l1.2-.6a8.7,8.7,0,0,0,3.2-3.6,15.51,15.51,0,0,0,1.3-2.9h0a3.21,3.21,0,0,0,.3-1.7c-.2-1.2-1.6-1,2.3-10.2,6-14.2,4.6-14.3,18.5-18.8s12.7-3.9,24.9-10.1,13.1.2,19.3-4,6.1-7.9,20.2-8.2,20.6,2.2,27.3,6.9,21.1,12.4,24.4,16.5,17.1,5.7,21,6.5,15,20.2,17,24.5,5.9,12.7,8.7,17.8,5.5,15,5.8,19.4-4.8,11.9-2.4,20.6,1.9,10.7.4,13.8a2.92,2.92,0,0,1-1.9,1.5c-.1,0-.2,0-.2.1-1.3.3-2,.3.3,4.1.1.2.2.3.3.5v.1c3.1,5.5-.4,5.8,8.6,9.6,9.6,3.8,16.9.6,13.2,5.1" transform="translate(-48.1)"/>
          </g>
          <g clip-path="url(#clip-path)">
            <path d="M888.3,1227.1c-2.1,2.6-10.5,2-17.5.4a37.23,37.23,0,0,0-5.5-4.1c-.2.7-.4,1.4-.7,2.2a41.47,41.47,0,0,0,6.2,1.9c3.2,2.9,5.9,6.3,6.1,9.1.4,7.2-5.8,27.8-17.2,34.2,0,0-4.2,4.7,1.3-10.8l-6.5,4.5s5.5,2.7-2,7.1a30.72,30.72,0,0,1-4.1,2l-.1.3c.1-1,.3-2.1.5-3.4v-.1c.2-1.2.4-2.6.5-4.1,2.5-18.8,4.1-8.6,5.6-26.1s6.6-5.6,4.6-22.1.2-16.5-1-30.7a1.27,1.27,0,0,0-.1-.6h0c-.8-8.3-3.5-12.7-5.4-15.2-1.2-1.6-2.2-2.4-2.2-3.1,0-1.7-3.3-3-3.3-3s-13.7,4-41.1,3.1c0,0-11.8-3.6-22.5-7.4s-6.9-7.1-17.3-4.1-12.3,2.6-12.3,11.2-1.4,7.9.2,22.4,4.1,17,5.2,24.3,7.7,18.2,6.1,26.3c-1.4,7.3.8,27.1-9.9,37.9.8-2,1.4-5.2,1.7-10.2.8-15.8,4.5-8.6-2.9-28.7-6.6-17.9-15.7-27.4-12.7-58.4.7-7.3-9.9-9.5-12-2.4a39.24,39.24,0,0,0-1,4.3c-2.6,15.9-7.3,2.5-1.8,21.4s9.8,26.1,5.5,40c-.8,2.4-1.4,4.5-2,6.3a34,34,0,0,0-1.3-7.4c-3.8-13.4-8.2,4.2-9.9-3.9,0,0,1.3,12.4-5,19.5a13.82,13.82,0,0,1-4.3,3.2.51.51,0,0,1-.7-.6c1.5-5.2,6.6-29.7,4.6-56.2v-.4l-1.3-13.3s.2,5.5.2,12.7c0,12.6-.9,30.7-5.5,34.7a31.25,31.25,0,0,0-5,6h0c-8.6,15.6-8.1,25.8-11,39s11.2,25.9-5.2,34.3c-6.9,3.5-11.8,5.9-15.2,7.4,2.9-2.5,5.6-7.5,5.2-17.1-.8-19.8-7.8,1.8-7.8,1.8a54.82,54.82,0,0,1-6.8.6H661c-4.8.2-10.6-.1-13.7-2.3-4.7-3.3,8.9,1.6,15.5-1.1a3,3,0,0,0,.8-.4,4.63,4.63,0,0,0,2.3-2.8c2.3-7.7,8.5-5.4,1.4-11.2-.1-.1-.1-.1-.2-.1h0c-.7-.6-1.6-1.2-2.6-2-11.2-8.5-11.2,3.9-12.8-13.5s2.2-19.2-4.1-26.5-10.7,3.8-8.3-12.6,7.4-7.5,2.8-21.3-4.6-18.2-2.8-27.3,11.6-7.9,9.5-18.6-4.4-11.1,1-17.7,7.7-4.4,10.1-9.6c1.8-4,9.3-2,14.7-4.6h0l1.2-.6a8.7,8.7,0,0,0,3.2-3.6,15.51,15.51,0,0,0,1.3-2.9h0a3.21,3.21,0,0,0,.3-1.7c-.2-1.2-1.6-1,2.3-10.2,6-14.2,4.6-14.3,18.5-18.8s12.7-3.9,24.9-10.1,13.1.2,19.3-4,6.1-7.9,20.2-8.2,20.6,2.2,27.3,6.9,21.1,12.4,24.4,16.5,17.1,5.7,21,6.5,15,20.2,17,24.5,5.9,12.7,8.7,17.8,5.5,15,5.8,19.4-4.8,11.9-2.4,20.6,1.9,10.7.4,13.8a2.92,2.92,0,0,1-1.9,1.5c-.1,0-.2,0-.2.1-1.3.3-2,.3.3,4.1.1.2.2.3.3.5v.1c3.1,5.5-.4,5.8,8.6,9.6C884.7,1225.8,892,1222.6,888.3,1227.1Z" transform="translate(-48.1)" fill="none" stroke="#000" stroke-linecap="round" stroke-miterlimit="10" stroke-width="5"/>
          </g>
          <g clip-path="url(#clip-path)">
            <rect x="574.4" y="1841" width="6.3" height="25.6" fill="#fff"/>
          </g>
          <g clip-path="url(#clip-path)">
            <rect x="574.4" y="1841" width="6.3" height="25.6" fill="none" stroke="#000" stroke-miterlimit="10" stroke-width="3"/>
          </g>
          <g clip-path="url(#clip-path)">
            <path d="M868.2,1852.4l-.1.2h0l-3.8,6H822.9l6.3-9.4c16.7.4,28,1,34,1.7a14.4,14.4,0,0,1,4.8,1.1h0c.1.2.2.3.2.4" transform="translate(-48.1)"/>
          </g>
          <g clip-path="url(#clip-path)">
            <path d="M868.2,1852.4l-.1.2h0l-3.8,6H822.9l6.3-9.4c16.7.4,28,1,34,1.7a14.4,14.4,0,0,1,4.8,1.1h0C868.1,1852.2,868.2,1852.3,868.2,1852.4Z" transform="translate(-48.1)" fill="none" stroke="#000" stroke-miterlimit="10" stroke-width="5"/>
          </g>
          <g clip-path="url(#clip-path)">
            <line x1="646.9" y1="2803.9" x2="646.9" y2="2803.9" fill="none" stroke="#000" stroke-miterlimit="10" stroke-width="3"/>
          </g>
          <g clip-path="url(#clip-path)">
            <rect x="804.1" y="1840.6" width="6.3" height="25.6" fill="#fff"/>
          </g>
          <g clip-path="url(#clip-path)">
            <rect x="804.1" y="1840.6" width="6.3" height="25.6" fill="none" stroke="#000" stroke-miterlimit="10" stroke-width="3"/>
          </g>
          <g clip-path="url(#clip-path)">
            <rect x="635.8" y="1839.6" width="6.3" height="25.6" fill="#fff"/>
          </g>
          <g clip-path="url(#clip-path)">
            <rect x="635.8" y="1839.6" width="6.3" height="25.6" fill="none" stroke="#000" stroke-miterlimit="10" stroke-width="3"/>
          </g>
          <g clip-path="url(#clip-path)">
            <rect x="699.3" y="1838.2" width="6.3" height="25.6" fill="#fff"/>
          </g>
          <g clip-path="url(#clip-path)">
            <rect x="699.3" y="1838.2" width="6.3" height="25.6" fill="none" stroke="#000" stroke-miterlimit="10" stroke-width="3"/>
          </g>
          <g clip-path="url(#clip-path)">
            <rect x="750.8" y="1843" width="34.5" height="21.9" fill="none" stroke="#b2b2b2" stroke-miterlimit="10" stroke-width="3"/>
          </g>
          <g clip-path="url(#clip-path)">
            <rect x="769.5" y="1852.4" width="20.1" height="1.7" fill="none" stroke="#dadada" stroke-miterlimit="10" stroke-width="3"/>
          </g>
          <g clip-path="url(#clip-path)">
            <path d="M581.5,2094.9s-4.8-8.6-8.5-14.5a36,36,0,0,1-4.7-11.2" transform="translate(-48.1)" fill="#fff"/>
          </g>
          <g clip-path="url(#clip-path)">
            <path d="M581.5,2094.9s-4.8-8.6-8.5-14.5a36,36,0,0,1-4.7-11.2" transform="translate(-48.1)" fill="none" stroke="#000" stroke-miterlimit="10" stroke-width="3"/>
          </g>
          <g clip-path="url(#clip-path)">
            <path d="M582.4,2100.7s33.2-31.5,36.5-35c3.1-3.2,8.5-8.2,13.6-16.1s17-29.1,17.7-33.7c.6-4.2.1-15.6.1-15.6" transform="translate(-48.1)" fill="none" stroke="#000" stroke-miterlimit="10"/>
          </g>
          <g clip-path="url(#clip-path)">
            <path d="M714.6,1380.3c1.4,1.2,2.3,1.9,2.3,1.9" transform="translate(-48.1)" fill="none" stroke="#000" stroke-miterlimit="10" stroke-width="5"/>
          </g>
          <g clip-path="url(#clip-path)">
            <path d="M796.1,1348.9a.52.52,0,0,1-.2-.4" transform="translate(-48.1)" fill="none" stroke="#000" stroke-miterlimit="10" stroke-width="5"/>
          </g>
          <g clip-path="url(#clip-path)">
            <path d="M824.5,1389.2c.1-.5.3-.9.4-1.3,0,0,2.2-3.7,5.7-4.7,2.6-.7,1.3,7.1,1.9,11.4.4,2.6,3.4,14,3.6,14.2s2-3.9,3.6-6.3c1-1.5.4-7.6.2-9.4-.4-4.4-.9-7-1.1-9.5-.4-5.3-15-13.5-17.9-17.7-2.6-3.8-7.3-9.1-8.3-10.7a47.52,47.52,0,0,0-5.2-5.6c-4.1-.2-8.1-.6-11.5-1h0c-6-.7-10.2-1.6-10.2-1.6-.2,0-.4-.1-.7-.1l.7,14.5,24.5,17.6,1.8,1.3,1.4,1,9.1,6.5,2,1.4" transform="translate(-48.1)" fill="none" stroke="#000" stroke-miterlimit="10" stroke-width="5"/>
          </g>
          <g clip-path="url(#clip-path)">
            <path d="M783.8,1575.8c.6-1.1,7.9-13.4,8-14,.5-2.1,16.5-53.6,17.3-56.6s3.1-16.4,7.2-24.6,7.2-28.3,8.3-35.8.4-10.9-1.7-15.9-4.3-9.3-4.5-10.9c0,0,.3-2.5.7-5,1.1-6.5,3.4-17.6,5.2-23.8" transform="translate(-48.1)" fill="none" stroke="#000" stroke-miterlimit="10" stroke-width="2"/>
          </g>
          <g clip-path="url(#clip-path)">
            <path d="M791.9,1561.8c.2,1.2.5,2.2,2.4,8.2.8,2.6,3.7,7.5,4.7,14.9,1.8,12.9.8,30.9,4.5,42.8,1.7,5.3,1.6,12.4,2.4,18.3.3,1.9-.1,2.2.2,4.1l.4,3.5c0,.4.6,4.1.5,4.6.1.2.4,4.5.5,4.6,1.2,12.3,2.5,13.6,3.6,23a132.33,132.33,0,0,0,2,14.4v.1l1.1,5" transform="translate(-48.1)" fill="none" stroke="#000" stroke-miterlimit="10" stroke-width="2"/>
          </g>
          <g clip-path="url(#clip-path)">
            <path d="M814.2,1705.3c.1.3.1.6.2.9s.1.3.1.5h0a1.85,1.85,0,0,0,.2.7.37.37,0,0,0,.1.3c0,.1.1.3.1.4.1.5.2,1.1.3,1.7,2.2,11.1,6.1,37.1,9.2,50.2s6.7,23.6,7,44.2c.2,15.3,5.3,28.2,5.8,34.2" transform="translate(-48.1)" fill="none" stroke="#000" stroke-miterlimit="10" stroke-width="2"/>
          </g>
          <g clip-path="url(#clip-path)">
            <path d="M839.7,1402.4l8.8,4s40.5,2.6,49.7,12.3,6.1,21.5,25.1,47.1c18.1,24.4,7.3,74.1,6.2,78.6,5.5,4.4,11.5,9.2,17.3,13.7,0,0,22.3,39.9,30.3,61.1,7.9-.1,20.9-1,28.9-5.8,12-7.2,53.8-37.1,61-49.2,2.8-4.7,5.6-9.7,8.1-14.4,3.8-7.4,6.9-14.4,8.3-19.4,0,0,8.6-8.1,28.5-16.5l-37.1,95.4-13.1,33.7a5.34,5.34,0,0,0,5,7.3h22.4c-.5,1.1-1,2.3-1.6,3.7-6.4,14.9-24.8,40-35.9,53.3s-21,22.5-31.8,33.8c-10.6,11.1-29.6,6-30.1,5.9h0a30.16,30.16,0,0,1-17,2.3c-21-3.2-37.5-30.7-45.8-47.7h0a60.19,60.19,0,0,0-8.5-3.8c-13.2-5.1-40.7-25-41.1-25.3.8,5.5-.5,11.2-4.3,20.5-.6,1.4-1.2,2.8-1.7,4.2h0c-2,7.3-3.6,12.8-3.6,12.8s2.8,20.8,2.8,26.8,6,27.3,3.8,35.8-7.5,34.7-9.3,43.4,3.6,22.8,3.6,22.8H837.1" transform="translate(-48.1)" fill="none" stroke="#000" stroke-miterlimit="10" stroke-width="5"/>
          </g>
          <g clip-path="url(#clip-path)">
            <path d="M796.1,1348.9a.52.52,0,0,1-.2-.4" transform="translate(-48.1)" fill="none" stroke="#000" stroke-miterlimit="10" stroke-width="5"/>
          </g>
          <g clip-path="url(#clip-path)">
            <path d="M503.1,1402.6h0" transform="translate(-48.1)" fill="none" stroke="#000" stroke-miterlimit="10" stroke-width="5"/>
          </g>
          <g clip-path="url(#clip-path)">
            <path d="M813.4,1381.2l-1.3,6.1-27.9,179.8h0" transform="translate(-48.1)" fill="#fff"/>
          </g>
          <g clip-path="url(#clip-path)">
            <path d="M813.4,1381.2l-1.3,6.1-27.9,179.8h0" transform="translate(-48.1)" fill="none" stroke="#000" stroke-miterlimit="10" stroke-width="2"/>
          </g>
          <g clip-path="url(#clip-path)">
            <path d="M714.6,1380.3c-1.8-.5-4.5-1.1-8.2-1.9-10-2.1-30.5,3.6-46.9,8.2a228.52,228.52,0,0,0-22.9,7.9l-4.4-14.5s-.6-1.6-1.4-4.2c-2.4-7.5-7-23.3-5.9-30.9v-.2c1.7-10.3,20-26.2,20-26.2h4.9s1.3,2,3.3,4.7c4,5.6,10.8,14.6,14.2,16.9,5.1,3.5,15.4,14.4,20.2,18.1C691.5,1361.3,708.4,1375.2,714.6,1380.3Z" transform="translate(-48.1)" fill="none" stroke="#000" stroke-miterlimit="10" stroke-width="5"/>
          </g>
          <g clip-path="url(#clip-path)">
            <path d="M659.4,1386.4s13.5,17.8,61.1,17.4a196.54,196.54,0,0,0,20.7-1" transform="translate(-48.1)" fill="none" stroke="#000" stroke-miterlimit="10" stroke-width="2"/>
          </g>
          <g clip-path="url(#clip-path)">
            <path d="M560.4,1464.9c-7.7-18.3-26.2-45.6-31.8-55.4l-.1-.1a2.75,2.75,0,0,1-.3-1.6c3.4-.5,6.4-1,8.8-1.3a12.24,12.24,0,0,0,7.9-4.3c.6-.7,5.2-2.3,6-3.2,17.1-3.1,19.8-6.6,36.5-11.6,17.8-5.4,22.9-10.1,29.2-11.5s14,0,14,0c.8,2.6,1.4,4.2,1.4,4.2l4.4,14.5s10.1-3.9,22.9-7.8" transform="translate(-48.1)" fill="none" stroke="#000" stroke-miterlimit="10" stroke-width="5"/>
          </g>
          <g clip-path="url(#clip-path)">
            <path d="M819.5,1838.7H753.7v-.5h-6.3v.5h-156v8.3c0-3.1,0-6.9-.1-11.1-.3-12.8-2.3-61.5-10.8-88.7s-37.9-56.8-37.9-56.8c11.2-31.3,29.1-86.7,32.8-101.5" transform="translate(-48.1)" fill="none" stroke="#000" stroke-miterlimit="10" stroke-width="5"/>
          </g>
          <g clip-path="url(#clip-path)">
            <path d="M741.8,1402.6c.7,2.8,6.4,14.6,8.3,20.4,4,12.6,9.4,28,9.4,28s8.2,26.4,13.4,44.5c4.6,20.8,8.7,43,11,61.6a44.88,44.88,0,0,1,.4,9.9c0,.9-.9,11.3,0,14.8a3,3,0,0,0,.3,1c.2.4.7,5.7,1.3,12.4,1,11.3,2.2,26.3,2.2,27.2s2.2,18.6,4,33c1.2,9.9,2.3,18.2,2.3,18.2l9.7,58.8.3,1.6L819,1837.9" transform="translate(-48.1)" fill="#fff"/>
          </g>
          <g clip-path="url(#clip-path)">
            <path d="M741.8,1402.6c.7,2.8,6.4,14.6,8.3,20.4,4,12.6,9.4,28,9.4,28s8.2,26.4,13.4,44.5c4.6,20.8,8.7,43,11,61.6a44.88,44.88,0,0,1,.4,9.9c0,.9-.9,11.3,0,14.8a3,3,0,0,0,.3,1c.2.4.7,5.7,1.3,12.4,1,11.3,2.2,26.3,2.2,27.2s2.2,18.6,4,33c1.2,9.9,2.3,18.2,2.3,18.2l9.7,58.8.3,1.6L819,1837.9" transform="translate(-48.1)" fill="none" stroke="#000" stroke-miterlimit="10" stroke-width="2"/>
          </g>
          <g clip-path="url(#clip-path)">
            <path d="M796.2,1600.8a2.7,2.7,0,1,1-2.7-2.7A2.69,2.69,0,0,1,796.2,1600.8Z" transform="translate(-48.1)" fill="none" stroke="#000" stroke-miterlimit="10" stroke-width="5"/>
          </g>
          <g clip-path="url(#clip-path)">
            <path d="M775.5,1533.5a2.7,2.7,0,1,1-2.7-2.7A2.69,2.69,0,0,1,775.5,1533.5Z" transform="translate(-48.1)" fill="none" stroke="#000" stroke-miterlimit="10" stroke-width="5"/>
          </g>
          <g clip-path="url(#clip-path)">
            <path d="M761.6,1482.5a2.7,2.7,0,1,1-2.7-2.7A2.69,2.69,0,0,1,761.6,1482.5Z" transform="translate(-48.1)" fill="none" stroke="#000" stroke-miterlimit="10" stroke-width="5"/>
          </g>
          <g clip-path="url(#clip-path)">
            <path d="M750,1439.8a2.7,2.7,0,1,1-2.7-2.7A2.69,2.69,0,0,1,750,1439.8Z" transform="translate(-48.1)" fill="none" stroke="#000" stroke-miterlimit="10" stroke-width="5"/>
          </g>
          <g clip-path="url(#clip-path)">
            <path d="M798.8,1522.9a5.62,5.62,0,0,1-2.3,3.9c-1.1.7-2,0-1.8-1.4a5.62,5.62,0,0,1,2.3-3.9C798.1,1520.8,798.9,1521.4,798.8,1522.9Z" transform="translate(-48.1)" fill="none" stroke="#000" stroke-miterlimit="10" stroke-width="0.75"/>
          </g>
          <g clip-path="url(#clip-path)">
            <path d="M807.7,1482.4a5.62,5.62,0,0,1-2.3,3.9c-1.1.7-2,0-1.8-1.4a5.62,5.62,0,0,1,2.3-3.9C807,1480.3,807.8,1480.9,807.7,1482.4Z" transform="translate(-48.1)" fill="none" stroke="#000" stroke-miterlimit="10" stroke-width="0.75"/>
          </g>
          <g clip-path="url(#clip-path)">
            <path d="M816.1,1441.3a5.62,5.62,0,0,1-2.3,3.9c-1.1.7-2,0-1.8-1.4a5.62,5.62,0,0,1,2.3-3.9C815.4,1439.1,816.2,1439.8,816.1,1441.3Z" transform="translate(-48.1)" fill="none" stroke="#000" stroke-miterlimit="10" stroke-width="0.75"/>
          </g>
          <g clip-path="url(#clip-path)">
            <path d="M797.9,1665.5a2.69,2.69,0,1,1,3.1,2.2A2.63,2.63,0,0,1,797.9,1665.5Z" transform="translate(-48.1)" fill="none" stroke="#000" stroke-miterlimit="10" stroke-width="5"/>
          </g>
          <g clip-path="url(#clip-path)">
            <path d="M809.8,1723.6a2.71,2.71,0,1,1,2.5-2.9A2.77,2.77,0,0,1,809.8,1723.6Z" transform="translate(-48.1)" fill="none" stroke="#000" stroke-miterlimit="10" stroke-width="5"/>
          </g>
          <g clip-path="url(#clip-path-137)">
            <path d="M819.3,1781.3a2.71,2.71,0,1,1,2.5-2.9A2.77,2.77,0,0,1,819.3,1781.3Z" transform="translate(-48.1)" fill="none" stroke="#000" stroke-miterlimit="10" stroke-width="5"/>
          </g>
        </g>
        <g clip-path="url(#clip-path-138)">
          <polygon id="lightSpectre" points="1713.4 3426.7 0 1713.3 1713.4 0 3426.8 1713.3 1713.4 3426.7" fill="url(#linear-gradient)"/>
        </g>
      </g>
    </g>
  </g>
</svg>