<svg xmlns="http://www.w3.org/2000/svg" viewBox="0 0 584.82 85.11"><defs><style>.cls-1,.cls-2,.cls-3{fill:none;stroke:#1d1d1b;stroke-miterlimit:10;}.cls-1,.cls-2{stroke-width:7px;}.cls-2,.cls-3{stroke-linecap:round;}.cls-3{stroke-width:5px;}</style></defs><g id="Layer_2" data-name="Layer 2"><g id="Layer_1-2" data-name="Layer 1"><path class="cls-1" d="M173.32,31.62,6.56,31.39a3.05,3.05,0,0,0-3.06,3h0A46.37,46.37,0,0,0,49.8,80.87l148.09.2,242.41.34"/><polyline class="cls-2" points="451.36 32.01 215.23 31.68 173.32 31.63"/><line class="cls-3" x1="565.7" y1="43.94" x2="491.35" y2="46.5"/><line class="cls-3" x1="521.89" y1="71.36" x2="445.06" y2="71.65"/><line class="cls-3" x1="215.06" y1="40.49" x2="118.19" y2="40.21"/><line class="cls-3" x1="149.46" y1="64.01" x2="49.48" y2="65.22"/><line class="cls-3" x1="90.45" y1="43.69" x2="26.05" y2="43.58"/><path class="cls-2" d="M451.36,32l27.56,0s29.46-14.58,38.59-24.44a9,9,0,0,1,5.87-2.83l15.39-1.25a7.81,7.81,0,0,1,8.41,8,35.6,35.6,0,0,0,6.19,20.58h0l27.93,0-.07,49.42-140.94-.2"/><line class="cls-2" x1="553.37" y1="32.15" x2="538.15" y2="32.61"/><path class="cls-2" d="M478.92,32.05s-12.19,7.55-15.7,9"/><path class="cls-3" d="M12.17,39.92c.72,1.42,2.87,24.37,27.54,31.8"/><line class="cls-3" x1="175.18" y1="53.22" x2="293.29" y2="53.44"/><line class="cls-3" x1="440.97" y1="46.93" x2="345.18" y2="47.25"/><line class="cls-3" x1="268.55" y1="69.9" x2="394.61" y2="69.75"/></g></g></svg>