<?xml version="1.0" encoding="utf-8"?>
<!-- Generator: Adobe Illustrator 23.1.1, SVG Export Plug-In . SVG Version: 6.00 Build 0)  -->
<svg version="1.1" id="Capa_1" xmlns="http://www.w3.org/2000/svg" xmlns:xlink="http://www.w3.org/1999/xlink" x="0px" y="0px"
	 viewBox="0 0 512 512" style="enable-background:new 0 0 512 512;" xml:space="preserve">
<style type="text/css">
	.st0{fill:#FFFFFF;stroke:#000000;stroke-width:8;stroke-miterlimit:10;}
	.st1{fill:#F2F2F2;}
	.st2{fill:#FFFFFF;stroke:#1D1D1B;stroke-width:8;stroke-miterlimit:10;}
	.st3{opacity:0.2;fill:#FFFFFF;enable-background:new    ;}
	.st4{display:none;opacity:0.2;fill:#FFFFFF;enable-background:new    ;}
	.st5{display:none;fill:#FFFFFF;stroke:#000000;stroke-width:3;stroke-miterlimit:10;}
</style>
<path class="st0" d="M425.5,470.3c-0.1,11.8-9.7,21.3-21.5,21.2l-298.7-1.7c-11.8-0.1-21.3-9.7-21.2-21.5l2.4-426.7
	C86.6,30,96.2,20.4,108,20.5l298.7,1.7c11.8,0.1,21.3,9.7,21.2,21.5L425.5,470.3z"/>
<path class="st0" d="M320.1,244l0.6-104.9c0-5.9-4.7-10.7-10.6-10.7l-106.7-0.6c-5.9,0-10.7,4.7-10.7,10.6l-1.2,213.3
	c0,5.9,4.7,10.7,10.6,10.7l96,0.5c3.4,0,6.5-1.5,8.6-4.2l32.2-42.5c2.1-2.8,2.7-6.4,1.6-9.8L320.1,244z"/>
<polygon class="st0" points="315.6,299 241,298.6 219.9,255.8 301.6,256.3 "/>
<polygon class="st1" points="213,319.8 213.1,290.3 221.9,308 "/>
<polygon class="st2" points="214.6,290.3 214.3,326.9 224.8,312.8 "/>
<g>
	
		<rect x="213.7" y="149.3" transform="matrix(5.555383e-03 -1 1 5.555383e-03 62.9334 447.2849)" class="st0" width="85.3" height="85.3"/>
	<polygon class="st0" points="292.9,341.5 223.5,341.2 239.6,319.9 309,320.3 	"/>
</g>
<polygon class="st3" points="292.9,341.5 223.5,341.2 239.6,319.9 309,320.3 "/>
<circle class="st0" cx="257.1" cy="64" r="21.3"/>
<circle class="st0" cx="254.9" cy="448" r="21.3"/>
</svg>
