<?xml version="1.0" encoding="utf-8"?>
<!-- Generator: Adobe Illustrator 23.1.1, SVG Export Plug-In . SVG Version: 6.00 Build 0)  -->
<svg version="1.1" id="Capa_1" xmlns="http://www.w3.org/2000/svg" xmlns:xlink="http://www.w3.org/1999/xlink" x="0px" y="0px"
	 viewBox="0 0 512 512" style="enable-background:new 0 0 512 512;" xml:space="preserve">
<style type="text/css">
	.st0{fill:#FFFFFF;stroke:#000000;stroke-width:8;stroke-miterlimit:10;}
	.st1{fill:#F2F2F2;}
	.st2{fill:#FFFFFF;stroke:#1D1D1B;stroke-width:8;stroke-miterlimit:10;}
	.st3{opacity:0.2;fill:#FFFFFF;enable-background:new    ;}
	.st4{display:none;opacity:0.2;fill:#FFFFFF;enable-background:new    ;}
	.st5{display:none;fill:#FFFFFF;stroke:#000000;stroke-width:3;stroke-miterlimit:10;}
</style>
<polygon class="st4" points="285.3,337.7 216,337.7 232,316.3 301.3,316.3 "/>
<circle class="st5" cx="248" cy="60.3" r="21.3"/>
<circle class="st5" cx="248" cy="444.3" r="21.3"/>
<path class="st0" d="M426.7,469.3c0,11.8-9.6,21.3-21.3,21.3H106.7c-11.8,0-21.3-9.6-21.3-21.3V42.7c0-11.8,9.6-21.3,21.3-21.3
	h298.7c11.8,0,21.3,9.6,21.3,21.3V469.3z"/>
<path class="st0" d="M340.8,184.7c1.1-3.3,0.5-7-1.6-9.8l-32-42.7c-2-2.7-5.2-4.3-8.5-4.3h-96c-5.9,0-10.7,4.8-10.7,10.7V352
	c0,5.9,4.8,10.7,10.7,10.7h106.7c5.9,0,10.7-4.8,10.7-10.7V247.1L340.8,184.7z"/>
<polygon class="st0" points="301.6,234.7 219.9,234.7 241.3,192 315.9,192 "/>
<polygon class="st1" points="213.3,320 213.3,290.5 222.2,308.2 "/>
<polygon class="st2" points="214.7,200.2 214.7,163.6 225.1,177.7 "/>
<g>
	<rect x="213.3" y="256" class="st0" width="85.3" height="85.3"/>
	<polygon class="st0" points="309.3,170.7 240,170.7 224,149.3 293.3,149.3 	"/>
</g>
<polygon class="st3" points="293.3,341.3 224,341.3 240,320 309.3,320 "/>
<circle class="st0" cx="256" cy="64" r="21.3"/>
<circle class="st0" cx="256" cy="448" r="21.3"/>
</svg>
