<svg xmlns="http://www.w3.org/2000/svg" viewBox="0 0 263.61 477.94"><defs><style>.cls-1,.cls-2,.cls-3,.cls-4{fill:#fff;}.cls-1,.cls-2,.cls-3,.cls-4,.cls-5{stroke:#1d1d1b;stroke-miterlimit:10;}.cls-1,.cls-3,.cls-5{stroke-width:8px;}.cls-2,.cls-3,.cls-5{stroke-linecap:round;}.cls-2,.cls-4{stroke-width:5px;}.cls-5{fill:none;}</style></defs><g id="Layer_2" data-name="Layer 2"><g id="Layer_1-2" data-name="Layer 1"><path class="cls-1" d="M174.65,4c0,16.48-7.58,31.57-20.14,43.23C138.86,61.76,115.47,71,89.33,71,62.82,71,39.14,61.5,23.49,46.61,11.31,35,4,20.19,4,4Z"/><path class="cls-1" d="M193.26,202.14l46.17,35.35c-11.14,0-20.18,20.16-20.18,45,0,.37,0,.74,0,1.1,0,1.1,0,2.2.08,3.29.07,1.58.18,3.12.31,4.65,1.86,20.88,10,38,19.55,36l-50.33,10.59a17.9,17.9,0,0,0-14.22,17.52v33a85.32,85.32,0,0,1-86,85.32,82.16,82.16,0,0,1-9.34-.59C36.74,468.31,4,431.43,4,387.54V4c0,.57,0,1.15,0,1.72s0,.87.06,1.3,0,.65.07,1,0,.64.07,1c0,.17,0,.34,0,.5s.07.62.11.92.06.57.11.85c.13,1,.3,2,.49,3,.11.55.22,1.09.34,1.63.16.71.34,1.42.54,2.12.1.39.2.77.32,1.15.15.54.32,1.08.5,1.61s.3.9.46,1.34c0,.16.11.32.17.47.13.36.26.72.41,1.07q.93,2.41,2.1,4.76.28.59.6,1.17c.13.25.26.51.41.76.22.42.46.84.7,1.26s.46.79.7,1.18c.35.59.72,1.18,1.11,1.76s.62,1,1,1.42q1,1.5,2.16,2.94c.3.39.61.78.94,1.17s.55.69.85,1,.47.56.72.83c.64.74,1.3,1.47,2,2.18.24.26.49.52.75.77s.43.45.65.66c.37.38.75.74,1.13,1.1q1.64,1.56,3.39,3c.35.3.71.6,1.07.88a3.37,3.37,0,0,0,.35.29c.46.38.94.75,1.43,1.12s1.08.82,1.63,1.22a.18.18,0,0,0,.07.05c.48.35,1,.7,1.46,1,.3.22.61.43.92.63s.83.56,1.25.83c1.12.73,2.26,1.43,3.43,2.11l1.81,1,.19.1c.58.33,1.18.64,1.78,1s1.09.56,1.64.84l1.37.66,1.5.69.3.14c.5.23,1,.45,1.52.66a93.75,93.75,0,0,0,10.68,3.84l1.28.37.8.22c.52.15,1,.29,1.58.42l.4.1q1.05.27,2.13.51l1.72.38.82.17c1.19.24,2.39.46,3.61.66.86.15,1.73.28,2.61.4l1.53.2,1,.13c.27,0,.55.07.83.09.47.06,1,.1,1.42.14s.66.07,1,.09.79.07,1.19.09.82.07,1.23.09l.82,0c.5,0,1,.06,1.51.07.68,0,1.36.06,2,.07s1.65,0,2.48,0,1.63,0,2.44,0c1.41,0,2.81-.09,4.19-.18.54,0,1.08-.06,1.61-.11s1.18-.08,1.77-.14,1-.09,1.51-.15l.9-.1c.5,0,1-.11,1.48-.18l1.49-.2,1.73-.26q4.78-.77,9.35-1.94.67-.17,1.35-.36a4.1,4.1,0,0,0,.5-.14c.5-.13,1-.27,1.49-.42s1.16-.34,1.74-.53,1-.32,1.56-.5a1.76,1.76,0,0,0,.3-.1c.49-.16,1-.32,1.46-.5l.73-.26c.47-.16.93-.33,1.38-.5l0,0c.61-.22,1.21-.46,1.81-.7q2.76-1.11,5.4-2.37l1.21-.59q2.11-1,4.14-2.19c.48-.26,1-.54,1.44-.82l0,0,1.59-1,0,0q.78-.48,1.56-1,2.37-1.53,4.6-3.2c.49-.37,1-.74,1.46-1.12.3-.23.59-.47.88-.71s.63-.51.94-.77.84-.7,1.25-1.06.63-.55.94-.84l.84-.76A70.44,70.44,0,0,0,160,41.52c.35-.4.68-.8,1-1.2l.73-.9c.12-.14.23-.29.34-.43.29-.37.58-.74.85-1.12s.53-.7.78-1.06.69-1,1-1.46.58-.85.85-1.28.55-.87.81-1.3.48-.8.71-1.2.57-1,.83-1.49c.74-1.37,1.42-2.77,2-4.18q.18-.37.33-.75c.17-.41.34-.82.5-1.23s.35-.9.51-1.35c.05-.12.1-.25.14-.37.18-.48.34-1,.5-1.46s.24-.72.35-1.09a52.61,52.61,0,0,0,1.3-5.16c0-.23.09-.46.13-.69.08-.42.16-.84.22-1.27s.16-1,.22-1.51c0-.14,0-.28.06-.42q.07-.54.12-1.08c0-.45.09-.91.12-1.37s.06-.66.07-1c0-.48.06-1,.07-1.43s0-1.15,0-1.73V165.22A45.94,45.94,0,0,0,193.26,202.14Z"/><path class="cls-1" d="M239.43,237.49c.65,0,.31.16,0,0Z"/><path class="cls-1" d="M259.61,282.52c0,24.87-9,45-20.18,45h-.23c-9.65-.24-17.68-15.62-19.55-36-.13-1.53-.24-3.07-.31-4.65,0-1.08-.07-2.18-.08-3.29,0-.36,0-.73,0-1.1,0-24.87,9-45,20.18-45h.25a10.29,10.29,0,0,1,1.66.19C251.59,239.84,259.61,259.09,259.61,282.52Z"/><line class="cls-2" x1="154.51" y1="47.23" x2="154.51" y2="161.46"/><line class="cls-2" x1="135.45" y1="147.63" x2="135.45" y2="376.69"/><line class="cls-2" x1="89.33" y1="166.08" x2="89.33" y2="267.54"/><line class="cls-2" x1="110.08" y1="327.55" x2="110.08" y2="413.59"/><line class="cls-2" x1="43.21" y1="129.95" x2="43.21" y2="262.16"/><line class="cls-2" x1="64.73" y1="347.25" x2="64.73" y2="408.98"/><line class="cls-2" x1="79.34" y1="306.74" x2="79.34" y2="473.65"/><line class="cls-2" x1="23.49" y1="46.61" x2="23.49" y2="126"/><line class="cls-2" x1="89.33" y1="70.99" x2="89.33" y2="126"/><line class="cls-2" x1="60.77" y1="114.57" x2="60.77" y2="203.74"/><line class="cls-2" x1="23.49" y1="250.48" x2="23.49" y2="382.84"/><path class="cls-3" d="M174.65,165.22s-1.94,39.34,14.2,52.15"/><path class="cls-2" d="M209.25,275.23S162,251.78,154.51,224.5"/><path class="cls-2" d="M181.88,320.58S157,327.46,157.74,356.5"/><path class="cls-4" d="M149.67,5.28c0,26.16-27,47.37-60.33,47.37S29,31.44,29,5.28Z"/><path class="cls-4" d="M240.79,308.32h-.12c-5.77-.16-10.44-11.2-10.44-24.79s4.73-24.8,10.56-24.8a4.79,4.79,0,0,1,1,.11c5.36,1.19,9.56,11.79,9.56,24.69C251.35,297.22,246.62,308.32,240.79,308.32Z"/><path class="cls-4" d="M117.88,4c0,12.38-12.78,22.42-28.55,22.42S60.77,16.38,60.77,4Z"/><path class="cls-5" d="M259.61,282.52c0,24.87-9,45-20.18,45h-.23l-50.33,10.59a17.9,17.9,0,0,0-14.22,17.52v33a85.32,85.32,0,0,1-86,85.32,82.16,82.16,0,0,1-9.34-.59C36.74,468.31,4,431.43,4,387.54V4H174.65V165.22a45.94,45.94,0,0,0,18.61,36.92l46.17,35.35h.25a10.29,10.29,0,0,1,1.66.19C251.59,239.84,259.61,259.09,259.61,282.52Z"/></g></g></svg>