<svg xmlns="http://www.w3.org/2000/svg" viewBox="0 0 263.61 477.94"><defs><style>.cls-1,.cls-2,.cls-4,.cls-5,.cls-6{fill:#fff;}.cls-2,.cls-3,.cls-4,.cls-5,.cls-6{stroke:#1d1d1b;stroke-miterlimit:10;}.cls-2,.cls-4{stroke-width:8px;}.cls-3{fill:none;}.cls-3,.cls-4,.cls-5{stroke-linecap:round;}.cls-3,.cls-5,.cls-6{stroke-width:5px;}</style></defs><g id="Layer_2" data-name="Layer 2"><g id="Layer_1-2" data-name="Layer 1"><path class="cls-1" d="M259.61,282.52c0,24.87-9,45-20.18,45h-.23l-50.33,10.59a17.9,17.9,0,0,0-14.22,17.52v33a85.32,85.32,0,0,1-86,85.32,82.16,82.16,0,0,1-9.34-.59C36.74,468.31,4,431.43,4,387.54V4H174.65V165.22L181,188.49a45.87,45.87,0,0,0,12.27,13.65l46.17,35.35h.25a9.28,9.28,0,0,1,1.66.19C251.59,239.84,259.61,259.09,259.61,282.52Z"/><path class="cls-2" d="M174.65,4c0,.58,0,1.15,0,1.73s0,.95-.07,1.43c0,.33,0,.66-.07,1s-.06.84-.11,1.25c0,0,0,.08,0,.12q0,.54-.12,1.08c0,.14,0,.28-.06.42s-.05.39-.08.59-.09.62-.14.92-.14.85-.22,1.27c0,.23-.08.46-.13.69a52.61,52.61,0,0,1-1.3,5.16c0,.1-.06.2-.1.3-.08.27-.16.53-.25.79-.16.49-.32,1-.5,1.46,0,.12-.09.25-.14.37-.14.39-.28.78-.44,1.17l-.07.18c-.1.26-.21.53-.32.79s-.26.63-.41.95a1.22,1.22,0,0,1-.1.24c-.15.35-.31.7-.48,1.06l-.3.64c-.16.35-.33.7-.51,1s-.49,1-.75,1.44l-.18.34-.44.79-.21.36c-.23.4-.46.8-.71,1.2s-.53.87-.81,1.3-.41.65-.63,1-.34.52-.53.78-.46.67-.7,1-.51.71-.78,1.06l-.42.56c-.14.19-.28.38-.43.56s-.22.29-.34.43l-.73.9c-.33.4-.66.8-1,1.2-.53.61-1.07,1.22-1.62,1.81-.34.37-.69.74-1,1.1s-.71.73-1.08,1.09c-.57.58-1.17,1.15-1.77,1.71l-.84.76c-.31.29-.62.57-.94.84s-.83.71-1.25,1.06-.62.52-.94.77-.58.48-.88.71c-.48.38-1,.75-1.46,1.12l-.41.29c-.56.42-1.12.83-1.69,1.22l-.37.26c-.58.41-1.17.81-1.77,1.19l-.36.24-.73.47-.88.55-.83.5-1.52.9-.72.4q-1,.56-2,1.08c-.54.29-1.08.57-1.63.84s-.87.44-1.32.65l-.42.21-.41.19c-.7.33-1.4.66-2.12,1l-.27.11c-.69.31-1.38.6-2.09.89l-.51.21-.26.1c-.47.19-.94.38-1.42.55l-.13,0,0,0-.35.13c-.34.13-.69.26-1,.38l-.73.26c-.48.18-1,.34-1.46.5h0l-.25.08h0c-.52.18-1,.35-1.56.5l-.22.07c-.38.13-.76.24-1.14.35l-.38.11c-.49.15-1,.29-1.49.42a4.1,4.1,0,0,1-.5.14q-.68.19-1.35.36l-.1,0-2.19.54c-.77.18-1.55.35-2.33.51s-1.34.27-2,.39c-.9.18-1.81.33-2.72.48l-1.38.21-.35.05-1.49.2c-.49.07-1,.13-1.48.18l-.86.1h0c-.5.06-1,.11-1.51.15l-.35,0c-.38,0-.76.07-1.15.09l-.27,0c-.53,0-1.07.09-1.61.11s-1.39.08-2.08.11-1.41.06-2.11.07-1.62,0-2.44,0-1.66,0-2.48,0c-.61,0-1.21,0-1.82-.06h-.22c-.26,0-.51,0-.76,0l-.75,0-.82,0q-.62,0-1.23-.09c-.4,0-.8-.05-1.19-.09s-.67,0-1-.09l-.19,0c-.39,0-.77-.06-1.15-.11h-.08c-.28,0-.56,0-.83-.09l-1-.13-1.53-.2c-.88-.12-1.75-.25-2.61-.4l-1.56-.27c-.69-.12-1.37-.25-2-.39l-.82-.17-1.72-.38q-1.08-.24-2.13-.51l-.4-.1c-.53-.13-1.06-.27-1.58-.42l-.8-.22-1.28-.37-.11,0c-.87-.26-1.72-.52-2.57-.8s-1.5-.5-2.24-.76l-1.53-.56-1-.37-1-.39c-.76-.3-1.51-.61-2.26-.93-.41-.17-.81-.34-1.21-.53l-.31-.13-.3-.14c-.45-.2-.91-.41-1.36-.63l-.14-.06-1.37-.66c-.55-.28-1.1-.55-1.64-.84s-1.19-.62-1.78-1l-.19-.1-1.81-1-1.73-1c-.46-.28-.91-.56-1.35-.85l-.35-.22c-.42-.27-.84-.54-1.25-.83s-.62-.41-.92-.63l-.73-.51-.73-.52a.18.18,0,0,1-.07-.05c-.55-.4-1.09-.8-1.63-1.22s-1-.74-1.43-1.12a3.37,3.37,0,0,1-.35-.29l-.17-.14c-.3-.24-.6-.48-.9-.74l-.05,0-1-.83L25,48c-.5-.45-1-.91-1.49-1.38s-.76-.72-1.13-1.1c-.22-.21-.44-.43-.65-.66s-.51-.51-.75-.77c-.69-.71-1.35-1.44-2-2.18-.25-.27-.49-.55-.72-.83s-.58-.69-.85-1c-.17-.19-.33-.39-.48-.59s-.31-.38-.46-.58c-.37-.48-.74-1-1.1-1.46l0-.06c-.34-.47-.68-.94-1-1.42s-.65-.94-1-1.42-.76-1.17-1.11-1.76c-.24-.39-.47-.78-.7-1.18s-.48-.84-.7-1.26c-.15-.25-.28-.51-.41-.76s-.41-.78-.6-1.17c-.39-.78-.76-1.57-1.11-2.36-.17-.4-.35-.8-.51-1.2l-.48-1.2c-.15-.35-.28-.71-.41-1.07-.06-.15-.12-.31-.17-.47-.16-.44-.32-.89-.46-1.34s-.35-1.07-.5-1.61c-.12-.38-.22-.76-.32-1.15s-.2-.7-.28-1.06-.18-.71-.26-1.06c-.12-.54-.23-1.08-.34-1.63s-.16-.85-.23-1.28-.1-.58-.14-.87l-.12-.85c0-.28-.08-.56-.11-.85s0-.41-.07-.62-.06-.53-.09-.8-.06-.64-.07-1-.06-.65-.07-1S4,6.15,4,5.72,4,4.57,4,4Z"/><path class="cls-2" d="M239.2,327.55l-50.33,10.59a17.9,17.9,0,0,0-14.22,17.52v33a85.32,85.32,0,0,1-86,85.32,82.16,82.16,0,0,1-9.34-.59C36.74,468.31,4,431.43,4,387.54V4c0,.57,0,1.15,0,1.72s0,.87.06,1.3,0,.65.07,1,0,.64.07,1c0,.17,0,.34,0,.5s0,.2,0,.3,0,.42.07.62.06.57.11.85l.12.85c0,.29.09.58.14.87s.15.85.23,1.28.22,1.09.34,1.63c.08.35.16.71.26,1.06s.18.71.28,1.06.2.77.32,1.15c.15.54.32,1.08.5,1.61s.3.9.46,1.34c0,.16.11.32.17.47.13.36.26.72.41,1.07l.48,1.2c.16.4.34.8.51,1.2.35.79.72,1.58,1.11,2.36q.28.59.6,1.17c.13.25.26.51.41.76.22.42.46.84.7,1.26s.46.79.7,1.18c.35.59.72,1.18,1.11,1.76s.62,1,1,1.42.67,1,1,1.42l0,.06c.36.5.73,1,1.1,1.46.15.2.3.39.46.58s.31.4.48.59c.27.34.55.69.85,1s.47.56.72.83c.64.74,1.3,1.47,2,2.18.24.26.49.52.75.77s.43.45.65.66c.37.38.75.74,1.13,1.1s1,.93,1.49,1.38l.88.78,1,.83.05,0c.29.25.6.51.9.74l.17.14a3.37,3.37,0,0,0,.35.29c.46.38.94.75,1.43,1.12s1.08.82,1.63,1.22a.18.18,0,0,0,.07.05l.73.52q.81.59,1.65,1.14c.41.29.83.56,1.25.83l.35.22c.44.29.89.57,1.35.85l1.73,1,1.81,1,.19.1c.58.33,1.18.64,1.78,1s1.09.56,1.64.84l1.37.66.14.06c.45.22.91.43,1.36.63l.3.14.31.13c.4.19.8.36,1.21.53.75.32,1.5.63,2.26.93.32.14.65.26,1,.39l1,.37c.51.2,1,.38,1.53.56.74.26,1.48.52,2.24.76s1.7.54,2.57.8l.11,0,1.28.37.8.22c.52.15,1,.29,1.58.42l.4.1q1.05.27,2.13.51l1.72.38.82.17c.68.14,1.36.27,2,.39l1.56.27c.86.15,1.73.28,2.61.4l1.53.2,1,.13c.27,0,.55.07.83.09h.08c.38,0,.77.08,1.15.11l.19,0c.33,0,.66.07,1,.09s.79.07,1.19.09.82.07,1.23.09l.82,0,.75,0c.25,0,.5,0,.76,0H85c.61,0,1.21,0,1.82.06.82,0,1.65,0,2.48,0s1.63,0,2.44,0,1.41,0,2.11-.07,1.39-.06,2.08-.11,1.08-.06,1.61-.11l.27,0c.39,0,.77-.05,1.15-.09l.35,0c.51,0,1-.09,1.51-.15h0l.86-.1c.5,0,1-.11,1.48-.18l1.49-.2.35-.05,1.38-.21c.91-.15,1.82-.3,2.72-.48q1-.18,2-.39c.78-.16,1.56-.33,2.33-.51s1.46-.35,2.19-.54l.1,0q.67-.17,1.35-.36a4.1,4.1,0,0,0,.5-.14c.5-.13,1-.27,1.49-.42l.38-.11,1.14-.35.22-.07c.52-.15,1-.32,1.56-.5h0l.25-.08h0c.49-.16,1-.32,1.46-.5l.73-.26c.36-.12.71-.25,1-.38l.33-.12h0l0,0,.13,0c.48-.17,1-.36,1.42-.55l.26-.1.51-.21c.71-.29,1.4-.58,2.09-.89l.27-.11c.72-.31,1.42-.64,2.12-1l.41-.19.42-.21.79-.38.53-.27c.55-.27,1.09-.55,1.63-.84s1.33-.71,2-1.08l.72-.4.72-.42,0,0,.76-.46.83-.5,0,0,.83-.52.73-.47.36-.24c.6-.38,1.19-.78,1.77-1.19l.37-.26c.57-.39,1.13-.8,1.69-1.22l.41-.29c.49-.37,1-.74,1.46-1.12.3-.23.59-.47.88-.71s.63-.51.94-.77.84-.7,1.25-1.06.63-.55.94-.84l.84-.76c.6-.56,1.2-1.13,1.77-1.71.37-.36.73-.72,1.08-1.09s.7-.73,1-1.1c.55-.59,1.09-1.2,1.62-1.81.35-.4.68-.8,1-1.2l.73-.9c.12-.14.23-.29.34-.43s.29-.37.43-.56q.61-.8,1.2-1.62c.24-.33.47-.66.7-1,.11-.15.21-.31.31-.46L165,35q.33-.48.63-1c.28-.43.55-.87.81-1.3s.48-.8.71-1.2l.21-.36.44-.79.18-.34q.39-.72.75-1.44c.18-.35.35-.7.51-1l.3-.64c.17-.36.33-.71.48-1.06a1.22,1.22,0,0,0,.1-.24c.09-.17.16-.34.23-.51l.18-.44c.11-.26.22-.53.32-.79l.07-.18c.16-.39.3-.78.44-1.17.05-.12.1-.25.14-.37.18-.48.34-1,.5-1.46.09-.26.17-.52.25-.79,0-.1.07-.2.1-.3a52.61,52.61,0,0,0,1.3-5.16c0-.23.09-.46.13-.69.08-.42.16-.84.22-1.27s.1-.61.14-.92.06-.39.08-.59,0-.28.06-.42q.07-.54.12-1.08s0-.08,0-.12c0-.41.08-.83.11-1.25s.06-.66.07-1c0-.48.06-1,.07-1.43s0-1.15,0-1.73V165.22a46,46,0,0,0,18.61,36.92l46.17,35.35c-11.14,0-20.18,20.16-20.18,45,0,.37,0,.74,0,1.1,0,1.11,0,2.21.08,3.29.07,1.58.18,3.12.31,4.65.06.64.12,1.27.19,1.9C222,313.47,229.91,329.51,239.2,327.55Z"/><path class="cls-2" d="M239.43,237.49h.17C240,237.52,239.71,237.63,239.43,237.49Z"/><path class="cls-2" d="M259.61,282.52c0,24.87-9,45-20.18,45h-.23c-9.35-.23-17.18-14.67-19.36-34.09-.07-.63-.13-1.26-.19-1.9-.13-1.53-.24-3.07-.31-4.65,0-1.08-.07-2.18-.08-3.29,0-.36,0-.73,0-1.1,0-24.87,9-45,20.18-45h.25a9.28,9.28,0,0,1,1.66.19C251.59,239.84,259.61,259.09,259.61,282.52Z"/><line class="cls-3" x1="154.51" y1="47.23" x2="154.51" y2="161.46"/><line class="cls-3" x1="135.45" y1="147.62" x2="135.45" y2="376.69"/><line class="cls-3" x1="89.33" y1="166.07" x2="89.33" y2="267.54"/><line class="cls-3" x1="110.09" y1="327.55" x2="110.09" y2="413.59"/><line class="cls-3" x1="43.21" y1="129.94" x2="43.21" y2="262.16"/><line class="cls-3" x1="64.73" y1="347.24" x2="64.73" y2="408.98"/><line class="cls-3" x1="79.34" y1="306.74" x2="79.34" y2="473.65"/><line class="cls-3" x1="23.49" y1="46.61" x2="23.49" y2="125.99"/><line class="cls-3" x1="89.33" y1="70.99" x2="89.33" y2="125.99"/><line class="cls-3" x1="60.77" y1="114.57" x2="60.77" y2="203.74"/><line class="cls-3" x1="23.49" y1="250.48" x2="23.49" y2="382.84"/><path class="cls-4" d="M174.65,165.22s-1.94,39.33,14.2,52.15"/><path class="cls-5" d="M209.25,275.23S162,251.78,154.51,224.49"/><path class="cls-5" d="M181.88,320.58s-24.9,6.87-24.14,35.91"/><path class="cls-6" d="M149.66,4c0,26.16-27,47.37-60.33,47.37S29,30.16,29,4Z"/><path class="cls-6" d="M240.79,308.31h-.12c-5.77-.15-10.44-11.19-10.44-24.79s4.73-24.79,10.56-24.79a4.79,4.79,0,0,1,1,.11c5.37,1.19,9.56,11.78,9.56,24.68C251.35,297.22,246.62,308.31,240.79,308.31Z"/><path class="cls-6" d="M117.88,4c0,12.38-12.78,22.42-28.55,22.42S60.77,16.38,60.77,4Z"/></g></g></svg>