<svg xmlns="http://www.w3.org/2000/svg" viewBox="0 0 178.65 472.58"><defs><style>.cls-1,.cls-2{fill:#fff;stroke:#1d1d1b;stroke-miterlimit:10;}.cls-1{stroke-width:8px;}.cls-2{stroke-width:5px;}</style></defs><g id="Layer_2" data-name="Layer 2"><g id="Layer_1-2" data-name="Layer 1"><path class="cls-1" d="M4,71l.29,378.85a18.76,18.76,0,0,0,18.76,18.74H174.61l0-362.48V71"/><path class="cls-1" d="M4,69c0,.67,0,1.34,0,2V69Z"/><path class="cls-1" d="M174.65,71H4c0-.67,0-1.34,0-2,1.35-36.07,39-65,85.29-65s83.93,28.91,85.28,65C174.64,69.65,174.65,70.32,174.65,71Z"/><path class="cls-2" d="M149.66,71H29c0-.46,0-.95,0-1.41.95-25.51,27.6-46,60.33-46s59.35,20.45,60.3,46C149.66,70,149.66,70.53,149.66,71Z"/><path class="cls-2" d="M117.88,71H60.77c0-.22,0-.45,0-.67.45-12.07,13.06-21.75,28.55-21.75s28.09,9.68,28.54,21.75C117.88,70.54,117.88,70.77,117.88,71Z"/></g></g></svg>