<svg xmlns="http://www.w3.org/2000/svg" viewBox="0 0 544.93 263.61"><defs><style>.cls-1,.cls-2,.cls-3,.cls-4{fill:none;stroke:#1d1d1b;stroke-miterlimit:10;}.cls-1,.cls-4{stroke-width:8px;}.cls-2,.cls-3{stroke-width:5px;}.cls-3,.cls-4{stroke-linecap:round;}</style></defs><g id="Layer_2" data-name="Layer 2"><g id="Layer_1-2" data-name="Layer 1"><path class="cls-1" d="M69,259.57c.67,0,1.34,0,2,0H69Z"/><path class="cls-1" d="M69,89h2c-.67,0-1.34,0-2,0Z"/><path class="cls-1" d="M138,174.28c0,47.12-30,85.33-67,85.33-.67,0-1.34,0-2,0-36.07-1.35-65-39-65-85.29S32.91,90.35,69,89c.67,0,1.34,0,2,0C108,89,138,127.16,138,174.28Z"/><path class="cls-1" d="M540.93,174.94c-.36,47-39.35,84.67-86.4,84.67H71c37,0,67-38.21,67-85.33S108,89,71,89H232.21a45.91,45.91,0,0,0,36.91-18.61l35.36-46.17c.16-.31,0-.65,0,0,0,11.14,20.16,20.18,45,20.18,24.7,0,47.33-9,45-19.95l10.59,50.33A17.9,17.9,0,0,0,422.65,89h33A85.32,85.32,0,0,1,540.93,174.94Z"/><path class="cls-1" d="M394.54,24.18v.23c-.28,11-20.33,20-45,20-24.87,0-45-9-45-20.18a9.38,9.38,0,0,1,.2-1.91C306.83,12,326.08,4,349.51,4,374.38,4,394.54,13,394.54,24.18Z"/><path class="cls-2" d="M93.41,174.28c0,15.77-10,28.56-22.42,28.56h-.67c-12.07-.45-21.75-13.06-21.75-28.55s9.68-28.09,21.75-28.54H71C83.37,145.73,93.41,158.51,93.41,174.28Z"/><line class="cls-3" x1="114.22" y1="109.1" x2="228.45" y2="109.1"/><line class="cls-3" x1="214.62" y1="128.16" x2="443.68" y2="128.16"/><line class="cls-3" x1="233.06" y1="174.29" x2="334.53" y2="174.29"/><line class="cls-3" x1="394.54" y1="153.53" x2="480.58" y2="153.53"/><line class="cls-3" x1="196.94" y1="220.4" x2="329.15" y2="220.4"/><line class="cls-3" x1="414.23" y1="198.88" x2="475.97" y2="198.88"/><line class="cls-3" x1="373.73" y1="184.27" x2="540.64" y2="184.27"/><line class="cls-3" x1="113.6" y1="240.12" x2="192.98" y2="240.12"/><line class="cls-3" x1="137.98" y1="174.28" x2="192.98" y2="174.28"/><line class="cls-3" x1="181.56" y1="202.84" x2="270.73" y2="202.84"/><line class="cls-3" x1="317.47" y1="240.12" x2="449.83" y2="240.12"/><path class="cls-4" d="M232.21,89s39.34,1.94,52.15-14.2"/><path class="cls-3" d="M342.22,54.37s-23.45,47.21-50.74,54.73"/><path class="cls-3" d="M387.57,81.74s6.88,24.9,35.91,24.13"/><path class="cls-2" d="M375.31,22.82v.12c-.16,5.77-11.2,10.44-24.8,10.44s-24.79-4.73-24.79-10.56a4.79,4.79,0,0,1,.11-1c1.19-5.36,11.78-9.56,24.68-9.56C364.21,12.26,375.31,17,375.31,22.82Z"/><path class="cls-2" d="M118.36,174.27c0,33.32-21.21,60.34-47.37,60.34-.46,0-.95,0-1.42,0-25.5-1-45.95-27.59-45.95-60.32S44.07,114.92,69.57,114c.47,0,1,0,1.42,0C97.15,114,118.36,141,118.36,174.27Z"/></g></g></svg>